<svg width="1320" height="403" viewBox="0 0 1320 403" fill="none" xmlns="http://www.w3.org/2000/svg">
<g clip-path="url(#clip0_2_79)">
<rect width="1320" height="403" rx="19.6585" fill="black"/>
<mask id="path-3-inside-1_2_79" fill="white">
<path d="M0 300.137H1656.23V403.344H0V300.137Z"/>
</mask>
<path d="M0 300.137H1656.23V403.344H0V300.137Z" fill="#FAFAFA"/>
<g clip-path="url(#clip1_2_79)">
<path d="M45.7805 352.267C45.7805 350.439 46.5065 348.687 47.7986 347.395C49.0908 346.102 50.8434 345.376 52.6708 345.376C54.4982 345.376 56.2507 346.102 57.5429 347.395C58.8351 348.687 59.561 350.439 59.561 352.267C59.561 354.094 58.8351 355.847 57.5429 357.139C56.2507 358.431 54.4982 359.157 52.6708 359.157C50.8434 359.157 49.0908 358.431 47.7986 357.139C46.5065 355.847 45.7805 354.094 45.7805 352.267V352.267Z" fill="#1ABCFE"/>
<path d="M32 366.047C32 364.22 32.7259 362.467 34.0181 361.175C35.3103 359.883 37.0628 359.157 38.8902 359.157H45.7805V366.047C45.7805 367.875 45.0546 369.627 43.7624 370.919C42.4702 372.211 40.7176 372.937 38.8902 372.937C37.0628 372.937 35.3103 372.211 34.0181 370.919C32.7259 369.627 32 367.875 32 366.047V366.047Z" fill="#0ACF83"/>
<path d="M45.7805 331.596V345.376H52.6708C54.4982 345.376 56.2507 344.651 57.5429 343.358C58.8351 342.066 59.561 340.314 59.561 338.486C59.561 336.659 58.8351 334.906 57.5429 333.614C56.2507 332.322 54.4982 331.596 52.6708 331.596H45.7805Z" fill="#FF7262"/>
<path d="M32 338.486C32 340.314 32.7259 342.066 34.0181 343.358C35.3103 344.65 37.0628 345.376 38.8902 345.376H45.7805V331.596H38.8902C37.0628 331.596 35.3103 332.322 34.0181 333.614C32.7259 334.906 32 336.659 32 338.486V338.486Z" fill="#F24E1E"/>
<path d="M32 352.267C32 354.094 32.7259 355.847 34.0181 357.139C35.3103 358.431 37.0628 359.157 38.8902 359.157H45.7805V345.376H38.8902C37.0628 345.376 35.3103 346.102 34.0181 347.395C32.7259 348.687 32 350.439 32 352.267V352.267Z" fill="#A259FF"/>
</g>
<mask id="mask0_2_79" style="mask-type:alpha" maskUnits="userSpaceOnUse" x="138" y="332" width="33" height="41">
<path d="M139.802 369.125L138.562 336.108C138.522 335.018 139.358 334.094 140.447 334.026L168.53 332.271C169.638 332.201 170.593 333.044 170.663 334.152C170.665 334.194 170.666 334.236 170.666 334.278V370.256C170.666 371.366 169.766 372.267 168.655 372.267C168.625 372.267 168.595 372.266 168.565 372.265L141.721 371.059C140.676 371.012 139.841 370.171 139.802 369.125Z" fill="white"/>
</mask>
<g mask="url(#mask0_2_79)">
<path d="M139.802 369.125L138.562 336.108C138.522 335.018 139.358 334.094 140.447 334.026L168.53 332.271C169.638 332.201 170.593 333.044 170.663 334.152C170.665 334.194 170.666 334.236 170.666 334.278V370.256C170.666 371.366 169.766 372.267 168.655 372.267C168.625 372.267 168.595 372.266 168.565 372.265L141.721 371.059C140.676 371.012 139.841 370.171 139.802 369.125Z" fill="#FF4785"/>
<path d="M162.268 337.183L162.46 332.57L166.317 332.267L166.483 337.025C166.489 337.19 166.359 337.329 166.194 337.335C166.123 337.337 166.053 337.315 165.997 337.271L164.51 336.099L162.749 337.435C162.617 337.535 162.429 337.509 162.329 337.377C162.287 337.322 162.265 337.253 162.268 337.183Z" fill="white"/>
<path d="M157.336 347.343C157.336 348.126 162.607 347.751 163.314 347.201C163.314 341.873 160.455 339.073 155.22 339.073C149.985 339.073 147.051 341.916 147.051 346.182C147.051 353.61 157.076 353.752 157.076 357.804C157.076 358.942 156.519 359.617 155.294 359.617C153.697 359.617 153.066 358.801 153.141 356.029C153.141 355.428 147.051 355.24 146.866 356.029C146.393 362.748 150.579 364.685 155.368 364.685C160.01 364.685 163.648 362.211 163.648 357.733C163.648 349.771 153.475 349.985 153.475 346.039C153.475 344.44 154.663 344.227 155.368 344.227C156.111 344.227 157.448 344.358 157.336 347.343Z" fill="white"/>
</g>
<g clip-path="url(#clip2_2_79)">
<path d="M279.678 340.67H295.38V341.866H281.118V350.872H294.529V352.068H281.118V361.955H295.543V363.152H279.678V340.67V340.67ZM296.786 340.67H298.455L305.847 350.557L313.403 340.67L323.681 328.112L306.796 351.596L315.497 363.152H313.763L305.847 352.635L297.899 363.152H296.198L304.964 351.596L296.787 340.67H296.786ZM316.119 341.866V340.67H334.011V341.866H325.768V363.151H324.329V341.866H316.119H316.119ZM260.035 340.67H261.835L286.643 376.263L276.391 363.152L261.54 342.37L261.474 363.152H260.035V340.67V340.67ZM333.867 361.594C333.572 361.594 333.352 361.375 333.352 361.093C333.352 360.811 333.572 360.592 333.866 360.592C334.164 360.592 334.381 360.811 334.381 361.093C334.381 361.375 334.164 361.594 333.866 361.594H333.867ZM335.281 360.276H336.051C336.062 360.676 336.367 360.945 336.814 360.945C337.315 360.945 337.599 360.656 337.599 360.115V356.687H338.383V360.118C338.383 361.093 337.795 361.655 336.821 361.655C335.908 361.655 335.281 361.11 335.281 360.276H335.281ZM339.408 360.233H340.185C340.252 360.693 340.721 360.985 341.397 360.985C342.026 360.985 342.489 360.673 342.489 360.243C342.489 359.873 342.195 359.651 341.526 359.5L340.875 359.349C339.962 359.144 339.544 358.72 339.544 358.008C339.544 357.144 340.279 356.569 341.382 356.569C342.408 356.569 343.158 357.144 343.203 357.961H342.439C342.366 357.514 341.96 357.235 341.372 357.235C340.752 357.235 340.339 357.521 340.339 357.957C340.339 358.304 340.605 358.502 341.264 358.65L341.82 358.781C342.856 359.013 343.283 359.416 343.283 360.145C343.283 361.073 342.534 361.655 341.337 361.655C340.217 361.655 339.464 361.1 339.408 360.233V360.233Z" fill="black"/>
</g>
<path d="M0 301.365H1656.23V298.908H0V301.365Z" fill="black" fill-opacity="0.25" mask="url(#path-3-inside-1_2_79)"/>
<path d="M64.963 171H50.537V130.305H65.0822C69.1755 130.305 72.6992 131.12 75.6533 132.749C78.6074 134.365 80.8793 136.69 82.4689 139.724C84.0718 142.757 84.8733 146.387 84.8733 150.613C84.8733 154.852 84.0718 158.495 82.4689 161.542C80.8793 164.588 78.5942 166.927 75.6136 168.556C72.6462 170.185 69.096 171 64.963 171ZM59.1409 163.628H64.6053C67.1487 163.628 69.2881 163.178 71.0235 162.277C72.7721 161.363 74.0835 159.952 74.9579 158.044C75.8454 156.124 76.2892 153.646 76.2892 150.613C76.2892 147.606 75.8454 145.148 74.9579 143.241C74.0835 141.333 72.7787 139.929 71.0434 139.028C69.308 138.128 67.1686 137.677 64.6252 137.677H59.1409V163.628ZM104.997 171.596C101.858 171.596 99.1552 170.96 96.89 169.689C94.638 168.404 92.9026 166.589 91.6839 164.244C90.4652 161.886 89.8558 159.098 89.8558 155.879C89.8558 152.739 90.4652 149.984 91.6839 147.612C92.9026 145.241 94.6181 143.393 96.8303 142.068C99.0558 140.744 101.666 140.081 104.659 140.081C106.673 140.081 108.547 140.406 110.283 141.055C112.031 141.691 113.555 142.651 114.853 143.936C116.164 145.221 117.184 146.837 117.913 148.785C118.642 150.719 119.006 152.984 119.006 155.58V157.905H93.2338V152.659H111.038C111.038 151.441 110.773 150.361 110.243 149.421C109.713 148.48 108.978 147.745 108.037 147.215C107.11 146.672 106.03 146.4 104.798 146.4C103.513 146.4 102.374 146.698 101.381 147.294C100.4 147.877 99.6321 148.666 99.0757 149.659C98.5193 150.639 98.2345 151.732 98.2213 152.938V157.925C98.2213 159.435 98.4995 160.74 99.0558 161.84C99.6255 162.939 100.427 163.787 101.46 164.383C102.493 164.979 103.719 165.277 105.136 165.277C106.077 165.277 106.938 165.145 107.719 164.88C108.501 164.615 109.17 164.218 109.726 163.688C110.283 163.158 110.707 162.509 110.998 161.74L118.827 162.257C118.43 164.138 117.615 165.781 116.383 167.185C115.164 168.576 113.588 169.662 111.654 170.444C109.733 171.212 107.514 171.596 104.997 171.596ZM149.924 149.182L142.175 149.659C142.042 148.997 141.758 148.401 141.32 147.871C140.883 147.328 140.307 146.897 139.592 146.579C138.89 146.248 138.048 146.082 137.068 146.082C135.757 146.082 134.651 146.361 133.75 146.917C132.849 147.46 132.399 148.189 132.399 149.103C132.399 149.831 132.69 150.447 133.273 150.951C133.856 151.454 134.856 151.858 136.273 152.163L141.797 153.275C144.765 153.885 146.977 154.865 148.434 156.216C149.891 157.568 150.62 159.343 150.62 161.542C150.62 163.542 150.03 165.297 148.851 166.807C147.686 168.317 146.083 169.496 144.043 170.344C142.016 171.179 139.678 171.596 137.028 171.596C132.988 171.596 129.769 170.755 127.371 169.073C124.987 167.377 123.589 165.072 123.179 162.158L131.504 161.72C131.756 162.952 132.365 163.893 133.333 164.542C134.3 165.178 135.538 165.496 137.048 165.496C138.532 165.496 139.724 165.211 140.625 164.641C141.539 164.059 142.003 163.31 142.016 162.396C142.003 161.628 141.678 160.998 141.042 160.508C140.406 160.005 139.426 159.621 138.101 159.356L132.816 158.303C129.835 157.707 127.616 156.673 126.159 155.203C124.715 153.732 123.993 151.858 123.993 149.58C123.993 147.619 124.523 145.93 125.583 144.513C126.656 143.095 128.16 142.002 130.094 141.234C132.041 140.466 134.319 140.081 136.929 140.081C140.784 140.081 143.818 140.896 146.03 142.526C148.255 144.155 149.554 146.374 149.924 149.182ZM169.86 171.596C166.72 171.596 164.018 170.96 161.752 169.689C159.5 168.404 157.765 166.589 156.546 164.244C155.328 161.886 154.718 159.098 154.718 155.879C154.718 152.739 155.328 149.984 156.546 147.612C157.765 145.241 159.481 143.393 161.693 142.068C163.918 140.744 166.528 140.081 169.522 140.081C171.535 140.081 173.41 140.406 175.145 141.055C176.894 141.691 178.417 142.651 179.715 143.936C181.027 145.221 182.047 146.837 182.775 148.785C183.504 150.719 183.868 152.984 183.868 155.58V157.905H158.096V152.659H175.9C175.9 151.441 175.635 150.361 175.105 149.421C174.575 148.48 173.84 147.745 172.9 147.215C171.972 146.672 170.893 146.4 169.661 146.4C168.376 146.4 167.237 146.698 166.243 147.294C165.263 147.877 164.495 148.666 163.938 149.659C163.382 150.639 163.097 151.732 163.084 152.938V157.925C163.084 159.435 163.362 160.74 163.918 161.84C164.488 162.939 165.289 163.787 166.323 164.383C167.356 164.979 168.581 165.277 169.999 165.277C170.939 165.277 171.8 165.145 172.582 164.88C173.363 164.615 174.032 164.218 174.589 163.688C175.145 163.158 175.569 162.509 175.86 161.74L183.689 162.257C183.292 164.138 182.477 165.781 181.245 167.185C180.027 168.576 178.45 169.662 176.516 170.444C174.595 171.212 172.376 171.596 169.86 171.596ZM197.857 153.355V171H189.392V140.479H197.46V145.864H197.817C198.493 144.089 199.626 142.684 201.215 141.651C202.805 140.605 204.732 140.081 206.998 140.081C209.117 140.081 210.965 140.545 212.541 141.472C214.118 142.4 215.343 143.724 216.218 145.446C217.092 147.155 217.529 149.195 217.529 151.567V171H209.064V153.077C209.077 151.209 208.6 149.752 207.633 148.705C206.666 147.645 205.335 147.116 203.639 147.116C202.5 147.116 201.493 147.361 200.619 147.851C199.758 148.341 199.082 149.056 198.592 149.997C198.115 150.924 197.87 152.044 197.857 153.355ZM251.562 140.479L240.892 171H231.354L220.683 140.479H229.625L235.964 162.317H236.282L242.601 140.479H251.562ZM268.701 171.596C265.614 171.596 262.945 170.94 260.693 169.629C258.454 168.304 256.725 166.463 255.507 164.105C254.288 161.734 253.678 158.985 253.678 155.859C253.678 152.706 254.288 149.95 255.507 147.593C256.725 145.221 258.454 143.38 260.693 142.068C262.945 140.744 265.614 140.081 268.701 140.081C271.787 140.081 274.45 140.744 276.689 142.068C278.941 143.38 280.676 145.221 281.895 147.593C283.113 149.95 283.723 152.706 283.723 155.859C283.723 158.985 283.113 161.734 281.895 164.105C280.676 166.463 278.941 168.304 276.689 169.629C274.45 170.94 271.787 171.596 268.701 171.596ZM268.74 165.039C270.145 165.039 271.317 164.641 272.257 163.847C273.198 163.039 273.907 161.939 274.384 160.548C274.874 159.157 275.119 157.574 275.119 155.799C275.119 154.024 274.874 152.441 274.384 151.05C273.907 149.659 273.198 148.56 272.257 147.751C271.317 146.943 270.145 146.539 268.74 146.539C267.323 146.539 266.131 146.943 265.164 147.751C264.21 148.56 263.488 149.659 262.998 151.05C262.521 152.441 262.282 154.024 262.282 155.799C262.282 157.574 262.521 159.157 262.998 160.548C263.488 161.939 264.21 163.039 265.164 163.847C266.131 164.641 267.323 165.039 268.74 165.039ZM297.692 130.305V171H289.227V130.305H297.692ZM332.927 140.479L322.257 171H312.719L302.048 140.479H310.99L317.329 162.317H317.647L323.966 140.479H332.927ZM345.143 171.576C343.195 171.576 341.46 171.238 339.936 170.563C338.413 169.874 337.208 168.861 336.32 167.523C335.446 166.171 335.009 164.489 335.009 162.476C335.009 160.78 335.32 159.356 335.943 158.203C336.565 157.051 337.413 156.124 338.486 155.421C339.559 154.719 340.778 154.19 342.142 153.832C343.52 153.474 344.964 153.222 346.474 153.077C348.249 152.891 349.68 152.719 350.766 152.56C351.852 152.388 352.64 152.136 353.131 151.805C353.621 151.474 353.866 150.984 353.866 150.335V150.215C353.866 148.957 353.468 147.983 352.674 147.294C351.892 146.606 350.779 146.261 349.335 146.261C347.812 146.261 346.6 146.599 345.699 147.275C344.798 147.937 344.202 148.771 343.911 149.778L336.082 149.142C336.479 147.288 337.261 145.685 338.426 144.334C339.592 142.969 341.096 141.923 342.937 141.194C344.792 140.452 346.938 140.081 349.375 140.081C351.071 140.081 352.693 140.28 354.243 140.678C355.806 141.075 357.191 141.691 358.396 142.526C359.615 143.36 360.575 144.433 361.277 145.745C361.98 147.043 362.331 148.599 362.331 150.414V171H354.303V166.768H354.064C353.574 167.721 352.919 168.563 352.097 169.291C351.276 170.006 350.289 170.569 349.137 170.98C347.984 171.378 346.653 171.576 345.143 171.576ZM347.567 165.734C348.812 165.734 349.911 165.489 350.865 164.999C351.819 164.496 352.568 163.82 353.111 162.972C353.654 162.124 353.925 161.164 353.925 160.091V156.852C353.66 157.024 353.296 157.183 352.832 157.329C352.382 157.462 351.872 157.587 351.302 157.707C350.733 157.813 350.163 157.912 349.594 158.005C349.024 158.084 348.507 158.157 348.044 158.223C347.05 158.369 346.182 158.601 345.441 158.919C344.699 159.237 344.123 159.667 343.712 160.21C343.301 160.74 343.096 161.403 343.096 162.197C343.096 163.35 343.513 164.231 344.348 164.84C345.196 165.436 346.269 165.734 347.567 165.734ZM373.846 171.517C372.534 171.517 371.408 171.053 370.468 170.126C369.54 169.185 369.077 168.059 369.077 166.748C369.077 165.449 369.54 164.337 370.468 163.409C371.408 162.482 372.534 162.019 373.846 162.019C375.117 162.019 376.23 162.482 377.184 163.409C378.138 164.337 378.614 165.449 378.614 166.748C378.614 167.622 378.389 168.423 377.939 169.152C377.502 169.867 376.925 170.444 376.21 170.881C375.495 171.305 374.707 171.517 373.846 171.517ZM411.187 171H396.761V130.305H411.306C415.4 130.305 418.924 131.12 421.878 132.749C424.832 134.365 427.104 136.69 428.693 139.724C430.296 142.757 431.098 146.387 431.098 150.613C431.098 154.852 430.296 158.495 428.693 161.542C427.104 164.588 424.818 166.927 421.838 168.556C418.871 170.185 415.32 171 411.187 171ZM405.365 163.628H410.83C413.373 163.628 415.512 163.178 417.248 162.277C418.996 161.363 420.308 159.952 421.182 158.044C422.07 156.124 422.513 153.646 422.513 150.613C422.513 147.606 422.07 145.148 421.182 143.241C420.308 141.333 419.003 139.929 417.268 139.028C415.532 138.128 413.393 137.677 410.849 137.677H405.365V163.628ZM437.312 171V140.479H445.777V171H437.312ZM441.564 136.544C440.306 136.544 439.226 136.127 438.325 135.293C437.438 134.445 436.994 133.431 436.994 132.252C436.994 131.087 437.438 130.087 438.325 129.252C439.226 128.404 440.306 127.98 441.564 127.98C442.823 127.98 443.896 128.404 444.783 129.252C445.684 130.087 446.135 131.087 446.135 132.252C446.135 133.431 445.684 134.445 444.783 135.293C443.896 136.127 442.823 136.544 441.564 136.544ZM477.952 149.182L470.203 149.659C470.07 148.997 469.786 148.401 469.348 147.871C468.911 147.328 468.335 146.897 467.62 146.579C466.918 146.248 466.076 146.082 465.096 146.082C463.785 146.082 462.678 146.361 461.778 146.917C460.877 147.46 460.426 148.189 460.426 149.103C460.426 149.831 460.718 150.447 461.301 150.951C461.884 151.454 462.884 151.858 464.301 152.163L469.825 153.275C472.793 153.885 475.005 154.865 476.462 156.216C477.919 157.568 478.648 159.343 478.648 161.542C478.648 163.542 478.058 165.297 476.879 166.807C475.714 168.317 474.111 169.496 472.071 170.344C470.044 171.179 467.706 171.596 465.056 171.596C461.016 171.596 457.797 170.755 455.399 169.073C453.015 167.377 451.617 165.072 451.207 162.158L459.532 161.72C459.784 162.952 460.393 163.893 461.36 164.542C462.327 165.178 463.566 165.496 465.076 165.496C466.56 165.496 467.752 165.211 468.653 164.641C469.567 164.059 470.031 163.31 470.044 162.396C470.031 161.628 469.706 160.998 469.07 160.508C468.434 160.005 467.454 159.621 466.129 159.356L460.844 158.303C457.863 157.707 455.644 156.673 454.187 155.203C452.743 153.732 452.021 151.858 452.021 149.58C452.021 147.619 452.551 145.93 453.611 144.513C454.684 143.095 456.187 142.002 458.121 141.234C460.069 140.466 462.347 140.081 464.957 140.081C468.812 140.081 471.845 140.896 474.058 142.526C476.283 144.155 477.581 146.374 477.952 149.182ZM500.212 140.479V146.837H481.832V140.479H500.212ZM486.005 133.166H494.47V161.621C494.47 162.403 494.589 163.012 494.827 163.449C495.066 163.873 495.397 164.171 495.821 164.343C496.258 164.516 496.761 164.602 497.331 164.602C497.728 164.602 498.126 164.569 498.523 164.502C498.921 164.423 499.225 164.363 499.437 164.323L500.769 170.622C500.345 170.755 499.749 170.907 498.98 171.079C498.212 171.265 497.278 171.378 496.179 171.417C494.138 171.497 492.35 171.225 490.813 170.603C489.29 169.98 488.104 169.013 487.257 167.701C486.409 166.39 485.992 164.734 486.005 162.734V133.166ZM505.726 171V140.479H513.933V145.804H514.251C514.807 143.91 515.741 142.479 517.053 141.512C518.364 140.532 519.874 140.042 521.583 140.042C522.007 140.042 522.464 140.068 522.954 140.121C523.444 140.174 523.875 140.247 524.246 140.34V147.851C523.848 147.732 523.299 147.626 522.596 147.533C521.894 147.44 521.252 147.394 520.669 147.394C519.424 147.394 518.311 147.665 517.331 148.208C516.364 148.738 515.595 149.48 515.026 150.434C514.469 151.388 514.191 152.487 514.191 153.732V171H505.726ZM528.622 171V140.479H537.087V171H528.622ZM532.874 136.544C531.616 136.544 530.536 136.127 529.636 135.293C528.748 134.445 528.304 133.431 528.304 132.252C528.304 131.087 528.748 130.087 529.636 129.252C530.536 128.404 531.616 127.98 532.874 127.98C534.133 127.98 535.206 128.404 536.094 129.252C536.994 130.087 537.445 131.087 537.445 132.252C537.445 133.431 536.994 134.445 536.094 135.293C535.206 136.127 534.133 136.544 532.874 136.544ZM544.027 171V130.305H552.492V145.605H552.75C553.121 144.784 553.657 143.95 554.36 143.102C555.075 142.241 556.002 141.525 557.141 140.956C558.294 140.373 559.725 140.081 561.433 140.081C563.659 140.081 565.712 140.664 567.593 141.83C569.474 142.983 570.978 144.725 572.104 147.056C573.23 149.374 573.793 152.282 573.793 155.779C573.793 159.184 573.243 162.058 572.144 164.403C571.057 166.734 569.574 168.503 567.693 169.708C565.825 170.901 563.732 171.497 561.414 171.497C559.771 171.497 558.373 171.225 557.221 170.682C556.082 170.139 555.148 169.457 554.419 168.635C553.691 167.801 553.134 166.96 552.75 166.112H552.372V171H544.027ZM552.313 155.739C552.313 157.554 552.565 159.137 553.068 160.488C553.571 161.84 554.3 162.893 555.254 163.648C556.207 164.39 557.367 164.761 558.731 164.761C560.109 164.761 561.274 164.383 562.228 163.628C563.182 162.86 563.904 161.8 564.394 160.449C564.898 159.084 565.149 157.515 565.149 155.739C565.149 153.978 564.904 152.428 564.414 151.09C563.924 149.752 563.202 148.705 562.248 147.95C561.294 147.195 560.122 146.818 558.731 146.818C557.353 146.818 556.188 147.182 555.234 147.91C554.293 148.639 553.571 149.672 553.068 151.01C552.565 152.348 552.313 153.925 552.313 155.739ZM599.014 158.005V140.479H607.478V171H599.351V165.456H599.033C598.345 167.244 597.199 168.682 595.596 169.768C594.006 170.854 592.066 171.397 589.774 171.397C587.734 171.397 585.939 170.934 584.389 170.006C582.839 169.079 581.627 167.761 580.753 166.052C579.892 164.343 579.454 162.297 579.441 159.912V140.479H587.906V158.402C587.919 160.204 588.403 161.628 589.357 162.674C590.31 163.721 591.589 164.244 593.192 164.244C594.212 164.244 595.165 164.012 596.053 163.549C596.94 163.072 597.656 162.37 598.199 161.442C598.755 160.515 599.027 159.369 599.014 158.005ZM622.953 171.576C621.005 171.576 619.27 171.238 617.747 170.563C616.223 169.874 615.018 168.861 614.13 167.523C613.256 166.171 612.819 164.489 612.819 162.476C612.819 160.78 613.13 159.356 613.753 158.203C614.375 157.051 615.223 156.124 616.296 155.421C617.369 154.719 618.588 154.19 619.952 153.832C621.33 153.474 622.774 153.222 624.284 153.077C626.059 152.891 627.49 152.719 628.576 152.56C629.662 152.388 630.45 152.136 630.941 151.805C631.431 151.474 631.676 150.984 631.676 150.335V150.215C631.676 148.957 631.278 147.983 630.484 147.294C629.702 146.606 628.589 146.261 627.145 146.261C625.622 146.261 624.41 146.599 623.509 147.275C622.608 147.937 622.012 148.771 621.721 149.778L613.892 149.142C614.289 147.288 615.071 145.685 616.236 144.334C617.402 142.969 618.906 141.923 620.747 141.194C622.602 140.452 624.748 140.081 627.185 140.081C628.881 140.081 630.503 140.28 632.053 140.678C633.616 141.075 635.001 141.691 636.206 142.526C637.425 143.36 638.385 144.433 639.088 145.745C639.79 147.043 640.141 148.599 640.141 150.414V171H632.113V166.768H631.875C631.384 167.721 630.729 168.563 629.907 169.291C629.086 170.006 628.099 170.569 626.947 170.98C625.794 171.378 624.463 171.576 622.953 171.576ZM625.377 165.734C626.622 165.734 627.722 165.489 628.675 164.999C629.629 164.496 630.378 163.82 630.921 162.972C631.464 162.124 631.735 161.164 631.735 160.091V156.852C631.47 157.024 631.106 157.183 630.643 157.329C630.192 157.462 629.682 157.587 629.112 157.707C628.543 157.813 627.973 157.912 627.404 158.005C626.834 158.084 626.317 158.157 625.854 158.223C624.86 158.369 623.993 158.601 623.251 158.919C622.509 159.237 621.933 159.667 621.522 160.21C621.111 160.74 620.906 161.403 620.906 162.197C620.906 163.35 621.323 164.231 622.158 164.84C623.006 165.436 624.079 165.734 625.377 165.734ZM651.656 171.517C650.344 171.517 649.218 171.053 648.278 170.126C647.35 169.185 646.887 168.059 646.887 166.748C646.887 165.449 647.35 164.337 648.278 163.409C649.218 162.482 650.344 162.019 651.656 162.019C652.927 162.019 654.04 162.482 654.994 163.409C655.948 164.337 656.425 165.449 656.425 166.748C656.425 167.622 656.199 168.423 655.749 169.152C655.312 169.867 654.736 170.444 654.02 170.881C653.305 171.305 652.517 171.517 651.656 171.517ZM674.571 171V130.305H701.993V137.399H683.175V147.096H700.582V154.19H683.175V163.906H702.072V171H674.571ZM734.069 149.182L726.319 149.659C726.187 148.997 725.902 148.401 725.465 147.871C725.028 147.328 724.451 146.897 723.736 146.579C723.034 146.248 722.193 146.082 721.212 146.082C719.901 146.082 718.795 146.361 717.894 146.917C716.993 147.46 716.543 148.189 716.543 149.103C716.543 149.831 716.834 150.447 717.417 150.951C718 151.454 719 151.858 720.418 152.163L725.942 153.275C728.909 153.885 731.121 154.865 732.578 156.216C734.036 157.568 734.764 159.343 734.764 161.542C734.764 163.542 734.175 165.297 732.996 166.807C731.83 168.317 730.227 169.496 728.187 170.344C726.16 171.179 723.822 171.596 721.173 171.596C717.132 171.596 713.913 170.755 711.516 169.073C709.131 167.377 707.734 165.072 707.323 162.158L715.649 161.72C715.9 162.952 716.51 163.893 717.477 164.542C718.444 165.178 719.682 165.496 721.193 165.496C722.676 165.496 723.868 165.211 724.769 164.641C725.683 164.059 726.147 163.31 726.16 162.396C726.147 161.628 725.822 160.998 725.187 160.508C724.551 160.005 723.57 159.621 722.246 159.356L716.96 158.303C713.98 157.707 711.761 156.673 710.304 155.203C708.86 153.732 708.138 151.858 708.138 149.58C708.138 147.619 708.668 145.93 709.727 144.513C710.8 143.095 712.304 142.002 714.238 141.234C716.185 140.466 718.464 140.081 721.073 140.081C724.928 140.081 727.962 140.896 730.174 142.526C732.4 144.155 733.698 146.374 734.069 149.182ZM753.885 171.596C750.758 171.596 748.069 170.934 745.817 169.609C743.578 168.271 741.856 166.417 740.651 164.045C739.459 161.674 738.862 158.945 738.862 155.859C738.862 152.732 739.465 149.99 740.671 147.632C741.889 145.261 743.618 143.413 745.857 142.088C748.096 140.75 750.758 140.081 753.845 140.081C756.507 140.081 758.839 140.565 760.839 141.532C762.84 142.499 764.423 143.857 765.588 145.605C766.754 147.354 767.397 149.407 767.516 151.765H759.528C759.303 150.242 758.706 149.017 757.739 148.089C756.786 147.149 755.534 146.678 753.984 146.678C752.672 146.678 751.527 147.036 750.546 147.751C749.579 148.454 748.824 149.48 748.281 150.831C747.738 152.183 747.466 153.819 747.466 155.739C747.466 157.687 747.731 159.343 748.261 160.707C748.804 162.072 749.566 163.111 750.546 163.827C751.527 164.542 752.672 164.9 753.984 164.9C754.951 164.9 755.819 164.701 756.587 164.304C757.369 163.906 758.011 163.33 758.514 162.575C759.031 161.807 759.369 160.886 759.528 159.813H767.516C767.383 162.144 766.747 164.198 765.608 165.973C764.482 167.735 762.926 169.112 760.939 170.106C758.952 171.099 756.6 171.596 753.885 171.596ZM781.639 171.576C779.691 171.576 777.956 171.238 776.433 170.563C774.909 169.874 773.704 168.861 772.816 167.523C771.942 166.171 771.505 164.489 771.505 162.476C771.505 160.78 771.816 159.356 772.439 158.203C773.061 157.051 773.909 156.124 774.982 155.421C776.055 154.719 777.274 154.19 778.638 153.832C780.016 153.474 781.46 153.222 782.97 153.077C784.745 152.891 786.176 152.719 787.262 152.56C788.348 152.388 789.137 152.136 789.627 151.805C790.117 151.474 790.362 150.984 790.362 150.335V150.215C790.362 148.957 789.964 147.983 789.17 147.294C788.388 146.606 787.275 146.261 785.831 146.261C784.308 146.261 783.096 146.599 782.195 147.275C781.294 147.937 780.698 148.771 780.407 149.778L772.578 149.142C772.975 147.288 773.757 145.685 774.922 144.334C776.088 142.969 777.592 141.923 779.433 141.194C781.288 140.452 783.434 140.081 785.871 140.081C787.567 140.081 789.19 140.28 790.739 140.678C792.303 141.075 793.687 141.691 794.892 142.526C796.111 143.36 797.072 144.433 797.774 145.745C798.476 147.043 798.827 148.599 798.827 150.414V171H790.799V166.768H790.561C790.07 167.721 789.415 168.563 788.593 169.291C787.772 170.006 786.785 170.569 785.633 170.98C784.48 171.378 783.149 171.576 781.639 171.576ZM784.063 165.734C785.308 165.734 786.408 165.489 787.361 164.999C788.315 164.496 789.064 163.82 789.607 162.972C790.15 162.124 790.422 161.164 790.422 160.091V156.852C790.157 157.024 789.792 157.183 789.329 157.329C788.878 157.462 788.368 157.587 787.799 157.707C787.229 157.813 786.659 157.912 786.09 158.005C785.52 158.084 785.003 158.157 784.54 158.223C783.546 158.369 782.679 158.601 781.937 158.919C781.195 159.237 780.619 159.667 780.208 160.21C779.797 160.74 779.592 161.403 779.592 162.197C779.592 163.35 780.009 164.231 780.844 164.84C781.692 165.436 782.765 165.734 784.063 165.734ZM813.859 130.305V171H805.394V130.305H813.859ZM834.549 171.596C831.409 171.596 828.707 170.96 826.442 169.689C824.19 168.404 822.454 166.589 821.236 164.244C820.017 161.886 819.408 159.098 819.408 155.879C819.408 152.739 820.017 149.984 821.236 147.612C822.454 145.241 824.17 143.393 826.382 142.068C828.608 140.744 831.217 140.081 834.211 140.081C836.225 140.081 838.099 140.406 839.835 141.055C841.583 141.691 843.107 142.651 844.405 143.936C845.716 145.221 846.736 146.837 847.465 148.785C848.193 150.719 848.558 152.984 848.558 155.58V157.905H822.786V152.659H840.59C840.59 151.441 840.325 150.361 839.795 149.421C839.265 148.48 838.53 147.745 837.589 147.215C836.662 146.672 835.582 146.4 834.35 146.4C833.065 146.4 831.926 146.698 830.933 147.294C829.952 147.877 829.184 148.666 828.628 149.659C828.071 150.639 827.786 151.732 827.773 152.938V157.925C827.773 159.435 828.051 160.74 828.608 161.84C829.177 162.939 829.979 163.787 831.012 164.383C832.045 164.979 833.271 165.277 834.688 165.277C835.629 165.277 836.49 165.145 837.271 164.88C838.053 164.615 838.722 164.218 839.278 163.688C839.835 163.158 840.258 162.509 840.55 161.74L848.379 162.257C847.982 164.138 847.167 165.781 845.935 167.185C844.716 168.576 843.14 169.662 841.206 170.444C839.285 171.212 837.066 171.596 834.549 171.596ZM859.03 171.517C857.718 171.517 856.592 171.053 855.652 170.126C854.724 169.185 854.261 168.059 854.261 166.748C854.261 165.449 854.724 164.337 855.652 163.409C856.592 162.482 857.718 162.019 859.03 162.019C860.301 162.019 861.414 162.482 862.368 163.409C863.322 164.337 863.798 165.449 863.798 166.748C863.798 167.622 863.573 168.423 863.123 169.152C862.686 169.867 862.109 170.444 861.394 170.881C860.679 171.305 859.891 171.517 859.03 171.517Z" fill="white"/>
<path d="M65.8373 198.011H63.3733C63.2276 197.302 62.9726 196.68 62.6083 196.143C62.2506 195.607 61.8135 195.156 61.2969 194.792C60.7868 194.421 60.2205 194.143 59.5979 193.958C58.9753 193.772 58.3262 193.679 57.6506 193.679C56.4186 193.679 55.3026 193.991 54.3024 194.613C53.3089 195.236 52.5174 196.153 51.9279 197.365C51.345 198.577 51.0536 200.064 51.0536 201.826C51.0536 203.588 51.345 205.075 51.9279 206.287C52.5174 207.499 53.3089 208.417 54.3024 209.039C55.3026 209.662 56.4186 209.973 57.6506 209.973C58.3262 209.973 58.9753 209.88 59.5979 209.695C60.2205 209.51 60.7868 209.235 61.2969 208.87C61.8135 208.499 62.2506 208.046 62.6083 207.509C62.9726 206.966 63.2276 206.344 63.3733 205.641H65.8373C65.6518 206.681 65.314 207.612 64.8239 208.433C64.3337 209.255 63.7244 209.953 62.9958 210.53C62.2672 211.099 61.4492 211.533 60.5418 211.831C59.641 212.129 58.6773 212.278 57.6506 212.278C55.9153 212.278 54.372 211.854 53.0208 211.006C51.6696 210.159 50.6065 208.953 49.8316 207.39C49.0566 205.827 48.6691 203.972 48.6691 201.826C48.6691 199.68 49.0566 197.826 49.8316 196.263C50.6065 194.699 51.6696 193.494 53.0208 192.646C54.372 191.798 55.9153 191.374 57.6506 191.374C58.6773 191.374 59.641 191.523 60.5418 191.821C61.4492 192.12 62.2672 192.557 62.9958 193.133C63.7244 193.703 64.3337 194.398 64.8239 195.219C65.314 196.034 65.6518 196.965 65.8373 198.011ZM69.5009 212V196.739H71.7661V199.044H71.9251C72.2033 198.289 72.7067 197.677 73.4353 197.206C74.1639 196.736 74.9852 196.501 75.8992 196.501C76.0714 196.501 76.2867 196.504 76.545 196.511C76.8033 196.518 76.9987 196.527 77.1312 196.541V198.925C77.0517 198.905 76.8696 198.876 76.5848 198.836C76.3066 198.789 76.0118 198.766 75.7005 198.766C74.9587 198.766 74.2963 198.922 73.7135 199.233C73.1372 199.538 72.6802 199.962 72.3424 200.505C72.0112 201.041 71.8456 201.654 71.8456 202.343V212H69.5009ZM79.9106 212V196.739H82.2553V212H79.9106ZM81.1028 194.196C80.6458 194.196 80.2517 194.04 79.9205 193.729C79.596 193.418 79.4337 193.044 79.4337 192.606C79.4337 192.169 79.596 191.795 79.9205 191.484C80.2517 191.172 80.6458 191.017 81.1028 191.017C81.5598 191.017 81.9506 191.172 82.2752 191.484C82.6064 191.795 82.7719 192.169 82.7719 192.606C82.7719 193.044 82.6064 193.418 82.2752 193.729C81.9506 194.04 81.5598 194.196 81.1028 194.196ZM92.9481 212.318C91.4777 212.318 90.2093 211.993 89.1429 211.344C88.0832 210.689 87.2652 209.774 86.6889 208.602C86.1193 207.423 85.8345 206.052 85.8345 204.489C85.8345 202.926 86.1193 201.548 86.6889 200.356C87.2652 199.157 88.0666 198.223 89.0933 197.554C90.1265 196.879 91.332 196.541 92.7097 196.541C93.5045 196.541 94.2894 196.673 95.0644 196.938C95.8393 197.203 96.5447 197.634 97.1806 198.23C97.8164 198.819 98.3231 199.601 98.7007 200.574C99.0782 201.548 99.267 202.747 99.267 204.171V205.165H87.5036V203.138H96.8825C96.8825 202.277 96.7103 201.508 96.3659 200.833C96.0281 200.157 95.5446 199.624 94.9153 199.233C94.2927 198.842 93.5575 198.647 92.7097 198.647C91.7758 198.647 90.9677 198.879 90.2855 199.342C89.6099 199.799 89.0899 200.396 88.7257 201.131C88.3614 201.866 88.1792 202.654 88.1792 203.495V204.847C88.1792 205.999 88.3779 206.976 88.7753 207.778C89.1794 208.572 89.739 209.178 90.4544 209.596C91.1697 210.006 92.001 210.212 92.9481 210.212C93.5641 210.212 94.1205 210.126 94.6173 209.953C95.1207 209.774 95.5545 209.51 95.9188 209.159C96.2831 208.801 96.5646 208.357 96.7633 207.827L99.0285 208.463C98.7901 209.231 98.3894 209.907 97.8264 210.49C97.2634 211.066 96.5679 211.516 95.74 211.841C94.912 212.159 93.9814 212.318 92.9481 212.318ZM120.32 205.761V196.739H122.665V212H120.32V209.417H120.161C119.803 210.192 119.247 210.851 118.492 211.394C117.737 211.93 116.783 212.199 115.63 212.199C114.677 212.199 113.829 211.99 113.087 211.573C112.345 211.149 111.762 210.513 111.338 209.665C110.914 208.811 110.702 207.734 110.702 206.436V196.739H113.047V206.277C113.047 207.39 113.359 208.278 113.981 208.94C114.61 209.602 115.412 209.933 116.385 209.933C116.968 209.933 117.561 209.784 118.164 209.486C118.773 209.188 119.283 208.731 119.694 208.115C120.111 207.499 120.32 206.714 120.32 205.761ZM126.959 212V196.739H129.224V199.124H129.423C129.741 198.309 130.254 197.677 130.963 197.226C131.672 196.769 132.523 196.541 133.516 196.541C134.523 196.541 135.361 196.769 136.03 197.226C136.706 197.677 137.232 198.309 137.61 199.124H137.769C138.159 198.336 138.746 197.71 139.527 197.246C140.309 196.776 141.246 196.541 142.339 196.541C143.703 196.541 144.819 196.968 145.687 197.822C146.555 198.67 146.989 199.992 146.989 201.787V212H144.644V201.787C144.644 200.661 144.336 199.856 143.72 199.372C143.104 198.889 142.379 198.647 141.544 198.647C140.471 198.647 139.64 198.972 139.05 199.621C138.461 200.263 138.166 201.078 138.166 202.065V212H135.782V201.548C135.782 200.68 135.5 199.982 134.937 199.452C134.374 198.915 133.649 198.647 132.761 198.647C132.152 198.647 131.582 198.809 131.052 199.134C130.529 199.458 130.105 199.909 129.781 200.485C129.463 201.055 129.304 201.714 129.304 202.462V212H126.959ZM165.741 212H159.462V191.653H166.02C167.993 191.653 169.682 192.06 171.087 192.875C172.491 193.683 173.567 194.845 174.316 196.362C175.064 197.872 175.438 199.68 175.438 201.787C175.438 203.906 175.061 205.731 174.306 207.261C173.551 208.784 172.451 209.957 171.007 210.778C169.563 211.593 167.808 212 165.741 212ZM161.926 209.814H165.582C167.265 209.814 168.659 209.49 169.765 208.841C170.871 208.191 171.696 207.267 172.239 206.069C172.782 204.87 173.054 203.442 173.054 201.787C173.054 200.144 172.785 198.73 172.249 197.544C171.712 196.352 170.911 195.438 169.845 194.802C168.778 194.16 167.45 193.838 165.861 193.838H161.926V209.814ZM185.652 212.318C184.181 212.318 182.913 211.993 181.846 211.344C180.787 210.689 179.969 209.774 179.392 208.602C178.823 207.423 178.538 206.052 178.538 204.489C178.538 202.926 178.823 201.548 179.392 200.356C179.969 199.157 180.77 198.223 181.797 197.554C182.83 196.879 184.036 196.541 185.413 196.541C186.208 196.541 186.993 196.673 187.768 196.938C188.543 197.203 189.248 197.634 189.884 198.23C190.52 198.819 191.027 199.601 191.404 200.574C191.782 201.548 191.97 202.747 191.97 204.171V205.165H180.207V203.138H189.586C189.586 202.277 189.414 201.508 189.069 200.833C188.732 200.157 188.248 199.624 187.619 199.233C186.996 198.842 186.261 198.647 185.413 198.647C184.479 198.647 183.671 198.879 182.989 199.342C182.313 199.799 181.793 200.396 181.429 201.131C181.065 201.866 180.883 202.654 180.883 203.495V204.847C180.883 205.999 181.081 206.976 181.479 207.778C181.883 208.572 182.443 209.178 183.158 209.596C183.873 210.006 184.705 210.212 185.652 210.212C186.268 210.212 186.824 210.126 187.321 209.953C187.824 209.774 188.258 209.51 188.622 209.159C188.987 208.801 189.268 208.357 189.467 207.827L191.732 208.463C191.494 209.231 191.093 209.907 190.53 210.49C189.967 211.066 189.271 211.516 188.443 211.841C187.616 212.159 186.685 212.318 185.652 212.318ZM206.347 200.157L204.241 200.753C204.108 200.402 203.913 200.061 203.654 199.73C203.403 199.392 203.058 199.114 202.621 198.895C202.184 198.677 201.624 198.568 200.942 198.568C200.008 198.568 199.23 198.783 198.607 199.213C197.991 199.637 197.683 200.177 197.683 200.833C197.683 201.416 197.895 201.876 198.319 202.214C198.743 202.552 199.405 202.833 200.306 203.058L202.571 203.615C203.936 203.946 204.953 204.453 205.622 205.135C206.291 205.81 206.625 206.681 206.625 207.748C206.625 208.622 206.373 209.404 205.87 210.092C205.373 210.781 204.678 211.324 203.784 211.722C202.889 212.119 201.849 212.318 200.664 212.318C199.107 212.318 197.819 211.98 196.799 211.305C195.779 210.629 195.133 209.642 194.862 208.344L197.087 207.787C197.299 208.609 197.7 209.225 198.289 209.635C198.885 210.046 199.664 210.251 200.624 210.251C201.717 210.251 202.585 210.02 203.227 209.556C203.876 209.086 204.201 208.523 204.201 207.867C204.201 207.337 204.015 206.893 203.644 206.536C203.274 206.171 202.704 205.9 201.936 205.721L199.392 205.125C197.995 204.794 196.968 204.28 196.312 203.585C195.663 202.883 195.339 202.005 195.339 200.952C195.339 200.091 195.58 199.329 196.064 198.667C196.554 198.005 197.22 197.485 198.061 197.107C198.909 196.729 199.869 196.541 200.942 196.541C202.452 196.541 203.638 196.872 204.499 197.534C205.367 198.197 205.983 199.071 206.347 200.157ZM210.155 212V196.739H212.499V212H210.155ZM211.347 194.196C210.89 194.196 210.496 194.04 210.164 193.729C209.84 193.418 209.678 193.044 209.678 192.606C209.678 192.169 209.84 191.795 210.164 191.484C210.496 191.172 210.89 191.017 211.347 191.017C211.804 191.017 212.195 191.172 212.519 191.484C212.85 191.795 213.016 192.169 213.016 192.606C213.016 193.044 212.85 193.418 212.519 193.729C212.195 194.04 211.804 194.196 211.347 194.196ZM222.954 218.041C221.821 218.041 220.847 217.895 220.033 217.603C219.218 217.319 218.539 216.941 217.996 216.471C217.459 216.007 217.032 215.51 216.714 214.981L218.582 213.669C218.794 213.947 219.062 214.265 219.387 214.623C219.711 214.987 220.155 215.302 220.718 215.567C221.288 215.838 222.033 215.974 222.954 215.974C224.186 215.974 225.202 215.676 226.004 215.08C226.805 214.484 227.206 213.55 227.206 212.278V209.178H227.007C226.835 209.457 226.59 209.801 226.272 210.212C225.961 210.616 225.51 210.977 224.921 211.295C224.338 211.606 223.55 211.762 222.556 211.762C221.324 211.762 220.218 211.47 219.238 210.887C218.264 210.304 217.493 209.457 216.923 208.344C216.36 207.231 216.078 205.88 216.078 204.29C216.078 202.727 216.353 201.366 216.903 200.207C217.453 199.041 218.218 198.14 219.198 197.504C220.178 196.862 221.311 196.541 222.596 196.541C223.589 196.541 224.378 196.706 224.961 197.037C225.55 197.362 226 197.733 226.312 198.15C226.63 198.561 226.875 198.899 227.047 199.164H227.285V196.739H229.551V212.437C229.551 213.749 229.253 214.815 228.656 215.636C228.067 216.464 227.272 217.07 226.272 217.454C225.278 217.845 224.172 218.041 222.954 218.041ZM222.874 209.655C223.815 209.655 224.61 209.44 225.259 209.009C225.908 208.579 226.401 207.96 226.739 207.152C227.077 206.344 227.246 205.376 227.246 204.25C227.246 203.151 227.08 202.181 226.749 201.339C226.418 200.498 225.928 199.839 225.278 199.362C224.629 198.885 223.828 198.647 222.874 198.647C221.881 198.647 221.053 198.899 220.39 199.402C219.735 199.905 219.241 200.581 218.91 201.429C218.585 202.277 218.423 203.217 218.423 204.25C218.423 205.31 218.589 206.247 218.92 207.062C219.258 207.87 219.754 208.506 220.41 208.97C221.073 209.427 221.894 209.655 222.874 209.655ZM236.187 202.82V212H233.843V196.739H236.108V199.124H236.307C236.664 198.349 237.207 197.726 237.936 197.256C238.665 196.779 239.605 196.541 240.758 196.541C241.791 196.541 242.695 196.753 243.47 197.177C244.245 197.594 244.848 198.23 245.278 199.084C245.709 199.932 245.924 201.005 245.924 202.303V212H243.579V202.462C243.579 201.263 243.268 200.329 242.645 199.66C242.023 198.985 241.168 198.647 240.082 198.647C239.334 198.647 238.665 198.809 238.075 199.134C237.492 199.458 237.032 199.932 236.694 200.555C236.356 201.177 236.187 201.932 236.187 202.82ZM269.523 196.739C269.404 195.733 268.92 194.951 268.072 194.395C267.224 193.838 266.184 193.56 264.953 193.56C264.052 193.56 263.264 193.706 262.588 193.997C261.919 194.289 261.396 194.689 261.018 195.199C260.647 195.709 260.462 196.289 260.462 196.938C260.462 197.481 260.591 197.948 260.849 198.339C261.114 198.723 261.452 199.044 261.863 199.303C262.273 199.554 262.704 199.763 263.154 199.929C263.605 200.088 264.019 200.217 264.396 200.316L266.463 200.872C266.993 201.012 267.582 201.204 268.231 201.449C268.887 201.694 269.513 202.028 270.109 202.452C270.712 202.869 271.208 203.406 271.599 204.062C271.99 204.717 272.185 205.522 272.185 206.476C272.185 207.575 271.897 208.569 271.321 209.457C270.751 210.344 269.917 211.05 268.817 211.573C267.724 212.096 266.396 212.358 264.833 212.358C263.376 212.358 262.114 212.123 261.048 211.652C259.988 211.182 259.154 210.526 258.544 209.685C257.942 208.844 257.6 207.867 257.521 206.754H260.064C260.131 207.523 260.389 208.158 260.839 208.662C261.296 209.159 261.873 209.529 262.568 209.774C263.27 210.013 264.025 210.132 264.833 210.132C265.774 210.132 266.618 209.98 267.367 209.675C268.115 209.364 268.708 208.933 269.145 208.384C269.582 207.827 269.801 207.178 269.801 206.436C269.801 205.761 269.612 205.211 269.235 204.787C268.857 204.363 268.36 204.019 267.744 203.754C267.128 203.489 266.463 203.257 265.747 203.058L263.244 202.343C261.654 201.886 260.396 201.233 259.468 200.386C258.541 199.538 258.077 198.428 258.077 197.057C258.077 195.918 258.385 194.925 259.001 194.077C259.624 193.222 260.458 192.56 261.505 192.09C262.558 191.613 263.734 191.374 265.032 191.374C266.343 191.374 267.509 191.61 268.529 192.08C269.549 192.543 270.357 193.179 270.953 193.987C271.556 194.795 271.874 195.713 271.907 196.739H269.523ZM277.429 217.723C277.031 217.723 276.677 217.69 276.366 217.623C276.054 217.564 275.839 217.504 275.72 217.445L276.316 215.378C276.886 215.524 277.389 215.577 277.826 215.537C278.263 215.497 278.651 215.302 278.989 214.951C279.333 214.606 279.648 214.047 279.932 213.272L280.37 212.079L274.726 196.739H277.27L281.482 208.9H281.641L285.854 196.739H288.397L281.919 214.226C281.628 215.014 281.267 215.666 280.837 216.183C280.406 216.706 279.906 217.093 279.336 217.345C278.773 217.597 278.137 217.723 277.429 217.723ZM302.302 200.157L300.195 200.753C300.063 200.402 299.868 200.061 299.609 199.73C299.358 199.392 299.013 199.114 298.576 198.895C298.139 198.677 297.579 198.568 296.897 198.568C295.963 198.568 295.185 198.783 294.562 199.213C293.946 199.637 293.638 200.177 293.638 200.833C293.638 201.416 293.85 201.876 294.274 202.214C294.698 202.552 295.36 202.833 296.261 203.058L298.526 203.615C299.891 203.946 300.907 204.453 301.576 205.135C302.245 205.81 302.58 206.681 302.58 207.748C302.58 208.622 302.328 209.404 301.825 210.092C301.328 210.781 300.633 211.324 299.738 211.722C298.844 212.119 297.804 212.318 296.619 212.318C295.062 212.318 293.774 211.98 292.754 211.305C291.734 210.629 291.088 209.642 290.817 208.344L293.042 207.787C293.254 208.609 293.655 209.225 294.244 209.635C294.84 210.046 295.619 210.251 296.579 210.251C297.672 210.251 298.54 210.02 299.182 209.556C299.831 209.086 300.156 208.523 300.156 207.867C300.156 207.337 299.97 206.893 299.599 206.536C299.228 206.171 298.659 205.9 297.89 205.721L295.347 205.125C293.949 204.794 292.923 204.28 292.267 203.585C291.618 202.883 291.293 202.005 291.293 200.952C291.293 200.091 291.535 199.329 292.019 198.667C292.509 198.005 293.174 197.485 294.016 197.107C294.863 196.729 295.824 196.541 296.897 196.541C298.407 196.541 299.593 196.872 300.454 197.534C301.321 198.197 301.937 199.071 302.302 200.157ZM312.746 196.739V198.726H304.838V196.739H312.746ZM307.143 193.083H309.487V207.628C309.487 208.291 309.583 208.788 309.775 209.119C309.974 209.443 310.226 209.662 310.531 209.774C310.842 209.88 311.17 209.933 311.514 209.933C311.772 209.933 311.984 209.92 312.15 209.894C312.316 209.861 312.448 209.834 312.547 209.814L313.024 211.921C312.865 211.98 312.643 212.04 312.359 212.099C312.074 212.166 311.713 212.199 311.276 212.199C310.613 212.199 309.964 212.056 309.328 211.771C308.699 211.487 308.176 211.053 307.759 210.47C307.348 209.887 307.143 209.152 307.143 208.264V193.083ZM322.508 212.318C321.037 212.318 319.769 211.993 318.702 211.344C317.643 210.689 316.825 209.774 316.248 208.602C315.679 207.423 315.394 206.052 315.394 204.489C315.394 202.926 315.679 201.548 316.248 200.356C316.825 199.157 317.626 198.223 318.653 197.554C319.686 196.879 320.891 196.541 322.269 196.541C323.064 196.541 323.849 196.673 324.624 196.938C325.399 197.203 326.104 197.634 326.74 198.23C327.376 198.819 327.883 199.601 328.26 200.574C328.638 201.548 328.826 202.747 328.826 204.171V205.165H317.063V203.138H326.442C326.442 202.277 326.27 201.508 325.925 200.833C325.587 200.157 325.104 199.624 324.475 199.233C323.852 198.842 323.117 198.647 322.269 198.647C321.335 198.647 320.527 198.879 319.845 199.342C319.169 199.799 318.649 200.396 318.285 201.131C317.921 201.866 317.739 202.654 317.739 203.495V204.847C317.739 205.999 317.937 206.976 318.335 207.778C318.739 208.572 319.298 209.178 320.014 209.596C320.729 210.006 321.56 210.212 322.508 210.212C323.124 210.212 323.68 210.126 324.177 209.953C324.68 209.774 325.114 209.51 325.478 209.159C325.842 208.801 326.124 208.357 326.323 207.827L328.588 208.463C328.349 209.231 327.949 209.907 327.386 210.49C326.823 211.066 326.127 211.516 325.299 211.841C324.471 212.159 323.541 212.318 322.508 212.318ZM332.393 212V196.739H334.658V199.124H334.857C335.175 198.309 335.688 197.677 336.397 197.226C337.106 196.769 337.957 196.541 338.95 196.541C339.957 196.541 340.795 196.769 341.464 197.226C342.14 197.677 342.666 198.309 343.044 199.124H343.203C343.593 198.336 344.18 197.71 344.961 197.246C345.743 196.776 346.68 196.541 347.773 196.541C349.137 196.541 350.253 196.968 351.121 197.822C351.989 198.67 352.423 199.992 352.423 201.787V212H350.078V201.787C350.078 200.661 349.77 199.856 349.154 199.372C348.538 198.889 347.813 198.647 346.978 198.647C345.905 198.647 345.074 198.972 344.484 199.621C343.895 200.263 343.6 201.078 343.6 202.065V212H341.216V201.548C341.216 200.68 340.934 199.982 340.371 199.452C339.808 198.915 339.083 198.647 338.195 198.647C337.586 198.647 337.016 198.809 336.486 199.134C335.963 199.458 335.539 199.909 335.215 200.485C334.897 201.055 334.738 201.714 334.738 202.462V212H332.393ZM370.977 212.318C369.506 212.318 368.238 211.993 367.172 211.344C366.112 210.689 365.294 209.774 364.718 208.602C364.148 207.423 363.863 206.052 363.863 204.489C363.863 202.926 364.148 201.548 364.718 200.356C365.294 199.157 366.095 198.223 367.122 197.554C368.155 196.879 369.361 196.541 370.738 196.541C371.533 196.541 372.318 196.673 373.093 196.938C373.868 197.203 374.573 197.634 375.209 198.23C375.845 198.819 376.352 199.601 376.729 200.574C377.107 201.548 377.296 202.747 377.296 204.171V205.165H365.532V203.138H374.911C374.911 202.277 374.739 201.508 374.395 200.833C374.057 200.157 373.573 199.624 372.944 199.233C372.321 198.842 371.586 198.647 370.738 198.647C369.804 198.647 368.996 198.879 368.314 199.342C367.639 199.799 367.119 200.396 366.754 201.131C366.39 201.866 366.208 202.654 366.208 203.495V204.847C366.208 205.999 366.407 206.976 366.804 207.778C367.208 208.572 367.768 209.178 368.483 209.596C369.198 210.006 370.03 210.212 370.977 210.212C371.593 210.212 372.149 210.126 372.646 209.953C373.149 209.774 373.583 209.51 373.947 209.159C374.312 208.801 374.593 208.357 374.792 207.827L377.057 208.463C376.819 209.231 376.418 209.907 375.855 210.49C375.292 211.066 374.597 211.516 373.769 211.841C372.941 212.159 372.01 212.318 370.977 212.318ZM391.672 200.157L389.566 200.753C389.433 200.402 389.238 200.061 388.979 199.73C388.728 199.392 388.383 199.114 387.946 198.895C387.509 198.677 386.949 198.568 386.267 198.568C385.333 198.568 384.555 198.783 383.932 199.213C383.316 199.637 383.008 200.177 383.008 200.833C383.008 201.416 383.22 201.876 383.644 202.214C384.068 202.552 384.73 202.833 385.631 203.058L387.897 203.615C389.261 203.946 390.278 204.453 390.947 205.135C391.616 205.81 391.95 206.681 391.95 207.748C391.95 208.622 391.698 209.404 391.195 210.092C390.698 210.781 390.003 211.324 389.109 211.722C388.214 212.119 387.175 212.318 385.989 212.318C384.432 212.318 383.144 211.98 382.124 211.305C381.104 210.629 380.458 209.642 380.187 208.344L382.412 207.787C382.624 208.609 383.025 209.225 383.614 209.635C384.211 210.046 384.989 210.251 385.949 210.251C387.042 210.251 387.91 210.02 388.552 209.556C389.201 209.086 389.526 208.523 389.526 207.867C389.526 207.337 389.34 206.893 388.97 206.536C388.599 206.171 388.029 205.9 387.261 205.721L384.717 205.125C383.32 204.794 382.293 204.28 381.637 203.585C380.988 202.883 380.664 202.005 380.664 200.952C380.664 200.091 380.905 199.329 381.389 198.667C381.879 198.005 382.545 197.485 383.386 197.107C384.234 196.729 385.194 196.541 386.267 196.541C387.777 196.541 388.963 196.872 389.824 197.534C390.692 198.197 391.308 199.071 391.672 200.157ZM401.679 212.318C400.249 212.318 399.017 211.98 397.983 211.305C396.95 210.629 396.155 209.698 395.599 208.513C395.042 207.327 394.764 205.973 394.764 204.449C394.764 202.899 395.049 201.532 395.619 200.346C396.195 199.154 396.996 198.223 398.023 197.554C399.056 196.879 400.262 196.541 401.639 196.541C402.712 196.541 403.68 196.739 404.541 197.137C405.402 197.534 406.107 198.091 406.657 198.806C407.207 199.521 407.548 200.356 407.68 201.31H405.335C405.157 200.614 404.759 199.998 404.143 199.462C403.534 198.919 402.712 198.647 401.679 198.647C400.765 198.647 399.964 198.885 399.275 199.362C398.593 199.833 398.059 200.498 397.675 201.359C397.298 202.214 397.109 203.217 397.109 204.37C397.109 205.549 397.294 206.575 397.665 207.45C398.043 208.324 398.573 209.003 399.255 209.486C399.944 209.97 400.752 210.212 401.679 210.212C402.289 210.212 402.842 210.106 403.338 209.894C403.835 209.682 404.256 209.377 404.6 208.98C404.945 208.582 405.19 208.105 405.335 207.549H407.68C407.548 208.45 407.22 209.261 406.697 209.983C406.18 210.698 405.494 211.268 404.64 211.692C403.792 212.109 402.805 212.318 401.679 212.318ZM415.599 212.358C414.632 212.358 413.754 212.176 412.966 211.811C412.178 211.44 411.552 210.907 411.088 210.212C410.624 209.51 410.392 208.662 410.392 207.668C410.392 206.794 410.565 206.085 410.909 205.542C411.254 204.992 411.714 204.562 412.29 204.25C412.866 203.939 413.502 203.707 414.198 203.555C414.9 203.396 415.605 203.27 416.314 203.177C417.241 203.058 417.993 202.969 418.569 202.909C419.152 202.843 419.576 202.734 419.841 202.581C420.112 202.429 420.248 202.164 420.248 201.787V201.707C420.248 200.727 419.98 199.965 419.444 199.422C418.914 198.879 418.109 198.607 417.029 198.607C415.91 198.607 415.032 198.852 414.396 199.342C413.761 199.833 413.313 200.356 413.055 200.912L410.83 200.117C411.227 199.19 411.757 198.468 412.419 197.952C413.088 197.428 413.817 197.064 414.605 196.859C415.4 196.647 416.181 196.541 416.95 196.541C417.44 196.541 418.003 196.6 418.639 196.72C419.281 196.832 419.901 197.067 420.497 197.425C421.099 197.783 421.599 198.322 421.997 199.044C422.394 199.766 422.593 200.733 422.593 201.946V212H420.248V209.933H420.129C419.97 210.265 419.705 210.619 419.334 210.997C418.963 211.374 418.47 211.695 417.854 211.96C417.238 212.225 416.486 212.358 415.599 212.358ZM415.956 210.251C416.884 210.251 417.665 210.069 418.301 209.705C418.943 209.341 419.427 208.87 419.751 208.294C420.083 207.718 420.248 207.112 420.248 206.476V204.33C420.149 204.449 419.93 204.558 419.593 204.658C419.261 204.751 418.877 204.833 418.44 204.906C418.01 204.972 417.589 205.032 417.178 205.085C416.774 205.131 416.446 205.171 416.195 205.204C415.585 205.284 415.016 205.413 414.486 205.592C413.963 205.764 413.539 206.026 413.214 206.377C412.896 206.721 412.737 207.191 412.737 207.787C412.737 208.602 413.039 209.218 413.641 209.635C414.251 210.046 415.022 210.251 415.956 210.251ZM429.217 191.653V212H426.873V191.653H429.217ZM438.003 212.358C437.036 212.358 436.158 212.176 435.37 211.811C434.582 211.44 433.956 210.907 433.492 210.212C433.028 209.51 432.796 208.662 432.796 207.668C432.796 206.794 432.969 206.085 433.313 205.542C433.658 204.992 434.118 204.562 434.694 204.25C435.27 203.939 435.906 203.707 436.602 203.555C437.304 203.396 438.009 203.27 438.718 203.177C439.645 203.058 440.397 202.969 440.973 202.909C441.556 202.843 441.98 202.734 442.245 202.581C442.516 202.429 442.652 202.164 442.652 201.787V201.707C442.652 200.727 442.384 199.965 441.848 199.422C441.318 198.879 440.513 198.607 439.433 198.607C438.314 198.607 437.436 198.852 436.8 199.342C436.165 199.833 435.717 200.356 435.459 200.912L433.234 200.117C433.631 199.19 434.161 198.468 434.823 197.952C435.492 197.428 436.221 197.064 437.009 196.859C437.804 196.647 438.585 196.541 439.354 196.541C439.844 196.541 440.407 196.6 441.043 196.72C441.685 196.832 442.305 197.067 442.901 197.425C443.503 197.783 444.003 198.322 444.401 199.044C444.798 199.766 444.997 200.733 444.997 201.946V212H442.652V209.933H442.533C442.374 210.265 442.109 210.619 441.738 210.997C441.367 211.374 440.874 211.695 440.258 211.96C439.642 212.225 438.89 212.358 438.003 212.358ZM438.36 210.251C439.288 210.251 440.069 210.069 440.705 209.705C441.347 209.341 441.831 208.87 442.156 208.294C442.487 207.718 442.652 207.112 442.652 206.476V204.33C442.553 204.449 442.334 204.558 441.997 204.658C441.665 204.751 441.281 204.833 440.844 204.906C440.414 204.972 439.993 205.032 439.582 205.085C439.178 205.131 438.85 205.171 438.599 205.204C437.989 205.284 437.42 205.413 436.89 205.592C436.367 205.764 435.943 206.026 435.618 206.377C435.3 206.721 435.141 207.191 435.141 207.787C435.141 208.602 435.443 209.218 436.045 209.635C436.655 210.046 437.426 210.251 438.36 210.251ZM438.44 194.673L440.864 190.063H443.606L440.506 194.673H438.44ZM461.209 196.739L455.566 212H453.181L447.538 196.739H450.081L454.294 208.9H454.453L458.665 196.739H461.209ZM470.156 212.318C468.685 212.318 467.417 211.993 466.35 211.344C465.291 210.689 464.473 209.774 463.896 208.602C463.327 207.423 463.042 206.052 463.042 204.489C463.042 202.926 463.327 201.548 463.896 200.356C464.473 199.157 465.274 198.223 466.301 197.554C467.334 196.879 468.539 196.541 469.917 196.541C470.712 196.541 471.497 196.673 472.272 196.938C473.047 197.203 473.752 197.634 474.388 198.23C475.024 198.819 475.531 199.601 475.908 200.574C476.286 201.548 476.474 202.747 476.474 204.171V205.165H464.711V203.138H474.09C474.09 202.277 473.918 201.508 473.573 200.833C473.236 200.157 472.752 199.624 472.123 199.233C471.5 198.842 470.765 198.647 469.917 198.647C468.983 198.647 468.175 198.879 467.493 199.342C466.817 199.799 466.297 200.396 465.933 201.131C465.569 201.866 465.387 202.654 465.387 203.495V204.847C465.387 205.999 465.585 206.976 465.983 207.778C466.387 208.572 466.947 209.178 467.662 209.596C468.377 210.006 469.208 210.212 470.156 210.212C470.772 210.212 471.328 210.126 471.825 209.953C472.328 209.774 472.762 209.51 473.126 209.159C473.491 208.801 473.772 208.357 473.971 207.827L476.236 208.463C475.998 209.231 475.597 209.907 475.034 210.49C474.471 211.066 473.775 211.516 472.947 211.841C472.119 212.159 471.189 212.318 470.156 212.318ZM482.386 191.653V212H480.041V191.653H482.386ZM500.749 212.318C499.318 212.318 498.086 211.98 497.053 211.305C496.02 210.629 495.225 209.698 494.668 208.513C494.112 207.327 493.834 205.973 493.834 204.449C493.834 202.899 494.119 201.532 494.688 200.346C495.264 199.154 496.066 198.223 497.093 197.554C498.126 196.879 499.331 196.541 500.709 196.541C501.782 196.541 502.749 196.739 503.61 197.137C504.471 197.534 505.177 198.091 505.726 198.806C506.276 199.521 506.617 200.356 506.75 201.31H504.405C504.226 200.614 503.829 199.998 503.213 199.462C502.603 198.919 501.782 198.647 500.749 198.647C499.835 198.647 499.033 198.885 498.344 199.362C497.662 199.833 497.129 200.498 496.745 201.359C496.367 202.214 496.179 203.217 496.179 204.37C496.179 205.549 496.364 206.575 496.735 207.45C497.112 208.324 497.642 209.003 498.325 209.486C499.013 209.97 499.821 210.212 500.749 210.212C501.358 210.212 501.911 210.106 502.408 209.894C502.905 209.682 503.325 209.377 503.67 208.98C504.014 208.582 504.259 208.105 504.405 207.549H506.75C506.617 208.45 506.289 209.261 505.766 209.983C505.249 210.698 504.564 211.268 503.709 211.692C502.862 212.109 501.875 212.318 500.749 212.318ZM516.377 212.318C514.999 212.318 513.79 211.99 512.751 211.334C511.717 210.679 510.909 209.761 510.326 208.582C509.75 207.403 509.462 206.026 509.462 204.449C509.462 202.86 509.75 201.472 510.326 200.286C510.909 199.101 511.717 198.18 512.751 197.524C513.79 196.869 514.999 196.541 516.377 196.541C517.755 196.541 518.96 196.869 519.993 197.524C521.033 198.18 521.841 199.101 522.418 200.286C523 201.472 523.292 202.86 523.292 204.449C523.292 206.026 523 207.403 522.418 208.582C521.841 209.761 521.033 210.679 519.993 211.334C518.96 211.99 517.755 212.318 516.377 212.318ZM516.377 210.212C517.423 210.212 518.285 209.943 518.96 209.407C519.636 208.87 520.136 208.165 520.46 207.291C520.785 206.416 520.947 205.469 520.947 204.449C520.947 203.429 520.785 202.479 520.46 201.598C520.136 200.717 519.636 200.005 518.96 199.462C518.285 198.919 517.423 198.647 516.377 198.647C515.33 198.647 514.469 198.919 513.794 199.462C513.118 200.005 512.618 200.717 512.294 201.598C511.969 202.479 511.807 203.429 511.807 204.449C511.807 205.469 511.969 206.416 512.294 207.291C512.618 208.165 513.118 208.87 513.794 209.407C514.469 209.943 515.33 210.212 516.377 210.212ZM526.871 212V196.739H529.136V199.124H529.335C529.653 198.309 530.166 197.677 530.875 197.226C531.584 196.769 532.435 196.541 533.428 196.541C534.435 196.541 535.273 196.769 535.942 197.226C536.618 197.677 537.144 198.309 537.522 199.124H537.681C538.071 198.336 538.658 197.71 539.439 197.246C540.221 196.776 541.158 196.541 542.251 196.541C543.615 196.541 544.731 196.968 545.599 197.822C546.467 198.67 546.901 199.992 546.901 201.787V212H544.556V201.787C544.556 200.661 544.248 199.856 543.632 199.372C543.016 198.889 542.291 198.647 541.456 198.647C540.383 198.647 539.552 198.972 538.962 199.621C538.373 200.263 538.078 201.078 538.078 202.065V212H535.694V201.548C535.694 200.68 535.412 199.982 534.849 199.452C534.286 198.915 533.561 198.647 532.673 198.647C532.064 198.647 531.494 198.809 530.964 199.134C530.441 199.458 530.017 199.909 529.693 200.485C529.375 201.055 529.216 201.714 529.216 202.462V212H526.871ZM570.502 196.739C570.383 195.733 569.899 194.951 569.051 194.395C568.203 193.838 567.164 193.56 565.932 193.56C565.031 193.56 564.243 193.706 563.567 193.997C562.898 194.289 562.375 194.689 561.997 195.199C561.626 195.709 561.441 196.289 561.441 196.938C561.441 197.481 561.57 197.948 561.828 198.339C562.093 198.723 562.431 199.044 562.842 199.303C563.252 199.554 563.683 199.763 564.133 199.929C564.584 200.088 564.998 200.217 565.375 200.316L567.442 200.872C567.972 201.012 568.561 201.204 569.21 201.449C569.866 201.694 570.492 202.028 571.088 202.452C571.691 202.869 572.188 203.406 572.578 204.062C572.969 204.717 573.164 205.522 573.164 206.476C573.164 207.575 572.876 208.569 572.3 209.457C571.73 210.344 570.896 211.05 569.796 211.573C568.704 212.096 567.376 212.358 565.812 212.358C564.355 212.358 563.093 212.123 562.027 211.652C560.967 211.182 560.133 210.526 559.523 209.685C558.921 208.844 558.579 207.867 558.5 206.754H561.043C561.11 207.523 561.368 208.158 561.818 208.662C562.275 209.159 562.852 209.529 563.547 209.774C564.249 210.013 565.004 210.132 565.812 210.132C566.753 210.132 567.597 209.98 568.346 209.675C569.094 209.364 569.687 208.933 570.124 208.384C570.561 207.827 570.78 207.178 570.78 206.436C570.78 205.761 570.591 205.211 570.214 204.787C569.836 204.363 569.339 204.019 568.723 203.754C568.107 203.489 567.442 203.257 566.726 203.058L564.223 202.343C562.633 201.886 561.375 201.233 560.447 200.386C559.52 199.538 559.056 198.428 559.056 197.057C559.056 195.918 559.364 194.925 559.98 194.077C560.603 193.222 561.438 192.56 562.484 192.09C563.537 191.613 564.713 191.374 566.011 191.374C567.323 191.374 568.488 191.61 569.508 192.08C570.528 192.543 571.336 193.179 571.932 193.987C572.535 194.795 572.853 195.713 572.886 196.739H570.502ZM583.534 196.739V198.726H575.626V196.739H583.534ZM577.931 193.083H580.276V207.628C580.276 208.291 580.372 208.788 580.564 209.119C580.762 209.443 581.014 209.662 581.319 209.774C581.63 209.88 581.958 209.933 582.302 209.933C582.561 209.933 582.773 209.92 582.938 209.894C583.104 209.861 583.236 209.834 583.336 209.814L583.813 211.921C583.654 211.98 583.432 212.04 583.147 212.099C582.862 212.166 582.501 212.199 582.064 212.199C581.402 212.199 580.753 212.056 580.117 211.771C579.487 211.487 578.964 211.053 578.547 210.47C578.136 209.887 577.931 209.152 577.931 208.264V193.083ZM593.097 212.318C591.719 212.318 590.511 211.99 589.471 211.334C588.437 210.679 587.629 209.761 587.047 208.582C586.47 207.403 586.182 206.026 586.182 204.449C586.182 202.86 586.47 201.472 587.047 200.286C587.629 199.101 588.437 198.18 589.471 197.524C590.511 196.869 591.719 196.541 593.097 196.541C594.475 196.541 595.68 196.869 596.714 197.524C597.753 198.18 598.561 199.101 599.138 200.286C599.721 201.472 600.012 202.86 600.012 204.449C600.012 206.026 599.721 207.403 599.138 208.582C598.561 209.761 597.753 210.679 596.714 211.334C595.68 211.99 594.475 212.318 593.097 212.318ZM593.097 210.212C594.144 210.212 595.005 209.943 595.68 209.407C596.356 208.87 596.856 208.165 597.18 207.291C597.505 206.416 597.667 205.469 597.667 204.449C597.667 203.429 597.505 202.479 597.18 201.598C596.856 200.717 596.356 200.005 595.68 199.462C595.005 198.919 594.144 198.647 593.097 198.647C592.051 198.647 591.19 198.919 590.514 199.462C589.838 200.005 589.338 200.717 589.014 201.598C588.689 202.479 588.527 203.429 588.527 204.449C588.527 205.469 588.689 206.416 589.014 207.291C589.338 208.165 589.838 208.87 590.514 209.407C591.19 209.943 592.051 210.212 593.097 210.212ZM603.591 212V196.739H605.857V199.044H606.015C606.294 198.289 606.797 197.677 607.526 197.206C608.254 196.736 609.076 196.501 609.99 196.501C610.162 196.501 610.377 196.504 610.635 196.511C610.894 196.518 611.089 196.527 611.222 196.541V198.925C611.142 198.905 610.96 198.876 610.675 198.836C610.397 198.789 610.102 198.766 609.791 198.766C609.049 198.766 608.387 198.922 607.804 199.233C607.228 199.538 606.771 199.962 606.433 200.505C606.102 201.041 605.936 201.654 605.936 202.343V212H603.591ZM615.976 217.723C615.578 217.723 615.224 217.69 614.913 217.623C614.601 217.564 614.386 217.504 614.267 217.445L614.863 215.378C615.432 215.524 615.936 215.577 616.373 215.537C616.81 215.497 617.198 215.302 617.535 214.951C617.88 214.606 618.194 214.047 618.479 213.272L618.916 212.079L613.273 196.739H615.817L620.029 208.9H620.188L624.401 196.739H626.944L620.466 214.226C620.175 215.014 619.814 215.666 619.383 216.183C618.953 216.706 618.453 217.093 617.883 217.345C617.32 217.597 616.684 217.723 615.976 217.723ZM630.357 212V191.653H632.702V199.164H632.9C633.073 198.899 633.311 198.561 633.616 198.15C633.927 197.733 634.371 197.362 634.947 197.037C635.53 196.706 636.318 196.541 637.312 196.541C638.597 196.541 639.729 196.862 640.709 197.504C641.69 198.147 642.455 199.058 643.004 200.237C643.554 201.416 643.829 202.807 643.829 204.409C643.829 206.026 643.554 207.426 643.004 208.612C642.455 209.791 641.693 210.705 640.719 211.354C639.746 211.997 638.623 212.318 637.351 212.318C636.371 212.318 635.586 212.156 634.997 211.831C634.407 211.5 633.953 211.126 633.636 210.708C633.318 210.285 633.073 209.933 632.9 209.655H632.622V212H630.357ZM632.662 204.37C632.662 205.522 632.831 206.539 633.169 207.42C633.506 208.294 634 208.98 634.649 209.476C635.298 209.967 636.093 210.212 637.033 210.212C638.014 210.212 638.832 209.953 639.487 209.437C640.15 208.913 640.647 208.211 640.978 207.33C641.315 206.443 641.484 205.456 641.484 204.37C641.484 203.297 641.319 202.33 640.988 201.469C640.663 200.601 640.17 199.915 639.507 199.412C638.852 198.902 638.027 198.647 637.033 198.647C636.08 198.647 635.278 198.889 634.629 199.372C633.98 199.849 633.49 200.518 633.159 201.379C632.827 202.234 632.662 203.23 632.662 204.37ZM653.615 212.318C652.238 212.318 651.029 211.99 649.989 211.334C648.956 210.679 648.148 209.761 647.565 208.582C646.989 207.403 646.7 206.026 646.7 204.449C646.7 202.86 646.989 201.472 647.565 200.286C648.148 199.101 648.956 198.18 649.989 197.524C651.029 196.869 652.238 196.541 653.615 196.541C654.993 196.541 656.199 196.869 657.232 197.524C658.272 198.18 659.08 199.101 659.656 200.286C660.239 201.472 660.53 202.86 660.53 204.449C660.53 206.026 660.239 207.403 659.656 208.582C659.08 209.761 658.272 210.679 657.232 211.334C656.199 211.99 654.993 212.318 653.615 212.318ZM653.615 210.212C654.662 210.212 655.523 209.943 656.199 209.407C656.874 208.87 657.374 208.165 657.699 207.291C658.023 206.416 658.186 205.469 658.186 204.449C658.186 203.429 658.023 202.479 657.699 201.598C657.374 200.717 656.874 200.005 656.199 199.462C655.523 198.919 654.662 198.647 653.615 198.647C652.569 198.647 651.708 198.919 651.032 199.462C650.357 200.005 649.856 200.717 649.532 201.598C649.207 202.479 649.045 203.429 649.045 204.449C649.045 205.469 649.207 206.416 649.532 207.291C649.856 208.165 650.357 208.87 651.032 209.407C651.708 209.943 652.569 210.212 653.615 210.212ZM670.309 212.318C668.931 212.318 667.723 211.99 666.683 211.334C665.649 210.679 664.841 209.761 664.258 208.582C663.682 207.403 663.394 206.026 663.394 204.449C663.394 202.86 663.682 201.472 664.258 200.286C664.841 199.101 665.649 198.18 666.683 197.524C667.723 196.869 668.931 196.541 670.309 196.541C671.687 196.541 672.892 196.869 673.926 197.524C674.965 198.18 675.773 199.101 676.35 200.286C676.933 201.472 677.224 202.86 677.224 204.449C677.224 206.026 676.933 207.403 676.35 208.582C675.773 209.761 674.965 210.679 673.926 211.334C672.892 211.99 671.687 212.318 670.309 212.318ZM670.309 210.212C671.356 210.212 672.217 209.943 672.892 209.407C673.568 208.87 674.068 208.165 674.392 207.291C674.717 206.416 674.879 205.469 674.879 204.449C674.879 203.429 674.717 202.479 674.392 201.598C674.068 200.717 673.568 200.005 672.892 199.462C672.217 198.919 671.356 198.647 670.309 198.647C669.263 198.647 668.401 198.919 667.726 199.462C667.05 200.005 666.55 200.717 666.226 201.598C665.901 202.479 665.739 203.429 665.739 204.449C665.739 205.469 665.901 206.416 666.226 207.291C666.55 208.165 667.05 208.87 667.726 209.407C668.401 209.943 669.263 210.212 670.309 210.212ZM682.989 206.436L682.949 203.535H683.426L690.103 196.739H693.004L685.89 203.933H685.691L682.989 206.436ZM680.803 212V191.653H683.148V212H680.803ZM690.5 212L684.539 204.449L686.208 202.82L693.481 212H690.5Z" fill="#989898"/>
<path d="M54.742 62H48.3158V44.6145H54.7335C56.5049 44.6145 58.0301 44.9626 59.3091 45.6587C60.5937 46.3491 61.5841 47.3451 62.2802 48.6468C62.9763 49.9428 63.3244 51.4934 63.3244 53.2988C63.3244 55.1098 62.9763 56.6661 62.2802 57.9677C61.5898 59.2694 60.6022 60.2682 59.3176 60.9643C58.0329 61.6548 56.5077 62 54.742 62ZM52.5179 58.4176H54.5807C55.5541 58.4176 56.3775 58.2535 57.051 57.9253C57.7301 57.5914 58.2423 57.0509 58.5875 56.3039C58.9384 55.5512 59.1138 54.5495 59.1138 53.2988C59.1138 52.0481 58.9384 51.052 58.5875 50.3106C58.2366 49.5636 57.7188 49.026 57.034 48.6977C56.3549 48.3638 55.5173 48.1969 54.5213 48.1969H52.5179V58.4176ZM71.8728 62.2462C70.5089 62.2462 69.3318 61.9774 68.3414 61.4397C67.3566 60.8964 66.5983 60.1239 66.0663 59.1222C65.54 58.1149 65.2768 56.9179 65.2768 55.5314C65.2768 54.1845 65.5428 53.0073 66.0748 51.9999C66.6068 50.9869 67.3566 50.2003 68.3244 49.64C69.2921 49.0741 70.4325 48.7911 71.7455 48.7911C72.6736 48.7911 73.5225 48.9354 74.2922 49.224C75.0618 49.5127 75.7268 49.9399 76.2871 50.5059C76.8474 51.0718 77.2831 51.7707 77.5944 52.6027C77.9057 53.4289 78.0613 54.3769 78.0613 55.4465V56.4821H66.7285V54.0713H74.1988C74.1931 53.6298 74.0884 53.2365 73.8847 52.8913C73.681 52.5461 73.4008 52.2773 73.0443 52.0848C72.6934 51.8868 72.2888 51.7877 71.8304 51.7877C71.3663 51.7877 70.9503 51.8924 70.5825 52.1018C70.2146 52.3056 69.9232 52.5857 69.7081 52.9422C69.493 53.2931 69.3799 53.6921 69.3685 54.1392V56.5925C69.3685 57.1245 69.4732 57.5914 69.6826 57.9932C69.892 58.3893 70.1891 58.6978 70.574 58.9185C70.9588 59.1392 71.4172 59.2496 71.9492 59.2496C72.3171 59.2496 72.651 59.1986 72.9509 59.0968C73.2508 58.9949 73.5083 58.8449 73.7234 58.6468C73.9385 58.4488 74.0997 58.2054 74.2073 57.9168L78.0188 58.0271C77.8604 58.8817 77.5123 59.6259 76.9747 60.2598C76.4427 60.8879 75.7438 61.3775 74.8779 61.7284C74.012 62.0736 73.0103 62.2462 71.8728 62.2462ZM91.5652 52.9422L87.7536 53.0441C87.714 52.7724 87.6065 52.5319 87.431 52.3225C87.2556 52.1075 87.0264 51.9405 86.7434 51.8217C86.4661 51.6972 86.1435 51.6349 85.7757 51.6349C85.2946 51.6349 84.8843 51.7311 84.5448 51.9235C84.2109 52.116 84.0467 52.3763 84.0524 52.7045C84.0467 52.9592 84.1486 53.1799 84.358 53.3667C84.5731 53.5534 84.9551 53.7034 85.504 53.8166L88.0168 54.292C89.3184 54.541 90.2862 54.9541 90.92 55.5314C91.5595 56.1086 91.8821 56.8726 91.8878 57.8234C91.8821 58.7176 91.6161 59.4957 91.0898 60.1579C90.5691 60.82 89.8561 61.335 88.9506 61.7029C88.0451 62.0651 87.0094 62.2462 85.8436 62.2462C83.9817 62.2462 82.5131 61.8642 81.4378 61.1002C80.3682 60.3305 79.757 59.3005 79.6042 58.0102L83.7044 57.9083C83.7949 58.3837 84.0298 58.7459 84.4089 58.9949C84.7881 59.2439 85.272 59.3684 85.8606 59.3684C86.3925 59.3684 86.8255 59.2694 87.1594 59.0713C87.4933 58.8732 87.6631 58.6101 87.6687 58.2818C87.6631 57.9875 87.5329 57.7527 87.2782 57.5772C87.0236 57.3961 86.6246 57.2546 86.0813 57.1528L83.8062 56.7198C82.4989 56.4821 81.5255 56.0435 80.886 55.404C80.2465 54.7589 79.9296 53.9383 79.9352 52.9422C79.9296 52.0707 80.1616 51.3265 80.6313 50.7096C81.1011 50.0871 81.7689 49.6117 82.6347 49.2835C83.5006 48.9552 84.5221 48.7911 85.6993 48.7911C87.465 48.7911 88.8572 49.1618 89.8759 49.9032C90.8945 50.6389 91.4576 51.6519 91.5652 52.9422ZM93.9315 62V48.9609H98.0826V62H93.9315ZM96.0113 47.4414C95.4284 47.4414 94.9275 47.2489 94.5087 46.8641C94.0899 46.4736 93.8806 46.0039 93.8806 45.4549C93.8806 44.9116 94.0899 44.4476 94.5087 44.0627C94.9275 43.6722 95.4284 43.477 96.0113 43.477C96.5999 43.477 97.1007 43.6722 97.5138 44.0627C97.9326 44.4476 98.142 44.9116 98.142 45.4549C98.142 46.0039 97.9326 46.4736 97.5138 46.8641C97.1007 47.2489 96.5999 47.4414 96.0113 47.4414ZM106.803 67.1613C105.564 67.1613 104.502 66.9887 103.62 66.6435C102.737 66.2983 102.043 65.8257 101.54 65.2258C101.036 64.6259 100.733 63.9468 100.631 63.1885L104.562 62.9677C104.635 63.2337 104.771 63.4658 104.969 63.6638C105.173 63.8619 105.436 64.0147 105.759 64.1223C106.087 64.2298 106.472 64.2835 106.913 64.2835C107.609 64.2835 108.184 64.1138 108.637 63.7742C109.095 63.4403 109.324 62.8546 109.324 62.017V59.7249H109.18C109.016 60.1268 108.767 60.4861 108.433 60.803C108.099 61.12 107.683 61.369 107.185 61.5501C106.693 61.7312 106.127 61.8217 105.487 61.8217C104.536 61.8217 103.665 61.601 102.873 61.1596C102.086 60.7125 101.455 60.0221 100.979 59.0883C100.51 58.1488 100.275 56.9406 100.275 55.4635C100.275 53.9411 100.518 52.6876 101.005 51.7028C101.492 50.7124 102.128 49.9796 102.915 49.5042C103.707 49.0288 104.559 48.7911 105.47 48.7911C106.155 48.7911 106.741 48.9099 107.227 49.1476C107.72 49.3797 108.124 49.6796 108.441 50.0475C108.758 50.4153 108.999 50.7973 109.163 51.1935H109.282V48.9609H113.416V62.0509C113.416 63.1545 113.139 64.0855 112.584 64.8438C112.029 65.6022 111.254 66.1766 110.258 66.5671C109.262 66.9632 108.11 67.1613 106.803 67.1613ZM106.93 58.7996C107.434 58.7996 107.864 58.6666 108.221 58.4007C108.577 58.1347 108.852 57.7527 109.044 57.2546C109.236 56.7566 109.333 56.1596 109.333 55.4635C109.333 54.756 109.236 54.1477 109.044 53.6383C108.857 53.1233 108.583 52.7272 108.221 52.4499C107.864 52.1726 107.434 52.0339 106.93 52.0339C106.415 52.0339 105.98 52.1754 105.623 52.4584C105.266 52.7413 104.995 53.1403 104.808 53.6553C104.627 54.1646 104.536 54.7674 104.536 55.4635C104.536 56.1596 104.63 56.7566 104.817 57.2546C105.003 57.7527 105.272 58.1347 105.623 58.4007C105.98 58.6666 106.415 58.7996 106.93 58.7996ZM120.213 54.5636V62H116.062V48.9609H120.01V51.3548H120.154C120.443 50.5568 120.935 49.9315 121.631 49.4787C122.327 49.0203 123.156 48.7911 124.118 48.7911C125.035 48.7911 125.83 48.9977 126.504 49.4108C127.183 49.8183 127.709 50.3899 128.083 51.1256C128.462 51.8556 128.649 52.7102 128.643 53.6893V62H124.492V54.5042C124.498 53.7798 124.314 53.2139 123.94 52.8064C123.572 52.3989 123.06 52.1952 122.404 52.1952C121.968 52.1952 121.583 52.2914 121.249 52.4838C120.921 52.6706 120.666 52.9394 120.485 53.2903C120.31 53.6412 120.219 54.0656 120.213 54.5636ZM145.746 49.8268C145.69 49.2042 145.438 48.7204 144.991 48.3751C144.549 48.0243 143.918 47.8488 143.098 47.8488C142.554 47.8488 142.102 47.9196 141.739 48.061C141.377 48.2025 141.106 48.3978 140.925 48.6468C140.743 48.8901 140.65 49.1703 140.644 49.4872C140.633 49.7475 140.684 49.9767 140.797 50.1748C140.916 50.3729 141.086 50.5483 141.307 50.7011C141.533 50.8483 141.805 50.9784 142.121 51.0916C142.438 51.2048 142.795 51.3038 143.191 51.3887L144.685 51.7283C145.545 51.9151 146.304 52.1641 146.96 52.4753C147.622 52.7866 148.177 53.1573 148.624 53.5874C149.077 54.0175 149.419 54.5127 149.651 55.073C149.883 55.6332 150.002 56.2614 150.008 56.9575C150.002 58.0554 149.725 58.9977 149.176 59.7844C148.627 60.571 147.837 61.1737 146.807 61.5925C145.783 62.0113 144.546 62.2207 143.098 62.2207C141.643 62.2207 140.376 62.0028 139.295 61.5671C138.214 61.1313 137.373 60.4691 136.773 59.5806C136.173 58.6921 135.865 57.5687 135.848 56.2105H139.872C139.906 56.7708 140.056 57.2377 140.322 57.6112C140.588 57.9847 140.953 58.2677 141.417 58.4601C141.887 58.6525 142.43 58.7487 143.047 58.7487C143.613 58.7487 144.094 58.6723 144.49 58.5195C144.892 58.3667 145.2 58.1545 145.415 57.8828C145.63 57.6112 145.741 57.2999 145.746 56.949C145.741 56.6208 145.639 56.3407 145.441 56.1086C145.243 55.8709 144.937 55.6672 144.524 55.4974C144.116 55.322 143.596 55.1607 142.962 55.0135L141.145 54.5891C139.64 54.2439 138.454 53.6864 137.588 52.9168C136.722 52.1414 136.292 51.0945 136.298 49.7758C136.292 48.7006 136.581 47.7583 137.164 46.949C137.747 46.1397 138.553 45.5087 139.583 45.0559C140.613 44.6032 141.788 44.3768 143.106 44.3768C144.453 44.3768 145.622 44.606 146.612 45.0644C147.608 45.5172 148.381 46.1539 148.93 46.9745C149.479 47.7951 149.759 48.7458 149.77 49.8268H145.746ZM154.668 66.8897C154.17 66.8897 153.7 66.8501 153.259 66.7708C152.818 66.6973 152.438 66.5982 152.122 66.4737L153.038 63.4601C153.446 63.5959 153.814 63.6752 154.142 63.6978C154.476 63.7204 154.762 63.6667 154.999 63.5365C155.243 63.412 155.429 63.1885 155.56 62.8659L155.721 62.4754L151.086 48.9609H155.432L157.835 58.2648H157.97L160.407 48.9609H164.779L159.863 63.2479C159.626 63.961 159.289 64.5891 158.853 65.1324C158.423 65.6814 157.866 66.1115 157.181 66.4228C156.502 66.734 155.664 66.8897 154.668 66.8897ZM177.754 52.9422L173.943 53.0441C173.903 52.7724 173.795 52.5319 173.62 52.3225C173.444 52.1075 173.215 51.9405 172.932 51.8217C172.655 51.6972 172.332 51.6349 171.965 51.6349C171.484 51.6349 171.073 51.7311 170.734 51.9235C170.4 52.116 170.236 52.3763 170.241 52.7045C170.236 52.9592 170.338 53.1799 170.547 53.3667C170.762 53.5534 171.144 53.7034 171.693 53.8166L174.206 54.292C175.507 54.541 176.475 54.9541 177.109 55.5314C177.748 56.1086 178.071 56.8726 178.077 57.8234C178.071 58.7176 177.805 59.4957 177.279 60.1579C176.758 60.82 176.045 61.335 175.139 61.7029C174.234 62.0651 173.198 62.2462 172.032 62.2462C170.171 62.2462 168.702 61.8642 167.627 61.1002C166.557 60.3305 165.946 59.3005 165.793 58.0102L169.893 57.9083C169.984 58.3837 170.219 58.7459 170.598 58.9949C170.977 59.2439 171.461 59.3684 172.049 59.3684C172.581 59.3684 173.014 59.2694 173.348 59.0713C173.682 58.8732 173.852 58.6101 173.858 58.2818C173.852 57.9875 173.722 57.7527 173.467 57.5772C173.212 57.3961 172.813 57.2546 172.27 57.1528L169.995 56.7198C168.688 56.4821 167.714 56.0435 167.075 55.404C166.435 54.7589 166.118 53.9383 166.124 52.9422C166.118 52.0707 166.351 51.3265 166.82 50.7096C167.29 50.0871 167.958 49.6117 168.824 49.2835C169.69 48.9552 170.711 48.7911 171.888 48.7911C173.654 48.7911 175.046 49.1618 176.065 49.9032C177.083 50.6389 177.647 51.6519 177.754 52.9422ZM187.48 48.9609V52.0169H179.255V48.9609H187.48ZM180.978 45.8369H185.129V57.8998C185.129 58.1545 185.169 58.361 185.248 58.5195C185.333 58.6723 185.454 58.7827 185.613 58.8506C185.771 58.9128 185.961 58.944 186.182 58.944C186.34 58.944 186.507 58.9298 186.682 58.9015C186.863 58.8676 186.999 58.8393 187.09 58.8166L187.718 61.8132C187.52 61.8698 187.24 61.9406 186.878 62.0255C186.521 62.1104 186.094 62.1641 185.596 62.1868C184.622 62.232 183.788 62.1188 183.092 61.8472C182.401 61.5699 181.872 61.1398 181.504 60.5569C181.142 59.974 180.966 59.2411 180.978 58.3582V45.8369ZM195.553 62.2462C194.19 62.2462 193.012 61.9774 192.022 61.4397C191.037 60.8964 190.279 60.1239 189.747 59.1222C189.221 58.1149 188.957 56.9179 188.957 55.5314C188.957 54.1845 189.223 53.0073 189.755 51.9999C190.287 50.9869 191.037 50.2003 192.005 49.64C192.973 49.0741 194.113 48.7911 195.426 48.7911C196.354 48.7911 197.203 48.9354 197.973 49.224C198.742 49.5127 199.407 49.9399 199.968 50.5059C200.528 51.0718 200.964 51.7707 201.275 52.6027C201.586 53.4289 201.742 54.3769 201.742 55.4465V56.4821H190.409V54.0713H197.879C197.874 53.6298 197.769 53.2365 197.565 52.8913C197.362 52.5461 197.081 52.2773 196.725 52.0848C196.374 51.8868 195.969 51.7877 195.511 51.7877C195.047 51.7877 194.631 51.8924 194.263 52.1018C193.895 52.3056 193.604 52.5857 193.389 52.9422C193.174 53.2931 193.06 53.6921 193.049 54.1392V56.5925C193.049 57.1245 193.154 57.5914 193.363 57.9932C193.573 58.3893 193.87 58.6978 194.255 58.9185C194.639 59.1392 195.098 59.2496 195.63 59.2496C195.998 59.2496 196.332 59.1986 196.632 59.0968C196.931 58.9949 197.189 58.8449 197.404 58.6468C197.619 58.4488 197.78 58.2054 197.888 57.9168L201.699 58.0271C201.541 58.8817 201.193 59.6259 200.655 60.2598C200.123 60.8879 199.424 61.3775 198.559 61.7284C197.693 62.0736 196.691 62.2462 195.553 62.2462ZM203.862 62V48.9609H207.809V51.3548H207.954C208.225 50.5625 208.684 49.9371 209.329 49.4787C209.974 49.0203 210.744 48.7911 211.638 48.7911C212.543 48.7911 213.319 49.0231 213.964 49.4872C214.609 49.9513 215.019 50.5738 215.195 51.3548H215.331C215.574 50.5795 216.049 49.9598 216.757 49.4957C217.464 49.026 218.299 48.7911 219.261 48.7911C220.495 48.7911 221.497 49.1873 222.266 49.9796C223.036 50.7662 223.421 51.8471 223.421 53.2224V62H219.27V54.1731C219.27 53.5223 219.103 53.0271 218.769 52.6876C218.435 52.3423 218.002 52.1697 217.47 52.1697C216.898 52.1697 216.448 52.3565 216.12 52.73C215.798 53.0979 215.636 53.5931 215.636 54.2156V62H211.646V54.1307C211.646 53.5251 211.482 53.0469 211.154 52.696C210.826 52.3452 210.393 52.1697 209.855 52.1697C209.493 52.1697 209.173 52.2574 208.896 52.4329C208.619 52.6027 208.401 52.846 208.242 53.1629C208.09 53.4799 208.013 53.8534 208.013 54.2835V62H203.862ZM240.526 49.8268C240.469 49.2042 240.218 48.7204 239.771 48.3751C239.329 48.0243 238.698 47.8488 237.877 47.8488C237.334 47.8488 236.881 47.9196 236.519 48.061C236.157 48.2025 235.885 48.3978 235.704 48.6468C235.523 48.8901 235.43 49.1703 235.424 49.4872C235.413 49.7475 235.464 49.9767 235.577 50.1748C235.696 50.3729 235.866 50.5483 236.086 50.7011C236.313 50.8483 236.584 50.9784 236.901 51.0916C237.218 51.2048 237.575 51.3038 237.971 51.3887L239.465 51.7283C240.325 51.9151 241.084 52.1641 241.74 52.4753C242.402 52.7866 242.957 53.1573 243.404 53.5874C243.857 54.0175 244.199 54.5127 244.431 55.073C244.663 55.6332 244.782 56.2614 244.788 56.9575C244.782 58.0554 244.505 58.9977 243.956 59.7844C243.407 60.571 242.617 61.1737 241.587 61.5925C240.563 62.0113 239.326 62.2207 237.877 62.2207C236.423 62.2207 235.155 62.0028 234.074 61.5671C232.993 61.1313 232.153 60.4691 231.553 59.5806C230.953 58.6921 230.645 57.5687 230.628 56.2105H234.652C234.686 56.7708 234.836 57.2377 235.102 57.6112C235.368 57.9847 235.733 58.2677 236.197 58.4601C236.666 58.6525 237.21 58.7487 237.827 58.7487C238.392 58.7487 238.874 58.6723 239.27 58.5195C239.671 58.3667 239.98 58.1545 240.195 57.8828C240.41 57.6112 240.52 57.2999 240.526 56.949C240.52 56.6208 240.419 56.3407 240.22 56.1086C240.022 55.8709 239.717 55.6672 239.304 55.4974C238.896 55.322 238.376 55.1607 237.742 55.0135L235.925 54.5891C234.42 54.2439 233.234 53.6864 232.368 52.9168C231.502 52.1414 231.072 51.0945 231.078 49.7758C231.072 48.7006 231.361 47.7583 231.944 46.949C232.527 46.1397 233.333 45.5087 234.363 45.0559C235.393 44.6032 236.567 44.3768 237.886 44.3768C239.233 44.3768 240.402 44.606 241.392 45.0644C242.388 45.5172 243.16 46.1539 243.709 46.9745C244.258 47.7951 244.539 48.7458 244.55 49.8268H240.526ZM250.653 58.5789L250.67 53.6298H251.248L254.915 48.9609H259.618L254.168 55.6502H253.073L250.653 58.5789ZM246.91 62V44.6145H251.061V62H246.91ZM255.008 62L251.596 56.584L254.329 53.6383L259.805 62H255.008ZM261.103 62V48.9609H265.255V62H261.103ZM263.183 47.4414C262.6 47.4414 262.099 47.2489 261.681 46.8641C261.262 46.4736 261.052 46.0039 261.052 45.4549C261.052 44.9116 261.262 44.4476 261.681 44.0627C262.099 43.6722 262.6 43.477 263.183 43.477C263.772 43.477 264.273 43.6722 264.686 44.0627C265.105 44.4476 265.314 44.9116 265.314 45.4549C265.314 46.0039 265.105 46.4736 264.686 46.8641C264.273 47.2489 263.772 47.4414 263.183 47.4414ZM272.048 44.6145V62H267.897V44.6145H272.048ZM278.841 44.6145V62H274.69V44.6145H278.841ZM292.867 52.9422L289.056 53.0441C289.016 52.7724 288.908 52.5319 288.733 52.3225C288.558 52.1075 288.328 51.9405 288.045 51.8217C287.768 51.6972 287.446 51.6349 287.078 51.6349C286.597 51.6349 286.186 51.7311 285.847 51.9235C285.513 52.116 285.349 52.3763 285.354 52.7045C285.349 52.9592 285.451 53.1799 285.66 53.3667C285.875 53.5534 286.257 53.7034 286.806 53.8166L289.319 54.292C290.62 54.541 291.588 54.9541 292.222 55.5314C292.862 56.1086 293.184 56.8726 293.19 57.8234C293.184 58.7176 292.918 59.4957 292.392 60.1579C291.871 60.82 291.158 61.335 290.253 61.7029C289.347 62.0651 288.311 62.2462 287.146 62.2462C285.284 62.2462 283.815 61.8642 282.74 61.1002C281.67 60.3305 281.059 59.3005 280.906 58.0102L285.006 57.9083C285.097 58.3837 285.332 58.7459 285.711 58.9949C286.09 59.2439 286.574 59.3684 287.163 59.3684C287.695 59.3684 288.127 59.2694 288.461 59.0713C288.795 58.8732 288.965 58.6101 288.971 58.2818C288.965 57.9875 288.835 57.7527 288.58 57.5772C288.326 57.3961 287.927 57.2546 287.383 57.1528L285.108 56.7198C283.801 56.4821 282.827 56.0435 282.188 55.404C281.548 54.7589 281.232 53.9383 281.237 52.9422C281.232 52.0707 281.464 51.3265 281.933 50.7096C282.403 50.0871 283.071 49.6117 283.937 49.2835C284.803 48.9552 285.824 48.7911 287.001 48.7911C288.767 48.7911 290.159 49.1618 291.178 49.9032C292.197 50.6389 292.76 51.6519 292.867 52.9422Z" fill="white"/>
<path d="M48.2734 86.9842V75.3939H49.9655V79.7006H50.0674C50.1655 79.5195 50.3069 79.3101 50.4918 79.0724C50.6767 78.8347 50.9332 78.6272 51.2615 78.4499C51.5897 78.2688 52.0236 78.1783 52.5631 78.1783C53.2649 78.1783 53.8912 78.3556 54.442 78.7102C54.9929 79.0649 55.4249 79.5761 55.738 80.2439C56.0549 80.9117 56.2134 81.7153 56.2134 82.6548C56.2134 83.5942 56.0568 84.3998 55.7437 85.0713C55.4305 85.7391 55.0004 86.2541 54.4534 86.6163C53.9063 86.9748 53.2819 87.154 52.5801 87.154C52.0519 87.154 51.6199 87.0653 51.2841 86.888C50.9521 86.7107 50.6918 86.5031 50.5031 86.2655C50.3145 86.0278 50.1692 85.8165 50.0674 85.6316H49.9259V86.9842H48.2734ZM49.9315 82.6378C49.9315 83.249 50.0202 83.7848 50.1975 84.2451C50.3749 84.7054 50.6314 85.0657 50.9672 85.326C51.303 85.5826 51.7142 85.7108 52.2009 85.7108C52.7065 85.7108 53.1291 85.5769 53.4686 85.309C53.8082 85.0374 54.0647 84.6695 54.2383 84.2055C54.4156 83.7414 54.5043 83.2188 54.5043 82.6378C54.5043 82.0643 54.4175 81.5493 54.244 81.0928C54.0742 80.6363 53.8176 80.276 53.4743 80.0119C53.1347 79.7478 52.7103 79.6157 52.2009 79.6157C51.7105 79.6157 51.2954 79.7421 50.9559 79.9949C50.6201 80.2477 50.3654 80.6005 50.1919 81.0532C50.0183 81.506 49.9315 82.0342 49.9315 82.6378ZM58.8874 90.244C58.6347 90.244 58.4045 90.2232 58.197 90.1817C57.9895 90.144 57.8348 90.1025 57.7329 90.0572L58.1404 88.6707C58.4498 88.7537 58.7252 88.7895 58.9667 88.7782C59.2081 88.7669 59.4213 88.6763 59.6062 88.5066C59.7948 88.3368 59.9608 88.0595 60.1042 87.6746L60.3136 87.0974L57.133 78.2914H58.944L61.1455 85.0374H61.2361L63.4376 78.2914H65.2542L61.6718 88.1444C61.5058 88.5971 61.2945 88.9801 61.038 89.2932C60.7814 89.6101 60.4758 89.8478 60.1212 90.0063C59.7665 90.1647 59.3553 90.244 58.8874 90.244ZM79.0418 79.0555C78.9323 78.7121 78.7852 78.4046 78.6003 78.133C78.4192 77.8576 78.2023 77.6236 77.9495 77.4312C77.6967 77.235 77.4081 77.086 77.0836 76.9841C76.7629 76.8823 76.4102 76.8313 76.0253 76.8313C75.3726 76.8313 74.7841 76.9992 74.2596 77.335C73.7352 77.6708 73.3202 78.1632 73.0146 78.8121C72.7127 79.4573 72.5618 80.2477 72.5618 81.1834C72.5618 82.1228 72.7146 82.917 73.0202 83.566C73.3258 84.2149 73.7446 84.7073 74.2766 85.043C74.8086 85.3788 75.4141 85.5467 76.0932 85.5467C76.7233 85.5467 77.2723 85.4184 77.7401 85.1619C78.2117 84.9053 78.5758 84.5431 78.8324 84.0753C79.0927 83.6037 79.2229 83.0491 79.2229 82.4114L79.6756 82.4963H76.3592V81.0532H80.915V82.3718C80.915 83.3452 80.7075 84.1904 80.2925 84.9072C79.8812 85.6203 79.3115 86.1711 78.5834 86.5597C77.859 86.9483 77.0289 87.1427 76.0932 87.1427C75.0444 87.1427 74.1238 86.9012 73.3315 86.4183C72.543 85.9353 71.928 85.2505 71.4865 84.3639C71.0451 83.4735 70.8244 82.4171 70.8244 81.1947C70.8244 80.2703 70.9527 79.4403 71.2092 78.7046C71.4658 77.9689 71.8261 77.3445 72.2902 76.8313C72.758 76.3145 73.307 75.9202 73.937 75.6485C74.5709 75.3731 75.2632 75.2354 76.014 75.2354C76.6403 75.2354 77.2232 75.3278 77.7628 75.5127C78.306 75.6976 78.789 75.9598 79.2115 76.2994C79.6379 76.6389 79.9906 77.0426 80.2698 77.5105C80.549 77.9745 80.7377 78.4895 80.8358 79.0555H79.0418ZM88.5056 83.3792V78.2914H90.2034V86.9842H88.5396V85.4788H88.449C88.249 85.9429 87.9283 86.3296 87.4869 86.639C87.0493 86.9446 86.5041 87.0974 85.8514 87.0974C85.293 87.0974 84.7987 86.9748 84.3686 86.7295C83.9423 86.4805 83.6065 86.1127 83.3613 85.626C83.1198 85.1392 82.9991 84.5375 82.9991 83.8206V78.2914H84.6912V83.6169C84.6912 84.2092 84.8553 84.6808 85.1836 85.0317C85.5118 85.3826 85.9381 85.558 86.4626 85.558C86.7795 85.558 87.0945 85.4788 87.4077 85.3203C87.7246 85.1619 87.9868 84.9223 88.1943 84.6016C88.4056 84.2809 88.5094 83.8734 88.5056 83.3792ZM98.9909 80.4137L97.4573 80.6853C97.3931 80.4892 97.2912 80.3024 97.1516 80.1251C97.0158 79.9477 96.831 79.8025 96.597 79.6893C96.3631 79.5761 96.0707 79.5195 95.7198 79.5195C95.2407 79.5195 94.8408 79.6271 94.5201 79.8421C94.1994 80.0534 94.039 80.3269 94.039 80.6627C94.039 80.9532 94.1465 81.1871 94.3616 81.3645C94.5767 81.5418 94.9238 81.6871 95.4029 81.8002L96.7838 82.1172C97.5836 82.302 98.1798 82.5869 98.5721 82.9717C98.9645 83.3566 99.1607 83.8565 99.1607 84.4714C99.1607 84.9921 99.0098 85.4562 98.708 85.8636C98.4099 86.2673 97.993 86.5843 97.4573 86.8144C96.9253 87.0446 96.3084 87.1596 95.6066 87.1596C94.6332 87.1596 93.839 86.9521 93.2241 86.5371C92.6091 86.1183 92.2318 85.5241 92.0922 84.7544L93.7277 84.5054C93.8296 84.9317 94.039 85.2543 94.3559 85.4731C94.6729 85.6882 95.086 85.7957 95.5953 85.7957C96.1499 85.7957 96.5933 85.6807 96.9253 85.4505C97.2573 85.2166 97.4233 84.9317 97.4233 84.596C97.4233 84.3243 97.3214 84.096 97.1177 83.9112C96.9177 83.7263 96.6102 83.5867 96.1952 83.4924L94.7238 83.1698C93.9126 82.9849 93.3127 82.6906 92.9241 82.2869C92.5393 81.8832 92.3469 81.372 92.3469 80.7533C92.3469 80.2401 92.4902 79.7912 92.777 79.4063C93.0637 79.0215 93.4599 78.7216 93.9654 78.5065C94.471 78.2877 95.0501 78.1783 95.7029 78.1783C96.6423 78.1783 97.3818 78.382 97.9213 78.7895C98.4608 79.1932 98.8174 79.7346 98.9909 80.4137ZM105.079 78.2914V79.6497H100.331V78.2914H105.079ZM101.604 76.2088H103.296V84.4318C103.296 84.7601 103.345 85.0072 103.443 85.1732C103.542 85.3354 103.668 85.4467 103.823 85.5071C103.981 85.5637 104.153 85.592 104.338 85.592C104.473 85.592 104.592 85.5826 104.694 85.5637C104.796 85.5448 104.875 85.5297 104.932 85.5184L105.237 86.9163C105.139 86.954 105 86.9917 104.819 87.0295C104.638 87.071 104.411 87.0936 104.14 87.0974C103.694 87.1049 103.279 87.0257 102.894 86.8597C102.51 86.6937 102.198 86.4371 101.961 86.09C101.723 85.7429 101.604 85.3071 101.604 84.7827V76.2088ZM109.481 87.1766C108.93 87.1766 108.432 87.0747 107.986 86.871C107.541 86.6635 107.188 86.3636 106.928 85.9712C106.672 85.5788 106.543 85.0977 106.543 84.528C106.543 84.0376 106.638 83.6339 106.826 83.3169C107.015 83 107.27 82.7491 107.59 82.5642C107.911 82.3794 108.269 82.2398 108.666 82.1455C109.062 82.0511 109.465 81.9794 109.877 81.9304C110.397 81.87 110.82 81.821 111.144 81.7833C111.469 81.7418 111.705 81.6757 111.852 81.5852C111.999 81.4946 112.072 81.3475 112.072 81.1438V81.1041C112.072 80.6099 111.933 80.2269 111.654 79.9553C111.378 79.6836 110.967 79.5478 110.42 79.5478C109.85 79.5478 109.401 79.6742 109.073 79.927C108.749 80.176 108.524 80.4533 108.4 80.7589L106.809 80.3967C106.998 79.8685 107.273 79.4422 107.636 79.1177C108.002 78.7895 108.422 78.5518 108.898 78.4046C109.373 78.2537 109.873 78.1783 110.397 78.1783C110.744 78.1783 111.112 78.2198 111.501 78.3028C111.893 78.382 112.259 78.5291 112.599 78.7442C112.942 78.9592 113.223 79.2667 113.442 79.6667C113.661 80.0628 113.77 80.5778 113.77 81.2117V86.9842H112.118V85.7957H112.05C111.94 86.0146 111.776 86.2296 111.557 86.4409C111.339 86.6522 111.058 86.8276 110.714 86.9672C110.371 87.1068 109.96 87.1766 109.481 87.1766ZM109.848 85.8184C110.316 85.8184 110.716 85.7259 111.048 85.5411C111.384 85.3562 111.639 85.1147 111.812 84.8167C111.989 84.5148 112.078 84.1923 112.078 83.8489V82.7284C112.018 82.7887 111.901 82.8453 111.727 82.8981C111.557 82.9472 111.363 82.9906 111.144 83.0283C110.926 83.0623 110.712 83.0943 110.505 83.1245C110.297 83.1509 110.124 83.1736 109.984 83.1924C109.656 83.2339 109.356 83.3037 109.084 83.4018C108.816 83.4999 108.601 83.6414 108.439 83.8263C108.281 84.0074 108.202 84.2488 108.202 84.5507C108.202 84.9695 108.356 85.2864 108.666 85.5014C108.975 85.7127 109.369 85.8184 109.848 85.8184ZM123.149 78.2914L119.997 86.9842H118.186L115.028 78.2914H116.845L119.046 84.9808H119.137L121.333 78.2914H123.149ZM128.105 87.1596C127.29 87.1596 126.579 86.9729 125.972 86.5994C125.364 86.2258 124.893 85.7033 124.557 85.0317C124.221 84.3601 124.053 83.5754 124.053 82.6774C124.053 81.7757 124.221 80.9872 124.557 80.3118C124.893 79.6365 125.364 79.1121 125.972 78.7385C126.579 78.365 127.29 78.1783 128.105 78.1783C128.92 78.1783 129.632 78.365 130.239 78.7385C130.846 79.1121 131.318 79.6365 131.654 80.3118C131.99 80.9872 132.157 81.7757 132.157 82.6774C132.157 83.5754 131.99 84.3601 131.654 85.0317C131.318 85.7033 130.846 86.2258 130.239 86.5994C129.632 86.9729 128.92 87.1596 128.105 87.1596ZM128.111 85.7391C128.639 85.7391 129.077 85.5995 129.424 85.3203C129.771 85.0412 130.028 84.6695 130.194 84.2055C130.363 83.7414 130.448 83.2302 130.448 82.6718C130.448 82.1172 130.363 81.6078 130.194 81.1438C130.028 80.6759 129.771 80.3005 129.424 80.0175C129.077 79.7346 128.639 79.5931 128.111 79.5931C127.579 79.5931 127.138 79.7346 126.787 80.0175C126.44 80.3005 126.181 80.6759 126.011 81.1438C125.845 81.6078 125.762 82.1172 125.762 82.6718C125.762 83.2302 125.845 83.7414 126.011 84.2055C126.181 84.6695 126.44 85.0412 126.787 85.3203C127.138 85.5995 127.579 85.7391 128.111 85.7391ZM148.026 79.163H146.261C146.193 78.7857 146.066 78.4537 145.881 78.1669C145.697 77.8802 145.47 77.6368 145.202 77.4369C144.934 77.2369 144.634 77.086 144.302 76.9841C143.974 76.8823 143.625 76.8313 143.255 76.8313C142.588 76.8313 141.99 76.9992 141.461 77.335C140.937 77.6708 140.522 78.1632 140.216 78.8121C139.915 79.461 139.764 80.2534 139.764 81.189C139.764 82.1323 139.915 82.9283 140.216 83.5773C140.522 84.2262 140.939 84.7167 141.467 85.0487C141.995 85.3807 142.59 85.5467 143.25 85.5467C143.616 85.5467 143.963 85.4977 144.291 85.3996C144.623 85.2977 144.923 85.1487 145.191 84.9525C145.459 84.7563 145.685 84.5167 145.87 84.2338C146.059 83.947 146.189 83.6188 146.261 83.249L148.026 83.2547C147.932 83.8244 147.749 84.3488 147.477 84.828C147.209 85.3034 146.864 85.7146 146.442 86.0617C146.023 86.4051 145.544 86.671 145.004 86.8597C144.465 87.0483 143.876 87.1427 143.238 87.1427C142.235 87.1427 141.341 86.905 140.556 86.4296C139.771 85.9504 139.152 85.2656 138.7 84.3752C138.251 83.4848 138.026 82.4228 138.026 81.189C138.026 79.9515 138.253 78.8895 138.705 78.0028C139.158 77.1124 139.777 76.4295 140.562 75.9541C141.346 75.475 142.239 75.2354 143.238 75.2354C143.853 75.2354 144.427 75.3241 144.959 75.5014C145.495 75.6749 145.976 75.9315 146.402 76.2711C146.828 76.6069 147.181 77.0181 147.46 77.5048C147.74 77.9877 147.928 78.5405 148.026 79.163ZM152.513 87.1766C151.962 87.1766 151.464 87.0747 151.019 86.871C150.573 86.6635 150.221 86.3636 149.96 85.9712C149.704 85.5788 149.576 85.0977 149.576 84.528C149.576 84.0376 149.67 83.6339 149.858 83.3169C150.047 83 150.302 82.7491 150.622 82.5642C150.943 82.3794 151.302 82.2398 151.698 82.1455C152.094 82.0511 152.498 81.9794 152.909 81.9304C153.43 81.87 153.852 81.821 154.177 81.7833C154.501 81.7418 154.737 81.6757 154.884 81.5852C155.031 81.4946 155.105 81.3475 155.105 81.1438V81.1041C155.105 80.6099 154.965 80.2269 154.686 79.9553C154.41 79.6836 153.999 79.5478 153.452 79.5478C152.882 79.5478 152.433 79.6742 152.105 79.927C151.781 80.176 151.556 80.4533 151.432 80.7589L149.842 80.3967C150.03 79.8685 150.306 79.4422 150.668 79.1177C151.034 78.7895 151.454 78.5518 151.93 78.4046C152.405 78.2537 152.905 78.1783 153.43 78.1783C153.777 78.1783 154.144 78.2198 154.533 78.3028C154.925 78.382 155.291 78.5291 155.631 78.7442C155.974 78.9592 156.255 79.2667 156.474 79.6667C156.693 80.0628 156.802 80.5778 156.802 81.2117V86.9842H155.15V85.7957H155.082C154.973 86.0146 154.809 86.2296 154.59 86.4409C154.371 86.6522 154.09 86.8276 153.746 86.9672C153.403 87.1068 152.992 87.1766 152.513 87.1766ZM152.881 85.8184C153.348 85.8184 153.748 85.7259 154.08 85.5411C154.416 85.3562 154.671 85.1147 154.844 84.8167C155.022 84.5148 155.11 84.1923 155.11 83.8489V82.7284C155.05 82.7887 154.933 82.8453 154.759 82.8981C154.59 82.9472 154.395 82.9906 154.177 83.0283C153.958 83.0623 153.745 83.0943 153.537 83.1245C153.33 83.1509 153.156 83.1736 153.016 83.1924C152.688 83.2339 152.388 83.3037 152.117 83.4018C151.849 83.4999 151.634 83.6414 151.471 83.8263C151.313 84.0074 151.234 84.2488 151.234 84.5507C151.234 84.9695 151.388 85.2864 151.698 85.5014C152.007 85.7127 152.401 85.8184 152.881 85.8184ZM159.192 86.9842V75.3939H160.884V79.7006H160.986C161.084 79.5195 161.226 79.3101 161.411 79.0724C161.595 78.8347 161.852 78.6272 162.18 78.4499C162.509 78.2688 162.942 78.1783 163.482 78.1783C164.184 78.1783 164.81 78.3556 165.361 78.7102C165.912 79.0649 166.344 79.5761 166.657 80.2439C166.974 80.9117 167.132 81.7153 167.132 82.6548C167.132 83.5942 166.976 84.3998 166.662 85.0713C166.349 85.7391 165.919 86.2541 165.372 86.6163C164.825 86.9748 164.201 87.154 163.499 87.154C162.971 87.154 162.539 87.0653 162.203 86.888C161.871 86.7107 161.611 86.5031 161.422 86.2655C161.233 86.0278 161.088 85.8165 160.986 85.6316H160.845V86.9842H159.192ZM160.85 82.6378C160.85 83.249 160.939 83.7848 161.116 84.2451C161.294 84.7054 161.55 85.0657 161.886 85.326C162.222 85.5826 162.633 85.7108 163.12 85.7108C163.625 85.7108 164.048 85.5769 164.387 85.309C164.727 85.0374 164.984 84.6695 165.157 84.2055C165.334 83.7414 165.423 83.2188 165.423 82.6378C165.423 82.0643 165.336 81.5493 165.163 81.0928C164.993 80.6363 164.736 80.276 164.393 80.0119C164.054 79.7478 163.629 79.6157 163.12 79.6157C162.629 79.6157 162.214 79.7421 161.875 79.9949C161.539 80.2477 161.284 80.6005 161.111 81.0532C160.937 81.506 160.85 82.0342 160.85 82.6378ZM169.032 86.9842V78.2914H170.668V79.6723H170.758C170.917 79.2045 171.196 78.8366 171.596 78.5688C172 78.2971 172.456 78.1613 172.966 78.1613C173.071 78.1613 173.196 78.1651 173.339 78.1726C173.486 78.1801 173.601 78.1896 173.684 78.2009V79.8195C173.616 79.8006 173.496 79.7799 173.322 79.7572C173.149 79.7308 172.975 79.7176 172.801 79.7176C172.402 79.7176 172.045 79.8025 171.732 79.9723C171.422 80.1383 171.177 80.3703 170.996 80.6684C170.815 80.9627 170.724 81.2984 170.724 81.6757V86.9842H169.032ZM177.601 87.1766C177.05 87.1766 176.552 87.0747 176.107 86.871C175.661 86.6635 175.309 86.3636 175.048 85.9712C174.792 85.5788 174.663 85.0977 174.663 84.528C174.663 84.0376 174.758 83.6339 174.946 83.3169C175.135 83 175.39 82.7491 175.71 82.5642C176.031 82.3794 176.389 82.2398 176.786 82.1455C177.182 82.0511 177.585 81.9794 177.997 81.9304C178.517 81.87 178.94 81.821 179.264 81.7833C179.589 81.7418 179.825 81.6757 179.972 81.5852C180.119 81.4946 180.193 81.3475 180.193 81.1438V81.1041C180.193 80.6099 180.053 80.2269 179.774 79.9553C179.498 79.6836 179.087 79.5478 178.54 79.5478C177.97 79.5478 177.521 79.6742 177.193 79.927C176.869 80.176 176.644 80.4533 176.52 80.7589L174.929 80.3967C175.118 79.8685 175.393 79.4422 175.756 79.1177C176.122 78.7895 176.542 78.5518 177.018 78.4046C177.493 78.2537 177.993 78.1783 178.517 78.1783C178.864 78.1783 179.232 78.2198 179.621 78.3028C180.013 78.382 180.379 78.5291 180.719 78.7442C181.062 78.9592 181.343 79.2667 181.562 79.6667C181.781 80.0628 181.89 80.5778 181.89 81.2117V86.9842H180.238V85.7957H180.17C180.06 86.0146 179.896 86.2296 179.678 86.4409C179.459 86.6522 179.178 86.8276 178.834 86.9672C178.491 87.1068 178.08 87.1766 177.601 87.1766ZM177.968 85.8184C178.436 85.8184 178.836 85.7259 179.168 85.5411C179.504 85.3562 179.759 85.1147 179.932 84.8167C180.11 84.5148 180.198 84.1923 180.198 83.8489V82.7284C180.138 82.7887 180.021 82.8453 179.847 82.8981C179.678 82.9472 179.483 82.9906 179.264 83.0283C179.046 83.0623 178.832 83.0943 178.625 83.1245C178.417 83.1509 178.244 83.1736 178.104 83.1924C177.776 83.2339 177.476 83.3037 177.204 83.4018C176.937 83.4999 176.721 83.6414 176.559 83.8263C176.401 84.0074 176.322 84.2488 176.322 84.5507C176.322 84.9695 176.476 85.2864 176.786 85.5014C177.095 85.7127 177.489 85.8184 177.968 85.8184ZM185.836 75.3939V86.9842H184.144V75.3939H185.836Z" fill="white" fill-opacity="0.7"/>
</g>
<rect x="0.5" y="0.5" width="1319" height="402" rx="19.1585" stroke="#D5D2D2"/>
<defs>
<clipPath id="clip0_2_79">
<rect width="1320" height="403" rx="19.6585" fill="white"/>
</clipPath>
<clipPath id="clip1_2_79">
<rect width="27.561" height="41.3415" fill="white" transform="translate(32 331.596)"/>
</clipPath>
<clipPath id="clip2_2_79">
<rect width="104" height="48.5333" fill="white" transform="translate(249.666 328)"/>
</clipPath>
</defs>
</svg>
