<svg width="1317" height="62" viewBox="0 0 1317 62" fill="none" xmlns="http://www.w3.org/2000/svg">
<rect x="0.5" y="0.5" width="1316" height="61" rx="3.5" fill="#FAFAFA"/>
<rect x="16" y="14" width="181" height="34" rx="4" fill="url(#paint0_linear_2_113)"/>
<path d="M33.1378 24.9091H36.5511L40.1562 33.7045H40.3097L43.9148 24.9091H47.3281V38H44.6435V29.4794H44.5348L41.147 37.9361H39.3189L35.9311 29.4474H35.8224V38H33.1378V24.9091ZM52.3571 38.1854C51.7306 38.1854 51.1724 38.0767 50.6824 37.8594C50.1923 37.6378 49.8045 37.3118 49.519 36.8814C49.2377 36.4467 49.0971 35.9055 49.0971 35.2578C49.0971 34.7124 49.1973 34.2543 49.3975 33.8835C49.5978 33.5128 49.8706 33.2145 50.2157 32.9886C50.5609 32.7628 50.9529 32.5923 51.3919 32.4773C51.835 32.3622 52.2995 32.2812 52.7853 32.2344C53.3564 32.1747 53.8166 32.1193 54.166 32.0682C54.5154 32.0128 54.769 31.9318 54.9267 31.8253C55.0843 31.7187 55.1632 31.5611 55.1632 31.3523V31.3139C55.1632 30.9091 55.0353 30.5959 54.7797 30.3743C54.5282 30.1527 54.1703 30.0419 53.7058 30.0419C53.2157 30.0419 52.8258 30.1506 52.536 30.3679C52.2463 30.581 52.0545 30.8494 51.9608 31.1733L49.4423 30.9688C49.5701 30.3722 49.8216 29.8565 50.1966 29.4219C50.5716 28.983 51.0552 28.6463 51.6475 28.4119C52.2441 28.1733 52.9345 28.054 53.7186 28.054C54.264 28.054 54.786 28.1179 55.2846 28.2457C55.7875 28.3736 56.2328 28.5717 56.6206 28.8402C57.0126 29.1087 57.3216 29.4538 57.5474 29.8757C57.7733 30.2933 57.8862 30.794 57.8862 31.3778V38H55.3038V36.6385H55.2271C55.0694 36.9453 54.8585 37.2159 54.5943 37.4503C54.3301 37.6804 54.0126 37.8615 53.6419 37.9936C53.2711 38.1214 52.8429 38.1854 52.3571 38.1854ZM53.1369 36.3061C53.5375 36.3061 53.8912 36.2273 54.198 36.0696C54.5048 35.9077 54.7456 35.6903 54.9203 35.4176C55.095 35.1449 55.1824 34.8359 55.1824 34.4908V33.4489C55.0971 33.5043 54.9799 33.5554 54.8308 33.6023C54.6859 33.6449 54.5218 33.6854 54.3386 33.7237C54.1554 33.7578 53.9721 33.7898 53.7889 33.8196C53.6056 33.8452 53.4395 33.8686 53.2903 33.8899C52.9707 33.9368 52.6916 34.0114 52.4529 34.1136C52.2143 34.2159 52.0289 34.3544 51.8968 34.5291C51.7647 34.6996 51.6987 34.9126 51.6987 35.1683C51.6987 35.5391 51.8329 35.8224 52.1014 36.0185C52.3741 36.2102 52.7193 36.3061 53.1369 36.3061ZM65.2211 28.1818V30.2273H59.3084V28.1818H65.2211ZM60.6507 25.8295H63.3738V34.983C63.3738 35.2344 63.4121 35.4304 63.4888 35.571C63.5655 35.7074 63.6721 35.8033 63.8084 35.8587C63.949 35.9141 64.111 35.9418 64.2942 35.9418C64.4221 35.9418 64.5499 35.9311 64.6777 35.9098C64.8056 35.8842 64.9036 35.8651 64.9718 35.8523L65.4 37.8786C65.2637 37.9212 65.0719 37.9702 64.8248 38.0256C64.5776 38.0852 64.2772 38.1214 63.9235 38.1342C63.2672 38.1598 62.6919 38.0724 62.1976 37.8722C61.7076 37.6719 61.3262 37.3608 61.0534 36.9389C60.7807 36.517 60.6465 35.9844 60.6507 35.3409V25.8295ZM71.3638 38.1918C70.3539 38.1918 69.4846 37.9872 68.7559 37.5781C68.0314 37.1648 67.4732 36.581 67.0811 35.8267C66.6891 35.0682 66.4931 34.1712 66.4931 33.1357C66.4931 32.1257 66.6891 31.2393 67.0811 30.4766C67.4732 29.7138 68.025 29.1193 68.7367 28.6932C69.4526 28.267 70.2921 28.054 71.2551 28.054C71.9029 28.054 72.5059 28.1584 73.0641 28.3672C73.6266 28.5717 74.1167 28.8807 74.5343 29.294C74.9561 29.7074 75.2843 30.2273 75.5186 30.8537C75.753 31.4759 75.8702 32.2045 75.8702 33.0398V33.7876H67.5797V32.1001H73.307C73.307 31.7081 73.2218 31.3608 73.0513 31.0582C72.8809 30.7557 72.6444 30.5192 72.3418 30.3487C72.0435 30.174 71.6962 30.0866 71.2999 30.0866C70.8865 30.0866 70.5201 30.1825 70.2005 30.3743C69.8851 30.5618 69.638 30.8153 69.459 31.1349C69.28 31.4503 69.1884 31.8018 69.1841 32.1896V33.794C69.1841 34.2798 69.2736 34.6996 69.4526 35.0533C69.6358 35.407 69.8936 35.6797 70.226 35.8714C70.5584 36.0632 70.9526 36.1591 71.4086 36.1591C71.7111 36.1591 71.9881 36.1165 72.2395 36.0312C72.4909 35.946 72.7061 35.8182 72.8851 35.6477C73.0641 35.4773 73.2005 35.2685 73.2942 35.0213L75.8127 35.1875C75.6848 35.7926 75.4228 36.321 75.0265 36.7727C74.6344 37.2202 74.1273 37.5696 73.5051 37.821C72.8873 38.0682 72.1735 38.1918 71.3638 38.1918ZM77.6472 38V28.1818H80.2871V29.8949H80.3894C80.5684 29.2855 80.8688 28.8253 81.2907 28.5142C81.7125 28.1989 82.1983 28.0412 82.748 28.0412C82.8844 28.0412 83.0314 28.0497 83.1891 28.0668C83.3468 28.0838 83.4853 28.1072 83.6046 28.1371V30.5533C83.4767 30.5149 83.2999 30.4808 83.074 30.451C82.8482 30.4212 82.6415 30.4062 82.454 30.4062C82.0534 30.4062 81.6955 30.4936 81.3801 30.6683C81.0691 30.8388 80.8219 31.0774 80.6387 31.3842C80.4597 31.6911 80.3702 32.0447 80.3702 32.4453V38H77.6472ZM85.0124 38V28.1818H87.7354V38H85.0124ZM86.3803 26.9162C85.9755 26.9162 85.6282 26.782 85.3384 26.5135C85.0529 26.2408 84.9102 25.9148 84.9102 25.5355C84.9102 25.1605 85.0529 24.8388 85.3384 24.5703C85.6282 24.2976 85.9755 24.1612 86.3803 24.1612C86.7852 24.1612 87.1303 24.2976 87.4158 24.5703C87.7056 24.8388 87.8505 25.1605 87.8505 25.5355C87.8505 25.9148 87.7056 26.2408 87.4158 26.5135C87.1303 26.782 86.7852 26.9162 86.3803 26.9162ZM92.7164 38.1854C92.09 38.1854 91.5318 38.0767 91.0417 37.8594C90.5517 37.6378 90.1639 37.3118 89.8784 36.8814C89.5971 36.4467 89.4565 35.9055 89.4565 35.2578C89.4565 34.7124 89.5566 34.2543 89.7569 33.8835C89.9572 33.5128 90.2299 33.2145 90.5751 32.9886C90.9203 32.7628 91.3123 32.5923 91.7512 32.4773C92.1944 32.3622 92.6589 32.2812 93.1447 32.2344C93.7157 32.1747 94.176 32.1193 94.5254 32.0682C94.8748 32.0128 95.1284 31.9318 95.286 31.8253C95.4437 31.7187 95.5226 31.5611 95.5226 31.3523V31.3139C95.5226 30.9091 95.3947 30.5959 95.139 30.3743C94.8876 30.1527 94.5297 30.0419 94.0652 30.0419C93.5751 30.0419 93.1852 30.1506 92.8954 30.3679C92.6056 30.581 92.4139 30.8494 92.3201 31.1733L89.8017 30.9688C89.9295 30.3722 90.1809 29.8565 90.5559 29.4219C90.9309 28.983 91.4146 28.6463 92.0069 28.4119C92.6035 28.1733 93.2939 28.054 94.0779 28.054C94.6234 28.054 95.1454 28.1179 95.644 28.2457C96.1468 28.3736 96.5922 28.5717 96.9799 28.8402C97.372 29.1087 97.6809 29.4538 97.9068 29.8757C98.1326 30.2933 98.2456 30.794 98.2456 31.3778V38H95.6632V36.6385H95.5865C95.4288 36.9453 95.2179 37.2159 94.9537 37.4503C94.6895 37.6804 94.372 37.8615 94.0012 37.9936C93.6305 38.1214 93.2022 38.1854 92.7164 38.1854ZM93.4963 36.3061C93.8968 36.3061 94.2505 36.2273 94.5574 36.0696C94.8642 35.9077 95.1049 35.6903 95.2797 35.4176C95.4544 35.1449 95.5417 34.8359 95.5417 34.4908V33.4489C95.4565 33.5043 95.3393 33.5554 95.1902 33.6023C95.0453 33.6449 94.8812 33.6854 94.698 33.7237C94.5147 33.7578 94.3315 33.7898 94.1483 33.8196C93.965 33.8452 93.7988 33.8686 93.6497 33.8899C93.3301 33.9368 93.051 34.0114 92.8123 34.1136C92.5737 34.2159 92.3883 34.3544 92.2562 34.5291C92.1241 34.6996 92.0581 34.9126 92.0581 35.1683C92.0581 35.5391 92.1923 35.8224 92.4608 36.0185C92.7335 36.2102 93.0787 36.3061 93.4963 36.3061ZM103.081 24.9091V38H100.358V24.9091H103.081ZM118.16 29.1406C118.07 28.8295 117.945 28.5547 117.783 28.3161C117.621 28.0732 117.423 27.8686 117.188 27.7024C116.958 27.532 116.694 27.402 116.396 27.3125C116.102 27.223 115.776 27.1783 115.418 27.1783C114.749 27.1783 114.161 27.3445 113.654 27.6768C113.151 28.0092 112.759 28.4929 112.477 29.1278C112.196 29.7585 112.056 30.5298 112.056 31.4418C112.056 32.3537 112.194 33.1293 112.471 33.7685C112.748 34.4077 113.14 34.8956 113.647 35.2322C114.154 35.5646 114.753 35.7308 115.443 35.7308C116.07 35.7308 116.605 35.62 117.048 35.3984C117.495 35.1726 117.836 34.8551 118.07 34.446C118.309 34.0369 118.428 33.5533 118.428 32.995L118.991 33.0781H115.616V30.9943H121.094V32.6435C121.094 33.794 120.851 34.7827 120.365 35.6094C119.879 36.4318 119.21 37.0668 118.358 37.5142C117.506 37.9574 116.53 38.179 115.431 38.179C114.203 38.179 113.125 37.9084 112.196 37.3672C111.267 36.8217 110.543 36.0483 110.023 35.0469C109.507 34.0412 109.249 32.848 109.249 31.4673C109.249 30.4062 109.403 29.4602 109.71 28.6293C110.021 27.794 110.455 27.0866 111.014 26.5071C111.572 25.9276 112.222 25.4865 112.963 25.1839C113.705 24.8814 114.508 24.7301 115.373 24.7301C116.115 24.7301 116.805 24.8388 117.444 25.0561C118.083 25.2692 118.65 25.5717 119.144 25.9638C119.643 26.3558 120.05 26.8224 120.365 27.3636C120.681 27.9006 120.883 28.4929 120.972 29.1406H118.16ZM123.122 38V28.1818H125.762V29.8949H125.864C126.043 29.2855 126.343 28.8253 126.765 28.5142C127.187 28.1989 127.673 28.0412 128.223 28.0412C128.359 28.0412 128.506 28.0497 128.664 28.0668C128.821 28.0838 128.96 28.1072 129.079 28.1371V30.5533C128.951 30.5149 128.775 30.4808 128.549 30.451C128.323 30.4212 128.116 30.4062 127.929 30.4062C127.528 30.4062 127.17 30.4936 126.855 30.6683C126.544 30.8388 126.297 31.0774 126.113 31.3842C125.934 31.6911 125.845 32.0447 125.845 32.4453V38H123.122ZM133.006 38.1854C132.379 38.1854 131.821 38.0767 131.331 37.8594C130.841 37.6378 130.453 37.3118 130.167 36.8814C129.886 36.4467 129.746 35.9055 129.746 35.2578C129.746 34.7124 129.846 34.2543 130.046 33.8835C130.246 33.5128 130.519 33.2145 130.864 32.9886C131.209 32.7628 131.601 32.5923 132.04 32.4773C132.483 32.3622 132.948 32.2812 133.434 32.2344C134.005 32.1747 134.465 32.1193 134.814 32.0682C135.164 32.0128 135.417 31.9318 135.575 31.8253C135.733 31.7187 135.812 31.5611 135.812 31.3523V31.3139C135.812 30.9091 135.684 30.5959 135.428 30.3743C135.177 30.1527 134.819 30.0419 134.354 30.0419C133.864 30.0419 133.474 30.1506 133.184 30.3679C132.895 30.581 132.703 30.8494 132.609 31.1733L130.091 30.9688C130.219 30.3722 130.47 29.8565 130.845 29.4219C131.22 28.983 131.704 28.6463 132.296 28.4119C132.893 28.1733 133.583 28.054 134.367 28.054C134.912 28.054 135.434 28.1179 135.933 28.2457C136.436 28.3736 136.881 28.5717 137.269 28.8402C137.661 29.1087 137.97 29.4538 138.196 29.8757C138.422 30.2933 138.535 30.794 138.535 31.3778V38H135.952V36.6385H135.876C135.718 36.9453 135.507 37.2159 135.243 37.4503C134.979 37.6804 134.661 37.8615 134.29 37.9936C133.92 38.1214 133.491 38.1854 133.006 38.1854ZM133.785 36.3061C134.186 36.3061 134.54 36.2273 134.846 36.0696C135.153 35.9077 135.394 35.6903 135.569 35.4176C135.743 35.1449 135.831 34.8359 135.831 34.4908V33.4489C135.746 33.5043 135.628 33.5554 135.479 33.6023C135.334 33.6449 135.17 33.6854 134.987 33.7237C134.804 33.7578 134.621 33.7898 134.437 33.8196C134.254 33.8452 134.088 33.8686 133.939 33.8899C133.619 33.9368 133.34 34.0114 133.101 34.1136C132.863 34.2159 132.677 34.3544 132.545 34.5291C132.413 34.6996 132.347 34.9126 132.347 35.1683C132.347 35.5391 132.481 35.8224 132.75 36.0185C133.023 36.2102 133.368 36.3061 133.785 36.3061ZM145.869 28.1818V30.2273H139.957V28.1818H145.869ZM141.299 25.8295H144.022V34.983C144.022 35.2344 144.061 35.4304 144.137 35.571C144.214 35.7074 144.32 35.8033 144.457 35.8587C144.597 35.9141 144.759 35.9418 144.943 35.9418C145.07 35.9418 145.198 35.9311 145.326 35.9098C145.454 35.8842 145.552 35.8651 145.62 35.8523L146.048 37.8786C145.912 37.9212 145.72 37.9702 145.473 38.0256C145.226 38.0852 144.926 38.1214 144.572 38.1342C143.916 38.1598 143.34 38.0724 142.846 37.8722C142.356 37.6719 141.975 37.3608 141.702 36.9389C141.429 36.517 141.295 35.9844 141.299 35.3409V25.8295ZM153.939 33.8196V28.1818H156.662V38H154.048V36.2166H153.946C153.724 36.7919 153.356 37.2543 152.84 37.6037C152.329 37.9531 151.704 38.1278 150.967 38.1278C150.311 38.1278 149.733 37.9787 149.235 37.6804C148.736 37.3821 148.346 36.9581 148.065 36.4084C147.788 35.8587 147.648 35.2003 147.643 34.4332V28.1818H150.366V33.9474C150.371 34.527 150.526 34.9851 150.833 35.3217C151.14 35.6584 151.551 35.8267 152.067 35.8267C152.395 35.8267 152.702 35.7521 152.987 35.603C153.273 35.4496 153.503 35.2237 153.677 34.9254C153.856 34.6271 153.944 34.2585 153.939 33.8196ZM158.841 38V28.1818H161.564V38H158.841ZM160.208 26.9162C159.804 26.9162 159.456 26.782 159.167 26.5135C158.881 26.2408 158.738 25.9148 158.738 25.5355C158.738 25.1605 158.881 24.8388 159.167 24.5703C159.456 24.2976 159.804 24.1612 160.208 24.1612C160.613 24.1612 160.958 24.2976 161.244 24.5703C161.534 24.8388 161.679 25.1605 161.679 25.5355C161.679 25.9148 161.534 26.2408 161.244 26.5135C160.958 26.782 160.613 26.9162 160.208 26.9162ZM168.967 28.1818V30.2273H163.055V28.1818H168.967ZM164.397 25.8295H167.12V34.983C167.12 35.2344 167.158 35.4304 167.235 35.571C167.312 35.7074 167.418 35.8033 167.555 35.8587C167.695 35.9141 167.857 35.9418 168.04 35.9418C168.168 35.9418 168.296 35.9311 168.424 35.9098C168.552 35.8842 168.65 35.8651 168.718 35.8523L169.146 37.8786C169.01 37.9212 168.818 37.9702 168.571 38.0256C168.324 38.0852 168.023 38.1214 167.67 38.1342C167.013 38.1598 166.438 38.0724 165.944 37.8722C165.454 37.6719 165.072 37.3608 164.8 36.9389C164.527 36.517 164.393 35.9844 164.397 35.3409V25.8295ZM175.072 38.1918C174.079 38.1918 173.22 37.9808 172.496 37.5589C171.775 37.1328 171.219 36.5405 170.827 35.782C170.435 35.0192 170.239 34.1349 170.239 33.1293C170.239 32.1151 170.435 31.2287 170.827 30.4702C171.219 29.7074 171.775 29.1151 172.496 28.6932C173.22 28.267 174.079 28.054 175.072 28.054C176.064 28.054 176.921 28.267 177.641 28.6932C178.366 29.1151 178.924 29.7074 179.316 30.4702C179.708 31.2287 179.904 32.1151 179.904 33.1293C179.904 34.1349 179.708 35.0192 179.316 35.782C178.924 36.5405 178.366 37.1328 177.641 37.5589C176.921 37.9808 176.064 38.1918 175.072 38.1918ZM175.084 36.0824C175.536 36.0824 175.913 35.9545 176.216 35.6989C176.518 35.4389 176.746 35.0852 176.9 34.6378C177.057 34.1903 177.136 33.6811 177.136 33.1101C177.136 32.5391 177.057 32.0298 176.9 31.5824C176.746 31.1349 176.518 30.7812 176.216 30.5213C175.913 30.2614 175.536 30.1314 175.084 30.1314C174.628 30.1314 174.245 30.2614 173.934 30.5213C173.627 30.7812 173.395 31.1349 173.237 31.5824C173.084 32.0298 173.007 32.5391 173.007 33.1101C173.007 33.6811 173.084 34.1903 173.237 34.6378C173.395 35.0852 173.627 35.4389 173.934 35.6989C174.245 35.9545 174.628 36.0824 175.084 36.0824Z" fill="white"/>
<path d="M225.96 38.5H222.5L227.772 23.2273H231.933L237.198 38.5H233.738L229.912 26.7173H229.793L225.96 38.5ZM225.744 32.4968H233.917V35.0174H225.744V32.4968ZM238.977 42.7955V27.0455H242.109V28.9695H242.251C242.39 28.6612 242.591 28.348 242.855 28.0298C243.123 27.7067 243.471 27.4382 243.899 27.2244C244.331 27.0057 244.868 26.8963 245.509 26.8963C246.345 26.8963 247.115 27.1151 247.821 27.5526C248.527 27.9851 249.091 28.6388 249.514 29.5138C249.937 30.3839 250.148 31.4751 250.148 32.7876C250.148 34.0653 249.942 35.1442 249.529 36.0241C249.121 36.8991 248.564 37.5629 247.858 38.0153C247.157 38.4627 246.372 38.6864 245.502 38.6864C244.885 38.6864 244.361 38.5845 243.928 38.3807C243.501 38.1768 243.15 37.9208 242.877 37.6126C242.604 37.2994 242.395 36.9837 242.251 36.6655H242.154V42.7955H238.977ZM242.086 32.7727C242.086 33.4538 242.181 34.0479 242.37 34.555C242.559 35.0621 242.832 35.4574 243.19 35.7408C243.548 36.0192 243.983 36.1584 244.495 36.1584C245.012 36.1584 245.45 36.0167 245.808 35.7333C246.166 35.445 246.437 35.0472 246.621 34.5401C246.809 34.0281 246.904 33.4389 246.904 32.7727C246.904 32.1115 246.812 31.5298 246.628 31.0277C246.444 30.5256 246.173 30.1328 245.815 29.8494C245.457 29.5661 245.017 29.4244 244.495 29.4244C243.978 29.4244 243.541 29.5611 243.183 29.8345C242.83 30.108 242.559 30.4957 242.37 30.9979C242.181 31.5 242.086 32.0916 242.086 32.7727ZM252.266 38.5V27.0455H255.346V29.044H255.465C255.674 28.3331 256.024 27.7962 256.517 27.4332C257.009 27.0653 257.575 26.8814 258.217 26.8814C258.376 26.8814 258.547 26.8913 258.731 26.9112C258.915 26.9311 259.077 26.9585 259.216 26.9933V29.8121C259.067 29.7674 258.861 29.7276 258.597 29.6928C258.334 29.658 258.093 29.6406 257.874 29.6406C257.406 29.6406 256.989 29.7425 256.621 29.9464C256.258 30.1452 255.97 30.4237 255.756 30.7816C255.547 31.1396 255.443 31.5522 255.443 32.0195V38.5H252.266ZM265.546 38.7237C264.367 38.7237 263.353 38.4851 262.503 38.0078C261.658 37.5256 261.006 36.8445 260.549 35.9645C260.092 35.0795 259.863 34.033 259.863 32.8249C259.863 31.6467 260.092 30.6126 260.549 29.7227C261.006 28.8327 261.65 28.1392 262.481 27.642C263.316 27.1449 264.295 26.8963 265.419 26.8963C266.174 26.8963 266.878 27.0181 267.529 27.2617C268.185 27.5004 268.757 27.8608 269.244 28.343C269.737 28.8253 270.119 29.4318 270.393 30.1626C270.666 30.8885 270.803 31.7386 270.803 32.7131V33.5856H261.131V31.6168H267.813C267.813 31.1594 267.713 30.7543 267.514 30.4013C267.315 30.0483 267.04 29.7724 266.687 29.5735C266.339 29.3697 265.933 29.2678 265.471 29.2678C264.989 29.2678 264.561 29.3796 264.188 29.6033C263.82 29.8221 263.532 30.1179 263.323 30.4908C263.114 30.8587 263.008 31.2688 263.003 31.7212V33.593C263.003 34.1598 263.107 34.6495 263.316 35.0621C263.53 35.4748 263.83 35.793 264.218 36.0167C264.606 36.2404 265.066 36.3523 265.598 36.3523C265.951 36.3523 266.274 36.3026 266.567 36.2031C266.861 36.1037 267.112 35.9545 267.32 35.7557C267.529 35.5568 267.688 35.3132 267.798 35.0249L270.736 35.2188C270.587 35.9247 270.281 36.5412 269.819 37.0682C269.361 37.5902 268.77 37.9979 268.044 38.2912C267.323 38.5795 266.49 38.7237 265.546 38.7237ZM276.053 31.8778V38.5H272.876V27.0455H275.904V29.0664H276.038C276.292 28.4002 276.717 27.8732 277.313 27.4854C277.91 27.0927 278.633 26.8963 279.483 26.8963C280.279 26.8963 280.972 27.0703 281.564 27.4183C282.156 27.7663 282.616 28.2635 282.944 28.9098C283.272 29.5511 283.436 30.3168 283.436 31.2067V38.5H280.259V31.7734C280.264 31.0724 280.085 30.5256 279.722 30.1328C279.359 29.7351 278.859 29.5362 278.223 29.5362C277.796 29.5362 277.418 29.6282 277.09 29.8121C276.766 29.9961 276.513 30.2646 276.329 30.6175C276.15 30.9656 276.058 31.3857 276.053 31.8778ZM290.161 38.6864C289.29 38.6864 288.502 38.4627 287.797 38.0153C287.096 37.5629 286.539 36.8991 286.126 36.0241C285.718 35.1442 285.515 34.0653 285.515 32.7876C285.515 31.4751 285.726 30.3839 286.148 29.5138C286.571 28.6388 287.133 27.9851 287.834 27.5526C288.54 27.1151 289.313 26.8963 290.153 26.8963C290.794 26.8963 291.329 27.0057 291.756 27.2244C292.189 27.4382 292.537 27.7067 292.8 28.0298C293.069 28.348 293.273 28.6612 293.412 28.9695H293.509V23.2273H296.678V38.5H293.546V36.6655H293.412C293.263 36.9837 293.051 37.2994 292.778 37.6126C292.51 37.9208 292.159 38.1768 291.727 38.3807C291.299 38.5845 290.777 38.6864 290.161 38.6864ZM291.167 36.1584C291.679 36.1584 292.112 36.0192 292.465 35.7408C292.823 35.4574 293.096 35.0621 293.285 34.555C293.479 34.0479 293.576 33.4538 293.576 32.7727C293.576 32.0916 293.482 31.5 293.293 30.9979C293.104 30.4957 292.83 30.108 292.472 29.8345C292.114 29.5611 291.679 29.4244 291.167 29.4244C290.645 29.4244 290.205 29.5661 289.847 29.8494C289.489 30.1328 289.218 30.5256 289.034 31.0277C288.85 31.5298 288.759 32.1115 288.759 32.7727C288.759 33.4389 288.85 34.0281 289.034 34.5401C289.223 35.0472 289.494 35.445 289.847 35.7333C290.205 36.0167 290.645 36.1584 291.167 36.1584ZM302.557 38.7163C301.826 38.7163 301.174 38.5895 300.603 38.3359C300.031 38.0774 299.579 37.6971 299.245 37.195C298.917 36.6879 298.753 36.0565 298.753 35.3008C298.753 34.6644 298.87 34.13 299.104 33.6974C299.337 33.2649 299.656 32.9169 300.058 32.6534C300.461 32.3899 300.918 32.1911 301.43 32.0568C301.948 31.9226 302.489 31.8281 303.056 31.7734C303.722 31.7038 304.259 31.6392 304.667 31.5795C305.075 31.5149 305.37 31.4205 305.554 31.2962C305.738 31.1719 305.83 30.9879 305.83 30.7443V30.6996C305.83 30.2273 305.681 29.8619 305.383 29.6033C305.09 29.3448 304.672 29.2156 304.13 29.2156C303.558 29.2156 303.103 29.3423 302.765 29.5959C302.427 29.8445 302.204 30.1577 302.094 30.5355L299.156 30.2969C299.305 29.6009 299.598 28.9993 300.036 28.4922C300.473 27.9801 301.038 27.5874 301.729 27.3139C302.425 27.0355 303.23 26.8963 304.145 26.8963C304.781 26.8963 305.39 26.9709 305.972 27.12C306.559 27.2692 307.078 27.5004 307.531 27.8136C307.988 28.1268 308.348 28.5295 308.612 29.0217C308.875 29.5089 309.007 30.093 309.007 30.7741V38.5H305.994V36.9116H305.905C305.721 37.2695 305.475 37.5852 305.167 37.8587C304.858 38.1271 304.488 38.3384 304.055 38.4925C303.623 38.6417 303.123 38.7163 302.557 38.7163ZM303.466 36.5238C303.934 36.5238 304.346 36.4318 304.704 36.2479C305.062 36.0589 305.343 35.8054 305.547 35.4872C305.751 35.169 305.853 34.8086 305.853 34.4059V33.1903C305.753 33.255 305.617 33.3146 305.443 33.3693C305.274 33.419 305.082 33.4663 304.868 33.511C304.655 33.5508 304.441 33.5881 304.227 33.6229C304.013 33.6527 303.819 33.68 303.645 33.7049C303.272 33.7596 302.947 33.8466 302.668 33.9659C302.39 34.0852 302.174 34.2468 302.02 34.4506C301.866 34.6495 301.788 34.8981 301.788 35.1964C301.788 35.6289 301.945 35.9595 302.258 36.1882C302.576 36.4119 302.979 36.5238 303.466 36.5238ZM319.599 38.7163C318.868 38.7163 318.216 38.5895 317.645 38.3359C317.073 38.0774 316.621 37.6971 316.287 37.195C315.959 36.6879 315.795 36.0565 315.795 35.3008C315.795 34.6644 315.912 34.13 316.146 33.6974C316.379 33.2649 316.698 32.9169 317.1 32.6534C317.503 32.3899 317.96 32.1911 318.472 32.0568C318.99 31.9226 319.531 31.8281 320.098 31.7734C320.764 31.7038 321.301 31.6392 321.709 31.5795C322.117 31.5149 322.412 31.4205 322.596 31.2962C322.78 31.1719 322.872 30.9879 322.872 30.7443V30.6996C322.872 30.2273 322.723 29.8619 322.425 29.6033C322.132 29.3448 321.714 29.2156 321.172 29.2156C320.6 29.2156 320.145 29.3423 319.807 29.5959C319.469 29.8445 319.246 30.1577 319.136 30.5355L316.198 30.2969C316.347 29.6009 316.64 28.9993 317.078 28.4922C317.515 27.9801 318.08 27.5874 318.771 27.3139C319.467 27.0355 320.272 26.8963 321.187 26.8963C321.823 26.8963 322.432 26.9709 323.014 27.12C323.601 27.2692 324.12 27.5004 324.573 27.8136C325.03 28.1268 325.39 28.5295 325.654 29.0217C325.917 29.5089 326.049 30.093 326.049 30.7741V38.5H323.036V36.9116H322.947C322.763 37.2695 322.517 37.5852 322.209 37.8587C321.9 38.1271 321.53 38.3384 321.097 38.4925C320.665 38.6417 320.165 38.7163 319.599 38.7163ZM320.508 36.5238C320.976 36.5238 321.388 36.4318 321.746 36.2479C322.104 36.0589 322.385 35.8054 322.589 35.4872C322.793 35.169 322.895 34.8086 322.895 34.4059V33.1903C322.795 33.255 322.659 33.3146 322.485 33.3693C322.316 33.419 322.124 33.4663 321.91 33.511C321.697 33.5508 321.483 33.5881 321.269 33.6229C321.055 33.6527 320.861 33.68 320.687 33.7049C320.314 33.7596 319.989 33.8466 319.71 33.9659C319.432 34.0852 319.216 34.2468 319.062 34.4506C318.907 34.6495 318.83 34.8981 318.83 35.1964C318.83 35.6289 318.987 35.9595 319.3 36.1882C319.618 36.4119 320.021 36.5238 320.508 36.5238ZM338.55 38.7237C337.376 38.7237 336.367 38.4751 335.522 37.978C334.682 37.4759 334.035 36.7798 333.583 35.8899C333.136 35 332.912 33.9759 332.912 32.8175C332.912 31.6442 333.138 30.6151 333.59 29.7301C334.048 28.8402 334.697 28.1467 335.537 27.6495C336.377 27.1474 337.376 26.8963 338.535 26.8963C339.534 26.8963 340.409 27.0778 341.16 27.4407C341.91 27.8036 342.505 28.3132 342.942 28.9695C343.38 29.6257 343.621 30.3963 343.665 31.2812H340.668C340.583 30.7095 340.359 30.2496 339.996 29.9016C339.638 29.5487 339.169 29.3722 338.587 29.3722C338.095 29.3722 337.665 29.5064 337.297 29.7749C336.934 30.0384 336.65 30.4237 336.447 30.9308C336.243 31.4379 336.141 32.0518 336.141 32.7727C336.141 33.5036 336.24 34.125 336.439 34.6371C336.643 35.1491 336.929 35.5394 337.297 35.8079C337.665 36.0763 338.095 36.2106 338.587 36.2106C338.95 36.2106 339.275 36.136 339.564 35.9869C339.857 35.8377 340.098 35.6214 340.287 35.3381C340.481 35.0497 340.608 34.7042 340.668 34.3015H343.665C343.616 35.1765 343.377 35.9471 342.949 36.6133C342.527 37.2745 341.943 37.7915 341.197 38.1644C340.451 38.5373 339.569 38.7237 338.55 38.7237ZM350.875 38.7237C349.716 38.7237 348.715 38.4776 347.869 37.9854C347.029 37.4883 346.381 36.7972 345.923 35.9123C345.466 35.0224 345.237 33.9908 345.237 32.8175C345.237 31.6342 345.466 30.6001 345.923 29.7152C346.381 28.8253 347.029 28.1342 347.869 27.642C348.715 27.1449 349.716 26.8963 350.875 26.8963C352.033 26.8963 353.032 27.1449 353.873 27.642C354.718 28.1342 355.369 28.8253 355.827 29.7152C356.284 30.6001 356.513 31.6342 356.513 32.8175C356.513 33.9908 356.284 35.0224 355.827 35.9123C355.369 36.7972 354.718 37.4883 353.873 37.9854C353.032 38.4776 352.033 38.7237 350.875 38.7237ZM350.89 36.2628C351.417 36.2628 351.857 36.1136 352.21 35.8153C352.563 35.5121 352.829 35.0994 353.008 34.5774C353.192 34.0554 353.284 33.4613 353.284 32.7951C353.284 32.1289 353.192 31.5348 353.008 31.0128C352.829 30.4908 352.563 30.0781 352.21 29.7749C351.857 29.4716 351.417 29.32 350.89 29.32C350.358 29.32 349.91 29.4716 349.547 29.7749C349.189 30.0781 348.919 30.4908 348.735 31.0128C348.556 31.5348 348.466 32.1289 348.466 32.7951C348.466 33.4613 348.556 34.0554 348.735 34.5774C348.919 35.0994 349.189 35.5121 349.547 35.8153C349.91 36.1136 350.358 36.2628 350.89 36.2628ZM361.755 31.8778V38.5H358.578V27.0455H361.606V29.0664H361.74C361.994 28.4002 362.419 27.8732 363.015 27.4854C363.612 27.0927 364.335 26.8963 365.186 26.8963C365.981 26.8963 366.675 27.0703 367.266 27.4183C367.858 27.7663 368.318 28.2635 368.646 28.9098C368.974 29.5511 369.138 30.3168 369.138 31.2067V38.5H365.961V31.7734C365.966 31.0724 365.787 30.5256 365.424 30.1328C365.061 29.7351 364.562 29.5362 363.925 29.5362C363.498 29.5362 363.12 29.6282 362.792 29.8121C362.469 29.9961 362.215 30.2646 362.031 30.6175C361.852 30.9656 361.76 31.3857 361.755 31.8778ZM381.172 30.3118L378.264 30.4908C378.214 30.2422 378.107 30.0185 377.943 29.8196C377.779 29.6158 377.563 29.4542 377.294 29.3349C377.031 29.2106 376.715 29.1484 376.347 29.1484C375.855 29.1484 375.44 29.2528 375.102 29.4616C374.764 29.6655 374.595 29.9389 374.595 30.282C374.595 30.5554 374.704 30.7866 374.923 30.9755C375.142 31.1644 375.517 31.3161 376.049 31.4304L378.122 31.848C379.236 32.0767 380.066 32.4446 380.613 32.9517C381.16 33.4588 381.433 34.125 381.433 34.9503C381.433 35.701 381.212 36.3597 380.77 36.9265C380.332 37.4933 379.731 37.9357 378.965 38.2539C378.204 38.5671 377.327 38.7237 376.332 38.7237C374.816 38.7237 373.608 38.408 372.708 37.7766C371.813 37.1403 371.289 36.2752 371.135 35.1815L374.259 35.0174C374.354 35.4798 374.582 35.8327 374.945 36.0763C375.308 36.315 375.773 36.4343 376.34 36.4343C376.897 36.4343 377.344 36.3274 377.682 36.1136C378.025 35.8949 378.199 35.614 378.204 35.271C378.199 34.9826 378.078 34.7464 377.839 34.5625C377.6 34.3736 377.232 34.2294 376.735 34.13L374.752 33.7347C373.633 33.511 372.8 33.1232 372.253 32.5714C371.711 32.0195 371.44 31.3161 371.44 30.4609C371.44 29.7251 371.639 29.0913 372.037 28.5593C372.44 28.0273 373.004 27.6172 373.73 27.3288C374.461 27.0405 375.316 26.8963 376.295 26.8963C377.742 26.8963 378.88 27.2021 379.711 27.8136C380.546 28.4251 381.033 29.2578 381.172 30.3118ZM389.526 27.0455V29.4318H382.628V27.0455H389.526ZM384.194 24.3011H387.371V34.9801C387.371 35.2734 387.416 35.5021 387.506 35.6662C387.595 35.8253 387.719 35.9371 387.878 36.0018C388.042 36.0664 388.231 36.0987 388.445 36.0987C388.594 36.0987 388.743 36.0863 388.893 36.0614C389.042 36.0316 389.156 36.0092 389.236 35.9943L389.735 38.3583C389.576 38.408 389.352 38.4652 389.064 38.5298C388.776 38.5994 388.425 38.6417 388.013 38.6566C387.247 38.6864 386.576 38.5845 385.999 38.3509C385.427 38.1172 384.982 37.7543 384.664 37.2621C384.346 36.7699 384.189 36.1484 384.194 35.3977V24.3011ZM391.596 38.5V27.0455H394.676V29.044H394.795C395.004 28.3331 395.354 27.7962 395.847 27.4332C396.339 27.0653 396.906 26.8814 397.547 26.8814C397.706 26.8814 397.877 26.8913 398.061 26.9112C398.245 26.9311 398.407 26.9585 398.546 26.9933V29.8121C398.397 29.7674 398.191 29.7276 397.927 29.6928C397.664 29.658 397.423 29.6406 397.204 29.6406C396.737 29.6406 396.319 29.7425 395.951 29.9464C395.588 30.1452 395.3 30.4237 395.086 30.7816C394.877 31.1396 394.773 31.5522 394.773 32.0195V38.5H391.596ZM407.534 33.6229V27.0455H410.711V38.5H407.661V36.4194H407.542C407.283 37.0906 406.853 37.63 406.252 38.0376C405.655 38.4453 404.927 38.6491 404.066 38.6491C403.301 38.6491 402.627 38.4751 402.046 38.1271C401.464 37.7791 401.009 37.2844 400.681 36.6431C400.358 36.0018 400.194 35.2337 400.189 34.3388V27.0455H403.366V33.772C403.37 34.4482 403.552 34.9826 403.91 35.3754C404.268 35.7681 404.748 35.9645 405.349 35.9645C405.732 35.9645 406.09 35.8775 406.423 35.7035C406.756 35.5245 407.025 35.261 407.228 34.913C407.437 34.565 407.539 34.1349 407.534 33.6229ZM413.252 38.5V27.0455H416.429V38.5H413.252ZM414.848 25.5689C414.376 25.5689 413.971 25.4123 413.632 25.0991C413.299 24.7809 413.133 24.4006 413.133 23.9581C413.133 23.5206 413.299 23.1452 413.632 22.832C413.971 22.5138 414.376 22.3548 414.848 22.3548C415.32 22.3548 415.723 22.5138 416.056 22.832C416.394 23.1452 416.563 23.5206 416.563 23.9581C416.563 24.4006 416.394 24.7809 416.056 25.0991C415.723 25.4123 415.32 25.5689 414.848 25.5689ZM418.974 38.5V27.0455H422.054V29.044H422.173C422.382 28.3331 422.732 27.7962 423.225 27.4332C423.717 27.0653 424.283 26.8814 424.925 26.8814C425.084 26.8814 425.255 26.8913 425.439 26.9112C425.623 26.9311 425.785 26.9585 425.924 26.9933V29.8121C425.775 29.7674 425.569 29.7276 425.305 29.6928C425.042 29.658 424.801 29.6406 424.582 29.6406C424.114 29.6406 423.697 29.7425 423.329 29.9464C422.966 30.1452 422.678 30.4237 422.464 30.7816C422.255 31.1396 422.151 31.5522 422.151 32.0195V38.5H418.974ZM439.772 33.6229V27.0455H442.949V38.5H439.899V36.4194H439.78C439.521 37.0906 439.091 37.63 438.49 38.0376C437.893 38.4453 437.165 38.6491 436.305 38.6491C435.539 38.6491 434.866 38.4751 434.284 38.1271C433.702 37.7791 433.247 37.2844 432.919 36.6431C432.596 36.0018 432.432 35.2337 432.427 34.3388V27.0455H435.604V33.772C435.609 34.4482 435.79 34.9826 436.148 35.3754C436.506 35.7681 436.986 35.9645 437.587 35.9645C437.97 35.9645 438.328 35.8775 438.661 35.7035C438.994 35.5245 439.263 35.261 439.467 34.913C439.676 34.565 439.777 34.1349 439.772 33.6229ZM445.49 38.5V27.0455H448.518V29.0664H448.652C448.891 28.3952 449.289 27.8658 449.846 27.478C450.402 27.0902 451.069 26.8963 451.844 26.8963C452.63 26.8963 453.298 27.0927 453.85 27.4854C454.402 27.8732 454.77 28.4002 454.954 29.0664H455.073C455.307 28.4102 455.729 27.8857 456.341 27.4929C456.957 27.0952 457.686 26.8963 458.526 26.8963C459.595 26.8963 460.462 27.2369 461.129 27.918C461.8 28.5941 462.135 29.5536 462.135 30.7965V38.5H458.966V31.4229C458.966 30.7866 458.797 30.3093 458.459 29.9911C458.121 29.6729 457.698 29.5138 457.191 29.5138C456.614 29.5138 456.164 29.6978 455.841 30.0657C455.518 30.4286 455.357 30.9084 455.357 31.505V38.5H452.277V31.3558C452.277 30.794 452.115 30.3466 451.792 30.0135C451.474 29.6804 451.054 29.5138 450.532 29.5138C450.179 29.5138 449.86 29.6033 449.577 29.7823C449.299 29.9563 449.077 30.2024 448.913 30.5206C448.749 30.8338 448.667 31.2017 448.667 31.6243V38.5H445.49ZM474.979 38.5H469.565V23.2273H475.024C476.56 23.2273 477.882 23.533 478.991 24.1445C480.1 24.7511 480.952 25.6236 481.549 26.7621C482.15 27.9006 482.451 29.2628 482.451 30.8487C482.451 32.4396 482.15 33.8068 481.549 34.9503C480.952 36.0937 480.095 36.9712 478.976 37.5827C477.862 38.1942 476.53 38.5 474.979 38.5ZM472.794 35.7333H474.845C475.799 35.7333 476.602 35.5643 477.253 35.2262C477.91 34.8832 478.402 34.3537 478.73 33.6378C479.063 32.9169 479.229 31.9872 479.229 30.8487C479.229 29.7202 479.063 28.7979 478.73 28.082C478.402 27.3661 477.912 26.8391 477.261 26.5011C476.609 26.163 475.807 25.994 474.852 25.994H472.794V35.7333ZM490.004 38.7237C488.825 38.7237 487.811 38.4851 486.961 38.0078C486.116 37.5256 485.464 36.8445 485.007 35.9645C484.55 35.0795 484.321 34.033 484.321 32.8249C484.321 31.6467 484.55 30.6126 485.007 29.7227C485.464 28.8327 486.108 28.1392 486.939 27.642C487.774 27.1449 488.753 26.8963 489.877 26.8963C490.632 26.8963 491.336 27.0181 491.987 27.2617C492.643 27.5004 493.215 27.8608 493.702 28.343C494.195 28.8253 494.577 29.4318 494.851 30.1626C495.124 30.8885 495.261 31.7386 495.261 32.7131V33.5856H485.589V31.6168H492.271C492.271 31.1594 492.171 30.7543 491.972 30.4013C491.773 30.0483 491.498 29.7724 491.145 29.5735C490.797 29.3697 490.391 29.2678 489.929 29.2678C489.447 29.2678 489.019 29.3796 488.646 29.6033C488.278 29.8221 487.99 30.1179 487.781 30.4908C487.572 30.8587 487.466 31.2688 487.461 31.7212V33.593C487.461 34.1598 487.565 34.6495 487.774 35.0621C487.988 35.4748 488.288 35.793 488.676 36.0167C489.064 36.2404 489.524 36.3523 490.056 36.3523C490.409 36.3523 490.732 36.3026 491.025 36.2031C491.319 36.1037 491.57 35.9545 491.778 35.7557C491.987 35.5568 492.146 35.3132 492.256 35.0249L495.194 35.2188C495.045 35.9247 494.739 36.5412 494.277 37.0682C493.819 37.5902 493.228 37.9979 492.502 38.2912C491.781 38.5795 490.948 38.7237 490.004 38.7237ZM506.865 30.3118L503.956 30.4908C503.907 30.2422 503.8 30.0185 503.636 29.8196C503.472 29.6158 503.255 29.4542 502.987 29.3349C502.723 29.2106 502.408 29.1484 502.04 29.1484C501.548 29.1484 501.132 29.2528 500.794 29.4616C500.456 29.6655 500.287 29.9389 500.287 30.282C500.287 30.5554 500.397 30.7866 500.615 30.9755C500.834 31.1644 501.21 31.3161 501.741 31.4304L503.815 31.848C504.928 32.0767 505.759 32.4446 506.305 32.9517C506.852 33.4588 507.126 34.125 507.126 34.9503C507.126 35.701 506.904 36.3597 506.462 36.9265C506.025 37.4933 505.423 37.9357 504.657 38.2539C503.897 38.5671 503.019 38.7237 502.025 38.7237C500.509 38.7237 499.3 38.408 498.401 37.7766C497.506 37.1403 496.981 36.2752 496.827 35.1815L499.952 35.0174C500.046 35.4798 500.275 35.8327 500.638 36.0763C501.001 36.315 501.466 36.4343 502.032 36.4343C502.589 36.4343 503.037 36.3274 503.375 36.1136C503.718 35.8949 503.892 35.614 503.897 35.271C503.892 34.9826 503.77 34.7464 503.531 34.5625C503.293 34.3736 502.925 34.2294 502.428 34.13L500.444 33.7347C499.325 33.511 498.493 33.1232 497.946 32.5714C497.404 32.0195 497.133 31.3161 497.133 30.4609C497.133 29.7251 497.332 29.0913 497.729 28.5593C498.132 28.0273 498.696 27.6172 499.422 27.3288C500.153 27.0405 501.008 26.8963 501.988 26.8963C503.434 26.8963 504.573 27.2021 505.403 27.8136C506.238 28.4251 506.725 29.2578 506.865 30.3118ZM509.126 38.5V27.0455H512.303V38.5H509.126ZM510.722 25.5689C510.25 25.5689 509.845 25.4123 509.506 25.0991C509.173 24.7809 509.007 24.4006 509.007 23.9581C509.007 23.5206 509.173 23.1452 509.506 22.832C509.845 22.5138 510.25 22.3548 510.722 22.3548C511.194 22.3548 511.597 22.5138 511.93 22.832C512.268 23.1452 512.437 23.5206 512.437 23.9581C512.437 24.4006 512.268 24.7809 511.93 25.0991C511.597 25.4123 511.194 25.5689 510.722 25.5689ZM520.008 43.0341C518.979 43.0341 518.097 42.8924 517.361 42.609C516.63 42.3306 516.048 41.9503 515.616 41.468C515.183 40.9858 514.903 40.4439 514.773 39.8423L517.711 39.4471C517.801 39.6758 517.943 39.8896 518.137 40.0884C518.33 40.2873 518.586 40.4464 518.905 40.5657C519.228 40.69 519.621 40.7521 520.083 40.7521C520.774 40.7521 521.343 40.5831 521.791 40.245C522.243 39.9119 522.469 39.3526 522.469 38.5671V36.4716H522.335C522.196 36.7898 521.987 37.0906 521.709 37.3739C521.43 37.6573 521.072 37.8885 520.635 38.0675C520.197 38.2464 519.675 38.3359 519.069 38.3359C518.209 38.3359 517.426 38.1371 516.72 37.7393C516.019 37.3366 515.459 36.7227 515.042 35.8974C514.629 35.0671 514.423 34.0181 514.423 32.7504C514.423 31.4528 514.634 30.369 515.057 29.4989C515.479 28.6289 516.041 27.9776 516.742 27.5451C517.448 27.1126 518.221 26.8963 519.061 26.8963C519.703 26.8963 520.24 27.0057 520.672 27.2244C521.105 27.4382 521.453 27.7067 521.716 28.0298C521.985 28.348 522.191 28.6612 522.335 28.9695H522.454V27.0455H525.609V38.6119C525.609 39.5863 525.37 40.4016 524.893 41.0579C524.416 41.7141 523.754 42.2063 522.909 42.5344C522.069 42.8675 521.102 43.0341 520.008 43.0341ZM520.075 35.9496C520.588 35.9496 521.02 35.8228 521.373 35.5692C521.731 35.3107 522.004 34.9428 522.193 34.4656C522.387 33.9833 522.484 33.4066 522.484 32.7354C522.484 32.0643 522.39 31.4826 522.201 30.9904C522.012 30.4933 521.738 30.108 521.381 29.8345C521.023 29.5611 520.588 29.4244 520.075 29.4244C519.553 29.4244 519.113 29.5661 518.756 29.8494C518.398 30.1278 518.127 30.5156 517.943 31.0128C517.759 31.5099 517.667 32.0842 517.667 32.7354C517.667 33.3967 517.759 33.9684 517.943 34.4506C518.132 34.9279 518.403 35.2983 518.756 35.5618C519.113 35.8203 519.553 35.9496 520.075 35.9496ZM531.314 31.8778V38.5H528.137V27.0455H531.165V29.0664H531.299C531.552 28.4002 531.977 27.8732 532.574 27.4854C533.171 27.0927 533.894 26.8963 534.744 26.8963C535.54 26.8963 536.233 27.0703 536.825 27.4183C537.416 27.7663 537.876 28.2635 538.204 28.9098C538.532 29.5511 538.697 30.3168 538.697 31.2067V38.5H535.52V31.7734C535.525 31.0724 535.346 30.5256 534.983 30.1328C534.62 29.7351 534.12 29.5362 533.484 29.5362C533.056 29.5362 532.678 29.6282 532.35 29.8121C532.027 29.9961 531.774 30.2646 531.59 30.6175C531.411 30.9656 531.319 31.3857 531.314 31.8778ZM554.406 27.6197C554.346 27.0181 554.09 26.5508 553.637 26.2177C553.185 25.8846 552.571 25.718 551.795 25.718C551.268 25.718 550.824 25.7926 550.461 25.9418C550.098 26.0859 549.819 26.2873 549.625 26.5458C549.436 26.8043 549.342 27.0977 549.342 27.4258C549.332 27.6992 549.389 27.9379 549.513 28.1417C549.643 28.3455 549.819 28.522 550.043 28.6712C550.267 28.8153 550.525 28.9421 550.819 29.0515C551.112 29.1559 551.425 29.2454 551.758 29.32L553.13 29.6481C553.797 29.7972 554.408 29.9961 554.965 30.2447C555.522 30.4933 556.004 30.799 556.412 31.1619C556.819 31.5249 557.135 31.9524 557.359 32.4446C557.587 32.9368 557.704 33.5011 557.709 34.1374C557.704 35.0721 557.466 35.8825 556.993 36.5685C556.526 37.2496 555.85 37.7791 554.965 38.157C554.085 38.5298 553.023 38.7163 551.781 38.7163C550.548 38.7163 549.474 38.5273 548.559 38.1495C547.649 37.7717 546.938 37.2124 546.426 36.4716C545.919 35.7259 545.653 34.8036 545.628 33.7049H548.753C548.788 34.217 548.934 34.6445 549.193 34.9876C549.456 35.3256 549.807 35.5817 550.244 35.7557C550.687 35.9247 551.186 36.0092 551.743 36.0092C552.29 36.0092 552.765 35.9297 553.168 35.7706C553.575 35.6115 553.891 35.3903 554.115 35.1069C554.338 34.8235 554.45 34.4979 554.45 34.13C554.45 33.7869 554.348 33.4986 554.145 33.2649C553.946 33.0312 553.652 32.8324 553.265 32.6683C552.882 32.5043 552.412 32.3551 551.855 32.2209L550.192 31.8033C548.904 31.4901 547.888 31.0004 547.142 30.3342C546.396 29.668 546.026 28.7706 546.031 27.642C546.026 26.7173 546.272 25.9094 546.769 25.2184C547.271 24.5273 547.96 23.9879 548.835 23.6001C549.71 23.2124 550.704 23.0185 551.818 23.0185C552.951 23.0185 553.941 23.2124 554.786 23.6001C555.636 23.9879 556.297 24.5273 556.77 25.2184C557.242 25.9094 557.485 26.7099 557.5 27.6197H554.406ZM561.783 42.7955C561.38 42.7955 561.002 42.7631 560.649 42.6985C560.301 42.6388 560.013 42.5618 559.784 42.4673L560.5 40.0959C560.873 40.2102 561.209 40.2724 561.507 40.2823C561.81 40.2923 562.071 40.2227 562.29 40.0735C562.514 39.9244 562.695 39.6708 562.834 39.3129L563.021 38.8281L558.912 27.0455H562.253L564.624 35.4574H564.743L567.137 27.0455H570.5L566.048 39.7379C565.835 40.3544 565.544 40.8913 565.176 41.3487C564.813 41.8111 564.353 42.1665 563.796 42.4151C563.239 42.6687 562.568 42.7955 561.783 42.7955ZM581.657 30.3118L578.748 30.4908C578.699 30.2422 578.592 30.0185 578.428 29.8196C578.264 29.6158 578.047 29.4542 577.779 29.3349C577.515 29.2106 577.2 29.1484 576.832 29.1484C576.34 29.1484 575.924 29.2528 575.586 29.4616C575.248 29.6655 575.079 29.9389 575.079 30.282C575.079 30.5554 575.189 30.7866 575.407 30.9755C575.626 31.1644 576.002 31.3161 576.533 31.4304L578.607 31.848C579.72 32.0767 580.551 32.4446 581.097 32.9517C581.644 33.4588 581.918 34.125 581.918 34.9503C581.918 35.701 581.696 36.3597 581.254 36.9265C580.816 37.4933 580.215 37.9357 579.449 38.2539C578.689 38.5671 577.811 38.7237 576.817 38.7237C575.301 38.7237 574.092 38.408 573.193 37.7766C572.298 37.1403 571.773 36.2752 571.619 35.1815L574.744 35.0174C574.838 35.4798 575.067 35.8327 575.43 36.0763C575.793 36.315 576.258 36.4343 576.824 36.4343C577.381 36.4343 577.829 36.3274 578.167 36.1136C578.51 35.8949 578.684 35.614 578.689 35.271C578.684 34.9826 578.562 34.7464 578.323 34.5625C578.085 34.3736 577.717 34.2294 577.22 34.13L575.236 33.7347C574.117 33.511 573.285 33.1232 572.738 32.5714C572.196 32.0195 571.925 31.3161 571.925 30.4609C571.925 29.7251 572.124 29.0913 572.521 28.5593C572.924 28.0273 573.488 27.6172 574.214 27.3288C574.945 27.0405 575.8 26.8963 576.78 26.8963C578.226 26.8963 579.365 27.2021 580.195 27.8136C581.03 28.4251 581.517 29.2578 581.657 30.3118ZM590.011 27.0455V29.4318H583.113V27.0455H590.011ZM584.679 24.3011H587.856V34.9801C587.856 35.2734 587.9 35.5021 587.99 35.6662C588.079 35.8253 588.204 35.9371 588.363 36.0018C588.527 36.0664 588.716 36.0987 588.93 36.0987C589.079 36.0987 589.228 36.0863 589.377 36.0614C589.526 36.0316 589.64 36.0092 589.72 35.9943L590.22 38.3583C590.061 38.408 589.837 38.4652 589.548 38.5298C589.26 38.5994 588.91 38.6417 588.497 38.6566C587.731 38.6864 587.06 38.5845 586.483 38.3509C585.912 38.1172 585.467 37.7543 585.149 37.2621C584.83 36.7699 584.674 36.1484 584.679 35.3977V24.3011ZM597.177 38.7237C595.999 38.7237 594.985 38.4851 594.135 38.0078C593.29 37.5256 592.638 36.8445 592.181 35.9645C591.724 35.0795 591.495 34.033 591.495 32.8249C591.495 31.6467 591.724 30.6126 592.181 29.7227C592.638 28.8327 593.282 28.1392 594.112 27.642C594.948 27.1449 595.927 26.8963 597.051 26.8963C597.806 26.8963 598.51 27.0181 599.161 27.2617C599.817 27.5004 600.389 27.8608 600.876 28.343C601.368 28.8253 601.751 29.4318 602.025 30.1626C602.298 30.8885 602.435 31.7386 602.435 32.7131V33.5856H592.763V31.6168H599.444C599.444 31.1594 599.345 30.7543 599.146 30.4013C598.947 30.0483 598.671 29.7724 598.318 29.5735C597.97 29.3697 597.565 29.2678 597.103 29.2678C596.621 29.2678 596.193 29.3796 595.82 29.6033C595.452 29.8221 595.164 30.1179 594.955 30.4908C594.746 30.8587 594.639 31.2688 594.634 31.7212V33.593C594.634 34.1598 594.739 34.6495 594.948 35.0621C595.161 35.4748 595.462 35.793 595.85 36.0167C596.238 36.2404 596.698 36.3523 597.23 36.3523C597.583 36.3523 597.906 36.3026 598.199 36.2031C598.492 36.1037 598.743 35.9545 598.952 35.7557C599.161 35.5568 599.32 35.3132 599.43 35.0249L602.368 35.2188C602.219 35.9247 601.913 36.5412 601.45 37.0682C600.993 37.5902 600.401 37.9979 599.676 38.2912C598.955 38.5795 598.122 38.7237 597.177 38.7237ZM604.508 38.5V27.0455H607.536V29.0664H607.67C607.909 28.3952 608.306 27.8658 608.863 27.478C609.42 27.0902 610.086 26.8963 610.862 26.8963C611.647 26.8963 612.316 27.0927 612.868 27.4854C613.42 27.8732 613.787 28.4002 613.971 29.0664H614.091C614.324 28.4102 614.747 27.8857 615.358 27.4929C615.975 27.0952 616.703 26.8963 617.544 26.8963C618.612 26.8963 619.48 27.2369 620.146 27.918C620.817 28.5941 621.153 29.5536 621.153 30.7965V38.5H617.983V31.4229C617.983 30.7866 617.814 30.3093 617.476 29.9911C617.138 29.6729 616.716 29.5138 616.209 29.5138C615.632 29.5138 615.182 29.6978 614.859 30.0657C614.536 30.4286 614.374 30.9084 614.374 31.505V38.5H611.294V31.3558C611.294 30.794 611.133 30.3466 610.809 30.0135C610.491 29.6804 610.071 29.5138 609.549 29.5138C609.196 29.5138 608.878 29.6033 608.595 29.7823C608.316 29.9563 608.095 30.2024 607.931 30.5206C607.767 30.8338 607.685 31.2017 607.685 31.6243V38.5H604.508ZM633.519 38.7386C632.445 38.7386 631.521 38.4851 630.745 37.978C629.969 37.4709 629.373 36.7724 628.955 35.8825C628.538 34.9925 628.329 33.9759 628.329 32.8324C628.329 31.669 628.543 30.6424 628.97 29.7525C629.403 28.8576 630.004 28.1591 630.775 27.657C631.55 27.1499 632.455 26.8963 633.489 26.8963C634.295 26.8963 635.021 27.0455 635.667 27.3438C636.313 27.642 636.843 28.0597 637.255 28.5966C637.668 29.1335 637.924 29.7599 638.023 30.4759H636.263C636.129 29.9538 635.831 29.4915 635.369 29.0888C634.911 28.6811 634.295 28.4773 633.519 28.4773C632.833 28.4773 632.231 28.6562 631.714 29.0142C631.202 29.3672 630.802 29.8668 630.514 30.5131C630.23 31.1545 630.089 31.9077 630.089 32.7727C630.089 33.6577 630.228 34.4283 630.506 35.0845C630.79 35.7408 631.187 36.2504 631.699 36.6133C632.217 36.9762 632.823 37.1577 633.519 37.1577C633.976 37.1577 634.392 37.0781 634.764 36.919C635.137 36.7599 635.453 36.5312 635.712 36.233C635.97 35.9347 636.154 35.5767 636.263 35.1591H638.023C637.924 35.8352 637.678 36.4442 637.285 36.9862C636.897 37.5231 636.383 37.9506 635.741 38.2688C635.105 38.582 634.364 38.7386 633.519 38.7386ZM645.25 38.7386C644.215 38.7386 643.308 38.4925 642.528 38.0004C641.752 37.5082 641.146 36.8196 640.708 35.9347C640.275 35.0497 640.059 34.0156 640.059 32.8324C640.059 31.6392 640.275 30.5977 640.708 29.7077C641.146 28.8178 641.752 28.1268 642.528 27.6346C643.308 27.1424 644.215 26.8963 645.25 26.8963C646.284 26.8963 647.188 27.1424 647.964 27.6346C648.745 28.1268 649.351 28.8178 649.784 29.7077C650.221 30.5977 650.44 31.6392 650.44 32.8324C650.44 34.0156 650.221 35.0497 649.784 35.9347C649.351 36.8196 648.745 37.5082 647.964 38.0004C647.188 38.4925 646.284 38.7386 645.25 38.7386ZM645.25 37.1577C646.035 37.1577 646.681 36.9563 647.188 36.5536C647.696 36.1509 648.071 35.6214 648.315 34.9652C648.558 34.3089 648.68 33.598 648.68 32.8324C648.68 32.0668 648.558 31.3533 648.315 30.6921C648.071 30.0309 647.696 29.4964 647.188 29.0888C646.681 28.6811 646.035 28.4773 645.25 28.4773C644.464 28.4773 643.818 28.6811 643.311 29.0888C642.804 29.4964 642.428 30.0309 642.185 30.6921C641.941 31.3533 641.819 32.0668 641.819 32.8324C641.819 33.598 641.941 34.3089 642.185 34.9652C642.428 35.6214 642.804 36.1509 643.311 36.5536C643.818 36.9563 644.464 37.1577 645.25 37.1577ZM653.126 38.5V27.0455H654.827V28.8352H654.976C655.214 28.2237 655.6 27.7489 656.132 27.4109C656.664 27.0678 657.303 26.8963 658.048 26.8963C658.804 26.8963 659.433 27.0678 659.935 27.4109C660.442 27.7489 660.837 28.2237 661.121 28.8352H661.24C661.533 28.2436 661.973 27.7738 662.56 27.4258C663.147 27.0728 663.85 26.8963 664.67 26.8963C665.695 26.8963 666.532 27.217 667.184 27.8583C667.835 28.4947 668.161 29.4865 668.161 30.8338V38.5H666.401V30.8338C666.401 29.9886 666.169 29.3846 665.707 29.0217C665.245 28.6587 664.7 28.4773 664.074 28.4773C663.268 28.4773 662.645 28.7209 662.202 29.2081C661.76 29.6903 661.538 30.3018 661.538 31.0426V38.5H659.749V30.6548C659.749 30.0036 659.537 29.479 659.115 29.0813C658.692 28.6786 658.148 28.4773 657.482 28.4773C657.024 28.4773 656.597 28.5991 656.199 28.8427C655.806 29.0863 655.488 29.4244 655.244 29.8569C655.006 30.2844 654.886 30.7791 654.886 31.3409V38.5H653.126ZM677.523 38.5V23.2273H686.681V24.8679H679.373V30.0284H685.995V31.669H679.373V38.5H677.523ZM689.61 38.5V27.0455H691.37V38.5H689.61ZM690.505 25.1364C690.162 25.1364 689.866 25.0195 689.617 24.7859C689.374 24.5522 689.252 24.2713 689.252 23.9432C689.252 23.6151 689.374 23.3342 689.617 23.1005C689.866 22.8668 690.162 22.75 690.505 22.75C690.848 22.75 691.141 22.8668 691.385 23.1005C691.633 23.3342 691.758 23.6151 691.758 23.9432C691.758 24.2713 691.633 24.5522 691.385 24.7859C691.141 25.0195 690.848 25.1364 690.505 25.1364ZM699.217 43.0341C698.367 43.0341 697.636 42.9247 697.024 42.706C696.413 42.4922 695.903 42.2088 695.496 41.8558C695.093 41.5078 694.772 41.1349 694.534 40.7372L695.936 39.7528C696.095 39.9616 696.296 40.2003 696.54 40.4688C696.783 40.7422 697.116 40.9783 697.539 41.1772C697.966 41.381 698.526 41.483 699.217 41.483C700.142 41.483 700.905 41.2592 701.506 40.8118C702.108 40.3643 702.409 39.6634 702.409 38.7088V36.3821H702.259C702.13 36.5909 701.946 36.8494 701.708 37.1577C701.474 37.4609 701.136 37.7319 700.693 37.9705C700.256 38.2042 699.664 38.321 698.919 38.321C697.994 38.321 697.164 38.1023 696.428 37.6648C695.697 37.2273 695.118 36.5909 694.69 35.7557C694.268 34.9205 694.056 33.9062 694.056 32.7131C694.056 31.5398 694.263 30.5181 694.675 29.6481C695.088 28.7731 695.662 28.0969 696.398 27.6197C697.134 27.1374 697.984 26.8963 698.948 26.8963C699.694 26.8963 700.286 27.0206 700.723 27.2692C701.166 27.5128 701.504 27.7912 701.737 28.1044C701.976 28.4126 702.16 28.6662 702.289 28.8651H702.468V27.0455H704.169V38.8281C704.169 39.8125 703.945 40.6129 703.497 41.2294C703.055 41.8509 702.458 42.3058 701.708 42.5941C700.962 42.8874 700.132 43.0341 699.217 43.0341ZM699.157 36.7401C699.863 36.7401 700.46 36.5785 700.947 36.2553C701.434 35.9322 701.805 35.4673 702.058 34.8608C702.312 34.2543 702.438 33.5284 702.438 32.6832C702.438 31.858 702.314 31.1296 702.066 30.4982C701.817 29.8668 701.449 29.3722 700.962 29.0142C700.475 28.6562 699.873 28.4773 699.157 28.4773C698.411 28.4773 697.79 28.6662 697.293 29.044C696.801 29.4219 696.43 29.929 696.182 30.5653C695.938 31.2017 695.816 31.9077 695.816 32.6832C695.816 33.4787 695.941 34.1822 696.189 34.7937C696.443 35.4002 696.816 35.8775 697.308 36.2255C697.805 36.5685 698.421 36.7401 699.157 36.7401ZM707.39 38.5V27.0455H709.09V28.8352H709.24C709.478 28.2237 709.863 27.7489 710.395 27.4109C710.927 27.0678 711.566 26.8963 712.312 26.8963C713.068 26.8963 713.697 27.0678 714.199 27.4109C714.706 27.7489 715.101 28.2237 715.384 28.8352H715.504C715.797 28.2436 716.237 27.7738 716.824 27.4258C717.41 27.0728 718.114 26.8963 718.934 26.8963C719.958 26.8963 720.796 27.217 721.447 27.8583C722.099 28.4947 722.424 29.4865 722.424 30.8338V38.5H720.664V30.8338C720.664 29.9886 720.433 29.3846 719.971 29.0217C719.508 28.6587 718.964 28.4773 718.338 28.4773C717.532 28.4773 716.908 28.7209 716.466 29.2081C716.023 29.6903 715.802 30.3018 715.802 31.0426V38.5H714.012V30.6548C714.012 30.0036 713.801 29.479 713.378 29.0813C712.956 28.6786 712.411 28.4773 711.745 28.4773C711.288 28.4773 710.86 28.5991 710.463 28.8427C710.07 29.0863 709.752 29.4244 709.508 29.8569C709.269 30.2844 709.15 30.7791 709.15 31.3409V38.5H707.39ZM729.013 38.7685C728.287 38.7685 727.628 38.6317 727.037 38.3583C726.445 38.0799 725.975 37.6797 725.627 37.1577C725.279 36.6307 725.105 35.9943 725.105 35.2486C725.105 34.5923 725.234 34.0604 725.493 33.6527C725.751 33.2401 726.097 32.9169 726.529 32.6832C726.962 32.4496 727.439 32.2756 727.961 32.1612C728.488 32.0419 729.018 31.9474 729.55 31.8778C730.246 31.7884 730.81 31.7212 731.243 31.6765C731.68 31.6268 731.998 31.5447 732.197 31.4304C732.401 31.3161 732.503 31.1172 732.503 30.8338V30.7741C732.503 30.0384 732.301 29.4666 731.899 29.0589C731.501 28.6513 730.897 28.4474 730.087 28.4474C729.246 28.4474 728.588 28.6314 728.11 28.9993C727.633 29.3672 727.298 29.7599 727.104 30.1776L725.433 29.581C725.732 28.8849 726.129 28.343 726.626 27.9553C727.129 27.5625 727.675 27.2891 728.267 27.1349C728.864 26.9759 729.45 26.8963 730.027 26.8963C730.395 26.8963 730.817 26.9411 731.295 27.0305C731.777 27.1151 732.242 27.2915 732.689 27.56C733.142 27.8285 733.517 28.2337 733.815 28.7756C734.114 29.3175 734.263 30.0433 734.263 30.9531V38.5H732.503V36.9489H732.413C732.294 37.1974 732.095 37.4634 731.817 37.7468C731.538 38.0302 731.168 38.2713 730.706 38.4702C730.243 38.669 729.679 38.7685 729.013 38.7685ZM729.281 37.1875C729.977 37.1875 730.564 37.0508 731.041 36.7773C731.523 36.5039 731.886 36.1509 732.13 35.7184C732.379 35.2859 732.503 34.831 732.503 34.3537V32.7429C732.428 32.8324 732.264 32.9144 732.011 32.989C731.762 33.0586 731.474 33.1207 731.146 33.1754C730.822 33.2251 730.507 33.2699 730.199 33.3097C729.895 33.3445 729.649 33.3743 729.46 33.3991C729.003 33.4588 728.575 33.5558 728.178 33.69C727.785 33.8192 727.467 34.0156 727.223 34.2791C726.984 34.5376 726.865 34.8906 726.865 35.3381C726.865 35.9496 727.091 36.4119 727.544 36.7251C728.001 37.0334 728.58 37.1875 729.281 37.1875ZM740.1 36.4119L739.981 37.2173C739.896 37.7841 739.767 38.3906 739.593 39.0369C739.424 39.6832 739.247 40.2923 739.063 40.864C738.88 41.4357 738.728 41.8906 738.609 42.2287H737.266C737.331 41.9105 737.415 41.4904 737.52 40.9684C737.624 40.4464 737.729 39.8622 737.833 39.2159C737.942 38.5746 738.032 37.9183 738.101 37.2472L738.191 36.4119H740.1ZM761.616 23.2273V38.5H759.827L751.504 26.5085H751.355V38.5H749.506V23.2273H751.295L759.648 35.2486H759.797V23.2273H761.616ZM769.881 38.7386C768.777 38.7386 767.825 38.495 767.025 38.0078C766.229 37.5156 765.616 36.8295 765.183 35.9496C764.755 35.0646 764.542 34.0355 764.542 32.8622C764.542 31.6889 764.755 30.6548 765.183 29.7599C765.616 28.8601 766.217 28.1591 766.988 27.657C767.763 27.1499 768.668 26.8963 769.702 26.8963C770.299 26.8963 770.888 26.9957 771.47 27.1946C772.051 27.3935 772.581 27.7166 773.058 28.1641C773.535 28.6065 773.916 29.1932 774.199 29.924C774.482 30.6548 774.624 31.5547 774.624 32.6236V33.3693H765.794V31.848H772.834C772.834 31.2017 772.705 30.625 772.446 30.1179C772.193 29.6108 771.83 29.2106 771.358 28.9173C770.89 28.6239 770.339 28.4773 769.702 28.4773C769.001 28.4773 768.395 28.6513 767.883 28.9993C767.375 29.3423 766.985 29.7898 766.712 30.3416C766.438 30.8935 766.302 31.4851 766.302 32.1165V33.1307C766.302 33.9957 766.451 34.729 766.749 35.3306C767.052 35.9272 767.472 36.3821 768.009 36.6953C768.546 37.0036 769.17 37.1577 769.881 37.1577C770.343 37.1577 770.761 37.093 771.134 36.9638C771.512 36.8295 771.837 36.6307 772.111 36.3672C772.384 36.0987 772.596 35.7656 772.745 35.3679L774.445 35.8452C774.266 36.4219 773.965 36.929 773.543 37.3665C773.12 37.799 772.598 38.1371 771.977 38.3807C771.355 38.6193 770.657 38.7386 769.881 38.7386ZM778.306 27.0455L781.05 31.7287L783.795 27.0455H785.823L782.124 32.7727L785.823 38.5H783.795L781.05 34.0554L778.306 38.5H776.278L779.917 32.7727L776.278 27.0455H778.306ZM793.316 27.0455V28.5369H787.38V27.0455H793.316ZM789.11 24.3011H790.87V35.2188C790.87 35.7159 790.942 36.0888 791.086 36.3374C791.235 36.581 791.424 36.745 791.653 36.8295C791.887 36.9091 792.133 36.9489 792.391 36.9489C792.585 36.9489 792.744 36.9389 792.869 36.919C792.993 36.8942 793.092 36.8743 793.167 36.8594L793.525 38.4403C793.405 38.4851 793.239 38.5298 793.025 38.5746C792.811 38.6243 792.54 38.6491 792.212 38.6491C791.715 38.6491 791.228 38.5423 790.751 38.3285C790.278 38.1147 789.886 37.7891 789.572 37.3516C789.264 36.9141 789.11 36.3622 789.11 35.696V24.3011ZM806.672 38.7386C805.568 38.7386 804.616 38.495 803.816 38.0078C803.021 37.5156 802.407 36.8295 801.974 35.9496C801.546 35.0646 801.333 34.0355 801.333 32.8622C801.333 31.6889 801.546 30.6548 801.974 29.7599C802.407 28.8601 803.008 28.1591 803.779 27.657C804.554 27.1499 805.459 26.8963 806.493 26.8963C807.09 26.8963 807.679 26.9957 808.261 27.1946C808.842 27.3935 809.372 27.7166 809.849 28.1641C810.326 28.6065 810.707 29.1932 810.99 29.924C811.273 30.6548 811.415 31.5547 811.415 32.6236V33.3693H802.585V31.848H809.625C809.625 31.2017 809.496 30.625 809.237 30.1179C808.984 29.6108 808.621 29.2106 808.149 28.9173C807.681 28.6239 807.13 28.4773 806.493 28.4773C805.792 28.4773 805.186 28.6513 804.674 28.9993C804.166 29.3423 803.776 29.7898 803.503 30.3416C803.229 30.8935 803.093 31.4851 803.093 32.1165V33.1307C803.093 33.9957 803.242 34.729 803.54 35.3306C803.843 35.9272 804.263 36.3821 804.8 36.6953C805.337 37.0036 805.961 37.1577 806.672 37.1577C807.134 37.1577 807.552 37.093 807.925 36.9638C808.303 36.8295 808.628 36.6307 808.902 36.3672C809.175 36.0987 809.387 35.7656 809.536 35.3679L811.236 35.8452C811.057 36.4219 810.756 36.929 810.334 37.3665C809.911 37.799 809.389 38.1371 808.768 38.3807C808.146 38.6193 807.448 38.7386 806.672 38.7386ZM828.589 27.0455C828.5 26.2898 828.137 25.7031 827.501 25.2855C826.864 24.8679 826.084 24.6591 825.159 24.6591C824.483 24.6591 823.891 24.7685 823.384 24.9872C822.882 25.206 822.489 25.5067 822.206 25.8896C821.927 26.2724 821.788 26.7074 821.788 27.1946C821.788 27.6023 821.885 27.9528 822.079 28.2461C822.278 28.5344 822.532 28.7756 822.84 28.9695C823.148 29.1584 823.471 29.315 823.809 29.4393C824.147 29.5586 824.458 29.6555 824.741 29.7301L826.293 30.1477C826.69 30.2521 827.133 30.3963 827.62 30.5803C828.112 30.7642 828.582 31.0153 829.029 31.3335C829.482 31.6467 829.855 32.0494 830.148 32.5415C830.441 33.0337 830.588 33.6378 830.588 34.3537C830.588 35.179 830.372 35.9247 829.939 36.5909C829.512 37.2571 828.885 37.7866 828.06 38.1793C827.24 38.5721 826.243 38.7685 825.07 38.7685C823.976 38.7685 823.029 38.592 822.228 38.239C821.433 37.886 820.806 37.3938 820.349 36.7624C819.897 36.131 819.641 35.3977 819.581 34.5625H821.49C821.54 35.1392 821.734 35.6165 822.072 35.9943C822.415 36.3672 822.847 36.6456 823.369 36.8295C823.896 37.0085 824.463 37.098 825.07 37.098C825.775 37.098 826.409 36.9837 826.971 36.755C827.533 36.5213 827.978 36.1982 828.306 35.7855C828.634 35.3679 828.798 34.8807 828.798 34.3239C828.798 33.8168 828.657 33.4041 828.373 33.0859C828.09 32.7678 827.717 32.5092 827.255 32.3104C826.792 32.1115 826.293 31.9375 825.756 31.7884L823.876 31.2514C822.683 30.9084 821.739 30.4187 821.043 29.7823C820.347 29.146 819.998 28.3132 819.998 27.2841C819.998 26.429 820.23 25.6832 820.692 25.0469C821.159 24.4055 821.786 23.9084 822.571 23.5554C823.362 23.1974 824.244 23.0185 825.219 23.0185C826.203 23.0185 827.078 23.195 827.844 23.5479C828.609 23.896 829.216 24.3732 829.663 24.9798C830.116 25.5863 830.354 26.2749 830.379 27.0455H828.589ZM838.372 27.0455V28.5369H832.436V27.0455H838.372ZM834.166 24.3011H835.926V35.2188C835.926 35.7159 835.998 36.0888 836.142 36.3374C836.291 36.581 836.48 36.745 836.709 36.8295C836.942 36.9091 837.188 36.9489 837.447 36.9489C837.641 36.9489 837.8 36.9389 837.924 36.919C838.048 36.8942 838.148 36.8743 838.222 36.8594L838.58 38.4403C838.461 38.4851 838.295 38.5298 838.081 38.5746C837.867 38.6243 837.596 38.6491 837.268 38.6491C836.771 38.6491 836.284 38.5423 835.806 38.3285C835.334 38.1147 834.941 37.7891 834.628 37.3516C834.32 36.9141 834.166 36.3622 834.166 35.696V24.3011ZM845.549 38.7386C844.515 38.7386 843.608 38.4925 842.827 38.0004C842.052 37.5082 841.445 36.8196 841.008 35.9347C840.575 35.0497 840.359 34.0156 840.359 32.8324C840.359 31.6392 840.575 30.5977 841.008 29.7077C841.445 28.8178 842.052 28.1268 842.827 27.6346C843.608 27.1424 844.515 26.8963 845.549 26.8963C846.583 26.8963 847.488 27.1424 848.264 27.6346C849.044 28.1268 849.651 28.8178 850.083 29.7077C850.521 30.5977 850.74 31.6392 850.74 32.8324C850.74 34.0156 850.521 35.0497 850.083 35.9347C849.651 36.8196 849.044 37.5082 848.264 38.0004C847.488 38.4925 846.583 38.7386 845.549 38.7386ZM845.549 37.1577C846.335 37.1577 846.981 36.9563 847.488 36.5536C847.995 36.1509 848.371 35.6214 848.614 34.9652C848.858 34.3089 848.98 33.598 848.98 32.8324C848.98 32.0668 848.858 31.3533 848.614 30.6921C848.371 30.0309 847.995 29.4964 847.488 29.0888C846.981 28.6811 846.335 28.4773 845.549 28.4773C844.764 28.4773 844.118 28.6811 843.61 29.0888C843.103 29.4964 842.728 30.0309 842.484 30.6921C842.241 31.3533 842.119 32.0668 842.119 32.8324C842.119 33.598 842.241 34.3089 842.484 34.9652C842.728 35.6214 843.103 36.1509 843.61 36.5536C844.118 36.9563 844.764 37.1577 845.549 37.1577ZM853.426 38.5V27.0455H855.127V28.7756H855.246C855.455 28.2088 855.832 27.7489 856.379 27.396C856.926 27.043 857.543 26.8665 858.229 26.8665C858.358 26.8665 858.52 26.869 858.714 26.8739C858.907 26.8789 859.054 26.8864 859.153 26.8963V28.6861C859.094 28.6712 858.957 28.6488 858.743 28.619C858.535 28.5842 858.313 28.5668 858.08 28.5668C857.523 28.5668 857.026 28.6836 856.588 28.9173C856.156 29.146 855.813 29.4641 855.559 29.8718C855.31 30.2745 855.186 30.7344 855.186 31.2514V38.5H853.426ZM862.722 42.7955C862.424 42.7955 862.158 42.7706 861.924 42.7209C861.69 42.6761 861.529 42.6314 861.439 42.5866L861.887 41.0355C862.314 41.1449 862.692 41.1847 863.02 41.1548C863.348 41.125 863.639 40.9783 863.893 40.7148C864.151 40.4563 864.387 40.0362 864.601 39.4545L864.929 38.5597L860.693 27.0455H862.603L865.764 36.1733H865.884L869.046 27.0455H870.955L866.093 40.1705C865.874 40.7621 865.603 41.2518 865.28 41.6396C864.957 42.0323 864.581 42.3232 864.154 42.5121C863.731 42.701 863.254 42.7955 862.722 42.7955ZM873.516 38.5V23.2273H875.276V28.8651H875.426C875.555 28.6662 875.734 28.4126 875.962 28.1044C876.196 27.7912 876.529 27.5128 876.962 27.2692C877.399 27.0206 877.991 26.8963 878.737 26.8963C879.701 26.8963 880.551 27.1374 881.287 27.6197C882.023 28.1019 882.597 28.7855 883.01 29.6705C883.422 30.5554 883.629 31.5994 883.629 32.8026C883.629 34.0156 883.422 35.0671 883.01 35.957C882.597 36.842 882.025 37.5281 881.294 38.0153C880.564 38.4975 879.721 38.7386 878.766 38.7386C878.031 38.7386 877.441 38.6168 876.999 38.3732C876.557 38.1246 876.216 37.8437 875.977 37.5305C875.739 37.2124 875.555 36.9489 875.426 36.7401H875.217V38.5H873.516ZM875.247 32.7727C875.247 33.6378 875.373 34.4009 875.627 35.0621C875.88 35.7184 876.251 36.233 876.738 36.6058C877.225 36.9737 877.822 37.1577 878.528 37.1577C879.264 37.1577 879.878 36.9638 880.37 36.576C880.867 36.1832 881.24 35.6562 881.488 34.995C881.742 34.3288 881.869 33.5881 881.869 32.7727C881.869 31.9673 881.744 31.2415 881.496 30.5952C881.252 29.9439 880.882 29.4293 880.385 29.0515C879.892 28.6687 879.274 28.4773 878.528 28.4773C877.812 28.4773 877.21 28.6587 876.723 29.0217C876.236 29.3796 875.868 29.8817 875.619 30.5281C875.371 31.1694 875.247 31.9176 875.247 32.7727ZM890.974 38.7386C889.94 38.7386 889.033 38.4925 888.252 38.0004C887.477 37.5082 886.87 36.8196 886.433 35.9347C886 35.0497 885.784 34.0156 885.784 32.8324C885.784 31.6392 886 30.5977 886.433 29.7077C886.87 28.8178 887.477 28.1268 888.252 27.6346C889.033 27.1424 889.94 26.8963 890.974 26.8963C892.008 26.8963 892.913 27.1424 893.689 27.6346C894.469 28.1268 895.076 28.8178 895.508 29.7077C895.946 30.5977 896.165 31.6392 896.165 32.8324C896.165 34.0156 895.946 35.0497 895.508 35.9347C895.076 36.8196 894.469 37.5082 893.689 38.0004C892.913 38.4925 892.008 38.7386 890.974 38.7386ZM890.974 37.1577C891.76 37.1577 892.406 36.9563 892.913 36.5536C893.42 36.1509 893.796 35.6214 894.039 34.9652C894.283 34.3089 894.405 33.598 894.405 32.8324C894.405 32.0668 894.283 31.3533 894.039 30.6921C893.796 30.0309 893.42 29.4964 892.913 29.0888C892.406 28.6811 891.76 28.4773 890.974 28.4773C890.189 28.4773 889.542 28.6811 889.035 29.0888C888.528 29.4964 888.153 30.0309 887.909 30.6921C887.666 31.3533 887.544 32.0668 887.544 32.8324C887.544 33.598 887.666 34.3089 887.909 34.9652C888.153 35.6214 888.528 36.1509 889.035 36.5536C889.542 36.9563 890.189 37.1577 890.974 37.1577ZM903.504 38.7386C902.47 38.7386 901.563 38.4925 900.782 38.0004C900.007 37.5082 899.4 36.8196 898.963 35.9347C898.53 35.0497 898.314 34.0156 898.314 32.8324C898.314 31.6392 898.53 30.5977 898.963 29.7077C899.4 28.8178 900.007 28.1268 900.782 27.6346C901.563 27.1424 902.47 26.8963 903.504 26.8963C904.539 26.8963 905.443 27.1424 906.219 27.6346C906.999 28.1268 907.606 28.8178 908.039 29.7077C908.476 30.5977 908.695 31.6392 908.695 32.8324C908.695 34.0156 908.476 35.0497 908.039 35.9347C907.606 36.8196 906.999 37.5082 906.219 38.0004C905.443 38.4925 904.539 38.7386 903.504 38.7386ZM903.504 37.1577C904.29 37.1577 904.936 36.9563 905.443 36.5536C905.95 36.1509 906.326 35.6214 906.569 34.9652C906.813 34.3089 906.935 33.598 906.935 32.8324C906.935 32.0668 906.813 31.3533 906.569 30.6921C906.326 30.0309 905.95 29.4964 905.443 29.0888C904.936 28.6811 904.29 28.4773 903.504 28.4773C902.719 28.4773 902.073 28.6811 901.566 29.0888C901.058 29.4964 900.683 30.0309 900.439 30.6921C900.196 31.3533 900.074 32.0668 900.074 32.8324C900.074 33.598 900.196 34.3089 900.439 34.9652C900.683 35.6214 901.058 36.1509 901.566 36.5536C902.073 36.9563 902.719 37.1577 903.504 37.1577ZM913.022 34.3239L912.992 32.1463H913.35L918.361 27.0455H920.539L915.199 32.4446H915.05L913.022 34.3239ZM911.381 38.5V23.2273H913.141V38.5H911.381ZM918.66 38.5L914.185 32.8324L915.438 31.6094L920.897 38.5H918.66ZM924.087 38.6193C923.719 38.6193 923.403 38.4876 923.14 38.2241C922.876 37.9606 922.744 37.6449 922.744 37.277C922.744 36.9091 922.876 36.5934 923.14 36.3299C923.403 36.0664 923.719 35.9347 924.087 35.9347C924.455 35.9347 924.77 36.0664 925.034 36.3299C925.297 36.5934 925.429 36.9091 925.429 37.277C925.429 37.5206 925.367 37.7443 925.243 37.9482C925.123 38.152 924.962 38.3161 924.758 38.4403C924.559 38.5597 924.335 38.6193 924.087 38.6193Z" fill="black"/>
<rect x="0.5" y="0.5" width="1316" height="61" rx="3.5" stroke="#D9D7D7"/>
<defs>
<linearGradient id="paint0_linear_2_113" x1="2.07692" y1="31" x2="197" y2="31" gradientUnits="userSpaceOnUse">
<stop stop-color="#EB6492"/>
<stop offset="1" stop-color="#EB5963"/>
</linearGradient>
</defs>
</svg>
