<svg width="1320" height="403" viewBox="0 0 1320 403" fill="none" xmlns="http://www.w3.org/2000/svg">
<g clip-path="url(#clip0_2_26)">
<rect width="1320" height="403" rx="19.6585" fill="black"/>
<mask id="path-2-inside-1_2_26" fill="white">
<path d="M-3.05176e-05 300.137H1656.23V403.344H-3.05176e-05V300.137Z"/>
</mask>
<path d="M-3.05176e-05 300.137H1656.23V403.344H-3.05176e-05V300.137Z" fill="#FAFAFA"/>
<g clip-path="url(#clip1_2_26)">
<path d="M111.352 337.413H133.612V339.11H113.393V351.876H132.406V353.572H113.393V367.589H133.843V369.285H111.352V337.413V337.413ZM135.606 337.413H137.971L148.452 351.429L159.164 337.413L173.734 319.609L149.796 352.903L162.132 369.285H159.674L148.452 354.376L137.183 369.285H134.771L147.199 352.903L135.606 337.413H135.606ZM163.013 339.11V337.413H188.379V339.11H176.693V369.284H174.653V339.11H163.014H163.013ZM83.5048 337.413H86.0556L121.226 387.872L106.692 369.285L85.6377 339.824L85.545 369.285H83.5048V337.413V337.413ZM188.175 367.076C187.757 367.076 187.444 366.767 187.444 366.367C187.444 365.966 187.757 365.657 188.174 365.657C188.596 365.657 188.903 365.966 188.903 366.367C188.903 366.767 188.596 367.076 188.174 367.076H188.175ZM190.179 365.209H191.271C191.286 365.776 191.719 366.157 192.353 366.157C193.063 366.157 193.465 365.748 193.465 364.98V360.121H194.576V364.985C194.576 366.367 193.743 367.163 192.363 367.163C191.068 367.163 190.18 366.391 190.18 365.209H190.179ZM196.03 365.148H197.132C197.226 365.8 197.891 366.214 198.849 366.214C199.742 366.214 200.397 365.771 200.397 365.161C200.397 364.638 199.981 364.323 199.032 364.109L198.109 363.895C196.815 363.604 196.223 363.003 196.223 361.993C196.223 360.769 197.265 359.954 198.829 359.954C200.283 359.954 201.346 360.769 201.41 361.926H200.328C200.224 361.293 199.648 360.897 198.814 360.897C197.935 360.897 197.35 361.302 197.35 361.921C197.35 362.412 197.727 362.694 198.661 362.903L199.449 363.089C200.918 363.418 201.524 363.989 201.524 365.023C201.524 366.338 200.461 367.163 198.765 367.163C197.177 367.163 196.109 366.376 196.03 365.147V365.148Z" fill="black"/>
</g>
<path d="M-3.05176e-05 301.365H1656.23V298.908H-3.05176e-05V301.365Z" fill="black" fill-opacity="0.25" mask="url(#path-2-inside-1_2_26)"/>
<path d="M104.633 190.781H87.7002V143.015H104.773C109.577 143.015 113.713 143.971 117.18 145.884C120.648 147.781 123.314 150.51 125.18 154.07C127.062 157.631 128.002 161.891 128.002 166.851C128.002 171.827 127.062 176.103 125.18 179.679C123.314 183.255 120.632 185.999 117.134 187.912C113.651 189.824 109.484 190.781 104.633 190.781ZM97.7991 182.128H104.213C107.198 182.128 109.709 181.599 111.746 180.542C113.799 179.469 115.338 177.813 116.364 175.574C117.406 173.319 117.927 170.412 117.927 166.851C117.927 163.322 117.406 160.437 116.364 158.198C115.338 155.959 113.806 154.311 111.77 153.254C109.733 152.197 107.222 151.668 104.236 151.668H97.7991V182.128ZM151.623 191.48C147.938 191.48 144.766 190.734 142.107 189.241C139.464 187.733 137.427 185.603 135.996 182.851C134.566 180.083 133.851 176.81 133.851 173.032C133.851 169.347 134.566 166.113 135.996 163.329C137.427 160.546 139.44 158.377 142.037 156.822C144.649 155.267 147.712 154.49 151.226 154.49C153.589 154.49 155.79 154.871 157.826 155.633C159.879 156.379 161.667 157.506 163.191 159.015C164.73 160.523 165.927 162.42 166.782 164.705C167.638 166.976 168.065 169.634 168.065 172.682V175.411H137.815V169.253H158.713C158.713 167.823 158.402 166.556 157.78 165.452C157.158 164.348 156.295 163.485 155.191 162.863C154.103 162.225 152.835 161.907 151.389 161.907C149.881 161.907 148.544 162.257 147.378 162.956C146.227 163.64 145.325 164.566 144.672 165.732C144.019 166.882 143.685 168.165 143.669 169.58V175.434C143.669 177.207 143.996 178.738 144.649 180.029C145.318 181.319 146.258 182.314 147.471 183.014C148.684 183.714 150.122 184.064 151.786 184.064C152.89 184.064 153.9 183.908 154.818 183.597C155.735 183.286 156.52 182.82 157.173 182.198C157.826 181.576 158.324 180.814 158.666 179.912L167.855 180.518C167.389 182.726 166.433 184.654 164.987 186.303C163.556 187.935 161.706 189.21 159.436 190.127C157.181 191.029 154.577 191.48 151.623 191.48ZM204.356 165.172L195.26 165.732C195.104 164.954 194.77 164.255 194.257 163.633C193.744 162.995 193.067 162.49 192.228 162.117C191.404 161.728 190.416 161.534 189.266 161.534C187.726 161.534 186.428 161.86 185.371 162.513C184.314 163.151 183.785 164.006 183.785 165.079C183.785 165.934 184.127 166.657 184.811 167.248C185.495 167.839 186.669 168.313 188.333 168.67L194.817 169.976C198.3 170.692 200.896 171.842 202.607 173.428C204.317 175.014 205.172 177.098 205.172 179.679C205.172 182.027 204.48 184.087 203.096 185.859C201.728 187.632 199.847 189.016 197.452 190.011C195.073 190.99 192.329 191.48 189.219 191.48C184.477 191.48 180.699 190.493 177.884 188.518C175.085 186.528 173.445 183.823 172.963 180.402L182.735 179.889C183.031 181.335 183.746 182.439 184.881 183.201C186.016 183.947 187.47 184.32 189.242 184.32C190.984 184.32 192.383 183.986 193.441 183.317C194.513 182.633 195.058 181.755 195.073 180.682C195.058 179.78 194.677 179.041 193.93 178.466C193.184 177.875 192.033 177.424 190.479 177.113L184.275 175.877C180.776 175.177 178.172 173.965 176.462 172.239C174.767 170.513 173.919 168.313 173.919 165.638C173.919 163.337 174.541 161.355 175.785 159.691C177.045 158.027 178.809 156.745 181.079 155.843C183.365 154.941 186.039 154.49 189.103 154.49C193.627 154.49 197.188 155.446 199.784 157.359C202.397 159.271 203.92 161.876 204.356 165.172ZM227.754 191.48C224.069 191.48 220.898 190.734 218.239 189.241C215.595 187.733 213.559 185.603 212.128 182.851C210.698 180.083 209.982 176.81 209.982 173.032C209.982 169.347 210.698 166.113 212.128 163.329C213.559 160.546 215.572 158.377 218.169 156.822C220.781 155.267 223.844 154.49 227.358 154.49C229.721 154.49 231.922 154.871 233.958 155.633C236.011 156.379 237.799 157.506 239.323 159.015C240.862 160.523 242.059 162.42 242.914 164.705C243.77 166.976 244.197 169.634 244.197 172.682V175.411H213.947V169.253H234.845C234.845 167.823 234.534 166.556 233.912 165.452C233.29 164.348 232.427 163.485 231.323 162.863C230.234 162.225 228.967 161.907 227.521 161.907C226.013 161.907 224.676 162.257 223.51 162.956C222.359 163.64 221.457 164.566 220.804 165.732C220.151 166.882 219.817 168.165 219.801 169.58V175.434C219.801 177.207 220.128 178.738 220.781 180.029C221.45 181.319 222.39 182.314 223.603 183.014C224.816 183.714 226.254 184.064 227.918 184.064C229.022 184.064 230.032 183.908 230.95 183.597C231.867 183.286 232.652 182.82 233.305 182.198C233.958 181.576 234.456 180.814 234.798 179.912L243.987 180.518C243.521 182.726 242.565 184.654 241.119 186.303C239.688 187.935 237.838 189.21 235.568 190.127C233.313 191.029 230.709 191.48 227.754 191.48ZM260.616 170.07V190.781H250.681V154.956H260.15V161.277H260.57C261.363 159.193 262.692 157.545 264.558 156.333C266.424 155.104 268.686 154.49 271.345 154.49C273.833 154.49 276.002 155.034 277.852 156.123C279.702 157.211 281.141 158.766 282.167 160.787C283.193 162.793 283.706 165.187 283.706 167.971V190.781H273.771V169.743C273.786 167.551 273.226 165.841 272.091 164.612C270.956 163.368 269.394 162.746 267.403 162.746C266.066 162.746 264.885 163.034 263.858 163.609C262.848 164.185 262.055 165.024 261.479 166.128C260.92 167.217 260.632 168.53 260.616 170.07ZM323.653 154.956L311.128 190.781H299.933L287.409 154.956H297.904L305.344 180.588H305.717L313.134 154.956H323.653ZM343.769 191.48C340.146 191.48 337.013 190.711 334.369 189.171C331.742 187.616 329.713 185.455 328.282 182.687C326.852 179.904 326.136 176.678 326.136 173.008C326.136 169.308 326.852 166.074 328.282 163.306C329.713 160.523 331.742 158.362 334.369 156.822C337.013 155.267 340.146 154.49 343.769 154.49C347.391 154.49 350.517 155.267 353.144 156.822C355.788 158.362 357.825 160.523 359.255 163.306C360.685 166.074 361.401 169.308 361.401 173.008C361.401 176.678 360.685 179.904 359.255 182.687C357.825 185.455 355.788 187.616 353.144 189.171C350.517 190.711 347.391 191.48 343.769 191.48ZM343.815 183.784C345.463 183.784 346.839 183.317 347.943 182.384C349.047 181.436 349.879 180.145 350.439 178.513C351.014 176.88 351.302 175.022 351.302 172.938C351.302 170.855 351.014 168.997 350.439 167.364C349.879 165.732 349.047 164.441 347.943 163.493C346.839 162.544 345.463 162.07 343.815 162.07C342.152 162.07 340.752 162.544 339.617 163.493C338.498 164.441 337.65 165.732 337.075 167.364C336.515 168.997 336.235 170.855 336.235 172.938C336.235 175.022 336.515 176.88 337.075 178.513C337.65 180.145 338.498 181.436 339.617 182.384C340.752 183.317 342.152 183.784 343.815 183.784ZM377.797 143.015V190.781H367.861V143.015H377.797ZM419.154 154.956L406.63 190.781H395.435L382.91 154.956H393.406L400.846 180.588H401.219L408.636 154.956H419.154ZM433.492 191.457C431.206 191.457 429.169 191.06 427.381 190.267C425.593 189.459 424.178 188.269 423.137 186.699C422.11 185.113 421.597 183.138 421.597 180.775C421.597 178.785 421.963 177.113 422.693 175.761C423.424 174.408 424.419 173.319 425.679 172.495C426.938 171.671 428.369 171.049 429.97 170.63C431.587 170.21 433.282 169.914 435.055 169.743C437.138 169.526 438.817 169.323 440.092 169.137C441.367 168.935 442.292 168.639 442.868 168.251C443.443 167.862 443.731 167.287 443.731 166.525V166.385C443.731 164.908 443.264 163.765 442.331 162.956C441.414 162.148 440.108 161.743 438.413 161.743C436.625 161.743 435.202 162.14 434.145 162.933C433.088 163.71 432.388 164.69 432.046 165.872L422.857 165.125C423.323 162.948 424.24 161.067 425.609 159.481C426.977 157.88 428.742 156.651 430.903 155.796C433.08 154.925 435.599 154.49 438.46 154.49C440.45 154.49 442.355 154.723 444.174 155.19C446.009 155.656 447.633 156.379 449.048 157.359C450.479 158.338 451.606 159.598 452.43 161.137C453.254 162.661 453.666 164.488 453.666 166.618V190.781H444.244V185.813H443.964C443.389 186.932 442.619 187.92 441.655 188.775C440.691 189.614 439.533 190.275 438.18 190.757C436.827 191.224 435.264 191.457 433.492 191.457ZM436.337 184.6C437.799 184.6 439.089 184.312 440.209 183.737C441.328 183.146 442.207 182.353 442.844 181.358C443.482 180.363 443.801 179.236 443.801 177.976V174.175C443.49 174.377 443.062 174.563 442.518 174.734C441.989 174.89 441.391 175.038 440.722 175.177C440.053 175.302 439.385 175.418 438.716 175.527C438.048 175.621 437.441 175.706 436.897 175.784C435.731 175.955 434.712 176.227 433.842 176.6C432.971 176.973 432.295 177.479 431.813 178.116C431.331 178.738 431.09 179.516 431.09 180.448C431.09 181.801 431.579 182.835 432.559 183.55C433.554 184.25 434.814 184.6 436.337 184.6ZM467.182 191.387C465.643 191.387 464.321 190.843 463.217 189.754C462.129 188.65 461.584 187.329 461.584 185.789C461.584 184.266 462.129 182.96 463.217 181.871C464.321 180.783 465.643 180.239 467.182 180.239C468.675 180.239 469.981 180.783 471.1 181.871C472.22 182.96 472.779 184.266 472.779 185.789C472.779 186.816 472.515 187.756 471.986 188.611C471.473 189.451 470.797 190.127 469.957 190.641C469.118 191.138 468.193 191.387 467.182 191.387ZM511.012 190.781H494.079V143.015H511.151C515.956 143.015 520.092 143.971 523.559 145.884C527.027 147.781 529.693 150.51 531.559 154.07C533.44 157.631 534.381 161.891 534.381 166.851C534.381 171.827 533.44 176.103 531.559 179.679C529.693 183.255 527.011 185.999 523.513 187.912C520.03 189.824 515.863 190.781 511.012 190.781ZM504.178 182.128H510.592C513.577 182.128 516.088 181.599 518.125 180.542C520.177 179.469 521.717 177.813 522.743 175.574C523.785 173.319 524.306 170.412 524.306 166.851C524.306 163.322 523.785 160.437 522.743 158.198C521.717 155.959 520.185 154.311 518.148 153.254C516.111 152.197 513.6 151.668 510.615 151.668H504.178V182.128ZM541.675 190.781V154.956H551.611V190.781H541.675ZM546.666 150.339C545.189 150.339 543.922 149.849 542.865 148.869C541.823 147.874 541.302 146.685 541.302 145.301C541.302 143.933 541.823 142.759 542.865 141.779C543.922 140.784 545.189 140.286 546.666 140.286C548.144 140.286 549.403 140.784 550.445 141.779C551.502 142.759 552.031 143.933 552.031 145.301C552.031 146.685 551.502 147.874 550.445 148.869C549.403 149.849 548.144 150.339 546.666 150.339ZM589.377 165.172L580.281 165.732C580.125 164.954 579.791 164.255 579.278 163.633C578.765 162.995 578.088 162.49 577.249 162.117C576.425 161.728 575.437 161.534 574.287 161.534C572.747 161.534 571.449 161.86 570.392 162.513C569.334 163.151 568.806 164.006 568.806 165.079C568.806 165.934 569.148 166.657 569.832 167.248C570.516 167.839 571.69 168.313 573.354 168.67L579.838 169.976C583.32 170.692 585.917 171.842 587.627 173.428C589.338 175.014 590.193 177.098 590.193 179.679C590.193 182.027 589.501 184.087 588.117 185.859C586.749 187.632 584.867 189.016 582.473 190.011C580.094 190.99 577.35 191.48 574.24 191.48C569.498 191.48 565.719 190.493 562.905 188.518C560.106 186.528 558.466 183.823 557.984 180.402L567.756 179.889C568.052 181.335 568.767 182.439 569.902 183.201C571.037 183.947 572.491 184.32 574.263 184.32C576.005 184.32 577.404 183.986 578.461 183.317C579.534 182.633 580.079 181.755 580.094 180.682C580.079 179.78 579.698 179.041 578.951 178.466C578.205 177.875 577.054 177.424 575.499 177.113L569.296 175.877C565.797 175.177 563.193 173.965 561.482 172.239C559.788 170.513 558.94 168.313 558.94 165.638C558.94 163.337 559.562 161.355 560.806 159.691C562.065 158.027 563.83 156.745 566.1 155.843C568.386 154.941 571.06 154.49 574.123 154.49C578.648 154.49 582.209 155.446 584.805 157.359C587.417 159.271 588.941 161.876 589.377 165.172ZM615.504 154.956V162.42H593.93V154.956H615.504ZM598.828 146.374H608.764V179.772C608.764 180.689 608.904 181.405 609.184 181.918C609.463 182.415 609.852 182.765 610.35 182.967C610.863 183.169 611.454 183.271 612.122 183.271C612.589 183.271 613.055 183.232 613.522 183.154C613.988 183.061 614.346 182.991 614.594 182.944L616.157 190.337C615.66 190.493 614.96 190.672 614.058 190.874C613.156 191.091 612.06 191.224 610.77 191.27C608.375 191.364 606.276 191.045 604.472 190.314C602.684 189.583 601.293 188.448 600.298 186.909C599.302 185.37 598.813 183.426 598.828 181.078V146.374ZM621.976 190.781V154.956H631.609V161.207H631.982C632.635 158.984 633.731 157.304 635.27 156.169C636.81 155.019 638.582 154.443 640.588 154.443C641.085 154.443 641.622 154.474 642.197 154.537C642.772 154.599 643.278 154.684 643.713 154.793V163.609C643.247 163.469 642.601 163.345 641.777 163.236C640.953 163.127 640.199 163.073 639.515 163.073C638.053 163.073 636.747 163.392 635.597 164.029C634.462 164.651 633.56 165.522 632.891 166.641C632.238 167.761 631.912 169.051 631.912 170.513V190.781H621.976ZM648.85 190.781V154.956H658.786V190.781H648.85ZM653.841 150.339C652.364 150.339 651.097 149.849 650.04 148.869C648.998 147.874 648.477 146.685 648.477 145.301C648.477 143.933 648.998 142.759 650.04 141.779C651.097 140.784 652.364 140.286 653.841 140.286C655.318 140.286 656.578 140.784 657.619 141.779C658.677 142.759 659.205 143.933 659.205 145.301C659.205 146.685 658.677 147.874 657.619 148.869C656.578 149.849 655.318 150.339 653.841 150.339ZM666.931 190.781V143.015H676.867V160.974H677.17C677.605 160.01 678.235 159.03 679.059 158.035C679.899 157.024 680.987 156.185 682.324 155.516C683.677 154.832 685.356 154.49 687.362 154.49C689.974 154.49 692.384 155.174 694.592 156.542C696.8 157.895 698.565 159.94 699.886 162.676C701.208 165.397 701.869 168.81 701.869 172.915C701.869 176.911 701.224 180.285 699.933 183.037C698.658 185.774 696.917 187.85 694.709 189.265C692.516 190.664 690.06 191.364 687.339 191.364C685.411 191.364 683.77 191.045 682.418 190.407C681.08 189.77 679.984 188.969 679.129 188.005C678.274 187.026 677.621 186.038 677.17 185.043H676.727V190.781H666.931ZM676.657 172.869C676.657 174.999 676.952 176.857 677.543 178.443C678.134 180.029 678.989 181.265 680.109 182.151C681.228 183.022 682.589 183.457 684.19 183.457C685.807 183.457 687.175 183.014 688.295 182.128C689.414 181.226 690.262 179.982 690.837 178.396C691.428 176.795 691.723 174.952 691.723 172.869C691.723 170.801 691.436 168.981 690.86 167.411C690.285 165.841 689.438 164.612 688.318 163.726C687.199 162.84 685.823 162.397 684.19 162.397C682.573 162.397 681.205 162.824 680.085 163.679C678.981 164.534 678.134 165.747 677.543 167.318C676.952 168.888 676.657 170.738 676.657 172.869ZM731.472 175.527V154.956H741.407V190.781H731.868V184.273H731.495C730.686 186.372 729.341 188.06 727.46 189.334C725.594 190.609 723.316 191.247 720.626 191.247C718.232 191.247 716.125 190.703 714.306 189.614C712.487 188.526 711.064 186.979 710.038 184.973C709.027 182.967 708.514 180.565 708.498 177.766V154.956H718.434V175.994C718.45 178.108 719.017 179.78 720.137 181.008C721.256 182.237 722.757 182.851 724.638 182.851C725.835 182.851 726.955 182.579 727.996 182.034C729.038 181.475 729.878 180.651 730.515 179.562C731.168 178.474 731.487 177.129 731.472 175.527ZM759.57 191.457C757.284 191.457 755.247 191.06 753.459 190.267C751.671 189.459 750.256 188.269 749.214 186.699C748.188 185.113 747.675 183.138 747.675 180.775C747.675 178.785 748.041 177.113 748.771 175.761C749.502 174.408 750.497 173.319 751.757 172.495C753.016 171.671 754.447 171.049 756.048 170.63C757.665 170.21 759.36 169.914 761.133 169.743C763.216 169.526 764.895 169.323 766.17 169.137C767.445 168.935 768.37 168.639 768.946 168.251C769.521 167.862 769.809 167.287 769.809 166.525V166.385C769.809 164.908 769.342 163.765 768.409 162.956C767.492 162.148 766.186 161.743 764.491 161.743C762.703 161.743 761.28 162.14 760.223 162.933C759.166 163.71 758.466 164.69 758.124 165.872L748.935 165.125C749.401 162.948 750.318 161.067 751.687 159.481C753.055 157.88 754.82 156.651 756.981 155.796C759.158 154.925 761.677 154.49 764.538 154.49C766.528 154.49 768.433 154.723 770.252 155.19C772.087 155.656 773.711 156.379 775.126 157.359C776.557 158.338 777.684 159.598 778.508 161.137C779.332 162.661 779.744 164.488 779.744 166.618V190.781H770.322V185.813H770.042C769.467 186.932 768.697 187.92 767.733 188.775C766.769 189.614 765.611 190.275 764.258 190.757C762.905 191.224 761.342 191.457 759.57 191.457ZM762.415 184.6C763.877 184.6 765.167 184.312 766.287 183.737C767.406 183.146 768.285 182.353 768.922 181.358C769.56 180.363 769.879 179.236 769.879 177.976V174.175C769.568 174.377 769.14 174.563 768.596 174.734C768.067 174.89 767.469 175.038 766.8 175.177C766.131 175.302 765.463 175.418 764.794 175.527C764.126 175.621 763.519 175.706 762.975 175.784C761.809 175.955 760.79 176.227 759.92 176.6C759.049 176.973 758.373 177.479 757.891 178.116C757.409 178.738 757.168 179.516 757.168 180.448C757.168 181.801 757.657 182.835 758.637 183.55C759.632 184.25 760.892 184.6 762.415 184.6ZM793.26 191.387C791.721 191.387 790.399 190.843 789.295 189.754C788.207 188.65 787.662 187.329 787.662 185.789C787.662 184.266 788.207 182.96 789.295 181.871C790.399 180.783 791.721 180.239 793.26 180.239C794.753 180.239 796.059 180.783 797.178 181.871C798.298 182.96 798.857 184.266 798.857 185.789C798.857 186.816 798.593 187.756 798.064 188.611C797.551 189.451 796.875 190.127 796.035 190.641C795.196 191.138 794.271 191.387 793.26 191.387ZM820.157 190.781V143.015H852.343V151.341H830.256V162.723H850.687V171.049H830.256V182.454H852.436V190.781H820.157ZM889.992 165.172L880.896 165.732C880.74 164.954 880.406 164.255 879.893 163.633C879.38 162.995 878.703 162.49 877.864 162.117C877.04 161.728 876.052 161.534 874.902 161.534C873.362 161.534 872.064 161.86 871.007 162.513C869.95 163.151 869.421 164.006 869.421 165.079C869.421 165.934 869.763 166.657 870.447 167.248C871.131 167.839 872.305 168.313 873.969 168.67L880.453 169.976C883.936 170.692 886.532 171.842 888.242 173.428C889.953 175.014 890.808 177.098 890.808 179.679C890.808 182.027 890.116 184.087 888.732 185.859C887.364 187.632 885.483 189.016 883.088 190.011C880.709 190.99 877.965 191.48 874.855 191.48C870.113 191.48 866.334 190.493 863.52 188.518C860.721 186.528 859.081 183.823 858.599 180.402L868.371 179.889C868.667 181.335 869.382 182.439 870.517 183.201C871.652 183.947 873.106 184.32 874.878 184.32C876.62 184.32 878.019 183.986 879.077 183.317C880.149 182.633 880.694 181.755 880.709 180.682C880.694 179.78 880.313 179.041 879.566 178.466C878.82 177.875 877.669 177.424 876.115 177.113L869.911 175.877C866.412 175.177 863.808 173.965 862.097 172.239C860.403 170.513 859.555 168.313 859.555 165.638C859.555 163.337 860.177 161.355 861.421 159.691C862.681 158.027 864.445 156.745 866.715 155.843C869.001 154.941 871.675 154.49 874.739 154.49C879.263 154.49 882.824 155.446 885.42 157.359C888.033 159.271 889.556 161.876 889.992 165.172ZM913.251 191.48C909.581 191.48 906.425 190.703 903.781 189.148C901.154 187.578 899.132 185.401 897.717 182.617C896.318 179.834 895.618 176.631 895.618 173.008C895.618 169.339 896.326 166.12 897.741 163.353C899.171 160.57 901.2 158.401 903.828 156.846C906.456 155.275 909.581 154.49 913.204 154.49C916.329 154.49 919.066 155.058 921.414 156.193C923.761 157.328 925.619 158.921 926.988 160.974C928.356 163.026 929.11 165.436 929.25 168.204H919.874C919.61 166.416 918.91 164.978 917.775 163.889C916.656 162.785 915.186 162.233 913.367 162.233C911.828 162.233 910.483 162.653 909.332 163.493C908.197 164.317 907.311 165.522 906.673 167.108C906.036 168.694 905.717 170.614 905.717 172.869C905.717 175.154 906.028 177.098 906.65 178.699C907.288 180.301 908.182 181.521 909.332 182.361C910.483 183.201 911.828 183.62 913.367 183.62C914.502 183.62 915.521 183.387 916.422 182.921C917.34 182.454 918.094 181.778 918.685 180.892C919.291 179.99 919.688 178.909 919.874 177.65H929.25C929.095 180.386 928.348 182.796 927.011 184.88C925.689 186.948 923.862 188.565 921.53 189.731C919.198 190.897 916.438 191.48 913.251 191.48ZM945.827 191.457C943.541 191.457 941.504 191.06 939.716 190.267C937.928 189.459 936.513 188.269 935.471 186.699C934.445 185.113 933.932 183.138 933.932 180.775C933.932 178.785 934.298 177.113 935.028 175.761C935.759 174.408 936.754 173.319 938.014 172.495C939.273 171.671 940.704 171.049 942.305 170.63C943.922 170.21 945.617 169.914 947.389 169.743C949.473 169.526 951.152 169.323 952.427 169.137C953.702 168.935 954.627 168.639 955.203 168.251C955.778 167.862 956.066 167.287 956.066 166.525V166.385C956.066 164.908 955.599 163.765 954.666 162.956C953.749 162.148 952.443 161.743 950.748 161.743C948.96 161.743 947.537 162.14 946.48 162.933C945.423 163.71 944.723 164.69 944.381 165.872L935.192 165.125C935.658 162.948 936.575 161.067 937.944 159.481C939.312 157.88 941.077 156.651 943.238 155.796C945.415 154.925 947.934 154.49 950.795 154.49C952.785 154.49 954.69 154.723 956.509 155.19C958.343 155.656 959.968 156.379 961.383 157.359C962.814 158.338 963.941 159.598 964.765 161.137C965.589 162.661 966.001 164.488 966.001 166.618V190.781H956.579V185.813H956.299C955.724 186.932 954.954 187.92 953.99 188.775C953.026 189.614 951.867 190.275 950.515 190.757C949.162 191.224 947.599 191.457 945.827 191.457ZM948.672 184.6C950.134 184.6 951.424 184.312 952.544 183.737C953.663 183.146 954.542 182.353 955.179 181.358C955.817 180.363 956.136 179.236 956.136 177.976V174.175C955.825 174.377 955.397 174.563 954.853 174.734C954.324 174.89 953.726 175.038 953.057 175.177C952.388 175.302 951.72 175.418 951.051 175.527C950.383 175.621 949.776 175.706 949.232 175.784C948.066 175.955 947.047 176.227 946.177 176.6C945.306 176.973 944.63 177.479 944.148 178.116C943.666 178.738 943.425 179.516 943.425 180.448C943.425 181.801 943.914 182.835 944.894 183.55C945.889 184.25 947.148 184.6 948.672 184.6ZM983.645 143.015V190.781H973.709V143.015H983.645ZM1007.93 191.48C1004.24 191.48 1001.07 190.734 998.414 189.241C995.771 187.733 993.734 185.603 992.304 182.851C990.873 180.083 990.158 176.81 990.158 173.032C990.158 169.347 990.873 166.113 992.304 163.329C993.734 160.546 995.748 158.377 998.344 156.822C1000.96 155.267 1004.02 154.49 1007.53 154.49C1009.9 154.49 1012.1 154.871 1014.13 155.633C1016.19 156.379 1017.97 157.506 1019.5 159.015C1021.04 160.523 1022.23 162.42 1023.09 164.705C1023.95 166.976 1024.37 169.634 1024.37 172.682V175.411H994.123V169.253H1015.02C1015.02 167.823 1014.71 166.556 1014.09 165.452C1013.47 164.348 1012.6 163.485 1011.5 162.863C1010.41 162.225 1009.14 161.907 1007.7 161.907C1006.19 161.907 1004.85 162.257 1003.69 162.956C1002.53 163.64 1001.63 164.566 1000.98 165.732C1000.33 166.882 999.992 168.165 999.977 169.58V175.434C999.977 177.207 1000.3 178.738 1000.96 180.029C1001.63 181.319 1002.57 182.314 1003.78 183.014C1004.99 183.714 1006.43 184.064 1008.09 184.064C1009.2 184.064 1010.21 183.908 1011.13 183.597C1012.04 183.286 1012.83 182.82 1013.48 182.198C1014.13 181.576 1014.63 180.814 1014.97 179.912L1024.16 180.518C1023.7 182.726 1022.74 184.654 1021.29 186.303C1019.86 187.935 1018.01 189.21 1015.74 190.127C1013.49 191.029 1010.88 191.48 1007.93 191.48ZM1036.66 191.387C1035.12 191.387 1033.8 190.843 1032.7 189.754C1031.61 188.65 1031.07 187.329 1031.07 185.789C1031.07 184.266 1031.61 182.96 1032.7 181.871C1033.8 180.783 1035.12 180.239 1036.66 180.239C1038.16 180.239 1039.46 180.783 1040.58 181.871C1041.7 182.96 1042.26 184.266 1042.26 185.789C1042.26 186.816 1042 187.756 1041.47 188.611C1040.96 189.451 1040.28 190.127 1039.44 190.641C1038.6 191.138 1037.67 191.387 1036.66 191.387Z" fill="white"/>
<path d="M105.659 222.361H102.767C102.596 221.529 102.297 220.799 101.869 220.169C101.449 219.539 100.936 219.01 100.33 218.583C99.731 218.147 99.0663 217.821 98.3355 217.603C97.6047 217.386 96.8428 217.277 96.0499 217.277C94.6038 217.277 93.2939 217.642 92.1199 218.373C90.9538 219.104 90.0248 220.18 89.3329 221.603C88.6487 223.026 88.3066 224.771 88.3066 226.839C88.3066 228.907 88.6487 230.652 89.3329 232.075C90.0248 233.498 90.9538 234.575 92.1199 235.305C93.2939 236.036 94.6038 236.402 96.0499 236.402C96.8428 236.402 97.6047 236.293 98.3355 236.075C99.0663 235.857 99.731 235.535 100.33 235.107C100.936 234.672 101.449 234.139 101.869 233.51C102.297 232.872 102.596 232.141 102.767 231.317H105.659C105.441 232.538 105.045 233.63 104.469 234.594C103.894 235.558 103.179 236.378 102.324 237.055C101.469 237.723 100.508 238.232 99.4433 238.582C98.386 238.932 97.2549 239.107 96.0499 239.107C94.013 239.107 92.2016 238.609 90.6156 237.614C89.0297 236.619 87.7819 235.204 86.8723 233.37C85.9627 231.535 85.5079 229.358 85.5079 226.839C85.5079 224.32 85.9627 222.143 86.8723 220.309C87.7819 218.474 89.0297 217.059 90.6156 216.064C92.2016 215.069 94.013 214.571 96.0499 214.571C97.2549 214.571 98.386 214.746 99.4433 215.096C100.508 215.446 101.469 215.959 102.324 216.635C103.179 217.304 103.894 218.12 104.469 219.084C105.045 220.041 105.441 221.133 105.659 222.361ZM109.959 238.781V220.869H112.618V223.574H112.804C113.131 222.688 113.722 221.969 114.577 221.417C115.432 220.865 116.396 220.589 117.469 220.589C117.671 220.589 117.924 220.593 118.227 220.6C118.53 220.608 118.76 220.62 118.915 220.635V223.434C118.822 223.411 118.608 223.376 118.274 223.329C117.947 223.275 117.601 223.247 117.236 223.247C116.365 223.247 115.588 223.43 114.904 223.796C114.227 224.153 113.691 224.651 113.294 225.288C112.906 225.918 112.711 226.637 112.711 227.446V238.781H109.959ZM122.177 238.781V220.869H124.929V238.781H122.177ZM123.577 217.883C123.04 217.883 122.578 217.7 122.189 217.335C121.808 216.97 121.618 216.53 121.618 216.017C121.618 215.504 121.808 215.065 122.189 214.7C122.578 214.334 123.04 214.151 123.577 214.151C124.113 214.151 124.572 214.334 124.953 214.7C125.342 215.065 125.536 215.504 125.536 216.017C125.536 216.53 125.342 216.97 124.953 217.335C124.572 217.7 124.113 217.883 123.577 217.883ZM137.48 239.154C135.754 239.154 134.265 238.773 133.014 238.011C131.77 237.241 130.81 236.168 130.133 234.792C129.465 233.408 129.131 231.799 129.131 229.964C129.131 228.13 129.465 226.513 130.133 225.113C130.81 223.706 131.75 222.61 132.955 221.825C134.168 221.032 135.583 220.635 137.2 220.635C138.133 220.635 139.054 220.791 139.964 221.102C140.874 221.413 141.702 221.918 142.448 222.618C143.194 223.31 143.789 224.227 144.232 225.37C144.675 226.513 144.897 227.92 144.897 229.591V230.757H131.09V228.378H142.098C142.098 227.368 141.896 226.466 141.492 225.673C141.095 224.88 140.528 224.254 139.789 223.796C139.058 223.337 138.195 223.108 137.2 223.108C136.104 223.108 135.156 223.38 134.355 223.924C133.562 224.46 132.952 225.16 132.524 226.023C132.096 226.886 131.883 227.811 131.883 228.798V230.384C131.883 231.737 132.116 232.884 132.582 233.824C133.057 234.757 133.713 235.469 134.553 235.958C135.393 236.44 136.368 236.681 137.48 236.681C138.203 236.681 138.856 236.58 139.439 236.378C140.03 236.168 140.539 235.857 140.967 235.445C141.395 235.026 141.725 234.505 141.958 233.883L144.617 234.629C144.337 235.531 143.867 236.324 143.206 237.008C142.545 237.684 141.729 238.213 140.757 238.594C139.785 238.967 138.693 239.154 137.48 239.154ZM169.607 231.457V220.869H172.36V238.781H169.607V235.749H169.421C169.001 236.658 168.348 237.432 167.462 238.069C166.575 238.699 165.456 239.014 164.103 239.014C162.984 239.014 161.989 238.769 161.118 238.279C160.247 237.782 159.563 237.035 159.066 236.04C158.568 235.037 158.319 233.774 158.319 232.25V220.869H161.071V232.064C161.071 233.37 161.437 234.411 162.167 235.189C162.906 235.966 163.847 236.355 164.99 236.355C165.674 236.355 166.369 236.18 167.077 235.83C167.792 235.48 168.391 234.944 168.873 234.221C169.363 233.498 169.607 232.577 169.607 231.457ZM177.4 238.781V220.869H180.059V223.667H180.292C180.665 222.711 181.268 221.969 182.1 221.44C182.932 220.903 183.931 220.635 185.097 220.635C186.279 220.635 187.262 220.903 188.047 221.44C188.84 221.969 189.458 222.711 189.901 223.667H190.088C190.547 222.742 191.235 222.007 192.152 221.463C193.069 220.911 194.169 220.635 195.452 220.635C197.054 220.635 198.364 221.137 199.382 222.14C200.401 223.135 200.91 224.686 200.91 226.793V238.781H198.158V226.793C198.158 225.471 197.796 224.526 197.073 223.959C196.35 223.391 195.499 223.108 194.519 223.108C193.26 223.108 192.284 223.488 191.592 224.25C190.9 225.004 190.554 225.961 190.554 227.119V238.781H187.756V226.513C187.756 225.494 187.425 224.674 186.764 224.052C186.104 223.422 185.252 223.108 184.211 223.108C183.495 223.108 182.827 223.298 182.205 223.679C181.591 224.06 181.093 224.589 180.712 225.265C180.339 225.933 180.152 226.707 180.152 227.586V238.781H177.4ZM222.921 238.781H215.551V214.898H223.247C225.564 214.898 227.547 215.376 229.195 216.332C230.843 217.281 232.106 218.645 232.985 220.425C233.863 222.198 234.302 224.32 234.302 226.793C234.302 229.28 233.859 231.422 232.973 233.218C232.087 235.006 230.796 236.382 229.101 237.346C227.407 238.302 225.346 238.781 222.921 238.781ZM218.443 236.215H222.734C224.709 236.215 226.345 235.834 227.644 235.072C228.942 234.31 229.91 233.226 230.547 231.819C231.185 230.411 231.504 228.736 231.504 226.793C231.504 224.864 231.189 223.205 230.559 221.813C229.929 220.414 228.989 219.341 227.737 218.595C226.485 217.84 224.927 217.463 223.061 217.463H218.443V236.215ZM246.29 239.154C244.564 239.154 243.076 238.773 241.824 238.011C240.58 237.241 239.62 236.168 238.944 234.792C238.275 233.408 237.941 231.799 237.941 229.964C237.941 228.13 238.275 226.513 238.944 225.113C239.62 223.706 240.561 222.61 241.766 221.825C242.979 221.032 244.393 220.635 246.01 220.635C246.943 220.635 247.865 220.791 248.774 221.102C249.684 221.413 250.512 221.918 251.258 222.618C252.004 223.31 252.599 224.227 253.042 225.37C253.485 226.513 253.707 227.92 253.707 229.591V230.757H239.9V228.378H250.908C250.908 227.368 250.706 226.466 250.302 225.673C249.905 224.88 249.338 224.254 248.599 223.796C247.869 223.337 247.006 223.108 246.01 223.108C244.914 223.108 243.966 223.38 243.165 223.924C242.372 224.46 241.762 225.16 241.334 226.023C240.907 226.886 240.693 227.811 240.693 228.798V230.384C240.693 231.737 240.926 232.884 241.393 233.824C241.867 234.757 242.524 235.469 243.363 235.958C244.203 236.44 245.179 236.681 246.29 236.681C247.013 236.681 247.666 236.58 248.249 236.378C248.84 236.168 249.35 235.857 249.777 235.445C250.205 235.026 250.535 234.505 250.768 233.883L253.427 234.629C253.147 235.531 252.677 236.324 252.016 237.008C251.355 237.684 250.539 238.213 249.567 238.594C248.595 238.967 247.503 239.154 246.29 239.154ZM270.581 224.88L268.109 225.58C267.953 225.168 267.724 224.767 267.421 224.379C267.126 223.982 266.721 223.656 266.208 223.399C265.695 223.142 265.038 223.014 264.237 223.014C263.141 223.014 262.228 223.267 261.497 223.772C260.774 224.27 260.412 224.903 260.412 225.673C260.412 226.357 260.661 226.897 261.159 227.294C261.656 227.69 262.434 228.021 263.491 228.285L266.15 228.938C267.751 229.327 268.945 229.922 269.73 230.722C270.515 231.515 270.908 232.538 270.908 233.789C270.908 234.816 270.612 235.733 270.021 236.542C269.438 237.35 268.622 237.988 267.573 238.454C266.523 238.92 265.302 239.154 263.911 239.154C262.084 239.154 260.572 238.757 259.375 237.964C258.177 237.171 257.419 236.013 257.101 234.489L259.713 233.836C259.961 234.8 260.432 235.523 261.124 236.005C261.823 236.487 262.737 236.728 263.864 236.728C265.147 236.728 266.165 236.456 266.92 235.912C267.681 235.36 268.062 234.699 268.062 233.929C268.062 233.307 267.845 232.787 267.409 232.367C266.974 231.939 266.305 231.62 265.404 231.41L262.418 230.711C260.778 230.322 259.573 229.72 258.803 228.903C258.041 228.079 257.66 227.049 257.66 225.813C257.66 224.802 257.944 223.908 258.512 223.131C259.087 222.353 259.868 221.743 260.856 221.3C261.851 220.857 262.978 220.635 264.237 220.635C266.01 220.635 267.402 221.024 268.412 221.801C269.431 222.579 270.154 223.605 270.581 224.88ZM275.05 238.781V220.869H277.803V238.781H275.05ZM276.45 217.883C275.913 217.883 275.451 217.7 275.062 217.335C274.681 216.97 274.491 216.53 274.491 216.017C274.491 215.504 274.681 215.065 275.062 214.7C275.451 214.334 275.913 214.151 276.45 214.151C276.986 214.151 277.445 214.334 277.826 214.7C278.215 215.065 278.409 215.504 278.409 216.017C278.409 216.53 278.215 216.97 277.826 217.335C277.445 217.7 276.986 217.883 276.45 217.883ZM290.073 245.871C288.744 245.871 287.601 245.7 286.645 245.358C285.689 245.023 284.892 244.58 284.254 244.028C283.625 243.484 283.123 242.901 282.75 242.279L284.942 240.74C285.191 241.066 285.506 241.439 285.887 241.859C286.268 242.287 286.789 242.656 287.45 242.967C288.118 243.286 288.993 243.445 290.073 243.445C291.519 243.445 292.713 243.095 293.653 242.396C294.594 241.696 295.064 240.6 295.064 239.107V235.469H294.831C294.629 235.795 294.341 236.199 293.968 236.681C293.603 237.156 293.074 237.579 292.382 237.953C291.698 238.318 290.773 238.501 289.607 238.501C288.161 238.501 286.863 238.159 285.712 237.474C284.569 236.79 283.663 235.795 282.995 234.489C282.334 233.183 282.004 231.597 282.004 229.731C282.004 227.896 282.326 226.299 282.972 224.938C283.617 223.57 284.515 222.513 285.665 221.766C286.816 221.012 288.145 220.635 289.654 220.635C290.82 220.635 291.745 220.83 292.429 221.218C293.121 221.599 293.65 222.035 294.015 222.524C294.388 223.006 294.676 223.403 294.878 223.714H295.158V220.869H297.817V239.294C297.817 240.833 297.467 242.085 296.767 243.049C296.075 244.02 295.142 244.732 293.968 245.183C292.802 245.641 291.504 245.871 290.073 245.871ZM289.98 236.028C291.084 236.028 292.017 235.776 292.779 235.27C293.541 234.765 294.12 234.038 294.516 233.09C294.913 232.141 295.111 231.006 295.111 229.685C295.111 228.394 294.917 227.255 294.528 226.268C294.139 225.28 293.564 224.507 292.802 223.947C292.04 223.387 291.1 223.108 289.98 223.108C288.814 223.108 287.842 223.403 287.065 223.994C286.295 224.585 285.716 225.378 285.327 226.373C284.946 227.368 284.756 228.472 284.756 229.685C284.756 230.928 284.95 232.029 285.339 232.985C285.735 233.933 286.318 234.68 287.088 235.224C287.865 235.76 288.829 236.028 289.98 236.028ZM305.606 228.005V238.781H302.854V220.869H305.513V223.667H305.746C306.166 222.758 306.804 222.027 307.659 221.475C308.514 220.915 309.618 220.635 310.971 220.635C312.184 220.635 313.245 220.884 314.154 221.382C315.064 221.871 315.771 222.618 316.277 223.621C316.782 224.616 317.035 225.875 317.035 227.399V238.781H314.283V227.586C314.283 226.178 313.917 225.082 313.186 224.297C312.456 223.504 311.453 223.108 310.178 223.108C309.299 223.108 308.514 223.298 307.822 223.679C307.138 224.06 306.598 224.616 306.201 225.347C305.805 226.077 305.606 226.964 305.606 228.005ZM344.734 220.869C344.594 219.687 344.026 218.769 343.031 218.116C342.036 217.463 340.815 217.137 339.369 217.137C338.312 217.137 337.387 217.308 336.594 217.65C335.809 217.992 335.194 218.462 334.751 219.061C334.316 219.66 334.098 220.34 334.098 221.102C334.098 221.739 334.25 222.287 334.553 222.746C334.864 223.197 335.261 223.574 335.743 223.877C336.225 224.173 336.73 224.417 337.259 224.612C337.787 224.798 338.273 224.95 338.716 225.067L341.142 225.72C341.764 225.883 342.456 226.108 343.218 226.396C343.987 226.684 344.722 227.076 345.422 227.574C346.129 228.064 346.712 228.693 347.171 229.463C347.629 230.233 347.859 231.177 347.859 232.297C347.859 233.587 347.521 234.753 346.844 235.795C346.176 236.837 345.196 237.665 343.906 238.279C342.623 238.893 341.064 239.2 339.229 239.2C337.519 239.2 336.038 238.924 334.786 238.372C333.542 237.82 332.563 237.051 331.848 236.063C331.14 235.076 330.74 233.929 330.647 232.623H333.632C333.71 233.525 334.013 234.271 334.541 234.862C335.078 235.445 335.754 235.881 336.571 236.168C337.395 236.448 338.281 236.588 339.229 236.588C340.333 236.588 341.325 236.409 342.203 236.052C343.082 235.686 343.777 235.181 344.29 234.536C344.804 233.883 345.06 233.121 345.06 232.25C345.06 231.457 344.839 230.812 344.395 230.314C343.952 229.817 343.369 229.412 342.646 229.101C341.923 228.791 341.142 228.518 340.302 228.285L337.364 227.446C335.498 226.909 334.021 226.143 332.932 225.148C331.844 224.153 331.3 222.851 331.3 221.242C331.3 219.904 331.661 218.738 332.384 217.743C333.115 216.74 334.094 215.963 335.323 215.411C336.559 214.851 337.939 214.571 339.463 214.571C341.002 214.571 342.37 214.847 343.567 215.399C344.765 215.943 345.713 216.69 346.413 217.638C347.12 218.587 347.493 219.663 347.532 220.869H344.734ZM354.013 245.498C353.547 245.498 353.131 245.459 352.765 245.381C352.4 245.311 352.147 245.241 352.007 245.171L352.707 242.745C353.376 242.916 353.967 242.979 354.48 242.932C354.993 242.885 355.448 242.656 355.844 242.244C356.248 241.84 356.618 241.183 356.952 240.273L357.465 238.874L350.841 220.869H353.827L358.771 235.142H358.958L363.902 220.869H366.887L359.284 241.393C358.942 242.318 358.518 243.084 358.013 243.69C357.508 244.304 356.921 244.759 356.252 245.054C355.591 245.35 354.845 245.498 354.013 245.498ZM383.208 224.88L380.735 225.58C380.58 225.168 380.351 224.767 380.047 224.379C379.752 223.982 379.348 223.656 378.835 223.399C378.321 223.142 377.665 223.014 376.864 223.014C375.768 223.014 374.854 223.267 374.123 223.772C373.4 224.27 373.039 224.903 373.039 225.673C373.039 226.357 373.288 226.897 373.785 227.294C374.283 227.69 375.06 228.021 376.117 228.285L378.776 228.938C380.378 229.327 381.571 229.922 382.356 230.722C383.142 231.515 383.534 232.538 383.534 233.789C383.534 234.816 383.239 235.733 382.648 236.542C382.065 237.35 381.249 237.988 380.199 238.454C379.149 238.92 377.929 239.154 376.537 239.154C374.71 239.154 373.198 238.757 372.001 237.964C370.804 237.171 370.046 236.013 369.727 234.489L372.339 233.836C372.588 234.8 373.058 235.523 373.75 236.005C374.45 236.487 375.363 236.728 376.491 236.728C377.773 236.728 378.792 236.456 379.546 235.912C380.308 235.36 380.689 234.699 380.689 233.929C380.689 233.307 380.471 232.787 380.036 232.367C379.6 231.939 378.932 231.62 378.03 231.41L375.045 230.711C373.404 230.322 372.199 229.72 371.43 228.903C370.668 228.079 370.287 227.049 370.287 225.813C370.287 224.802 370.571 223.908 371.138 223.131C371.713 222.353 372.495 221.743 373.482 221.3C374.477 220.857 375.604 220.635 376.864 220.635C378.636 220.635 380.028 221.024 381.039 221.801C382.057 222.579 382.78 223.605 383.208 224.88ZM395.467 220.869V223.201H386.184V220.869H395.467ZM388.89 216.577H391.642V233.649C391.642 234.427 391.755 235.01 391.98 235.399C392.213 235.78 392.509 236.036 392.866 236.168C393.232 236.293 393.617 236.355 394.021 236.355C394.324 236.355 394.573 236.339 394.767 236.308C394.961 236.269 395.117 236.238 395.234 236.215L395.793 238.687C395.607 238.757 395.346 238.827 395.012 238.897C394.678 238.975 394.254 239.014 393.741 239.014C392.963 239.014 392.202 238.847 391.455 238.512C390.717 238.178 390.103 237.669 389.613 236.985C389.131 236.301 388.89 235.438 388.89 234.396V216.577ZM406.924 239.154C405.198 239.154 403.709 238.773 402.458 238.011C401.214 237.241 400.254 236.168 399.577 234.792C398.909 233.408 398.575 231.799 398.575 229.964C398.575 228.13 398.909 226.513 399.577 225.113C400.254 223.706 401.194 222.61 402.4 221.825C403.612 221.032 405.027 220.635 406.644 220.635C407.577 220.635 408.498 220.791 409.408 221.102C410.318 221.413 411.146 221.918 411.892 222.618C412.638 223.31 413.233 224.227 413.676 225.37C414.119 226.513 414.341 227.92 414.341 229.591V230.757H400.534V228.378H411.542C411.542 227.368 411.34 226.466 410.936 225.673C410.539 224.88 409.972 224.254 409.233 223.796C408.502 223.337 407.639 223.108 406.644 223.108C405.548 223.108 404.6 223.38 403.799 223.924C403.006 224.46 402.396 225.16 401.968 226.023C401.54 226.886 401.327 227.811 401.327 228.798V230.384C401.327 231.737 401.56 232.884 402.026 233.824C402.501 234.757 403.158 235.469 403.997 235.958C404.837 236.44 405.812 236.681 406.924 236.681C407.647 236.681 408.3 236.58 408.883 236.378C409.474 236.168 409.983 235.857 410.411 235.445C410.839 235.026 411.169 234.505 411.402 233.883L414.061 234.629C413.781 235.531 413.311 236.324 412.65 237.008C411.989 237.684 411.173 238.213 410.201 238.594C409.229 238.967 408.137 239.154 406.924 239.154ZM418.527 238.781V220.869H421.186V223.667H421.419C421.793 222.711 422.395 221.969 423.227 221.44C424.059 220.903 425.058 220.635 426.224 220.635C427.406 220.635 428.389 220.903 429.174 221.44C429.967 221.969 430.585 222.711 431.028 223.667H431.215C431.674 222.742 432.362 222.007 433.279 221.463C434.196 220.911 435.297 220.635 436.579 220.635C438.181 220.635 439.491 221.137 440.509 222.14C441.528 223.135 442.037 224.686 442.037 226.793V238.781H439.285V226.793C439.285 225.471 438.923 224.526 438.2 223.959C437.477 223.391 436.626 223.108 435.646 223.108C434.387 223.108 433.411 223.488 432.719 224.25C432.027 225.004 431.681 225.961 431.681 227.119V238.781H428.883V226.513C428.883 225.494 428.552 224.674 427.891 224.052C427.231 223.422 426.379 223.108 425.338 223.108C424.622 223.108 423.954 223.298 423.332 223.679C422.718 224.06 422.22 224.589 421.839 225.265C421.466 225.933 421.279 226.707 421.279 227.586V238.781H418.527ZM463.815 239.154C462.089 239.154 460.6 238.773 459.348 238.011C458.104 237.241 457.144 236.168 456.468 234.792C455.799 233.408 455.465 231.799 455.465 229.964C455.465 228.13 455.799 226.513 456.468 225.113C457.144 223.706 458.085 222.61 459.29 221.825C460.503 221.032 461.918 220.635 463.535 220.635C464.468 220.635 465.389 220.791 466.299 221.102C467.208 221.413 468.036 221.918 468.782 222.618C469.529 223.31 470.123 224.227 470.567 225.37C471.01 226.513 471.231 227.92 471.231 229.591V230.757H457.424V228.378H468.433C468.433 227.368 468.23 226.466 467.826 225.673C467.43 224.88 466.862 224.254 466.124 223.796C465.393 223.337 464.53 223.108 463.535 223.108C462.439 223.108 461.49 223.38 460.689 223.924C459.896 224.46 459.286 225.16 458.859 226.023C458.431 226.886 458.217 227.811 458.217 228.798V230.384C458.217 231.737 458.45 232.884 458.917 233.824C459.391 234.757 460.048 235.469 460.888 235.958C461.727 236.44 462.703 236.681 463.815 236.681C464.538 236.681 465.191 236.58 465.774 236.378C466.365 236.168 466.874 235.857 467.301 235.445C467.729 235.026 468.059 234.505 468.293 233.883L470.951 234.629C470.672 235.531 470.201 236.324 469.54 237.008C468.88 237.684 468.063 238.213 467.092 238.594C466.12 238.967 465.027 239.154 463.815 239.154ZM488.105 224.88L485.633 225.58C485.478 225.168 485.248 224.767 484.945 224.379C484.65 223.982 484.246 223.656 483.732 223.399C483.219 223.142 482.562 223.014 481.762 223.014C480.665 223.014 479.752 223.267 479.021 223.772C478.298 224.27 477.937 224.903 477.937 225.673C477.937 226.357 478.185 226.897 478.683 227.294C479.181 227.69 479.958 228.021 481.015 228.285L483.674 228.938C485.276 229.327 486.469 229.922 487.254 230.722C488.039 231.515 488.432 232.538 488.432 233.789C488.432 234.816 488.137 235.733 487.546 236.542C486.963 237.35 486.146 237.988 485.097 238.454C484.047 238.92 482.827 239.154 481.435 239.154C479.608 239.154 478.096 238.757 476.899 237.964C475.702 237.171 474.944 236.013 474.625 234.489L477.237 233.836C477.486 234.8 477.956 235.523 478.648 236.005C479.348 236.487 480.261 236.728 481.388 236.728C482.671 236.728 483.69 236.456 484.444 235.912C485.206 235.36 485.587 234.699 485.587 233.929C485.587 233.307 485.369 232.787 484.934 232.367C484.498 231.939 483.83 231.62 482.928 231.41L479.942 230.711C478.302 230.322 477.097 229.72 476.327 228.903C475.566 228.079 475.185 227.049 475.185 225.813C475.185 224.802 475.468 223.908 476.036 223.131C476.611 222.353 477.392 221.743 478.38 221.3C479.375 220.857 480.502 220.635 481.762 220.635C483.534 220.635 484.926 221.024 485.936 221.801C486.955 222.579 487.678 223.605 488.105 224.88ZM499.851 239.154C498.172 239.154 496.726 238.757 495.513 237.964C494.301 237.171 493.368 236.079 492.715 234.687C492.062 233.296 491.735 231.706 491.735 229.918C491.735 228.099 492.069 226.493 492.738 225.102C493.414 223.702 494.355 222.61 495.56 221.825C496.773 221.032 498.188 220.635 499.805 220.635C501.064 220.635 502.199 220.869 503.21 221.335C504.221 221.801 505.049 222.454 505.694 223.294C506.339 224.134 506.74 225.113 506.895 226.233H504.143C503.933 225.416 503.467 224.693 502.744 224.064C502.028 223.426 501.064 223.108 499.851 223.108C498.779 223.108 497.838 223.387 497.029 223.947C496.229 224.499 495.603 225.28 495.152 226.291C494.709 227.294 494.487 228.472 494.487 229.825C494.487 231.208 494.705 232.413 495.14 233.44C495.583 234.466 496.205 235.263 497.006 235.83C497.815 236.398 498.763 236.681 499.851 236.681C500.567 236.681 501.216 236.557 501.799 236.308C502.382 236.06 502.876 235.702 503.28 235.235C503.684 234.769 503.972 234.209 504.143 233.556H506.895C506.74 234.613 506.355 235.566 505.741 236.413C505.134 237.253 504.329 237.921 503.327 238.419C502.331 238.909 501.173 239.154 499.851 239.154ZM516.189 239.2C515.054 239.2 514.024 238.987 513.099 238.559C512.174 238.124 511.439 237.498 510.895 236.681C510.351 235.857 510.079 234.862 510.079 233.696C510.079 232.67 510.281 231.838 510.685 231.201C511.089 230.555 511.63 230.05 512.306 229.685C512.982 229.319 513.729 229.047 514.545 228.868C515.369 228.682 516.197 228.534 517.029 228.425C518.117 228.285 519 228.18 519.676 228.11C520.36 228.033 520.858 227.904 521.169 227.725C521.487 227.547 521.647 227.236 521.647 226.793V226.699C521.647 225.549 521.332 224.655 520.702 224.017C520.08 223.38 519.136 223.061 517.868 223.061C516.555 223.061 515.525 223.349 514.778 223.924C514.032 224.499 513.507 225.113 513.204 225.766L510.592 224.833C511.058 223.745 511.68 222.898 512.458 222.291C513.243 221.677 514.098 221.249 515.023 221.008C515.956 220.76 516.873 220.635 517.775 220.635C518.35 220.635 519.011 220.705 519.758 220.845C520.512 220.977 521.239 221.253 521.938 221.673C522.646 222.093 523.233 222.727 523.699 223.574C524.166 224.421 524.399 225.556 524.399 226.979V238.781H521.647V236.355H521.507C521.32 236.744 521.009 237.16 520.574 237.603C520.139 238.046 519.559 238.423 518.836 238.734C518.113 239.045 517.231 239.2 516.189 239.2ZM516.609 236.728C517.697 236.728 518.615 236.514 519.361 236.087C520.115 235.659 520.683 235.107 521.064 234.431C521.452 233.754 521.647 233.043 521.647 232.297V229.778C521.53 229.918 521.274 230.046 520.877 230.163C520.488 230.272 520.037 230.369 519.524 230.454C519.019 230.532 518.525 230.602 518.043 230.664C517.569 230.719 517.184 230.765 516.889 230.804C516.174 230.897 515.505 231.049 514.883 231.259C514.269 231.461 513.771 231.768 513.39 232.18C513.017 232.584 512.831 233.136 512.831 233.836C512.831 234.792 513.184 235.515 513.892 236.005C514.607 236.487 515.513 236.728 516.609 236.728ZM532.174 214.898V238.781H529.422V214.898H532.174ZM542.486 239.2C541.351 239.2 540.321 238.987 539.396 238.559C538.47 238.124 537.736 237.498 537.192 236.681C536.647 235.857 536.375 234.862 536.375 233.696C536.375 232.67 536.577 231.838 536.982 231.201C537.386 230.555 537.926 230.05 538.603 229.685C539.279 229.319 540.025 229.047 540.842 228.868C541.666 228.682 542.494 228.534 543.325 228.425C544.414 228.285 545.296 228.18 545.973 228.11C546.657 228.033 547.154 227.904 547.465 227.725C547.784 227.547 547.943 227.236 547.943 226.793V226.699C547.943 225.549 547.629 224.655 546.999 224.017C546.377 223.38 545.432 223.061 544.165 223.061C542.851 223.061 541.821 223.349 541.075 223.924C540.328 224.499 539.804 225.113 539.5 225.766L536.888 224.833C537.355 223.745 537.977 222.898 538.754 222.291C539.539 221.677 540.395 221.249 541.32 221.008C542.253 220.76 543.17 220.635 544.072 220.635C544.647 220.635 545.308 220.705 546.054 220.845C546.808 220.977 547.535 221.253 548.235 221.673C548.942 222.093 549.529 222.727 549.996 223.574C550.462 224.421 550.695 225.556 550.695 226.979V238.781H547.943V236.355H547.803C547.617 236.744 547.306 237.16 546.871 237.603C546.435 238.046 545.856 238.423 545.133 238.734C544.41 239.045 543.528 239.2 542.486 239.2ZM542.906 236.728C543.994 236.728 544.911 236.514 545.658 236.087C546.412 235.659 546.979 235.107 547.36 234.431C547.749 233.754 547.943 233.043 547.943 232.297V229.778C547.827 229.918 547.57 230.046 547.174 230.163C546.785 230.272 546.334 230.369 545.821 230.454C545.316 230.532 544.822 230.602 544.34 230.664C543.866 230.719 543.481 230.765 543.186 230.804C542.47 230.897 541.802 231.049 541.18 231.259C540.566 231.461 540.068 231.768 539.687 232.18C539.314 232.584 539.127 233.136 539.127 233.836C539.127 234.792 539.481 235.515 540.189 236.005C540.904 236.487 541.809 236.728 542.906 236.728ZM542.999 218.443L545.844 213.032H549.063L545.425 218.443H542.999ZM569.724 220.869L563.1 238.781H560.302L553.678 220.869H556.663L561.608 235.142H561.794L566.739 220.869H569.724ZM580.225 239.154C578.499 239.154 577.011 238.773 575.759 238.011C574.515 237.241 573.555 236.168 572.879 234.792C572.21 233.408 571.876 231.799 571.876 229.964C571.876 228.13 572.21 226.513 572.879 225.113C573.555 223.706 574.496 222.61 575.701 221.825C576.913 221.032 578.328 220.635 579.945 220.635C580.878 220.635 581.8 220.791 582.709 221.102C583.619 221.413 584.447 221.918 585.193 222.618C585.939 223.31 586.534 224.227 586.977 225.37C587.42 226.513 587.642 227.92 587.642 229.591V230.757H573.835V228.378H584.843C584.843 227.368 584.641 226.466 584.237 225.673C583.84 224.88 583.273 224.254 582.534 223.796C581.803 223.337 580.94 223.108 579.945 223.108C578.849 223.108 577.901 223.38 577.1 223.924C576.307 224.46 575.697 225.16 575.269 226.023C574.842 226.886 574.628 227.811 574.628 228.798V230.384C574.628 231.737 574.861 232.884 575.327 233.824C575.802 234.757 576.459 235.469 577.298 235.958C578.138 236.44 579.114 236.681 580.225 236.681C580.948 236.681 581.601 236.58 582.184 236.378C582.775 236.168 583.284 235.857 583.712 235.445C584.14 235.026 584.47 234.505 584.703 233.883L587.362 234.629C587.082 235.531 586.612 236.324 585.951 237.008C585.29 237.684 584.474 238.213 583.502 238.594C582.53 238.967 581.438 239.154 580.225 239.154ZM594.58 214.898V238.781H591.828V214.898H594.58ZM616.134 239.154C614.455 239.154 613.009 238.757 611.796 237.964C610.583 237.171 609.65 236.079 608.997 234.687C608.344 233.296 608.017 231.706 608.017 229.918C608.017 228.099 608.352 226.493 609.02 225.102C609.697 223.702 610.637 222.61 611.842 221.825C613.055 221.032 614.47 220.635 616.087 220.635C617.347 220.635 618.482 220.869 619.492 221.335C620.503 221.801 621.331 222.454 621.976 223.294C622.621 224.134 623.022 225.113 623.177 226.233H620.425C620.215 225.416 619.749 224.693 619.026 224.064C618.311 223.426 617.347 223.108 616.134 223.108C615.061 223.108 614.12 223.387 613.312 223.947C612.511 224.499 611.885 225.28 611.434 226.291C610.991 227.294 610.77 228.472 610.77 229.825C610.77 231.208 610.987 232.413 611.423 233.44C611.866 234.466 612.488 235.263 613.288 235.83C614.097 236.398 615.045 236.681 616.134 236.681C616.849 236.681 617.498 236.557 618.081 236.308C618.664 236.06 619.158 235.702 619.562 235.235C619.967 234.769 620.254 234.209 620.425 233.556H623.177C623.022 234.613 622.637 235.566 622.023 236.413C621.416 237.253 620.612 237.921 619.609 238.419C618.614 238.909 617.455 239.154 616.134 239.154ZM634.477 239.154C632.86 239.154 631.441 238.769 630.221 237.999C629.008 237.23 628.06 236.153 627.375 234.769C626.699 233.385 626.361 231.768 626.361 229.918C626.361 228.052 626.699 226.423 627.375 225.032C628.06 223.64 629.008 222.559 630.221 221.79C631.441 221.02 632.86 220.635 634.477 220.635C636.094 220.635 637.509 221.02 638.722 221.79C639.943 222.559 640.891 223.64 641.567 225.032C642.252 226.423 642.594 228.052 642.594 229.918C642.594 231.768 642.252 233.385 641.567 234.769C640.891 236.153 639.943 237.23 638.722 237.999C637.509 238.769 636.094 239.154 634.477 239.154ZM634.477 236.681C635.706 236.681 636.716 236.367 637.509 235.737C638.302 235.107 638.889 234.279 639.27 233.253C639.651 232.227 639.842 231.115 639.842 229.918C639.842 228.721 639.651 227.605 639.27 226.571C638.889 225.537 638.302 224.701 637.509 224.064C636.716 223.426 635.706 223.108 634.477 223.108C633.249 223.108 632.238 223.426 631.445 224.064C630.652 224.701 630.065 225.537 629.684 226.571C629.303 227.605 629.113 228.721 629.113 229.918C629.113 231.115 629.303 232.227 629.684 233.253C630.065 234.279 630.652 235.107 631.445 235.737C632.238 236.367 633.249 236.681 634.477 236.681ZM646.795 238.781V220.869H649.454V223.667H649.687C650.06 222.711 650.662 221.969 651.494 221.44C652.326 220.903 653.325 220.635 654.491 220.635C655.673 220.635 656.656 220.903 657.442 221.44C658.235 221.969 658.853 222.711 659.296 223.667H659.482C659.941 222.742 660.629 222.007 661.546 221.463C662.464 220.911 663.564 220.635 664.847 220.635C666.448 220.635 667.758 221.137 668.777 222.14C669.795 223.135 670.304 224.686 670.304 226.793V238.781H667.552V226.793C667.552 225.471 667.191 224.526 666.468 223.959C665.745 223.391 664.893 223.108 663.914 223.108C662.654 223.108 661.679 223.488 660.987 224.25C660.295 225.004 659.949 225.961 659.949 227.119V238.781H657.15V226.513C657.15 225.494 656.82 224.674 656.159 224.052C655.498 223.422 654.647 223.108 653.605 223.108C652.89 223.108 652.221 223.298 651.599 223.679C650.985 224.06 650.487 224.589 650.107 225.265C649.733 225.933 649.547 226.707 649.547 227.586V238.781H646.795ZM698.006 220.869C697.866 219.687 697.299 218.769 696.303 218.116C695.308 217.463 694.088 217.137 692.642 217.137C691.584 217.137 690.659 217.308 689.866 217.65C689.081 217.992 688.467 218.462 688.024 219.061C687.588 219.66 687.371 220.34 687.371 221.102C687.371 221.739 687.522 222.287 687.826 222.746C688.137 223.197 688.533 223.574 689.015 223.877C689.497 224.173 690.002 224.417 690.531 224.612C691.06 224.798 691.546 224.95 691.989 225.067L694.414 225.72C695.036 225.883 695.728 226.108 696.49 226.396C697.26 226.684 697.994 227.076 698.694 227.574C699.402 228.064 699.985 228.693 700.443 229.463C700.902 230.233 701.131 231.177 701.131 232.297C701.131 233.587 700.793 234.753 700.117 235.795C699.448 236.837 698.469 237.665 697.178 238.279C695.895 238.893 694.337 239.2 692.502 239.2C690.791 239.2 689.31 238.924 688.059 238.372C686.815 237.82 685.835 237.051 685.12 236.063C684.413 235.076 684.012 233.929 683.919 232.623H686.904C686.982 233.525 687.285 234.271 687.814 234.862C688.35 235.445 689.027 235.881 689.843 236.168C690.667 236.448 691.553 236.588 692.502 236.588C693.606 236.588 694.597 236.409 695.476 236.052C696.354 235.686 697.05 235.181 697.563 234.536C698.076 233.883 698.333 233.121 698.333 232.25C698.333 231.457 698.111 230.812 697.668 230.314C697.225 229.817 696.642 229.412 695.919 229.101C695.196 228.791 694.414 228.518 693.575 228.285L690.636 227.446C688.77 226.909 687.293 226.143 686.205 225.148C685.116 224.153 684.572 222.851 684.572 221.242C684.572 219.904 684.934 218.738 685.657 217.743C686.387 216.74 687.367 215.963 688.595 215.411C689.831 214.851 691.211 214.571 692.735 214.571C694.274 214.571 695.643 214.847 696.84 215.399C698.037 215.943 698.986 216.69 699.685 217.638C700.393 218.587 700.766 219.663 700.805 220.869H698.006ZM713.303 220.869V223.201H704.02V220.869H713.303ZM706.726 216.577H709.478V233.649C709.478 234.427 709.591 235.01 709.816 235.399C710.049 235.78 710.345 236.036 710.702 236.168C711.068 236.293 711.453 236.355 711.857 236.355C712.16 236.355 712.409 236.339 712.603 236.308C712.798 236.269 712.953 236.238 713.07 236.215L713.63 238.687C713.443 238.757 713.182 238.827 712.848 238.897C712.514 238.975 712.09 239.014 711.577 239.014C710.8 239.014 710.038 238.847 709.291 238.512C708.553 238.178 707.939 237.669 707.449 236.985C706.967 236.301 706.726 235.438 706.726 234.396V216.577ZM724.527 239.154C722.91 239.154 721.491 238.769 720.271 237.999C719.058 237.23 718.109 236.153 717.425 234.769C716.749 233.385 716.411 231.768 716.411 229.918C716.411 228.052 716.749 226.423 717.425 225.032C718.109 223.64 719.058 222.559 720.271 221.79C721.491 221.02 722.91 220.635 724.527 220.635C726.144 220.635 727.559 221.02 728.772 221.79C729.992 222.559 730.941 223.64 731.617 225.032C732.301 226.423 732.644 228.052 732.644 229.918C732.644 231.768 732.301 233.385 731.617 234.769C730.941 236.153 729.992 237.23 728.772 237.999C727.559 238.769 726.144 239.154 724.527 239.154ZM724.527 236.681C725.755 236.681 726.766 236.367 727.559 235.737C728.352 235.107 728.939 234.279 729.32 233.253C729.701 232.227 729.891 231.115 729.891 229.918C729.891 228.721 729.701 227.605 729.32 226.571C728.939 225.537 728.352 224.701 727.559 224.064C726.766 223.426 725.755 223.108 724.527 223.108C723.299 223.108 722.288 223.426 721.495 224.064C720.702 224.701 720.115 225.537 719.734 226.571C719.353 227.605 719.163 228.721 719.163 229.918C719.163 231.115 719.353 232.227 719.734 233.253C720.115 234.279 720.702 235.107 721.495 235.737C722.288 236.367 723.299 236.681 724.527 236.681ZM736.845 238.781V220.869H739.503V223.574H739.69C740.016 222.688 740.607 221.969 741.463 221.417C742.318 220.865 743.282 220.589 744.355 220.589C744.557 220.589 744.809 220.593 745.113 220.6C745.416 220.608 745.645 220.62 745.801 220.635V223.434C745.707 223.411 745.493 223.376 745.159 223.329C744.833 223.275 744.487 223.247 744.121 223.247C743.251 223.247 742.473 223.43 741.789 223.796C741.113 224.153 740.576 224.651 740.18 225.288C739.791 225.918 739.597 226.637 739.597 227.446V238.781H736.845ZM751.381 245.498C750.914 245.498 750.498 245.459 750.133 245.381C749.767 245.311 749.515 245.241 749.375 245.171L750.075 242.745C750.743 242.916 751.334 242.979 751.847 242.932C752.36 242.885 752.815 242.656 753.211 242.244C753.616 241.84 753.985 241.183 754.319 240.273L754.832 238.874L748.209 220.869H751.194L756.138 235.142H756.325L761.27 220.869H764.255L756.652 241.393C756.31 242.318 755.886 243.084 755.38 243.69C754.875 244.304 754.288 244.759 753.62 245.054C752.959 245.35 752.212 245.498 751.381 245.498ZM768.261 238.781V214.898H771.013V223.714H771.246C771.448 223.403 771.728 223.006 772.086 222.524C772.451 222.035 772.972 221.599 773.648 221.218C774.332 220.83 775.257 220.635 776.424 220.635C777.932 220.635 779.261 221.012 780.412 221.766C781.562 222.521 782.46 223.59 783.106 224.973C783.751 226.357 784.074 227.99 784.074 229.871C784.074 231.768 783.751 233.412 783.106 234.804C782.46 236.188 781.566 237.261 780.423 238.023C779.281 238.777 777.963 239.154 776.47 239.154C775.32 239.154 774.398 238.963 773.706 238.582C773.015 238.194 772.482 237.754 772.109 237.265C771.736 236.767 771.448 236.355 771.246 236.028H770.919V238.781H768.261ZM770.966 229.825C770.966 231.177 771.164 232.371 771.561 233.405C771.957 234.431 772.536 235.235 773.298 235.819C774.06 236.394 774.993 236.681 776.097 236.681C777.248 236.681 778.208 236.378 778.977 235.772C779.755 235.158 780.338 234.334 780.727 233.3C781.123 232.258 781.321 231.099 781.321 229.825C781.321 228.565 781.127 227.43 780.738 226.419C780.357 225.401 779.778 224.596 779.001 224.005C778.231 223.407 777.263 223.108 776.097 223.108C774.978 223.108 774.037 223.391 773.275 223.959C772.513 224.519 771.938 225.304 771.549 226.314C771.16 227.317 770.966 228.487 770.966 229.825ZM795.56 239.154C793.943 239.154 792.524 238.769 791.304 237.999C790.091 237.23 789.142 236.153 788.458 234.769C787.782 233.385 787.444 231.768 787.444 229.918C787.444 228.052 787.782 226.423 788.458 225.032C789.142 223.64 790.091 222.559 791.304 221.79C792.524 221.02 793.943 220.635 795.56 220.635C797.177 220.635 798.592 221.02 799.805 221.79C801.025 222.559 801.974 223.64 802.65 225.032C803.334 226.423 803.676 228.052 803.676 229.918C803.676 231.768 803.334 233.385 802.65 234.769C801.974 236.153 801.025 237.23 799.805 237.999C798.592 238.769 797.177 239.154 795.56 239.154ZM795.56 236.681C796.788 236.681 797.799 236.367 798.592 235.737C799.385 235.107 799.972 234.279 800.353 233.253C800.734 232.227 800.924 231.115 800.924 229.918C800.924 228.721 800.734 227.605 800.353 226.571C799.972 225.537 799.385 224.701 798.592 224.064C797.799 223.426 796.788 223.108 795.56 223.108C794.332 223.108 793.321 223.426 792.528 224.064C791.735 224.701 791.148 225.537 790.767 226.571C790.386 227.605 790.196 228.721 790.196 229.918C790.196 231.115 790.386 232.227 790.767 233.253C791.148 234.279 791.735 235.107 792.528 235.737C793.321 236.367 794.332 236.681 795.56 236.681ZM815.154 239.154C813.537 239.154 812.118 238.769 810.898 237.999C809.685 237.23 808.737 236.153 808.052 234.769C807.376 233.385 807.038 231.768 807.038 229.918C807.038 228.052 807.376 226.423 808.052 225.032C808.737 223.64 809.685 222.559 810.898 221.79C812.118 221.02 813.537 220.635 815.154 220.635C816.771 220.635 818.186 221.02 819.399 221.79C820.62 222.559 821.568 223.64 822.244 225.032C822.929 226.423 823.271 228.052 823.271 229.918C823.271 231.768 822.929 233.385 822.244 234.769C821.568 236.153 820.62 237.23 819.399 237.999C818.186 238.769 816.771 239.154 815.154 239.154ZM815.154 236.681C816.383 236.681 817.393 236.367 818.186 235.737C818.979 235.107 819.566 234.279 819.947 233.253C820.328 232.227 820.518 231.115 820.518 229.918C820.518 228.721 820.328 227.605 819.947 226.571C819.566 225.537 818.979 224.701 818.186 224.064C817.393 223.426 816.383 223.108 815.154 223.108C813.926 223.108 812.915 223.426 812.122 224.064C811.329 224.701 810.742 225.537 810.361 226.571C809.98 227.605 809.79 228.721 809.79 229.918C809.79 231.115 809.98 232.227 810.361 233.253C810.742 234.279 811.329 235.107 812.122 235.737C812.915 236.367 813.926 236.681 815.154 236.681ZM830.037 232.25L829.991 228.845H830.55L838.387 220.869H841.792L833.442 229.311H833.209L830.037 232.25ZM827.472 238.781V214.898H830.224V238.781H827.472ZM838.853 238.781L831.856 229.918L833.815 228.005L842.352 238.781H838.853Z" fill="#989898"/>
<path d="M93.0988 73.2317H85.1719V51.786H93.0883C95.2734 51.786 97.1548 52.2153 98.7325 53.074C100.317 53.9257 101.539 55.1544 102.398 56.76C103.256 58.3586 103.686 60.2714 103.686 62.4984C103.686 64.7323 103.256 66.6521 102.398 68.2577C101.546 69.8633 100.328 71.0955 98.7429 71.9542C97.1583 72.8058 95.2769 73.2317 93.0988 73.2317ZM90.3553 68.8127H92.8998C94.1006 68.8127 95.1163 68.6103 95.947 68.2054C96.7848 67.7935 97.4166 67.1268 97.8424 66.2053C98.2752 65.2768 98.4916 64.0412 98.4916 62.4984C98.4916 60.9556 98.2752 59.7269 97.8424 58.8124C97.4096 57.8909 96.7708 57.2277 95.9261 56.8228C95.0884 56.4109 94.0552 56.205 92.8265 56.205H90.3553V68.8127ZM114.23 73.5354C112.548 73.5354 111.096 73.2038 109.874 72.5406C108.659 71.8704 107.724 70.9175 107.068 69.6818C106.419 68.4392 106.094 66.9627 106.094 65.2524C106.094 63.5909 106.422 62.1389 107.078 60.8962C107.734 59.6466 108.659 58.6763 109.853 57.9852C111.047 57.2871 112.454 56.938 114.073 56.938C115.218 56.938 116.265 57.116 117.215 57.472C118.164 57.8281 118.984 58.3551 119.676 59.0532C120.367 59.7514 120.904 60.6135 121.288 61.6397C121.672 62.6589 121.864 63.8283 121.864 65.1477V66.4252H107.885V63.4513H117.1C117.093 62.9068 116.963 62.4216 116.712 61.9957C116.461 61.5699 116.115 61.2383 115.675 61.001C115.243 60.7566 114.743 60.6344 114.178 60.6344C113.606 60.6344 113.092 60.7636 112.639 61.0219C112.185 61.2732 111.825 61.6188 111.56 62.0586C111.295 62.4914 111.155 62.9836 111.141 63.5351V66.5613C111.141 67.2175 111.27 67.7935 111.529 68.2891C111.787 68.7778 112.153 69.1583 112.628 69.4305C113.103 69.7028 113.668 69.8389 114.325 69.8389C114.778 69.8389 115.19 69.7761 115.56 69.6504C115.93 69.5248 116.248 69.3398 116.513 69.0954C116.778 68.8511 116.977 68.5509 117.11 68.1949L121.812 68.331C121.616 69.3852 121.187 70.3032 120.524 71.085C119.867 71.8599 119.005 72.4638 117.937 72.8966C116.869 73.3224 115.634 73.5354 114.23 73.5354ZM138.522 62.0586L133.82 62.1842C133.771 61.8491 133.638 61.5525 133.422 61.2942C133.206 61.0289 132.923 60.8229 132.574 60.6763C132.232 60.5228 131.834 60.446 131.38 60.446C130.787 60.446 130.281 60.5646 129.862 60.802C129.45 61.0393 129.247 61.3605 129.254 61.7654C129.247 62.0795 129.373 62.3518 129.631 62.5822C129.897 62.8125 130.368 62.9975 131.045 63.1371L134.145 63.7235C135.75 64.0307 136.944 64.5403 137.726 65.2524C138.515 65.9645 138.913 66.9069 138.92 68.0797C138.913 69.1827 138.584 70.1426 137.935 70.9594C137.293 71.7761 136.413 72.4114 135.296 72.8652C134.179 73.312 132.902 73.5354 131.464 73.5354C129.167 73.5354 127.356 73.0641 126.029 72.1217C124.71 71.1723 123.956 69.9017 123.767 68.3101L128.825 68.1844C128.937 68.7708 129.226 69.2176 129.694 69.5248C130.162 69.8319 130.759 69.9855 131.485 69.9855C132.141 69.9855 132.675 69.8633 133.087 69.619C133.499 69.3747 133.708 69.0501 133.715 68.6452C133.708 68.2822 133.548 67.9924 133.234 67.776C132.919 67.5526 132.427 67.3781 131.757 67.2525L128.951 66.7184C127.338 66.4252 126.137 65.8842 125.348 65.0953C124.56 64.2995 124.169 63.2872 124.176 62.0586C124.169 60.9835 124.455 60.0655 125.034 59.3046C125.614 58.5367 126.437 57.9502 127.506 57.5453C128.574 57.1405 129.834 56.938 131.286 56.938C133.464 56.938 135.181 57.3953 136.438 58.3098C137.694 59.2173 138.389 60.4669 138.522 62.0586ZM141.441 73.2317V57.1474H146.561V73.2317H141.441ZM144.006 55.273C143.287 55.273 142.669 55.0357 142.153 54.561C141.636 54.0793 141.378 53.4999 141.378 52.8227C141.378 52.1525 141.636 51.5801 142.153 51.1054C142.669 50.6237 143.287 50.3828 144.006 50.3828C144.732 50.3828 145.35 50.6237 145.86 51.1054C146.376 51.5801 146.634 52.1525 146.634 52.8227C146.634 53.4999 146.376 54.0793 145.86 54.561C145.35 55.0357 144.732 55.273 144.006 55.273ZM157.318 79.5984C155.789 79.5984 154.48 79.3855 153.391 78.9596C152.302 78.5338 151.447 77.9509 150.826 77.2109C150.204 76.4709 149.831 75.6332 149.705 74.6977L154.554 74.4254C154.644 74.7536 154.812 75.0398 155.056 75.2841C155.307 75.5284 155.632 75.7169 156.03 75.8496C156.435 75.9822 156.91 76.0485 157.454 76.0485C158.313 76.0485 159.021 75.8391 159.58 75.4202C160.145 75.0084 160.428 74.2858 160.428 73.2526V70.4253H160.25C160.048 70.921 159.74 71.3643 159.329 71.7552C158.917 72.1461 158.404 72.4533 157.789 72.6767C157.182 72.9001 156.484 73.0118 155.695 73.0118C154.522 73.0118 153.447 72.7395 152.47 72.195C151.499 71.6435 150.721 70.7918 150.135 69.64C149.555 68.4811 149.265 66.9907 149.265 65.1686C149.265 63.2907 149.566 61.7444 150.166 60.5297C150.766 59.3081 151.552 58.404 152.522 57.8176C153.499 57.2312 154.55 56.938 155.674 56.938C156.519 56.938 157.241 57.0846 157.842 57.3778C158.449 57.664 158.948 58.034 159.339 58.4878C159.73 58.9416 160.027 59.4128 160.229 59.9014H160.376V57.1474H165.475V73.2945C165.475 74.6558 165.133 75.8042 164.449 76.7396C163.765 77.6751 162.809 78.3837 161.58 78.8654C160.351 79.354 158.931 79.5984 157.318 79.5984ZM157.475 69.2839C158.096 69.2839 158.627 69.1199 159.067 68.7918C159.507 68.4637 159.845 67.9924 160.082 67.3781C160.32 66.7638 160.439 66.0273 160.439 65.1686C160.439 64.296 160.32 63.5455 160.082 62.9172C159.852 62.282 159.514 61.7933 159.067 61.4512C158.627 61.1092 158.096 60.9381 157.475 60.9381C156.84 60.9381 156.302 61.1126 155.862 61.4617C155.423 61.8107 155.088 62.3029 154.857 62.9382C154.634 63.5665 154.522 64.31 154.522 65.1686C154.522 66.0273 154.637 66.7638 154.868 67.3781C155.098 67.9924 155.43 68.4637 155.862 68.7918C156.302 69.1199 156.84 69.2839 157.475 69.2839ZM173.86 64.0586V73.2317H168.74V57.1474H173.609V60.1004H173.787C174.143 59.1161 174.75 58.3447 175.609 57.7862C176.468 57.2207 177.491 56.938 178.677 56.938C179.808 56.938 180.789 57.1928 181.62 57.7024C182.458 58.2051 183.107 58.9101 183.568 59.8177C184.035 60.7182 184.266 61.7724 184.259 62.9801V73.2317H179.138V63.9853C179.145 63.0918 178.918 62.3937 178.457 61.891C178.004 61.3884 177.372 61.1371 176.562 61.1371C176.025 61.1371 175.55 61.2558 175.138 61.4931C174.733 61.7235 174.419 62.0551 174.195 62.4879C173.979 62.9207 173.867 63.4443 173.86 64.0586ZM205.356 58.2155C205.286 57.4476 204.976 56.8507 204.424 56.4249C203.88 55.9921 203.101 55.7757 202.089 55.7757C201.419 55.7757 200.86 55.8629 200.414 56.0375C199.967 56.212 199.632 56.4528 199.408 56.76C199.185 57.0602 199.07 57.4057 199.063 57.7967C199.049 58.1178 199.112 58.4005 199.251 58.6449C199.398 58.8892 199.607 59.1056 199.88 59.2941C200.159 59.4756 200.494 59.6362 200.885 59.7758C201.276 59.9154 201.716 60.0376 202.204 60.1423L204.047 60.5611C205.108 60.7915 206.044 61.0987 206.854 61.4826C207.67 61.8666 208.354 62.3239 208.906 62.8544C209.464 63.385 209.887 63.9958 210.173 64.6869C210.459 65.378 210.606 66.1529 210.613 67.0116C210.606 68.3659 210.264 69.5283 209.587 70.4986C208.909 71.469 207.936 72.2125 206.665 72.7291C205.401 73.2457 203.876 73.5039 202.089 73.5039C200.295 73.5039 198.731 73.2352 197.398 72.6976C196.064 72.1601 195.028 71.3433 194.288 70.2473C193.548 69.1513 193.167 67.7656 193.146 66.0901H198.11C198.152 66.7812 198.337 67.3572 198.665 67.8179C198.993 68.2787 199.443 68.6277 200.016 68.8651C200.595 69.1024 201.265 69.2211 202.026 69.2211C202.724 69.2211 203.318 69.1269 203.806 68.9384C204.302 68.7499 204.682 68.4881 204.948 68.153C205.213 67.8179 205.349 67.434 205.356 67.0011C205.349 66.5962 205.223 66.2507 204.979 65.9645C204.735 65.6713 204.358 65.4199 203.848 65.2105C203.346 64.9941 202.703 64.7951 201.921 64.6136L199.681 64.0901C197.824 63.6642 196.361 62.9766 195.293 62.0272C194.225 61.0708 193.694 59.7793 193.701 58.1527C193.694 56.8263 194.05 55.664 194.769 54.6657C195.488 53.6674 196.483 52.889 197.754 52.3305C199.024 51.7721 200.473 51.4928 202.099 51.4928C203.761 51.4928 205.203 51.7755 206.424 52.341C207.653 52.8995 208.606 53.6848 209.283 54.6971C209.96 55.7093 210.306 56.8822 210.32 58.2155H205.356ZM216.362 79.2633C215.747 79.2633 215.168 79.2144 214.623 79.1167C214.079 79.0259 213.611 78.9038 213.22 78.7502L214.351 75.0328C214.854 75.2003 215.308 75.2981 215.712 75.326C216.124 75.3539 216.477 75.2876 216.77 75.127C217.07 74.9735 217.301 74.6977 217.461 74.2998L217.66 73.8181L211.943 57.1474H217.304L220.268 68.6242H220.435L223.44 57.1474H228.833L222.77 74.771C222.477 75.6506 222.062 76.4255 221.524 77.0957C220.994 77.7728 220.306 78.3034 219.461 78.6874C218.624 79.0713 217.59 79.2633 216.362 79.2633ZM244.839 62.0586L240.137 62.1842C240.088 61.8491 239.956 61.5525 239.739 61.2942C239.523 61.0289 239.24 60.8229 238.891 60.6763C238.549 60.5228 238.151 60.446 237.697 60.446C237.104 60.446 236.598 60.5646 236.179 60.802C235.767 61.0393 235.565 61.3605 235.572 61.7654C235.565 62.0795 235.69 62.3518 235.949 62.5822C236.214 62.8125 236.685 62.9975 237.362 63.1371L240.462 63.7235C242.068 64.0307 243.261 64.5403 244.043 65.2524C244.832 65.9645 245.23 66.9069 245.237 68.0797C245.23 69.1827 244.902 70.1426 244.253 70.9594C243.61 71.7761 242.731 72.4114 241.614 72.8652C240.497 73.312 239.219 73.5354 237.781 73.5354C235.484 73.5354 233.673 73.0641 232.346 72.1217C231.027 71.1723 230.273 69.9017 230.085 68.3101L235.142 68.1844C235.254 68.7708 235.544 69.2176 236.012 69.5248C236.479 69.8319 237.076 69.9855 237.802 69.9855C238.458 69.9855 238.992 69.8633 239.404 69.619C239.816 69.3747 240.026 69.0501 240.033 68.6452C240.026 68.2822 239.865 67.9924 239.551 67.776C239.237 67.5526 238.745 67.3781 238.074 67.2525L235.268 66.7184C233.655 66.4252 232.455 65.8842 231.666 65.0953C230.877 64.2995 230.486 63.2872 230.493 62.0586C230.486 60.9835 230.772 60.0655 231.352 59.3046C231.931 58.5367 232.755 57.9502 233.823 57.5453C234.891 57.1405 236.151 56.938 237.603 56.938C239.781 56.938 241.499 57.3953 242.755 58.3098C244.012 59.2173 244.706 60.4669 244.839 62.0586ZM256.837 57.1474V60.9172H246.69V57.1474H256.837ZM248.816 53.2939H253.936V68.1739C253.936 68.4881 253.985 68.7429 254.083 68.9384C254.187 69.1269 254.338 69.263 254.533 69.3468C254.728 69.4235 254.962 69.4619 255.235 69.4619C255.43 69.4619 255.636 69.4445 255.852 69.4096C256.076 69.3677 256.243 69.3328 256.355 69.3049L257.13 73.0013C256.886 73.0711 256.54 73.1584 256.093 73.2631C255.653 73.3678 255.126 73.4341 254.512 73.4621C253.311 73.5179 252.282 73.3783 251.423 73.0432C250.571 72.7011 249.919 72.1706 249.465 71.4515C249.018 70.7325 248.802 69.8284 248.816 68.7394V53.2939ZM266.795 73.5354C265.113 73.5354 263.661 73.2038 262.439 72.5406C261.224 71.8704 260.289 70.9175 259.633 69.6818C258.983 68.4392 258.659 66.9627 258.659 65.2524C258.659 63.5909 258.987 62.1389 259.643 60.8962C260.299 59.6466 261.224 58.6763 262.418 57.9852C263.612 57.2871 265.018 56.938 266.638 56.938C267.783 56.938 268.83 57.116 269.78 57.472C270.729 57.8281 271.549 58.3551 272.24 59.0532C272.931 59.7514 273.469 60.6135 273.853 61.6397C274.237 62.6589 274.429 63.8283 274.429 65.1477V66.4252H260.449V63.4513H269.664C269.657 62.9068 269.528 62.4216 269.277 61.9957C269.026 61.5699 268.68 61.2383 268.24 61.001C267.807 60.7566 267.308 60.6344 266.743 60.6344C266.17 60.6344 265.657 60.7636 265.203 61.0219C264.75 61.2732 264.39 61.6188 264.125 62.0586C263.86 62.4914 263.72 62.9836 263.706 63.5351V66.5613C263.706 67.2175 263.835 67.7935 264.094 68.2891C264.352 68.7778 264.718 69.1583 265.193 69.4305C265.668 69.7028 266.233 69.8389 266.889 69.8389C267.343 69.8389 267.755 69.7761 268.125 69.6504C268.495 69.5248 268.813 69.3398 269.078 69.0954C269.343 68.8511 269.542 68.5509 269.675 68.1949L274.377 68.331C274.181 69.3852 273.752 70.3032 273.089 71.085C272.432 71.8599 271.57 72.4638 270.502 72.8966C269.434 73.3224 268.198 73.5354 266.795 73.5354ZM277.044 73.2317V57.1474H281.913V60.1004H282.091C282.427 59.1231 282.992 58.3517 283.788 57.7862C284.584 57.2207 285.533 56.938 286.636 56.938C287.753 56.938 288.709 57.2242 289.505 57.7967C290.301 58.3691 290.807 59.137 291.024 60.1004H291.191C291.491 59.144 292.078 58.3796 292.95 57.8071C293.823 57.2277 294.853 56.938 296.039 56.938C297.561 56.938 298.797 57.4267 299.746 58.404C300.696 59.3744 301.171 60.7077 301.171 62.4041V73.2317H296.05V63.5769C296.05 62.7741 295.844 62.1633 295.432 61.7444C295.02 61.3186 294.486 61.1057 293.83 61.1057C293.125 61.1057 292.57 61.336 292.165 61.7968C291.767 62.2506 291.568 62.8614 291.568 63.6293V73.2317H286.647V63.5246C286.647 62.7776 286.444 62.1877 286.039 61.7549C285.634 61.3221 285.1 61.1057 284.437 61.1057C283.99 61.1057 283.596 61.2139 283.254 61.4303C282.912 61.6397 282.643 61.9399 282.447 62.3308C282.259 62.7218 282.165 63.1825 282.165 63.7131V73.2317H277.044ZM322.271 58.2155C322.201 57.4476 321.89 56.8507 321.339 56.4249C320.794 55.9921 320.016 55.7757 319.004 55.7757C318.333 55.7757 317.775 55.8629 317.328 56.0375C316.881 56.212 316.546 56.4528 316.323 56.76C316.099 57.0602 315.984 57.4057 315.977 57.7967C315.963 58.1178 316.026 58.4005 316.166 58.6449C316.312 58.8892 316.522 59.1056 316.794 59.2941C317.073 59.4756 317.408 59.6362 317.799 59.7758C318.19 59.9154 318.63 60.0376 319.119 60.1423L320.962 60.5611C322.023 60.7915 322.958 61.0987 323.768 61.4826C324.585 61.8666 325.269 62.3239 325.821 62.8544C326.379 63.385 326.801 63.9958 327.088 64.6869C327.374 65.378 327.52 66.1529 327.527 67.0116C327.52 68.3659 327.178 69.5283 326.501 70.4986C325.824 71.469 324.85 72.2125 323.58 72.7291C322.316 73.2457 320.791 73.5039 319.004 73.5039C317.209 73.5039 315.646 73.2352 314.312 72.6976C312.979 72.1601 311.942 71.3433 311.202 70.2473C310.462 69.1513 310.082 67.7656 310.061 66.0901H315.024C315.066 66.7812 315.251 67.3572 315.579 67.8179C315.907 68.2787 316.358 68.6277 316.93 68.8651C317.51 69.1024 318.18 69.2211 318.941 69.2211C319.639 69.2211 320.232 69.1269 320.721 68.9384C321.217 68.7499 321.597 68.4881 321.862 68.153C322.128 67.8179 322.264 67.434 322.271 67.0011C322.264 66.5962 322.138 66.2507 321.894 65.9645C321.649 65.6713 321.272 65.4199 320.763 65.2105C320.26 64.9941 319.618 64.7951 318.836 64.6136L316.595 64.0901C314.738 63.6642 313.276 62.9766 312.208 62.0272C311.139 61.0708 310.609 59.7793 310.616 58.1527C310.609 56.8263 310.965 55.664 311.684 54.6657C312.403 53.6674 313.398 52.889 314.668 52.3305C315.939 51.7721 317.387 51.4928 319.014 51.4928C320.676 51.4928 322.117 51.7755 323.339 52.341C324.567 52.8995 325.52 53.6848 326.197 54.6971C326.875 55.7093 327.22 56.8822 327.234 58.2155H322.271ZM334.763 69.0117L334.784 62.9068H335.496L340.02 57.1474H345.821L339.098 65.399H337.748L334.763 69.0117ZM330.145 73.2317V51.786H335.266V73.2317H330.145ZM340.135 73.2317L335.926 66.5509L339.297 62.9172L346.051 73.2317H340.135ZM347.654 73.2317V57.1474H352.774V73.2317H347.654ZM350.219 55.273C349.5 55.273 348.882 55.0357 348.366 54.561C347.849 54.0793 347.591 53.4999 347.591 52.8227C347.591 52.1525 347.849 51.5801 348.366 51.1054C348.882 50.6237 349.5 50.3828 350.219 50.3828C350.945 50.3828 351.563 50.6237 352.073 51.1054C352.589 51.5801 352.848 52.1525 352.848 52.8227C352.848 53.4999 352.589 54.0793 352.073 54.561C351.563 55.0357 350.945 55.273 350.219 55.273ZM361.154 51.786V73.2317H356.033V51.786H361.154ZM369.534 51.786V73.2317H364.413V51.786H369.534ZM386.835 62.0586L382.134 62.1842C382.085 61.8491 381.952 61.5525 381.736 61.2942C381.519 61.0289 381.237 60.8229 380.888 60.6763C380.546 60.5228 380.148 60.446 379.694 60.446C379.1 60.446 378.594 60.5646 378.175 60.802C377.764 61.0393 377.561 61.3605 377.568 61.7654C377.561 62.0795 377.687 62.3518 377.945 62.5822C378.21 62.8125 378.682 62.9975 379.359 63.1371L382.458 63.7235C384.064 64.0307 385.258 64.5403 386.04 65.2524C386.828 65.9645 387.226 66.9069 387.233 68.0797C387.226 69.1827 386.898 70.1426 386.249 70.9594C385.607 71.7761 384.727 72.4114 383.61 72.8652C382.493 73.312 381.216 73.5354 379.778 73.5354C377.481 73.5354 375.669 73.0641 374.343 72.1217C373.024 71.1723 372.27 69.9017 372.081 68.3101L377.139 68.1844C377.251 68.7708 377.54 69.2176 378.008 69.5248C378.476 69.8319 379.073 69.9855 379.799 69.9855C380.455 69.9855 380.989 69.8633 381.401 69.619C381.813 69.3747 382.022 69.0501 382.029 68.6452C382.022 68.2822 381.861 67.9924 381.547 67.776C381.233 67.5526 380.741 67.3781 380.071 67.2525L377.264 66.7184C375.652 66.4252 374.451 65.8842 373.662 65.0953C372.873 64.2995 372.482 63.2872 372.489 62.0586C372.482 60.9835 372.769 60.0655 373.348 59.3046C373.928 58.5367 374.751 57.9502 375.819 57.5453C376.887 57.1405 378.148 56.938 379.6 56.938C381.778 56.938 383.495 57.3953 384.752 58.3098C386.008 59.2173 386.703 60.4669 386.835 62.0586Z" fill="white"/>
<path d="M85.1195 104.146V89.8492H87.2068V95.1617H87.3325C87.4535 94.9383 87.628 94.68 87.8561 94.3868C88.0841 94.0936 88.4006 93.8377 88.8055 93.6189C89.2104 93.3955 89.7456 93.2838 90.4111 93.2838C91.2768 93.2838 92.0493 93.5026 92.7288 93.9401C93.4083 94.3775 93.9412 95.0082 94.3275 95.8319C94.7184 96.6557 94.9139 97.647 94.9139 98.8058C94.9139 99.9647 94.7207 100.958 94.3344 101.787C93.9482 102.61 93.4176 103.246 92.7428 103.693C92.0679 104.135 91.2977 104.356 90.432 104.356C89.7805 104.356 89.2476 104.246 88.8334 104.028C88.4238 103.809 88.1027 103.553 87.87 103.26C87.6373 102.967 87.4581 102.706 87.3325 102.478H87.158V104.146H85.1195ZM87.1649 98.7849C87.1649 99.5388 87.2743 100.2 87.493 100.767C87.7118 101.335 88.0283 101.78 88.4425 102.101C88.8567 102.417 89.364 102.576 89.9643 102.576C90.588 102.576 91.1092 102.41 91.5281 102.08C91.9469 101.745 92.2634 101.291 92.4775 100.719C92.6962 100.146 92.8056 99.5016 92.8056 98.7849C92.8056 98.0775 92.6986 97.4422 92.4845 96.8791C92.275 96.3159 91.9586 95.8715 91.535 95.5457C91.1162 95.2199 90.5926 95.057 89.9643 95.057C89.3593 95.057 88.8474 95.2129 88.4285 95.5247C88.0143 95.8366 87.7001 96.2717 87.4861 96.8302C87.272 97.3887 87.1649 98.0402 87.1649 98.7849ZM98.2124 108.167C97.9006 108.167 97.6167 108.142 97.3607 108.091C97.1047 108.044 96.9139 107.993 96.7883 107.937L97.2909 106.227C97.6725 106.329 98.0123 106.373 98.3101 106.359C98.608 106.345 98.8709 106.234 99.099 106.024C99.3317 105.815 99.5365 105.473 99.7133 104.998L99.9716 104.286L96.0483 93.4235H98.2822L100.998 101.745H101.11L103.825 93.4235H106.066L101.647 105.577C101.442 106.136 101.182 106.608 100.865 106.995C100.549 107.385 100.172 107.679 99.7342 107.874C99.2968 108.07 98.7895 108.167 98.2124 108.167ZM123.074 94.3659C122.939 93.9424 122.757 93.5631 122.529 93.228C122.306 92.8883 122.038 92.5997 121.726 92.3623C121.414 92.1203 121.058 91.9365 120.658 91.8108C120.263 91.6852 119.827 91.6224 119.353 91.6224C118.548 91.6224 117.821 91.8295 117.175 92.2437C116.528 92.6579 116.016 93.2652 115.639 94.0657C115.266 94.8616 115.08 95.8366 115.08 96.9908C115.08 98.1496 115.269 99.1293 115.646 99.9298C116.023 100.73 116.539 101.338 117.196 101.752C117.852 102.166 118.599 102.373 119.436 102.373C120.214 102.373 120.891 102.215 121.468 101.898C122.05 101.582 122.499 101.135 122.815 100.558C123.136 99.9763 123.297 99.2922 123.297 98.5056L123.855 98.6104H119.765V96.8302H125.384V98.4568C125.384 99.6575 125.128 100.7 124.616 101.584C124.109 102.464 123.406 103.143 122.508 103.623C121.614 104.102 120.591 104.342 119.436 104.342C118.143 104.342 117.007 104.044 116.03 103.448C115.057 102.852 114.298 102.008 113.754 100.914C113.209 99.8157 112.937 98.5126 112.937 97.0047C112.937 95.8645 113.095 94.8406 113.412 93.9331C113.728 93.0255 114.173 92.2553 114.745 91.6224C115.322 90.9848 115.999 90.4984 116.777 90.1633C117.559 89.8236 118.413 89.6537 119.339 89.6537C120.111 89.6537 120.83 89.7677 121.496 89.9958C122.166 90.2238 122.762 90.5473 123.283 90.9661C123.809 91.385 124.244 91.883 124.588 92.4601C124.933 93.0325 125.166 93.6678 125.287 94.3659H123.074ZM134.748 99.6994V93.4235H136.842V104.146H134.789V102.289H134.678C134.431 102.862 134.035 103.339 133.491 103.72C132.951 104.097 132.279 104.286 131.473 104.286C130.785 104.286 130.175 104.135 129.644 103.832C129.119 103.525 128.704 103.071 128.402 102.471C128.104 101.87 127.955 101.128 127.955 100.244V93.4235H130.042V99.9926C130.042 100.723 130.245 101.305 130.65 101.738C131.055 102.171 131.58 102.387 132.227 102.387C132.618 102.387 133.007 102.289 133.393 102.094C133.784 101.898 134.108 101.603 134.364 101.207C134.624 100.812 134.752 100.309 134.748 99.6994ZM147.682 96.0413L145.79 96.3764C145.711 96.1344 145.585 95.904 145.413 95.6853C145.245 95.4666 145.017 95.2874 144.729 95.1478C144.44 95.0082 144.079 94.9383 143.647 94.9383C143.056 94.9383 142.562 95.071 142.167 95.3363C141.771 95.5969 141.573 95.9343 141.573 96.3485C141.573 96.7069 141.706 96.9954 141.971 97.2142C142.236 97.4329 142.665 97.6121 143.256 97.7517L144.959 98.1426C145.946 98.3707 146.681 98.7221 147.165 99.1968C147.649 99.6715 147.891 100.288 147.891 101.047C147.891 101.689 147.705 102.261 147.333 102.764C146.965 103.262 146.451 103.653 145.79 103.937C145.134 104.221 144.373 104.363 143.507 104.363C142.306 104.363 141.327 104.107 140.568 103.595C139.809 103.078 139.344 102.345 139.172 101.396L141.189 101.089C141.315 101.615 141.573 102.012 141.964 102.282C142.355 102.548 142.865 102.68 143.493 102.68C144.177 102.68 144.724 102.538 145.134 102.254C145.543 101.966 145.748 101.615 145.748 101.2C145.748 100.865 145.622 100.584 145.371 100.356C145.124 100.128 144.745 99.9554 144.233 99.839L142.418 99.4411C141.417 99.2131 140.677 98.85 140.198 98.3521C139.723 97.8541 139.486 97.2235 139.486 96.4602C139.486 95.8273 139.663 95.2734 140.016 94.7987C140.37 94.324 140.859 93.954 141.482 93.6887C142.106 93.4188 142.82 93.2838 143.626 93.2838C144.784 93.2838 145.697 93.5352 146.362 94.0378C147.028 94.5358 147.468 95.2036 147.682 96.0413ZM155.191 93.4235V95.0989H149.334V93.4235H155.191ZM150.905 90.8544H152.992V100.998C152.992 101.403 153.053 101.708 153.174 101.912C153.295 102.112 153.451 102.25 153.642 102.324C153.837 102.394 154.049 102.429 154.277 102.429C154.444 102.429 154.591 102.417 154.717 102.394C154.842 102.371 154.94 102.352 155.01 102.338L155.387 104.063C155.266 104.109 155.094 104.156 154.87 104.202C154.647 104.253 154.368 104.281 154.033 104.286C153.483 104.295 152.971 104.197 152.497 103.993C152.022 103.788 151.638 103.471 151.345 103.043C151.052 102.615 150.905 102.078 150.905 101.431V90.8544ZM160.621 104.384C159.941 104.384 159.327 104.258 158.778 104.007C158.229 103.751 157.794 103.381 157.472 102.897C157.156 102.413 156.998 101.819 156.998 101.117C156.998 100.512 157.114 100.014 157.347 99.6226C157.58 99.2317 157.894 98.9222 158.289 98.6941C158.685 98.4661 159.127 98.2939 159.616 98.1775C160.104 98.0612 160.602 97.9728 161.11 97.9123C161.752 97.8378 162.273 97.7773 162.673 97.7307C163.074 97.6796 163.364 97.5981 163.546 97.4864C163.727 97.3747 163.818 97.1932 163.818 96.9419V96.893C163.818 96.2834 163.646 95.811 163.302 95.4759C162.962 95.1408 162.455 94.9732 161.78 94.9732C161.077 94.9732 160.523 95.1292 160.118 95.441C159.718 95.7481 159.441 96.0902 159.288 96.4672L157.326 96.0204C157.559 95.3688 157.898 94.8429 158.345 94.4427C158.797 94.0378 159.315 93.7446 159.902 93.5631C160.488 93.3769 161.105 93.2838 161.752 93.2838C162.18 93.2838 162.634 93.335 163.113 93.4374C163.597 93.5352 164.049 93.7167 164.467 93.9819C164.891 94.2472 165.238 94.6265 165.508 95.1198C165.778 95.6085 165.913 96.2438 165.913 97.0257V104.146H163.874V102.68H163.79C163.655 102.95 163.453 103.215 163.183 103.476C162.913 103.737 162.566 103.953 162.143 104.125C161.719 104.298 161.212 104.384 160.621 104.384ZM161.075 102.708C161.652 102.708 162.145 102.594 162.555 102.366C162.969 102.138 163.283 101.84 163.497 101.473C163.716 101.1 163.825 100.702 163.825 100.279V98.8966C163.751 98.971 163.606 99.0409 163.392 99.106C163.183 99.1665 162.943 99.22 162.673 99.2666C162.403 99.3085 162.14 99.348 161.884 99.3852C161.629 99.4178 161.414 99.4458 161.242 99.469C160.837 99.5202 160.467 99.6063 160.132 99.7273C159.802 99.8483 159.537 100.023 159.336 100.251C159.141 100.474 159.043 100.772 159.043 101.144C159.043 101.661 159.234 102.052 159.616 102.317C159.997 102.578 160.484 102.708 161.075 102.708ZM177.482 93.4235L173.593 104.146H171.359L167.464 93.4235H169.705L172.421 101.675H172.532L175.241 93.4235H177.482ZM183.595 104.363C182.59 104.363 181.713 104.132 180.964 103.672C180.214 103.211 179.633 102.566 179.218 101.738C178.804 100.909 178.597 99.9414 178.597 98.8337C178.597 97.7214 178.804 96.7488 179.218 95.9157C179.633 95.0826 180.214 94.4357 180.964 93.975C181.713 93.5142 182.59 93.2838 183.595 93.2838C184.601 93.2838 185.478 93.5142 186.227 93.975C186.977 94.4357 187.558 95.0826 187.973 95.9157C188.387 96.7488 188.594 97.7214 188.594 98.8337C188.594 99.9414 188.387 100.909 187.973 101.738C187.558 102.566 186.977 103.211 186.227 103.672C185.478 104.132 184.601 104.363 183.595 104.363ZM183.602 102.61C184.254 102.61 184.794 102.438 185.222 102.094C185.65 101.749 185.967 101.291 186.171 100.719C186.381 100.146 186.486 99.5156 186.486 98.8268C186.486 98.1426 186.381 97.5143 186.171 96.9419C185.967 96.3648 185.65 95.9017 185.222 95.5527C184.794 95.2036 184.254 95.0291 183.602 95.0291C182.946 95.0291 182.402 95.2036 181.969 95.5527C181.541 95.9017 181.222 96.3648 181.012 96.9419C180.808 97.5143 180.705 98.1426 180.705 98.8268C180.705 99.5156 180.808 100.146 181.012 100.719C181.222 101.291 181.541 101.749 181.969 102.094C182.402 102.438 182.946 102.61 183.602 102.61ZM208.169 94.4985H205.991C205.907 94.0331 205.751 93.6236 205.523 93.2699C205.295 92.9162 205.016 92.616 204.685 92.3693C204.355 92.1227 203.985 91.9365 203.575 91.8108C203.17 91.6852 202.74 91.6224 202.284 91.6224C201.46 91.6224 200.722 91.8295 200.071 92.2437C199.424 92.6579 198.912 93.2652 198.535 94.0657C198.162 94.8662 197.976 95.8435 197.976 96.9977C197.976 98.1612 198.162 99.1432 198.535 99.9437C198.912 100.744 199.426 101.349 200.078 101.759C200.729 102.168 201.462 102.373 202.277 102.373C202.728 102.373 203.156 102.313 203.561 102.192C203.971 102.066 204.341 101.882 204.671 101.64C205.002 101.398 205.281 101.103 205.509 100.754C205.742 100.4 205.902 99.9949 205.991 99.5388L208.169 99.5458C208.052 100.249 207.827 100.895 207.491 101.487C207.161 102.073 206.735 102.58 206.214 103.008C205.697 103.432 205.106 103.76 204.441 103.993C203.775 104.225 203.049 104.342 202.263 104.342C201.025 104.342 199.922 104.049 198.954 103.462C197.986 102.871 197.222 102.026 196.664 100.928C196.11 99.8297 195.833 98.5196 195.833 96.9977C195.833 95.4712 196.112 94.1611 196.671 93.0674C197.229 91.9691 197.993 91.1267 198.961 90.5403C199.929 89.9492 201.029 89.6537 202.263 89.6537C203.021 89.6537 203.729 89.7631 204.385 89.9818C205.046 90.1959 205.639 90.5124 206.165 90.9312C206.691 91.3454 207.126 91.8527 207.47 92.4531C207.815 93.0488 208.048 93.7306 208.169 94.4985ZM213.703 104.384C213.023 104.384 212.409 104.258 211.86 104.007C211.311 103.751 210.875 103.381 210.554 102.897C210.238 102.413 210.08 101.819 210.08 101.117C210.08 100.512 210.196 100.014 210.429 99.6226C210.661 99.2317 210.976 98.9222 211.371 98.6941C211.767 98.4661 212.209 98.2939 212.698 98.1775C213.186 98.0612 213.684 97.9728 214.191 97.9123C214.834 97.8378 215.355 97.7773 215.755 97.7307C216.155 97.6796 216.446 97.5981 216.628 97.4864C216.809 97.3747 216.9 97.1932 216.9 96.9419V96.893C216.9 96.2834 216.728 95.811 216.384 95.4759C216.044 95.1408 215.536 94.9732 214.862 94.9732C214.159 94.9732 213.605 95.1292 213.2 95.441C212.8 95.7481 212.523 96.0902 212.369 96.4672L210.408 96.0204C210.64 95.3688 210.98 94.8429 211.427 94.4427C211.878 94.0378 212.397 93.7446 212.984 93.5631C213.57 93.3769 214.187 93.2838 214.834 93.2838C215.262 93.2838 215.716 93.335 216.195 93.4374C216.679 93.5352 217.13 93.7167 217.549 93.9819C217.973 94.2472 218.32 94.6265 218.59 95.1198C218.859 95.6085 218.994 96.2438 218.994 97.0257V104.146H216.956V102.68H216.872C216.737 102.95 216.535 103.215 216.265 103.476C215.995 103.737 215.648 103.953 215.225 104.125C214.801 104.298 214.294 104.384 213.703 104.384ZM214.157 102.708C214.734 102.708 215.227 102.594 215.637 102.366C216.051 102.138 216.365 101.84 216.579 101.473C216.798 101.1 216.907 100.702 216.907 100.279V98.8966C216.833 98.971 216.688 99.0409 216.474 99.106C216.265 99.1665 216.025 99.22 215.755 99.2666C215.485 99.3085 215.222 99.348 214.966 99.3852C214.71 99.4178 214.496 99.4458 214.324 99.469C213.919 99.5202 213.549 99.6063 213.214 99.7273C212.884 99.8483 212.618 100.023 212.418 100.251C212.223 100.474 212.125 100.772 212.125 101.144C212.125 101.661 212.316 102.052 212.698 102.317C213.079 102.578 213.566 102.708 214.157 102.708ZM221.942 104.146V89.8492H224.029V95.1617H224.155C224.276 94.9383 224.451 94.68 224.679 94.3868C224.907 94.0936 225.223 93.8377 225.628 93.6189C226.033 93.3955 226.568 93.2838 227.234 93.2838C228.099 93.2838 228.872 93.5026 229.551 93.9401C230.231 94.3775 230.764 95.0082 231.15 95.8319C231.541 96.6557 231.737 97.647 231.737 98.8058C231.737 99.9647 231.543 100.958 231.157 101.787C230.771 102.61 230.24 103.246 229.565 103.693C228.891 104.135 228.12 104.356 227.255 104.356C226.603 104.356 226.07 104.246 225.656 104.028C225.246 103.809 224.925 103.553 224.693 103.26C224.46 102.967 224.281 102.706 224.155 102.478H223.981V104.146H221.942ZM223.988 98.7849C223.988 99.5388 224.097 100.2 224.316 100.767C224.534 101.335 224.851 101.78 225.265 102.101C225.679 102.417 226.187 102.576 226.787 102.576C227.411 102.576 227.932 102.41 228.351 102.08C228.77 101.745 229.086 101.291 229.3 100.719C229.519 100.146 229.628 99.5016 229.628 98.7849C229.628 98.0775 229.521 97.4422 229.307 96.8791C229.098 96.3159 228.781 95.8715 228.358 95.5457C227.939 95.2199 227.415 95.057 226.787 95.057C226.182 95.057 225.67 95.2129 225.251 95.5247C224.837 95.8366 224.523 96.2717 224.309 96.8302C224.095 97.3887 223.988 98.0402 223.988 98.7849ZM234.08 104.146V93.4235H236.098V95.1268H236.21C236.405 94.5497 236.749 94.096 237.243 93.7655C237.741 93.4304 238.304 93.2629 238.932 93.2629C239.063 93.2629 239.216 93.2676 239.393 93.2769C239.574 93.2862 239.716 93.2978 239.819 93.3118V95.3083C239.735 95.2851 239.586 95.2595 239.372 95.2315C239.158 95.199 238.944 95.1827 238.73 95.1827C238.236 95.1827 237.797 95.2874 237.41 95.4968C237.029 95.7016 236.726 95.9878 236.503 96.3555C236.279 96.7185 236.168 97.1327 236.168 97.5981V104.146H234.08ZM244.65 104.384C243.97 104.384 243.356 104.258 242.807 104.007C242.257 103.751 241.822 103.381 241.501 102.897C241.185 102.413 241.026 101.819 241.026 101.117C241.026 100.512 241.143 100.014 241.376 99.6226C241.608 99.2317 241.922 98.9222 242.318 98.6941C242.714 98.4661 243.156 98.2939 243.644 98.1775C244.133 98.0612 244.631 97.9728 245.138 97.9123C245.781 97.8378 246.302 97.7773 246.702 97.7307C247.102 97.6796 247.393 97.5981 247.575 97.4864C247.756 97.3747 247.847 97.1932 247.847 96.9419V96.893C247.847 96.2834 247.675 95.811 247.33 95.4759C246.991 95.1408 246.483 94.9732 245.808 94.9732C245.106 94.9732 244.552 95.1292 244.147 95.441C243.747 95.7481 243.47 96.0902 243.316 96.4672L241.355 96.0204C241.587 95.3688 241.927 94.8429 242.374 94.4427C242.825 94.0378 243.344 93.7446 243.931 93.5631C244.517 93.3769 245.134 93.2838 245.781 93.2838C246.209 93.2838 246.663 93.335 247.142 93.4374C247.626 93.5352 248.077 93.7167 248.496 93.9819C248.92 94.2472 249.266 94.6265 249.536 95.1198C249.806 95.6085 249.941 96.2438 249.941 97.0257V104.146H247.903V102.68H247.819C247.684 102.95 247.482 103.215 247.212 103.476C246.942 103.737 246.595 103.953 246.172 104.125C245.748 104.298 245.241 104.384 244.65 104.384ZM245.103 102.708C245.681 102.708 246.174 102.594 246.583 102.366C246.998 102.138 247.312 101.84 247.526 101.473C247.745 101.1 247.854 100.702 247.854 100.279V98.8966C247.779 98.971 247.635 99.0409 247.421 99.106C247.212 99.1665 246.972 99.22 246.702 99.2666C246.432 99.3085 246.169 99.348 245.913 99.3852C245.657 99.4178 245.443 99.4458 245.271 99.469C244.866 99.5202 244.496 99.6063 244.161 99.7273C243.831 99.8483 243.565 100.023 243.365 100.251C243.17 100.474 243.072 100.772 243.072 101.144C243.072 101.661 243.263 102.052 243.644 102.317C244.026 102.578 244.512 102.708 245.103 102.708ZM254.809 89.8492V104.146H252.721V89.8492H254.809Z" fill="white" fill-opacity="0.7"/>
</g>
<defs>
<clipPath id="clip0_2_26">
<rect width="1320" height="403" rx="19.6585" fill="white"/>
</clipPath>
<clipPath id="clip1_2_26">
<rect width="147.439" height="68.8049" fill="white" transform="translate(68.8048 319.451)"/>
</clipPath>
</defs>
</svg>
