<svg width="1320" height="403" viewBox="0 0 1320 403" fill="none" xmlns="http://www.w3.org/2000/svg">
<g clip-path="url(#clip0_2_26)">
<rect width="1320" height="403" rx="19.6585" fill="black"/>
<mask id="path-3-inside-1_2_26" fill="white">
<path d="M-3.05176e-05 300.137H1656.23V403.344H-3.05176e-05V300.137Z"/>
</mask>
<path d="M-3.05176e-05 300.137H1656.23V403.344H-3.05176e-05V300.137Z" fill="#FAFAFA"/>
<g clip-path="url(#clip1_2_26)">
<path d="M111.352 337.413H133.612V339.11H113.393V351.876H132.406V353.572H113.393V367.589H133.843V369.285H111.352V337.413V337.413ZM135.606 337.413H137.971L148.452 351.429L159.164 337.413L173.734 319.609L149.796 352.903L162.132 369.285H159.674L148.452 354.376L137.183 369.285H134.771L147.199 352.903L135.606 337.413H135.606ZM163.013 339.11V337.413H188.379V339.11H176.693V369.284H174.653V339.11H163.014H163.013ZM83.5048 337.413H86.0556L121.226 387.872L106.692 369.285L85.6377 339.824L85.545 369.285H83.5048V337.413V337.413ZM188.175 367.076C187.757 367.076 187.444 366.767 187.444 366.367C187.444 365.966 187.757 365.657 188.174 365.657C188.596 365.657 188.903 365.966 188.903 366.367C188.903 366.767 188.596 367.076 188.174 367.076H188.175ZM190.179 365.209H191.271C191.286 365.776 191.719 366.157 192.353 366.157C193.063 366.157 193.465 365.748 193.465 364.98V360.121H194.576V364.985C194.576 366.367 193.743 367.163 192.363 367.163C191.068 367.163 190.18 366.391 190.18 365.209H190.179ZM196.03 365.148H197.132C197.226 365.8 197.891 366.214 198.849 366.214C199.742 366.214 200.397 365.771 200.397 365.161C200.397 364.638 199.981 364.323 199.032 364.109L198.109 363.895C196.815 363.604 196.223 363.003 196.223 361.993C196.223 360.769 197.265 359.954 198.829 359.954C200.283 359.954 201.346 360.769 201.41 361.926H200.328C200.224 361.293 199.648 360.897 198.814 360.897C197.935 360.897 197.35 361.302 197.35 361.921C197.35 362.412 197.727 362.694 198.661 362.903L199.449 363.089C200.918 363.418 201.524 363.989 201.524 365.023C201.524 366.338 200.461 367.163 198.765 367.163C197.177 367.163 196.109 366.376 196.03 365.147V365.148Z" fill="black"/>
</g>
<path d="M-3.05176e-05 301.365H1656.23V298.908H-3.05176e-05V301.365Z" fill="black" fill-opacity="0.25" mask="url(#path-3-inside-1_2_26)"/>
<path d="M101.963 180H87.537V139.305H102.082C106.176 139.305 109.699 140.12 112.653 141.749C115.607 143.365 117.879 145.69 119.469 148.724C121.072 151.757 121.873 155.387 121.873 159.613C121.873 163.852 121.072 167.495 119.469 170.542C117.879 173.588 115.594 175.927 112.614 177.556C109.646 179.185 106.096 180 101.963 180ZM96.1409 172.628H101.605C104.149 172.628 106.288 172.178 108.023 171.277C109.772 170.363 111.084 168.952 111.958 167.044C112.845 165.124 113.289 162.646 113.289 159.613C113.289 156.606 112.845 154.148 111.958 152.241C111.084 150.333 109.779 148.929 108.043 148.028C106.308 147.128 104.169 146.677 101.625 146.677H96.1409V172.628ZM141.997 180.596C138.858 180.596 136.155 179.96 133.89 178.689C131.638 177.404 129.903 175.589 128.684 173.244C127.465 170.886 126.856 168.098 126.856 164.879C126.856 161.739 127.465 158.984 128.684 156.612C129.903 154.241 131.618 152.393 133.83 151.068C136.056 149.744 138.666 149.081 141.659 149.081C143.673 149.081 145.547 149.406 147.283 150.055C149.031 150.691 150.555 151.651 151.853 152.936C153.164 154.221 154.184 155.837 154.913 157.785C155.642 159.719 156.006 161.984 156.006 164.58V166.905H130.234V161.659H148.038C148.038 160.441 147.773 159.361 147.243 158.421C146.713 157.48 145.978 156.745 145.037 156.215C144.11 155.672 143.03 155.4 141.798 155.4C140.513 155.4 139.374 155.698 138.381 156.294C137.4 156.877 136.632 157.666 136.076 158.659C135.519 159.639 135.235 160.732 135.221 161.938V166.925C135.221 168.435 135.499 169.74 136.056 170.84C136.625 171.939 137.427 172.787 138.46 173.383C139.493 173.979 140.719 174.277 142.136 174.277C143.077 174.277 143.938 174.145 144.719 173.88C145.501 173.615 146.17 173.218 146.726 172.688C147.283 172.158 147.707 171.509 147.998 170.74L155.827 171.257C155.43 173.138 154.615 174.781 153.383 176.185C152.164 177.576 150.588 178.662 148.654 179.444C146.733 180.212 144.514 180.596 141.997 180.596ZM186.924 158.182L179.175 158.659C179.042 157.997 178.758 157.401 178.32 156.871C177.883 156.328 177.307 155.897 176.592 155.579C175.89 155.248 175.048 155.082 174.068 155.082C172.757 155.082 171.651 155.361 170.75 155.917C169.849 156.46 169.399 157.189 169.399 158.103C169.399 158.831 169.69 159.447 170.273 159.951C170.856 160.454 171.856 160.858 173.273 161.163L178.797 162.275C181.765 162.885 183.977 163.865 185.434 165.216C186.891 166.568 187.62 168.343 187.62 170.542C187.62 172.542 187.03 174.297 185.851 175.807C184.686 177.317 183.083 178.496 181.043 179.344C179.016 180.179 176.678 180.596 174.028 180.596C169.988 180.596 166.769 179.755 164.371 178.073C161.987 176.377 160.589 174.072 160.179 171.158L168.504 170.72C168.756 171.952 169.365 172.893 170.333 173.542C171.3 174.178 172.538 174.496 174.048 174.496C175.532 174.496 176.724 174.211 177.625 173.641C178.539 173.059 179.003 172.31 179.016 171.396C179.003 170.628 178.678 169.998 178.042 169.508C177.406 169.005 176.426 168.621 175.101 168.356L169.816 167.303C166.835 166.707 164.616 165.673 163.159 164.203C161.715 162.732 160.993 160.858 160.993 158.58C160.993 156.619 161.523 154.93 162.583 153.513C163.656 152.095 165.16 151.002 167.094 150.234C169.041 149.466 171.319 149.081 173.929 149.081C177.784 149.081 180.818 149.896 183.03 151.526C185.255 153.155 186.554 155.374 186.924 158.182ZM206.86 180.596C203.72 180.596 201.018 179.96 198.752 178.689C196.5 177.404 194.765 175.589 193.546 173.244C192.328 170.886 191.718 168.098 191.718 164.879C191.718 161.739 192.328 158.984 193.546 156.612C194.765 154.241 196.481 152.393 198.693 151.068C200.918 149.744 203.528 149.081 206.522 149.081C208.535 149.081 210.41 149.406 212.145 150.055C213.894 150.691 215.417 151.651 216.715 152.936C218.027 154.221 219.047 155.837 219.775 157.785C220.504 159.719 220.868 161.984 220.868 164.58V166.905H195.096V161.659H212.9C212.9 160.441 212.635 159.361 212.105 158.421C211.575 157.48 210.84 156.745 209.9 156.215C208.972 155.672 207.893 155.4 206.661 155.4C205.376 155.4 204.237 155.698 203.243 156.294C202.263 156.877 201.495 157.666 200.938 158.659C200.382 159.639 200.097 160.732 200.084 161.938V166.925C200.084 168.435 200.362 169.74 200.918 170.84C201.488 171.939 202.289 172.787 203.323 173.383C204.356 173.979 205.581 174.277 206.999 174.277C207.939 174.277 208.8 174.145 209.582 173.88C210.363 173.615 211.032 173.218 211.589 172.688C212.145 172.158 212.569 171.509 212.86 170.74L220.689 171.257C220.292 173.138 219.477 174.781 218.245 176.185C217.027 177.576 215.45 178.662 213.516 179.444C211.595 180.212 209.376 180.596 206.86 180.596ZM234.857 162.355V180H226.392V149.479H234.46V154.864H234.817C235.493 153.089 236.626 151.684 238.215 150.651C239.805 149.605 241.732 149.081 243.998 149.081C246.117 149.081 247.965 149.545 249.541 150.472C251.118 151.4 252.343 152.724 253.218 154.446C254.092 156.155 254.529 158.195 254.529 160.567V180H246.064V162.077C246.077 160.209 245.6 158.752 244.633 157.705C243.666 156.645 242.335 156.116 240.639 156.116C239.5 156.116 238.493 156.361 237.619 156.851C236.758 157.341 236.082 158.056 235.592 158.997C235.115 159.924 234.87 161.044 234.857 162.355ZM288.562 149.479L277.892 180H268.354L257.683 149.479H266.625L272.964 171.317H273.282L279.601 149.479H288.562ZM305.701 180.596C302.614 180.596 299.945 179.94 297.693 178.629C295.454 177.304 293.725 175.463 292.507 173.105C291.288 170.734 290.678 167.985 290.678 164.859C290.678 161.706 291.288 158.95 292.507 156.593C293.725 154.221 295.454 152.38 297.693 151.068C299.945 149.744 302.614 149.081 305.701 149.081C308.787 149.081 311.45 149.744 313.689 151.068C315.941 152.38 317.676 154.221 318.895 156.593C320.113 158.95 320.723 161.706 320.723 164.859C320.723 167.985 320.113 170.734 318.895 173.105C317.676 175.463 315.941 177.304 313.689 178.629C311.45 179.94 308.787 180.596 305.701 180.596ZM305.74 174.039C307.145 174.039 308.317 173.641 309.257 172.847C310.198 172.039 310.907 170.939 311.384 169.548C311.874 168.157 312.119 166.574 312.119 164.799C312.119 163.024 311.874 161.441 311.384 160.05C310.907 158.659 310.198 157.56 309.257 156.751C308.317 155.943 307.145 155.539 305.74 155.539C304.323 155.539 303.131 155.943 302.164 156.751C301.21 157.56 300.488 158.659 299.998 160.05C299.521 161.441 299.282 163.024 299.282 164.799C299.282 166.574 299.521 168.157 299.998 169.548C300.488 170.939 301.21 172.039 302.164 172.847C303.131 173.641 304.323 174.039 305.74 174.039ZM334.692 139.305V180H326.227V139.305H334.692ZM369.927 149.479L359.257 180H349.719L339.048 149.479H347.99L354.329 171.317H354.647L360.966 149.479H369.927ZM382.143 180.576C380.195 180.576 378.46 180.238 376.936 179.563C375.413 178.874 374.208 177.861 373.32 176.523C372.446 175.171 372.009 173.489 372.009 171.476C372.009 169.78 372.32 168.356 372.943 167.203C373.565 166.051 374.413 165.124 375.486 164.421C376.559 163.719 377.778 163.19 379.142 162.832C380.52 162.474 381.964 162.222 383.474 162.077C385.249 161.891 386.68 161.719 387.766 161.56C388.852 161.388 389.64 161.136 390.131 160.805C390.621 160.474 390.866 159.984 390.866 159.335V159.215C390.866 157.957 390.468 156.983 389.674 156.294C388.892 155.606 387.779 155.261 386.335 155.261C384.812 155.261 383.6 155.599 382.699 156.275C381.798 156.937 381.202 157.771 380.911 158.778L373.082 158.142C373.479 156.288 374.261 154.685 375.426 153.334C376.592 151.969 378.096 150.923 379.937 150.194C381.792 149.452 383.938 149.081 386.375 149.081C388.071 149.081 389.693 149.28 391.243 149.678C392.806 150.075 394.191 150.691 395.396 151.526C396.615 152.36 397.575 153.433 398.277 154.745C398.98 156.043 399.331 157.599 399.331 159.414V180H391.303V175.768H391.064C390.574 176.721 389.919 177.563 389.097 178.291C388.276 179.006 387.289 179.569 386.137 179.98C384.984 180.378 383.653 180.576 382.143 180.576ZM384.567 174.734C385.812 174.734 386.911 174.489 387.865 173.999C388.819 173.496 389.568 172.82 390.111 171.972C390.654 171.124 390.925 170.164 390.925 169.091V165.852C390.66 166.024 390.296 166.183 389.832 166.329C389.382 166.462 388.872 166.587 388.302 166.707C387.733 166.813 387.163 166.912 386.594 167.005C386.024 167.084 385.507 167.157 385.044 167.223C384.05 167.369 383.182 167.601 382.441 167.919C381.699 168.237 381.123 168.667 380.712 169.21C380.301 169.74 380.096 170.403 380.096 171.197C380.096 172.35 380.513 173.231 381.348 173.84C382.196 174.436 383.269 174.734 384.567 174.734ZM410.846 180.517C409.534 180.517 408.408 180.053 407.468 179.126C406.54 178.185 406.077 177.059 406.077 175.748C406.077 174.449 406.54 173.337 407.468 172.409C408.408 171.482 409.534 171.019 410.846 171.019C412.117 171.019 413.23 171.482 414.184 172.409C415.138 173.337 415.614 174.449 415.614 175.748C415.614 176.622 415.389 177.423 414.939 178.152C414.502 178.867 413.925 179.444 413.21 179.881C412.495 180.305 411.707 180.517 410.846 180.517ZM448.187 180H433.761V139.305H448.306C452.4 139.305 455.924 140.12 458.878 141.749C461.832 143.365 464.104 145.69 465.693 148.724C467.296 151.757 468.098 155.387 468.098 159.613C468.098 163.852 467.296 167.495 465.693 170.542C464.104 173.588 461.818 175.927 458.838 177.556C455.871 179.185 452.32 180 448.187 180ZM442.365 172.628H447.83C450.373 172.628 452.512 172.178 454.248 171.277C455.996 170.363 457.308 168.952 458.182 167.044C459.07 165.124 459.513 162.646 459.513 159.613C459.513 156.606 459.07 154.148 458.182 152.241C457.308 150.333 456.003 148.929 454.268 148.028C452.532 147.128 450.393 146.677 447.849 146.677H442.365V172.628ZM474.312 180V149.479H482.777V180H474.312ZM478.564 145.544C477.306 145.544 476.226 145.127 475.325 144.293C474.438 143.445 473.994 142.431 473.994 141.252C473.994 140.087 474.438 139.087 475.325 138.252C476.226 137.404 477.306 136.98 478.564 136.98C479.823 136.98 480.896 137.404 481.783 138.252C482.684 139.087 483.135 140.087 483.135 141.252C483.135 142.431 482.684 143.445 481.783 144.293C480.896 145.127 479.823 145.544 478.564 145.544ZM514.952 158.182L507.203 158.659C507.07 157.997 506.786 157.401 506.348 156.871C505.911 156.328 505.335 155.897 504.62 155.579C503.918 155.248 503.076 155.082 502.096 155.082C500.785 155.082 499.678 155.361 498.778 155.917C497.877 156.46 497.426 157.189 497.426 158.103C497.426 158.831 497.718 159.447 498.301 159.951C498.884 160.454 499.884 160.858 501.301 161.163L506.825 162.275C509.793 162.885 512.005 163.865 513.462 165.216C514.919 166.568 515.648 168.343 515.648 170.542C515.648 172.542 515.058 174.297 513.879 175.807C512.714 177.317 511.111 178.496 509.071 179.344C507.044 180.179 504.706 180.596 502.056 180.596C498.016 180.596 494.797 179.755 492.399 178.073C490.015 176.377 488.617 174.072 488.207 171.158L496.532 170.72C496.784 171.952 497.393 172.893 498.36 173.542C499.327 174.178 500.566 174.496 502.076 174.496C503.56 174.496 504.752 174.211 505.653 173.641C506.567 173.059 507.031 172.31 507.044 171.396C507.031 170.628 506.706 169.998 506.07 169.508C505.434 169.005 504.454 168.621 503.129 168.356L497.844 167.303C494.863 166.707 492.644 165.673 491.187 164.203C489.743 162.732 489.021 160.858 489.021 158.58C489.021 156.619 489.551 154.93 490.611 153.513C491.684 152.095 493.187 151.002 495.121 150.234C497.069 149.466 499.347 149.081 501.957 149.081C505.812 149.081 508.845 149.896 511.058 151.526C513.283 153.155 514.581 155.374 514.952 158.182ZM537.212 149.479V155.837H518.832V149.479H537.212ZM523.005 142.166H531.47V170.621C531.47 171.403 531.589 172.012 531.827 172.449C532.066 172.873 532.397 173.171 532.821 173.343C533.258 173.516 533.761 173.602 534.331 173.602C534.728 173.602 535.126 173.569 535.523 173.502C535.921 173.423 536.225 173.363 536.437 173.323L537.769 179.622C537.345 179.755 536.749 179.907 535.98 180.079C535.212 180.265 534.278 180.378 533.179 180.417C531.138 180.497 529.35 180.225 527.813 179.603C526.29 178.98 525.104 178.013 524.257 176.701C523.409 175.39 522.992 173.734 523.005 171.734V142.166ZM542.726 180V149.479H550.933V154.804H551.251C551.807 152.91 552.741 151.479 554.053 150.512C555.364 149.532 556.874 149.042 558.583 149.042C559.007 149.042 559.464 149.068 559.954 149.121C560.444 149.174 560.875 149.247 561.246 149.34V156.851C560.848 156.732 560.299 156.626 559.596 156.533C558.894 156.44 558.252 156.394 557.669 156.394C556.424 156.394 555.311 156.665 554.331 157.208C553.364 157.738 552.595 158.48 552.026 159.434C551.469 160.388 551.191 161.487 551.191 162.732V180H542.726ZM565.622 180V149.479H574.087V180H565.622ZM569.874 145.544C568.616 145.544 567.536 145.127 566.636 144.293C565.748 143.445 565.304 142.431 565.304 141.252C565.304 140.087 565.748 139.087 566.636 138.252C567.536 137.404 568.616 136.98 569.874 136.98C571.133 136.98 572.206 137.404 573.094 138.252C573.994 139.087 574.445 140.087 574.445 141.252C574.445 142.431 573.994 143.445 573.094 144.293C572.206 145.127 571.133 145.544 569.874 145.544ZM581.027 180V139.305H589.492V154.605H589.75C590.121 153.784 590.657 152.95 591.36 152.102C592.075 151.241 593.002 150.525 594.141 149.956C595.294 149.373 596.725 149.081 598.433 149.081C600.659 149.081 602.712 149.664 604.593 150.83C606.474 151.983 607.978 153.725 609.104 156.056C610.23 158.374 610.793 161.282 610.793 164.779C610.793 168.184 610.243 171.058 609.144 173.403C608.057 175.734 606.574 177.503 604.693 178.708C602.825 179.901 600.732 180.497 598.414 180.497C596.771 180.497 595.373 180.225 594.221 179.682C593.082 179.139 592.148 178.457 591.419 177.635C590.691 176.801 590.134 175.96 589.75 175.112H589.372V180H581.027ZM589.313 164.739C589.313 166.554 589.565 168.137 590.068 169.488C590.571 170.84 591.3 171.893 592.254 172.648C593.207 173.39 594.367 173.761 595.731 173.761C597.109 173.761 598.274 173.383 599.228 172.628C600.182 171.86 600.904 170.8 601.394 169.449C601.898 168.084 602.149 166.515 602.149 164.739C602.149 162.978 601.904 161.428 601.414 160.09C600.924 158.752 600.202 157.705 599.248 156.95C598.294 156.195 597.122 155.818 595.731 155.818C594.353 155.818 593.188 156.182 592.234 156.91C591.293 157.639 590.571 158.672 590.068 160.01C589.565 161.348 589.313 162.925 589.313 164.739ZM636.014 167.005V149.479H644.478V180H636.351V174.456H636.033C635.345 176.244 634.199 177.682 632.596 178.768C631.006 179.854 629.066 180.397 626.774 180.397C624.734 180.397 622.939 179.934 621.389 179.006C619.839 178.079 618.627 176.761 617.753 175.052C616.892 173.343 616.454 171.297 616.441 168.912V149.479H624.906V167.402C624.919 169.204 625.403 170.628 626.357 171.674C627.31 172.721 628.589 173.244 630.192 173.244C631.212 173.244 632.165 173.012 633.053 172.549C633.94 172.072 634.656 171.37 635.199 170.442C635.755 169.515 636.027 168.369 636.014 167.005ZM659.953 180.576C658.005 180.576 656.27 180.238 654.747 179.563C653.223 178.874 652.018 177.861 651.13 176.523C650.256 175.171 649.819 173.489 649.819 171.476C649.819 169.78 650.13 168.356 650.753 167.203C651.375 166.051 652.223 165.124 653.296 164.421C654.369 163.719 655.588 163.19 656.952 162.832C658.33 162.474 659.774 162.222 661.284 162.077C663.059 161.891 664.49 161.719 665.576 161.56C666.662 161.388 667.45 161.136 667.941 160.805C668.431 160.474 668.676 159.984 668.676 159.335V159.215C668.676 157.957 668.278 156.983 667.484 156.294C666.702 155.606 665.589 155.261 664.145 155.261C662.622 155.261 661.41 155.599 660.509 156.275C659.608 156.937 659.012 157.771 658.721 158.778L650.892 158.142C651.289 156.288 652.071 154.685 653.236 153.334C654.402 151.969 655.906 150.923 657.747 150.194C659.602 149.452 661.748 149.081 664.185 149.081C665.881 149.081 667.503 149.28 669.053 149.678C670.616 150.075 672.001 150.691 673.206 151.526C674.425 152.36 675.385 153.433 676.088 154.745C676.79 156.043 677.141 157.599 677.141 159.414V180H669.113V175.768H668.875C668.384 176.721 667.729 177.563 666.907 178.291C666.086 179.006 665.099 179.569 663.947 179.98C662.794 180.378 661.463 180.576 659.953 180.576ZM662.377 174.734C663.622 174.734 664.722 174.489 665.675 173.999C666.629 173.496 667.378 172.82 667.921 171.972C668.464 171.124 668.735 170.164 668.735 169.091V165.852C668.47 166.024 668.106 166.183 667.643 166.329C667.192 166.462 666.682 166.587 666.112 166.707C665.543 166.813 664.973 166.912 664.404 167.005C663.834 167.084 663.317 167.157 662.854 167.223C661.86 167.369 660.993 167.601 660.251 167.919C659.509 168.237 658.933 168.667 658.522 169.21C658.111 169.74 657.906 170.403 657.906 171.197C657.906 172.35 658.323 173.231 659.158 173.84C660.006 174.436 661.079 174.734 662.377 174.734ZM688.656 180.517C687.344 180.517 686.218 180.053 685.278 179.126C684.35 178.185 683.887 177.059 683.887 175.748C683.887 174.449 684.35 173.337 685.278 172.409C686.218 171.482 687.344 171.019 688.656 171.019C689.927 171.019 691.04 171.482 691.994 172.409C692.948 173.337 693.425 174.449 693.425 175.748C693.425 176.622 693.199 177.423 692.749 178.152C692.312 178.867 691.736 179.444 691.02 179.881C690.305 180.305 689.517 180.517 688.656 180.517ZM711.571 180V139.305H738.993V146.399H720.175V156.096H737.582V163.19H720.175V172.906H739.072V180H711.571ZM771.069 158.182L763.319 158.659C763.187 157.997 762.902 157.401 762.465 156.871C762.028 156.328 761.451 155.897 760.736 155.579C760.034 155.248 759.193 155.082 758.212 155.082C756.901 155.082 755.795 155.361 754.894 155.917C753.993 156.46 753.543 157.189 753.543 158.103C753.543 158.831 753.834 159.447 754.417 159.951C755 160.454 756 160.858 757.418 161.163L762.942 162.275C765.909 162.885 768.121 163.865 769.578 165.216C771.036 166.568 771.764 168.343 771.764 170.542C771.764 172.542 771.175 174.297 769.996 175.807C768.83 177.317 767.227 178.496 765.187 179.344C763.16 180.179 760.822 180.596 758.173 180.596C754.132 180.596 750.913 179.755 748.516 178.073C746.131 176.377 744.734 174.072 744.323 171.158L752.649 170.72C752.9 171.952 753.51 172.893 754.477 173.542C755.444 174.178 756.682 174.496 758.193 174.496C759.676 174.496 760.868 174.211 761.769 173.641C762.683 173.059 763.147 172.31 763.16 171.396C763.147 170.628 762.822 169.998 762.187 169.508C761.551 169.005 760.57 168.621 759.246 168.356L753.96 167.303C750.98 166.707 748.761 165.673 747.304 164.203C745.86 162.732 745.138 160.858 745.138 158.58C745.138 156.619 745.668 154.93 746.727 153.513C747.8 152.095 749.304 151.002 751.238 150.234C753.185 149.466 755.464 149.081 758.073 149.081C761.928 149.081 764.962 149.896 767.174 151.526C769.4 153.155 770.698 155.374 771.069 158.182ZM790.885 180.596C787.758 180.596 785.069 179.934 782.817 178.609C780.578 177.271 778.856 175.417 777.651 173.045C776.459 170.674 775.862 167.945 775.862 164.859C775.862 161.732 776.465 158.99 777.671 156.632C778.889 154.261 780.618 152.413 782.857 151.088C785.096 149.75 787.758 149.081 790.845 149.081C793.507 149.081 795.839 149.565 797.839 150.532C799.84 151.499 801.423 152.857 802.588 154.605C803.754 156.354 804.397 158.407 804.516 160.765H796.528C796.303 159.242 795.706 158.017 794.739 157.089C793.786 156.149 792.534 155.678 790.984 155.678C789.672 155.678 788.527 156.036 787.546 156.751C786.579 157.454 785.824 158.48 785.281 159.831C784.738 161.183 784.466 162.819 784.466 164.739C784.466 166.687 784.731 168.343 785.261 169.707C785.804 171.072 786.566 172.111 787.546 172.827C788.527 173.542 789.672 173.9 790.984 173.9C791.951 173.9 792.819 173.701 793.587 173.304C794.369 172.906 795.011 172.33 795.514 171.575C796.031 170.807 796.369 169.886 796.528 168.813H804.516C804.383 171.144 803.747 173.198 802.608 174.973C801.482 176.735 799.926 178.112 797.939 179.106C795.952 180.099 793.6 180.596 790.885 180.596ZM818.639 180.576C816.691 180.576 814.956 180.238 813.433 179.563C811.909 178.874 810.704 177.861 809.816 176.523C808.942 175.171 808.505 173.489 808.505 171.476C808.505 169.78 808.816 168.356 809.439 167.203C810.061 166.051 810.909 165.124 811.982 164.421C813.055 163.719 814.274 163.19 815.638 162.832C817.016 162.474 818.46 162.222 819.97 162.077C821.745 161.891 823.176 161.719 824.262 161.56C825.348 161.388 826.137 161.136 826.627 160.805C827.117 160.474 827.362 159.984 827.362 159.335V159.215C827.362 157.957 826.964 156.983 826.17 156.294C825.388 155.606 824.275 155.261 822.831 155.261C821.308 155.261 820.096 155.599 819.195 156.275C818.294 156.937 817.698 157.771 817.407 158.778L809.578 158.142C809.975 156.288 810.757 154.685 811.922 153.334C813.088 151.969 814.592 150.923 816.433 150.194C818.288 149.452 820.434 149.081 822.871 149.081C824.567 149.081 826.19 149.28 827.739 149.678C829.303 150.075 830.687 150.691 831.892 151.526C833.111 152.36 834.072 153.433 834.774 154.745C835.476 156.043 835.827 157.599 835.827 159.414V180H827.799V175.768H827.561C827.07 176.721 826.415 177.563 825.593 178.291C824.772 179.006 823.785 179.569 822.633 179.98C821.48 180.378 820.149 180.576 818.639 180.576ZM821.063 174.734C822.308 174.734 823.408 174.489 824.361 173.999C825.315 173.496 826.064 172.82 826.607 171.972C827.15 171.124 827.422 170.164 827.422 169.091V165.852C827.157 166.024 826.792 166.183 826.329 166.329C825.878 166.462 825.368 166.587 824.799 166.707C824.229 166.813 823.659 166.912 823.09 167.005C822.52 167.084 822.003 167.157 821.54 167.223C820.546 167.369 819.679 167.601 818.937 167.919C818.195 168.237 817.619 168.667 817.208 169.21C816.797 169.74 816.592 170.403 816.592 171.197C816.592 172.35 817.009 173.231 817.844 173.84C818.692 174.436 819.765 174.734 821.063 174.734ZM850.859 139.305V180H842.394V139.305H850.859ZM871.549 180.596C868.409 180.596 865.707 179.96 863.442 178.689C861.19 177.404 859.454 175.589 858.236 173.244C857.017 170.886 856.408 168.098 856.408 164.879C856.408 161.739 857.017 158.984 858.236 156.612C859.454 154.241 861.17 152.393 863.382 151.068C865.608 149.744 868.217 149.081 871.211 149.081C873.225 149.081 875.099 149.406 876.835 150.055C878.583 150.691 880.107 151.651 881.405 152.936C882.716 154.221 883.736 155.837 884.465 157.785C885.193 159.719 885.558 161.984 885.558 164.58V166.905H859.786V161.659H877.59C877.59 160.441 877.325 159.361 876.795 158.421C876.265 157.48 875.53 156.745 874.589 156.215C873.662 155.672 872.582 155.4 871.35 155.4C870.065 155.4 868.926 155.698 867.933 156.294C866.952 156.877 866.184 157.666 865.628 158.659C865.071 159.639 864.786 160.732 864.773 161.938V166.925C864.773 168.435 865.051 169.74 865.608 170.84C866.177 171.939 866.979 172.787 868.012 173.383C869.045 173.979 870.271 174.277 871.688 174.277C872.629 174.277 873.49 174.145 874.271 173.88C875.053 173.615 875.722 173.218 876.278 172.688C876.835 172.158 877.258 171.509 877.55 170.74L885.379 171.257C884.982 173.138 884.167 174.781 882.935 176.185C881.716 177.576 880.14 178.662 878.206 179.444C876.285 180.212 874.066 180.596 871.549 180.596ZM896.03 180.517C894.718 180.517 893.592 180.053 892.652 179.126C891.724 178.185 891.261 177.059 891.261 175.748C891.261 174.449 891.724 173.337 892.652 172.409C893.592 171.482 894.718 171.019 896.03 171.019C897.301 171.019 898.414 171.482 899.368 172.409C900.322 173.337 900.798 174.449 900.798 175.748C900.798 176.622 900.573 177.423 900.123 178.152C899.686 178.867 899.109 179.444 898.394 179.881C897.679 180.305 896.891 180.517 896.03 180.517Z" fill="white"/>
<path d="M102.837 207.011H100.373C100.228 206.302 99.9726 205.68 99.6083 205.143C99.2506 204.607 98.8135 204.156 98.2969 203.792C97.7868 203.421 97.2205 203.143 96.5979 202.958C95.9753 202.772 95.3262 202.679 94.6506 202.679C93.4186 202.679 92.3026 202.991 91.3024 203.613C90.3089 204.236 89.5174 205.153 88.9279 206.365C88.345 207.577 88.0536 209.064 88.0536 210.826C88.0536 212.588 88.345 214.075 88.9279 215.287C89.5174 216.499 90.3089 217.417 91.3024 218.039C92.3026 218.662 93.4186 218.973 94.6506 218.973C95.3262 218.973 95.9753 218.88 96.5979 218.695C97.2205 218.51 97.7868 218.235 98.2969 217.87C98.8135 217.499 99.2506 217.046 99.6083 216.509C99.9726 215.966 100.228 215.344 100.373 214.641H102.837C102.652 215.681 102.314 216.612 101.824 217.433C101.334 218.255 100.724 218.953 99.9958 219.53C99.2672 220.099 98.4492 220.533 97.5418 220.831C96.641 221.129 95.6773 221.278 94.6506 221.278C92.9153 221.278 91.372 220.854 90.0208 220.006C88.6696 219.159 87.6065 217.953 86.8316 216.39C86.0566 214.827 85.6691 212.972 85.6691 210.826C85.6691 208.68 86.0566 206.826 86.8316 205.263C87.6065 203.699 88.6696 202.494 90.0208 201.646C91.372 200.798 92.9153 200.374 94.6506 200.374C95.6773 200.374 96.641 200.523 97.5418 200.821C98.4492 201.12 99.2672 201.557 99.9958 202.133C100.724 202.703 101.334 203.398 101.824 204.219C102.314 205.034 102.652 205.965 102.837 207.011ZM106.501 221V205.739H108.766V208.044H108.925C109.203 207.289 109.707 206.677 110.435 206.206C111.164 205.736 111.985 205.501 112.899 205.501C113.071 205.501 113.287 205.504 113.545 205.511C113.803 205.518 113.999 205.527 114.131 205.541V207.925C114.052 207.905 113.87 207.876 113.585 207.836C113.307 207.789 113.012 207.766 112.701 207.766C111.959 207.766 111.296 207.922 110.713 208.233C110.137 208.538 109.68 208.962 109.342 209.505C109.011 210.041 108.846 210.654 108.846 211.343V221H106.501ZM116.911 221V205.739H119.255V221H116.911ZM118.103 203.196C117.646 203.196 117.252 203.04 116.921 202.729C116.596 202.418 116.434 202.044 116.434 201.606C116.434 201.169 116.596 200.795 116.921 200.484C117.252 200.172 117.646 200.017 118.103 200.017C118.56 200.017 118.951 200.172 119.275 200.484C119.606 200.795 119.772 201.169 119.772 201.606C119.772 202.044 119.606 202.418 119.275 202.729C118.951 203.04 118.56 203.196 118.103 203.196ZM129.948 221.318C128.478 221.318 127.209 220.993 126.143 220.344C125.083 219.689 124.265 218.774 123.689 217.602C123.119 216.423 122.834 215.052 122.834 213.489C122.834 211.926 123.119 210.548 123.689 209.356C124.265 208.157 125.067 207.223 126.093 206.554C127.127 205.879 128.332 205.541 129.71 205.541C130.505 205.541 131.289 205.673 132.064 205.938C132.839 206.203 133.545 206.634 134.181 207.23C134.816 207.819 135.323 208.601 135.701 209.574C136.078 210.548 136.267 211.747 136.267 213.171V214.165H124.504V212.138H133.883C133.883 211.277 133.71 210.508 133.366 209.833C133.028 209.157 132.545 208.624 131.915 208.233C131.293 207.842 130.558 207.647 129.71 207.647C128.776 207.647 127.968 207.879 127.285 208.342C126.61 208.799 126.09 209.396 125.726 210.131C125.361 210.866 125.179 211.654 125.179 212.495V213.847C125.179 214.999 125.378 215.976 125.775 216.778C126.179 217.572 126.739 218.178 127.454 218.596C128.17 219.006 129.001 219.212 129.948 219.212C130.564 219.212 131.121 219.126 131.617 218.953C132.121 218.774 132.554 218.51 132.919 218.159C133.283 217.801 133.565 217.357 133.763 216.827L136.029 217.463C135.79 218.231 135.389 218.907 134.826 219.49C134.263 220.066 133.568 220.516 132.74 220.841C131.912 221.159 130.981 221.318 129.948 221.318ZM157.32 214.761V205.739H159.665V221H157.32V218.417H157.161C156.803 219.192 156.247 219.851 155.492 220.394C154.737 220.93 153.783 221.199 152.63 221.199C151.677 221.199 150.829 220.99 150.087 220.573C149.345 220.149 148.762 219.513 148.338 218.665C147.914 217.811 147.702 216.734 147.702 215.436V205.739H150.047V215.277C150.047 216.39 150.359 217.278 150.981 217.94C151.61 218.602 152.412 218.933 153.385 218.933C153.968 218.933 154.561 218.784 155.164 218.486C155.773 218.188 156.283 217.731 156.694 217.115C157.111 216.499 157.32 215.714 157.32 214.761ZM163.959 221V205.739H166.224V208.124H166.423C166.741 207.309 167.254 206.677 167.963 206.226C168.672 205.769 169.523 205.541 170.516 205.541C171.523 205.541 172.361 205.769 173.03 206.226C173.706 206.677 174.232 207.309 174.61 208.124H174.769C175.159 207.336 175.746 206.71 176.527 206.246C177.309 205.776 178.246 205.541 179.339 205.541C180.703 205.541 181.819 205.968 182.687 206.822C183.555 207.67 183.989 208.992 183.989 210.787V221H181.644V210.787C181.644 209.661 181.336 208.856 180.72 208.372C180.104 207.889 179.379 207.647 178.544 207.647C177.471 207.647 176.64 207.972 176.05 208.621C175.461 209.263 175.166 210.078 175.166 211.065V221H172.782V210.548C172.782 209.68 172.5 208.982 171.937 208.452C171.374 207.915 170.649 207.647 169.761 207.647C169.152 207.647 168.582 207.809 168.052 208.134C167.529 208.458 167.105 208.909 166.781 209.485C166.463 210.055 166.304 210.714 166.304 211.462V221H163.959ZM202.741 221H196.462V200.653H203.02C204.993 200.653 206.682 201.06 208.087 201.875C209.491 202.683 210.567 203.845 211.316 205.362C212.064 206.872 212.438 208.68 212.438 210.787C212.438 212.906 212.061 214.731 211.306 216.261C210.551 217.784 209.451 218.957 208.007 219.778C206.563 220.593 204.808 221 202.741 221ZM198.926 218.814H202.582C204.265 218.814 205.659 218.49 206.765 217.841C207.871 217.191 208.696 216.267 209.239 215.069C209.782 213.87 210.054 212.442 210.054 210.787C210.054 209.144 209.785 207.73 209.249 206.544C208.712 205.352 207.911 204.438 206.845 203.802C205.778 203.16 204.45 202.838 202.861 202.838H198.926V218.814ZM222.652 221.318C221.181 221.318 219.913 220.993 218.846 220.344C217.787 219.689 216.969 218.774 216.392 217.602C215.823 216.423 215.538 215.052 215.538 213.489C215.538 211.926 215.823 210.548 216.392 209.356C216.969 208.157 217.77 207.223 218.797 206.554C219.83 205.879 221.036 205.541 222.413 205.541C223.208 205.541 223.993 205.673 224.768 205.938C225.543 206.203 226.248 206.634 226.884 207.23C227.52 207.819 228.027 208.601 228.404 209.574C228.782 210.548 228.97 211.747 228.97 213.171V214.165H217.207V212.138H226.586C226.586 211.277 226.414 210.508 226.069 209.833C225.732 209.157 225.248 208.624 224.619 208.233C223.996 207.842 223.261 207.647 222.413 207.647C221.479 207.647 220.671 207.879 219.989 208.342C219.313 208.799 218.793 209.396 218.429 210.131C218.065 210.866 217.883 211.654 217.883 212.495V213.847C217.883 214.999 218.081 215.976 218.479 216.778C218.883 217.572 219.443 218.178 220.158 218.596C220.873 219.006 221.705 219.212 222.652 219.212C223.268 219.212 223.824 219.126 224.321 218.953C224.824 218.774 225.258 218.51 225.622 218.159C225.987 217.801 226.268 217.357 226.467 216.827L228.732 217.463C228.494 218.231 228.093 218.907 227.53 219.49C226.967 220.066 226.271 220.516 225.443 220.841C224.616 221.159 223.685 221.318 222.652 221.318ZM243.347 209.157L241.241 209.753C241.108 209.402 240.913 209.061 240.654 208.73C240.403 208.392 240.058 208.114 239.621 207.895C239.184 207.677 238.624 207.568 237.942 207.568C237.008 207.568 236.23 207.783 235.607 208.213C234.991 208.637 234.683 209.177 234.683 209.833C234.683 210.416 234.895 210.876 235.319 211.214C235.743 211.552 236.405 211.833 237.306 212.058L239.571 212.615C240.936 212.946 241.953 213.453 242.622 214.135C243.291 214.81 243.625 215.681 243.625 216.748C243.625 217.622 243.373 218.404 242.87 219.092C242.373 219.781 241.678 220.324 240.784 220.722C239.889 221.119 238.849 221.318 237.664 221.318C236.107 221.318 234.819 220.98 233.799 220.305C232.779 219.629 232.133 218.642 231.862 217.344L234.087 216.787C234.299 217.609 234.7 218.225 235.289 218.635C235.885 219.046 236.664 219.251 237.624 219.251C238.717 219.251 239.585 219.02 240.227 218.556C240.876 218.086 241.201 217.523 241.201 216.867C241.201 216.337 241.015 215.893 240.644 215.536C240.274 215.171 239.704 214.9 238.936 214.721L236.392 214.125C234.995 213.794 233.968 213.28 233.312 212.585C232.663 211.883 232.339 211.005 232.339 209.952C232.339 209.091 232.58 208.329 233.064 207.667C233.554 207.005 234.22 206.485 235.061 206.107C235.909 205.729 236.869 205.541 237.942 205.541C239.452 205.541 240.638 205.872 241.499 206.534C242.367 207.197 242.983 208.071 243.347 209.157ZM247.155 221V205.739H249.499V221H247.155ZM248.347 203.196C247.89 203.196 247.496 203.04 247.164 202.729C246.84 202.418 246.678 202.044 246.678 201.606C246.678 201.169 246.84 200.795 247.164 200.484C247.496 200.172 247.89 200.017 248.347 200.017C248.804 200.017 249.195 200.172 249.519 200.484C249.85 200.795 250.016 201.169 250.016 201.606C250.016 202.044 249.85 202.418 249.519 202.729C249.195 203.04 248.804 203.196 248.347 203.196ZM259.954 227.041C258.821 227.041 257.847 226.895 257.033 226.603C256.218 226.319 255.539 225.941 254.996 225.471C254.459 225.007 254.032 224.51 253.714 223.981L255.582 222.669C255.794 222.947 256.062 223.265 256.387 223.623C256.711 223.987 257.155 224.302 257.718 224.567C258.288 224.838 259.033 224.974 259.954 224.974C261.186 224.974 262.202 224.676 263.004 224.08C263.805 223.484 264.206 222.55 264.206 221.278V218.178H264.007C263.835 218.457 263.59 218.801 263.272 219.212C262.961 219.616 262.51 219.977 261.921 220.295C261.338 220.606 260.55 220.762 259.556 220.762C258.324 220.762 257.218 220.47 256.238 219.887C255.264 219.304 254.493 218.457 253.923 217.344C253.36 216.231 253.078 214.88 253.078 213.29C253.078 211.727 253.353 210.366 253.903 209.207C254.453 208.041 255.218 207.14 256.198 206.504C257.178 205.862 258.311 205.541 259.596 205.541C260.589 205.541 261.378 205.706 261.961 206.037C262.55 206.362 263 206.733 263.312 207.15C263.63 207.561 263.875 207.899 264.047 208.164H264.285V205.739H266.551V221.437C266.551 222.749 266.253 223.815 265.656 224.636C265.067 225.464 264.272 226.07 263.272 226.454C262.278 226.845 261.172 227.041 259.954 227.041ZM259.874 218.655C260.815 218.655 261.61 218.44 262.259 218.009C262.908 217.579 263.401 216.96 263.739 216.152C264.077 215.344 264.246 214.376 264.246 213.25C264.246 212.151 264.08 211.181 263.749 210.339C263.418 209.498 262.928 208.839 262.278 208.362C261.629 207.885 260.828 207.647 259.874 207.647C258.881 207.647 258.053 207.899 257.39 208.402C256.735 208.905 256.241 209.581 255.91 210.429C255.585 211.277 255.423 212.217 255.423 213.25C255.423 214.31 255.589 215.247 255.92 216.062C256.258 216.87 256.754 217.506 257.41 217.97C258.073 218.427 258.894 218.655 259.874 218.655ZM273.187 211.82V221H270.843V205.739H273.108V208.124H273.307C273.664 207.349 274.207 206.726 274.936 206.256C275.665 205.779 276.605 205.541 277.758 205.541C278.791 205.541 279.695 205.753 280.47 206.177C281.245 206.594 281.848 207.23 282.278 208.084C282.709 208.932 282.924 210.005 282.924 211.303V221H280.579V211.462C280.579 210.263 280.268 209.329 279.645 208.66C279.023 207.985 278.168 207.647 277.082 207.647C276.334 207.647 275.665 207.809 275.075 208.134C274.492 208.458 274.032 208.932 273.694 209.555C273.356 210.177 273.187 210.932 273.187 211.82ZM306.523 205.739C306.404 204.733 305.92 203.951 305.072 203.395C304.224 202.838 303.184 202.56 301.953 202.56C301.052 202.56 300.264 202.706 299.588 202.997C298.919 203.289 298.396 203.689 298.018 204.199C297.647 204.709 297.462 205.289 297.462 205.938C297.462 206.481 297.591 206.948 297.849 207.339C298.114 207.723 298.452 208.044 298.863 208.303C299.273 208.554 299.704 208.763 300.154 208.929C300.605 209.088 301.019 209.217 301.396 209.316L303.463 209.872C303.993 210.012 304.582 210.204 305.231 210.449C305.887 210.694 306.513 211.028 307.109 211.452C307.712 211.869 308.208 212.406 308.599 213.062C308.99 213.717 309.185 214.522 309.185 215.476C309.185 216.575 308.897 217.569 308.321 218.457C307.751 219.344 306.917 220.05 305.817 220.573C304.724 221.096 303.396 221.358 301.833 221.358C300.376 221.358 299.114 221.123 298.048 220.652C296.988 220.182 296.154 219.526 295.544 218.685C294.942 217.844 294.6 216.867 294.521 215.754H297.064C297.131 216.523 297.389 217.158 297.839 217.662C298.296 218.159 298.873 218.529 299.568 218.774C300.27 219.013 301.025 219.132 301.833 219.132C302.774 219.132 303.618 218.98 304.367 218.675C305.115 218.364 305.708 217.933 306.145 217.384C306.582 216.827 306.801 216.178 306.801 215.436C306.801 214.761 306.612 214.211 306.235 213.787C305.857 213.363 305.36 213.019 304.744 212.754C304.128 212.489 303.463 212.257 302.747 212.058L300.244 211.343C298.654 210.886 297.396 210.233 296.468 209.386C295.541 208.538 295.077 207.428 295.077 206.057C295.077 204.918 295.385 203.925 296.001 203.077C296.624 202.222 297.458 201.56 298.505 201.09C299.558 200.613 300.734 200.374 302.032 200.374C303.343 200.374 304.509 200.61 305.529 201.08C306.549 201.543 307.357 202.179 307.953 202.987C308.556 203.795 308.874 204.713 308.907 205.739H306.523ZM314.429 226.723C314.031 226.723 313.677 226.69 313.366 226.623C313.054 226.564 312.839 226.504 312.72 226.445L313.316 224.378C313.886 224.524 314.389 224.577 314.826 224.537C315.263 224.497 315.651 224.302 315.989 223.951C316.333 223.606 316.648 223.047 316.932 222.272L317.37 221.079L311.726 205.739H314.27L318.482 217.9H318.641L322.854 205.739H325.397L318.919 223.226C318.628 224.014 318.267 224.666 317.837 225.183C317.406 225.706 316.906 226.093 316.336 226.345C315.773 226.597 315.137 226.723 314.429 226.723ZM339.302 209.157L337.195 209.753C337.063 209.402 336.868 209.061 336.609 208.73C336.358 208.392 336.013 208.114 335.576 207.895C335.139 207.677 334.579 207.568 333.897 207.568C332.963 207.568 332.185 207.783 331.562 208.213C330.946 208.637 330.638 209.177 330.638 209.833C330.638 210.416 330.85 210.876 331.274 211.214C331.698 211.552 332.36 211.833 333.261 212.058L335.526 212.615C336.891 212.946 337.907 213.453 338.576 214.135C339.245 214.81 339.58 215.681 339.58 216.748C339.58 217.622 339.328 218.404 338.825 219.092C338.328 219.781 337.633 220.324 336.738 220.722C335.844 221.119 334.804 221.318 333.619 221.318C332.062 221.318 330.774 220.98 329.754 220.305C328.734 219.629 328.088 218.642 327.817 217.344L330.042 216.787C330.254 217.609 330.655 218.225 331.244 218.635C331.84 219.046 332.619 219.251 333.579 219.251C334.672 219.251 335.54 219.02 336.182 218.556C336.831 218.086 337.156 217.523 337.156 216.867C337.156 216.337 336.97 215.893 336.599 215.536C336.228 215.171 335.659 214.9 334.89 214.721L332.347 214.125C330.949 213.794 329.923 213.28 329.267 212.585C328.618 211.883 328.293 211.005 328.293 209.952C328.293 209.091 328.535 208.329 329.019 207.667C329.509 207.005 330.174 206.485 331.016 206.107C331.863 205.729 332.824 205.541 333.897 205.541C335.407 205.541 336.593 205.872 337.454 206.534C338.321 207.197 338.937 208.071 339.302 209.157ZM349.746 205.739V207.726H341.838V205.739H349.746ZM344.143 202.083H346.487V216.628C346.487 217.291 346.583 217.788 346.775 218.119C346.974 218.443 347.226 218.662 347.531 218.774C347.842 218.88 348.17 218.933 348.514 218.933C348.772 218.933 348.984 218.92 349.15 218.894C349.316 218.861 349.448 218.834 349.547 218.814L350.024 220.921C349.865 220.98 349.643 221.04 349.359 221.099C349.074 221.166 348.713 221.199 348.276 221.199C347.613 221.199 346.964 221.056 346.328 220.771C345.699 220.487 345.176 220.053 344.759 219.47C344.348 218.887 344.143 218.152 344.143 217.264V202.083ZM359.508 221.318C358.037 221.318 356.769 220.993 355.702 220.344C354.643 219.689 353.825 218.774 353.248 217.602C352.679 216.423 352.394 215.052 352.394 213.489C352.394 211.926 352.679 210.548 353.248 209.356C353.825 208.157 354.626 207.223 355.653 206.554C356.686 205.879 357.891 205.541 359.269 205.541C360.064 205.541 360.849 205.673 361.624 205.938C362.399 206.203 363.104 206.634 363.74 207.23C364.376 207.819 364.883 208.601 365.26 209.574C365.638 210.548 365.826 211.747 365.826 213.171V214.165H354.063V212.138H363.442C363.442 211.277 363.27 210.508 362.925 209.833C362.587 209.157 362.104 208.624 361.475 208.233C360.852 207.842 360.117 207.647 359.269 207.647C358.335 207.647 357.527 207.879 356.845 208.342C356.169 208.799 355.649 209.396 355.285 210.131C354.921 210.866 354.739 211.654 354.739 212.495V213.847C354.739 214.999 354.937 215.976 355.335 216.778C355.739 217.572 356.298 218.178 357.014 218.596C357.729 219.006 358.56 219.212 359.508 219.212C360.124 219.212 360.68 219.126 361.177 218.953C361.68 218.774 362.114 218.51 362.478 218.159C362.842 217.801 363.124 217.357 363.323 216.827L365.588 217.463C365.349 218.231 364.949 218.907 364.386 219.49C363.823 220.066 363.127 220.516 362.299 220.841C361.471 221.159 360.541 221.318 359.508 221.318ZM369.393 221V205.739H371.658V208.124H371.857C372.175 207.309 372.688 206.677 373.397 206.226C374.106 205.769 374.957 205.541 375.95 205.541C376.957 205.541 377.795 205.769 378.464 206.226C379.14 206.677 379.666 207.309 380.044 208.124H380.203C380.593 207.336 381.18 206.71 381.961 206.246C382.743 205.776 383.68 205.541 384.773 205.541C386.137 205.541 387.253 205.968 388.121 206.822C388.989 207.67 389.423 208.992 389.423 210.787V221H387.078V210.787C387.078 209.661 386.77 208.856 386.154 208.372C385.538 207.889 384.813 207.647 383.978 207.647C382.905 207.647 382.074 207.972 381.484 208.621C380.895 209.263 380.6 210.078 380.6 211.065V221H378.216V210.548C378.216 209.68 377.934 208.982 377.371 208.452C376.808 207.915 376.083 207.647 375.195 207.647C374.586 207.647 374.016 207.809 373.486 208.134C372.963 208.458 372.539 208.909 372.215 209.485C371.897 210.055 371.738 210.714 371.738 211.462V221H369.393ZM407.977 221.318C406.506 221.318 405.238 220.993 404.172 220.344C403.112 219.689 402.294 218.774 401.718 217.602C401.148 216.423 400.863 215.052 400.863 213.489C400.863 211.926 401.148 210.548 401.718 209.356C402.294 208.157 403.095 207.223 404.122 206.554C405.155 205.879 406.361 205.541 407.738 205.541C408.533 205.541 409.318 205.673 410.093 205.938C410.868 206.203 411.573 206.634 412.209 207.23C412.845 207.819 413.352 208.601 413.729 209.574C414.107 210.548 414.296 211.747 414.296 213.171V214.165H402.532V212.138H411.911C411.911 211.277 411.739 210.508 411.395 209.833C411.057 209.157 410.573 208.624 409.944 208.233C409.321 207.842 408.586 207.647 407.738 207.647C406.804 207.647 405.996 207.879 405.314 208.342C404.639 208.799 404.119 209.396 403.754 210.131C403.39 210.866 403.208 211.654 403.208 212.495V213.847C403.208 214.999 403.407 215.976 403.804 216.778C404.208 217.572 404.768 218.178 405.483 218.596C406.198 219.006 407.03 219.212 407.977 219.212C408.593 219.212 409.149 219.126 409.646 218.953C410.149 218.774 410.583 218.51 410.947 218.159C411.312 217.801 411.593 217.357 411.792 216.827L414.057 217.463C413.819 218.231 413.418 218.907 412.855 219.49C412.292 220.066 411.597 220.516 410.769 220.841C409.941 221.159 409.01 221.318 407.977 221.318ZM428.672 209.157L426.566 209.753C426.433 209.402 426.238 209.061 425.979 208.73C425.728 208.392 425.383 208.114 424.946 207.895C424.509 207.677 423.949 207.568 423.267 207.568C422.333 207.568 421.555 207.783 420.932 208.213C420.316 208.637 420.008 209.177 420.008 209.833C420.008 210.416 420.22 210.876 420.644 211.214C421.068 211.552 421.73 211.833 422.631 212.058L424.897 212.615C426.261 212.946 427.278 213.453 427.947 214.135C428.616 214.81 428.95 215.681 428.95 216.748C428.95 217.622 428.698 218.404 428.195 219.092C427.698 219.781 427.003 220.324 426.109 220.722C425.214 221.119 424.175 221.318 422.989 221.318C421.432 221.318 420.144 220.98 419.124 220.305C418.104 219.629 417.458 218.642 417.187 217.344L419.412 216.787C419.624 217.609 420.025 218.225 420.614 218.635C421.211 219.046 421.989 219.251 422.949 219.251C424.042 219.251 424.91 219.02 425.552 218.556C426.201 218.086 426.526 217.523 426.526 216.867C426.526 216.337 426.34 215.893 425.97 215.536C425.599 215.171 425.029 214.9 424.261 214.721L421.717 214.125C420.32 213.794 419.293 213.28 418.637 212.585C417.988 211.883 417.664 211.005 417.664 209.952C417.664 209.091 417.905 208.329 418.389 207.667C418.879 207.005 419.545 206.485 420.386 206.107C421.234 205.729 422.194 205.541 423.267 205.541C424.777 205.541 425.963 205.872 426.824 206.534C427.692 207.197 428.308 208.071 428.672 209.157ZM438.679 221.318C437.249 221.318 436.017 220.98 434.983 220.305C433.95 219.629 433.155 218.698 432.599 217.513C432.042 216.327 431.764 214.973 431.764 213.449C431.764 211.899 432.049 210.532 432.619 209.346C433.195 208.154 433.996 207.223 435.023 206.554C436.056 205.879 437.262 205.541 438.639 205.541C439.712 205.541 440.68 205.739 441.541 206.137C442.402 206.534 443.107 207.091 443.657 207.806C444.207 208.521 444.548 209.356 444.68 210.31H442.335C442.157 209.614 441.759 208.998 441.143 208.462C440.534 207.919 439.712 207.647 438.679 207.647C437.765 207.647 436.964 207.885 436.275 208.362C435.593 208.833 435.059 209.498 434.675 210.359C434.298 211.214 434.109 212.217 434.109 213.37C434.109 214.549 434.294 215.575 434.665 216.45C435.043 217.324 435.573 218.003 436.255 218.486C436.944 218.97 437.752 219.212 438.679 219.212C439.289 219.212 439.842 219.106 440.338 218.894C440.835 218.682 441.256 218.377 441.6 217.98C441.945 217.582 442.19 217.105 442.335 216.549H444.68C444.548 217.45 444.22 218.261 443.697 218.983C443.18 219.698 442.494 220.268 441.64 220.692C440.792 221.109 439.805 221.318 438.679 221.318ZM452.599 221.358C451.632 221.358 450.754 221.176 449.966 220.811C449.178 220.44 448.552 219.907 448.088 219.212C447.624 218.51 447.392 217.662 447.392 216.668C447.392 215.794 447.565 215.085 447.909 214.542C448.254 213.992 448.714 213.562 449.29 213.25C449.866 212.939 450.502 212.707 451.198 212.555C451.9 212.396 452.605 212.27 453.314 212.177C454.241 212.058 454.993 211.969 455.569 211.909C456.152 211.843 456.576 211.734 456.841 211.581C457.112 211.429 457.248 211.164 457.248 210.787V210.707C457.248 209.727 456.98 208.965 456.444 208.422C455.914 207.879 455.109 207.607 454.029 207.607C452.91 207.607 452.032 207.852 451.396 208.342C450.761 208.833 450.313 209.356 450.055 209.912L447.83 209.117C448.227 208.19 448.757 207.468 449.419 206.952C450.088 206.428 450.817 206.064 451.605 205.859C452.4 205.647 453.181 205.541 453.95 205.541C454.44 205.541 455.003 205.6 455.639 205.72C456.281 205.832 456.901 206.067 457.497 206.425C458.099 206.783 458.599 207.322 458.997 208.044C459.394 208.766 459.593 209.733 459.593 210.946V221H457.248V218.933H457.129C456.97 219.265 456.705 219.619 456.334 219.997C455.963 220.374 455.47 220.695 454.854 220.96C454.238 221.225 453.486 221.358 452.599 221.358ZM452.956 219.251C453.884 219.251 454.665 219.069 455.301 218.705C455.943 218.341 456.427 217.87 456.751 217.294C457.083 216.718 457.248 216.112 457.248 215.476V213.33C457.149 213.449 456.93 213.558 456.593 213.658C456.261 213.751 455.877 213.833 455.44 213.906C455.01 213.972 454.589 214.032 454.178 214.085C453.774 214.131 453.446 214.171 453.195 214.204C452.585 214.284 452.016 214.413 451.486 214.592C450.963 214.764 450.539 215.026 450.214 215.377C449.896 215.721 449.737 216.191 449.737 216.787C449.737 217.602 450.039 218.218 450.641 218.635C451.251 219.046 452.022 219.251 452.956 219.251ZM466.217 200.653V221H463.873V200.653H466.217ZM475.003 221.358C474.036 221.358 473.158 221.176 472.37 220.811C471.582 220.44 470.956 219.907 470.492 219.212C470.028 218.51 469.796 217.662 469.796 216.668C469.796 215.794 469.969 215.085 470.313 214.542C470.658 213.992 471.118 213.562 471.694 213.25C472.27 212.939 472.906 212.707 473.602 212.555C474.304 212.396 475.009 212.27 475.718 212.177C476.645 212.058 477.397 211.969 477.973 211.909C478.556 211.843 478.98 211.734 479.245 211.581C479.516 211.429 479.652 211.164 479.652 210.787V210.707C479.652 209.727 479.384 208.965 478.848 208.422C478.318 207.879 477.513 207.607 476.433 207.607C475.314 207.607 474.436 207.852 473.8 208.342C473.165 208.833 472.717 209.356 472.459 209.912L470.234 209.117C470.631 208.19 471.161 207.468 471.823 206.952C472.492 206.428 473.221 206.064 474.009 205.859C474.804 205.647 475.585 205.541 476.354 205.541C476.844 205.541 477.407 205.6 478.043 205.72C478.685 205.832 479.305 206.067 479.901 206.425C480.503 206.783 481.003 207.322 481.401 208.044C481.798 208.766 481.997 209.733 481.997 210.946V221H479.652V218.933H479.533C479.374 219.265 479.109 219.619 478.738 219.997C478.367 220.374 477.874 220.695 477.258 220.96C476.642 221.225 475.89 221.358 475.003 221.358ZM475.36 219.251C476.288 219.251 477.069 219.069 477.705 218.705C478.347 218.341 478.831 217.87 479.156 217.294C479.487 216.718 479.652 216.112 479.652 215.476V213.33C479.553 213.449 479.334 213.558 478.997 213.658C478.665 213.751 478.281 213.833 477.844 213.906C477.414 213.972 476.993 214.032 476.582 214.085C476.178 214.131 475.85 214.171 475.599 214.204C474.989 214.284 474.42 214.413 473.89 214.592C473.367 214.764 472.943 215.026 472.618 215.377C472.3 215.721 472.141 216.191 472.141 216.787C472.141 217.602 472.443 218.218 473.045 218.635C473.655 219.046 474.426 219.251 475.36 219.251ZM475.44 203.673L477.864 199.063H480.606L477.506 203.673H475.44ZM498.209 205.739L492.566 221H490.181L484.538 205.739H487.081L491.294 217.9H491.453L495.665 205.739H498.209ZM507.156 221.318C505.685 221.318 504.417 220.993 503.35 220.344C502.291 219.689 501.473 218.774 500.896 217.602C500.327 216.423 500.042 215.052 500.042 213.489C500.042 211.926 500.327 210.548 500.896 209.356C501.473 208.157 502.274 207.223 503.301 206.554C504.334 205.879 505.539 205.541 506.917 205.541C507.712 205.541 508.497 205.673 509.272 205.938C510.047 206.203 510.752 206.634 511.388 207.23C512.024 207.819 512.531 208.601 512.908 209.574C513.286 210.548 513.474 211.747 513.474 213.171V214.165H501.711V212.138H511.09C511.09 211.277 510.918 210.508 510.573 209.833C510.236 209.157 509.752 208.624 509.123 208.233C508.5 207.842 507.765 207.647 506.917 207.647C505.983 207.647 505.175 207.879 504.493 208.342C503.817 208.799 503.297 209.396 502.933 210.131C502.569 210.866 502.387 211.654 502.387 212.495V213.847C502.387 214.999 502.585 215.976 502.983 216.778C503.387 217.572 503.947 218.178 504.662 218.596C505.377 219.006 506.208 219.212 507.156 219.212C507.772 219.212 508.328 219.126 508.825 218.953C509.328 218.774 509.762 218.51 510.126 218.159C510.491 217.801 510.772 217.357 510.971 216.827L513.236 217.463C512.998 218.231 512.597 218.907 512.034 219.49C511.471 220.066 510.775 220.516 509.947 220.841C509.119 221.159 508.189 221.318 507.156 221.318ZM519.386 200.653V221H517.041V200.653H519.386ZM537.749 221.318C536.318 221.318 535.086 220.98 534.053 220.305C533.02 219.629 532.225 218.698 531.668 217.513C531.112 216.327 530.834 214.973 530.834 213.449C530.834 211.899 531.119 210.532 531.688 209.346C532.264 208.154 533.066 207.223 534.093 206.554C535.126 205.879 536.331 205.541 537.709 205.541C538.782 205.541 539.749 205.739 540.61 206.137C541.471 206.534 542.177 207.091 542.726 207.806C543.276 208.521 543.617 209.356 543.75 210.31H541.405C541.226 209.614 540.829 208.998 540.213 208.462C539.603 207.919 538.782 207.647 537.749 207.647C536.835 207.647 536.033 207.885 535.344 208.362C534.662 208.833 534.129 209.498 533.745 210.359C533.367 211.214 533.179 212.217 533.179 213.37C533.179 214.549 533.364 215.575 533.735 216.45C534.112 217.324 534.642 218.003 535.325 218.486C536.013 218.97 536.821 219.212 537.749 219.212C538.358 219.212 538.911 219.106 539.408 218.894C539.905 218.682 540.325 218.377 540.67 217.98C541.014 217.582 541.259 217.105 541.405 216.549H543.75C543.617 217.45 543.289 218.261 542.766 218.983C542.249 219.698 541.564 220.268 540.709 220.692C539.862 221.109 538.875 221.318 537.749 221.318ZM553.377 221.318C551.999 221.318 550.79 220.99 549.751 220.334C548.717 219.679 547.909 218.761 547.326 217.582C546.75 216.403 546.462 215.026 546.462 213.449C546.462 211.86 546.75 210.472 547.326 209.286C547.909 208.101 548.717 207.18 549.751 206.524C550.79 205.869 551.999 205.541 553.377 205.541C554.755 205.541 555.96 205.869 556.993 206.524C558.033 207.18 558.841 208.101 559.418 209.286C560 210.472 560.292 211.86 560.292 213.449C560.292 215.026 560 216.403 559.418 217.582C558.841 218.761 558.033 219.679 556.993 220.334C555.96 220.99 554.755 221.318 553.377 221.318ZM553.377 219.212C554.423 219.212 555.285 218.943 555.96 218.407C556.636 217.87 557.136 217.165 557.46 216.291C557.785 215.416 557.947 214.469 557.947 213.449C557.947 212.429 557.785 211.479 557.46 210.598C557.136 209.717 556.636 209.005 555.96 208.462C555.285 207.919 554.423 207.647 553.377 207.647C552.33 207.647 551.469 207.919 550.794 208.462C550.118 209.005 549.618 209.717 549.294 210.598C548.969 211.479 548.807 212.429 548.807 213.449C548.807 214.469 548.969 215.416 549.294 216.291C549.618 217.165 550.118 217.87 550.794 218.407C551.469 218.943 552.33 219.212 553.377 219.212ZM563.871 221V205.739H566.136V208.124H566.335C566.653 207.309 567.166 206.677 567.875 206.226C568.584 205.769 569.435 205.541 570.428 205.541C571.435 205.541 572.273 205.769 572.942 206.226C573.618 206.677 574.144 207.309 574.522 208.124H574.681C575.071 207.336 575.658 206.71 576.439 206.246C577.221 205.776 578.158 205.541 579.251 205.541C580.615 205.541 581.731 205.968 582.599 206.822C583.467 207.67 583.901 208.992 583.901 210.787V221H581.556V210.787C581.556 209.661 581.248 208.856 580.632 208.372C580.016 207.889 579.291 207.647 578.456 207.647C577.383 207.647 576.552 207.972 575.962 208.621C575.373 209.263 575.078 210.078 575.078 211.065V221H572.694V210.548C572.694 209.68 572.412 208.982 571.849 208.452C571.286 207.915 570.561 207.647 569.673 207.647C569.064 207.647 568.494 207.809 567.964 208.134C567.441 208.458 567.017 208.909 566.693 209.485C566.375 210.055 566.216 210.714 566.216 211.462V221H563.871ZM607.502 205.739C607.383 204.733 606.899 203.951 606.051 203.395C605.203 202.838 604.164 202.56 602.932 202.56C602.031 202.56 601.243 202.706 600.567 202.997C599.898 203.289 599.375 203.689 598.997 204.199C598.626 204.709 598.441 205.289 598.441 205.938C598.441 206.481 598.57 206.948 598.828 207.339C599.093 207.723 599.431 208.044 599.842 208.303C600.252 208.554 600.683 208.763 601.133 208.929C601.584 209.088 601.998 209.217 602.375 209.316L604.442 209.872C604.972 210.012 605.561 210.204 606.21 210.449C606.866 210.694 607.492 211.028 608.088 211.452C608.691 211.869 609.188 212.406 609.578 213.062C609.969 213.717 610.164 214.522 610.164 215.476C610.164 216.575 609.876 217.569 609.3 218.457C608.73 219.344 607.896 220.05 606.796 220.573C605.704 221.096 604.376 221.358 602.812 221.358C601.355 221.358 600.093 221.123 599.027 220.652C597.967 220.182 597.133 219.526 596.523 218.685C595.921 217.844 595.579 216.867 595.5 215.754H598.043C598.11 216.523 598.368 217.158 598.818 217.662C599.275 218.159 599.852 218.529 600.547 218.774C601.249 219.013 602.004 219.132 602.812 219.132C603.753 219.132 604.597 218.98 605.346 218.675C606.094 218.364 606.687 217.933 607.124 217.384C607.561 216.827 607.78 216.178 607.78 215.436C607.78 214.761 607.591 214.211 607.214 213.787C606.836 213.363 606.339 213.019 605.723 212.754C605.107 212.489 604.442 212.257 603.726 212.058L601.223 211.343C599.633 210.886 598.375 210.233 597.447 209.386C596.52 208.538 596.056 207.428 596.056 206.057C596.056 204.918 596.364 203.925 596.98 203.077C597.603 202.222 598.438 201.56 599.484 201.09C600.537 200.613 601.713 200.374 603.011 200.374C604.323 200.374 605.488 200.61 606.508 201.08C607.528 201.543 608.336 202.179 608.932 202.987C609.535 203.795 609.853 204.713 609.886 205.739H607.502ZM620.534 205.739V207.726H612.626V205.739H620.534ZM614.931 202.083H617.276V216.628C617.276 217.291 617.372 217.788 617.564 218.119C617.762 218.443 618.014 218.662 618.319 218.774C618.63 218.88 618.958 218.933 619.302 218.933C619.561 218.933 619.773 218.92 619.938 218.894C620.104 218.861 620.236 218.834 620.336 218.814L620.813 220.921C620.654 220.98 620.432 221.04 620.147 221.099C619.862 221.166 619.501 221.199 619.064 221.199C618.402 221.199 617.753 221.056 617.117 220.771C616.487 220.487 615.964 220.053 615.547 219.47C615.136 218.887 614.931 218.152 614.931 217.264V202.083ZM630.097 221.318C628.719 221.318 627.511 220.99 626.471 220.334C625.437 219.679 624.629 218.761 624.047 217.582C623.47 216.403 623.182 215.026 623.182 213.449C623.182 211.86 623.47 210.472 624.047 209.286C624.629 208.101 625.437 207.18 626.471 206.524C627.511 205.869 628.719 205.541 630.097 205.541C631.475 205.541 632.68 205.869 633.714 206.524C634.753 207.18 635.561 208.101 636.138 209.286C636.721 210.472 637.012 211.86 637.012 213.449C637.012 215.026 636.721 216.403 636.138 217.582C635.561 218.761 634.753 219.679 633.714 220.334C632.68 220.99 631.475 221.318 630.097 221.318ZM630.097 219.212C631.144 219.212 632.005 218.943 632.68 218.407C633.356 217.87 633.856 217.165 634.18 216.291C634.505 215.416 634.667 214.469 634.667 213.449C634.667 212.429 634.505 211.479 634.18 210.598C633.856 209.717 633.356 209.005 632.68 208.462C632.005 207.919 631.144 207.647 630.097 207.647C629.051 207.647 628.19 207.919 627.514 208.462C626.838 209.005 626.338 209.717 626.014 210.598C625.689 211.479 625.527 212.429 625.527 213.449C625.527 214.469 625.689 215.416 626.014 216.291C626.338 217.165 626.838 217.87 627.514 218.407C628.19 218.943 629.051 219.212 630.097 219.212ZM640.591 221V205.739H642.857V208.044H643.015C643.294 207.289 643.797 206.677 644.526 206.206C645.254 205.736 646.076 205.501 646.99 205.501C647.162 205.501 647.377 205.504 647.635 205.511C647.894 205.518 648.089 205.527 648.222 205.541V207.925C648.142 207.905 647.96 207.876 647.675 207.836C647.397 207.789 647.102 207.766 646.791 207.766C646.049 207.766 645.387 207.922 644.804 208.233C644.228 208.538 643.771 208.962 643.433 209.505C643.102 210.041 642.936 210.654 642.936 211.343V221H640.591ZM652.976 226.723C652.578 226.723 652.224 226.69 651.913 226.623C651.601 226.564 651.386 226.504 651.267 226.445L651.863 224.378C652.432 224.524 652.936 224.577 653.373 224.537C653.81 224.497 654.198 224.302 654.535 223.951C654.88 223.606 655.194 223.047 655.479 222.272L655.916 221.079L650.273 205.739H652.817L657.029 217.9H657.188L661.401 205.739H663.944L657.466 223.226C657.175 224.014 656.814 224.666 656.383 225.183C655.953 225.706 655.453 226.093 654.883 226.345C654.32 226.597 653.684 226.723 652.976 226.723ZM667.357 221V200.653H669.702V208.164H669.9C670.073 207.899 670.311 207.561 670.616 207.15C670.927 206.733 671.371 206.362 671.947 206.037C672.53 205.706 673.318 205.541 674.312 205.541C675.597 205.541 676.729 205.862 677.709 206.504C678.69 207.147 679.455 208.058 680.004 209.237C680.554 210.416 680.829 211.807 680.829 213.409C680.829 215.026 680.554 216.426 680.004 217.612C679.455 218.791 678.693 219.705 677.719 220.354C676.746 220.997 675.623 221.318 674.351 221.318C673.371 221.318 672.586 221.156 671.997 220.831C671.407 220.5 670.953 220.126 670.636 219.708C670.318 219.285 670.073 218.933 669.9 218.655H669.622V221H667.357ZM669.662 213.37C669.662 214.522 669.831 215.539 670.169 216.42C670.506 217.294 671 217.98 671.649 218.476C672.298 218.967 673.093 219.212 674.033 219.212C675.014 219.212 675.832 218.953 676.487 218.437C677.15 217.913 677.647 217.211 677.978 216.33C678.315 215.443 678.484 214.456 678.484 213.37C678.484 212.297 678.319 211.33 677.988 210.469C677.663 209.601 677.17 208.915 676.507 208.412C675.852 207.902 675.027 207.647 674.033 207.647C673.08 207.647 672.278 207.889 671.629 208.372C670.98 208.849 670.49 209.518 670.159 210.379C669.827 211.234 669.662 212.23 669.662 213.37ZM690.615 221.318C689.238 221.318 688.029 220.99 686.989 220.334C685.956 219.679 685.148 218.761 684.565 217.582C683.989 216.403 683.7 215.026 683.7 213.449C683.7 211.86 683.989 210.472 684.565 209.286C685.148 208.101 685.956 207.18 686.989 206.524C688.029 205.869 689.238 205.541 690.615 205.541C691.993 205.541 693.199 205.869 694.232 206.524C695.272 207.18 696.08 208.101 696.656 209.286C697.239 210.472 697.53 211.86 697.53 213.449C697.53 215.026 697.239 216.403 696.656 217.582C696.08 218.761 695.272 219.679 694.232 220.334C693.199 220.99 691.993 221.318 690.615 221.318ZM690.615 219.212C691.662 219.212 692.523 218.943 693.199 218.407C693.874 217.87 694.374 217.165 694.699 216.291C695.023 215.416 695.186 214.469 695.186 213.449C695.186 212.429 695.023 211.479 694.699 210.598C694.374 209.717 693.874 209.005 693.199 208.462C692.523 207.919 691.662 207.647 690.615 207.647C689.569 207.647 688.708 207.919 688.032 208.462C687.357 209.005 686.856 209.717 686.532 210.598C686.207 211.479 686.045 212.429 686.045 213.449C686.045 214.469 686.207 215.416 686.532 216.291C686.856 217.165 687.357 217.87 688.032 218.407C688.708 218.943 689.569 219.212 690.615 219.212ZM707.309 221.318C705.931 221.318 704.723 220.99 703.683 220.334C702.649 219.679 701.841 218.761 701.258 217.582C700.682 216.403 700.394 215.026 700.394 213.449C700.394 211.86 700.682 210.472 701.258 209.286C701.841 208.101 702.649 207.18 703.683 206.524C704.723 205.869 705.931 205.541 707.309 205.541C708.687 205.541 709.892 205.869 710.926 206.524C711.965 207.18 712.773 208.101 713.35 209.286C713.933 210.472 714.224 211.86 714.224 213.449C714.224 215.026 713.933 216.403 713.35 217.582C712.773 218.761 711.965 219.679 710.926 220.334C709.892 220.99 708.687 221.318 707.309 221.318ZM707.309 219.212C708.356 219.212 709.217 218.943 709.892 218.407C710.568 217.87 711.068 217.165 711.392 216.291C711.717 215.416 711.879 214.469 711.879 213.449C711.879 212.429 711.717 211.479 711.392 210.598C711.068 209.717 710.568 209.005 709.892 208.462C709.217 207.919 708.356 207.647 707.309 207.647C706.263 207.647 705.401 207.919 704.726 208.462C704.05 209.005 703.55 209.717 703.226 210.598C702.901 211.479 702.739 212.429 702.739 213.449C702.739 214.469 702.901 215.416 703.226 216.291C703.55 217.165 704.05 217.87 704.726 218.407C705.401 218.943 706.263 219.212 707.309 219.212ZM719.989 215.436L719.949 212.535H720.426L727.103 205.739H730.004L722.89 212.933H722.691L719.989 215.436ZM717.803 221V200.653H720.148V221H717.803ZM727.5 221L721.539 213.449L723.208 211.82L730.481 221H727.5Z" fill="#989898"/>
<path d="M93.0988 73.2317H85.1719V51.786H93.0883C95.2734 51.786 97.1548 52.2153 98.7325 53.074C100.317 53.9257 101.539 55.1544 102.398 56.76C103.256 58.3586 103.686 60.2714 103.686 62.4984C103.686 64.7323 103.256 66.6521 102.398 68.2577C101.546 69.8633 100.328 71.0955 98.7429 71.9542C97.1583 72.8058 95.2769 73.2317 93.0988 73.2317ZM90.3553 68.8127H92.8998C94.1006 68.8127 95.1163 68.6103 95.947 68.2054C96.7848 67.7935 97.4166 67.1268 97.8424 66.2053C98.2752 65.2768 98.4916 64.0412 98.4916 62.4984C98.4916 60.9556 98.2752 59.7269 97.8424 58.8124C97.4096 57.8909 96.7708 57.2277 95.9261 56.8228C95.0884 56.4109 94.0552 56.205 92.8265 56.205H90.3553V68.8127ZM114.23 73.5354C112.548 73.5354 111.096 73.2038 109.874 72.5406C108.659 71.8704 107.724 70.9175 107.068 69.6818C106.419 68.4392 106.094 66.9627 106.094 65.2524C106.094 63.5909 106.422 62.1389 107.078 60.8962C107.734 59.6466 108.659 58.6763 109.853 57.9852C111.047 57.2871 112.454 56.938 114.073 56.938C115.218 56.938 116.265 57.116 117.215 57.472C118.164 57.8281 118.984 58.3551 119.676 59.0532C120.367 59.7514 120.904 60.6135 121.288 61.6397C121.672 62.6589 121.864 63.8283 121.864 65.1477V66.4252H107.885V63.4513H117.1C117.093 62.9068 116.963 62.4216 116.712 61.9957C116.461 61.5699 116.115 61.2383 115.675 61.001C115.243 60.7566 114.743 60.6344 114.178 60.6344C113.606 60.6344 113.092 60.7636 112.639 61.0219C112.185 61.2732 111.825 61.6188 111.56 62.0586C111.295 62.4914 111.155 62.9836 111.141 63.5351V66.5613C111.141 67.2175 111.27 67.7935 111.529 68.2891C111.787 68.7778 112.153 69.1583 112.628 69.4305C113.103 69.7028 113.668 69.8389 114.325 69.8389C114.778 69.8389 115.19 69.7761 115.56 69.6504C115.93 69.5248 116.248 69.3398 116.513 69.0954C116.778 68.8511 116.977 68.5509 117.11 68.1949L121.812 68.331C121.616 69.3852 121.187 70.3032 120.524 71.085C119.867 71.8599 119.005 72.4638 117.937 72.8966C116.869 73.3224 115.634 73.5354 114.23 73.5354ZM138.522 62.0586L133.82 62.1842C133.771 61.8491 133.638 61.5525 133.422 61.2942C133.206 61.0289 132.923 60.8229 132.574 60.6763C132.232 60.5228 131.834 60.446 131.38 60.446C130.787 60.446 130.281 60.5646 129.862 60.802C129.45 61.0393 129.247 61.3605 129.254 61.7654C129.247 62.0795 129.373 62.3518 129.631 62.5822C129.897 62.8125 130.368 62.9975 131.045 63.1371L134.145 63.7235C135.75 64.0307 136.944 64.5403 137.726 65.2524C138.515 65.9645 138.913 66.9069 138.92 68.0797C138.913 69.1827 138.584 70.1426 137.935 70.9594C137.293 71.7761 136.413 72.4114 135.296 72.8652C134.179 73.312 132.902 73.5354 131.464 73.5354C129.167 73.5354 127.356 73.0641 126.029 72.1217C124.71 71.1723 123.956 69.9017 123.767 68.3101L128.825 68.1844C128.937 68.7708 129.226 69.2176 129.694 69.5248C130.162 69.8319 130.759 69.9855 131.485 69.9855C132.141 69.9855 132.675 69.8633 133.087 69.619C133.499 69.3747 133.708 69.0501 133.715 68.6452C133.708 68.2822 133.548 67.9924 133.234 67.776C132.919 67.5526 132.427 67.3781 131.757 67.2525L128.951 66.7184C127.338 66.4252 126.137 65.8842 125.348 65.0953C124.56 64.2995 124.169 63.2872 124.176 62.0586C124.169 60.9835 124.455 60.0655 125.034 59.3046C125.614 58.5367 126.437 57.9502 127.506 57.5453C128.574 57.1405 129.834 56.938 131.286 56.938C133.464 56.938 135.181 57.3953 136.438 58.3098C137.694 59.2173 138.389 60.4669 138.522 62.0586ZM141.441 73.2317V57.1474H146.561V73.2317H141.441ZM144.006 55.273C143.287 55.273 142.669 55.0357 142.153 54.561C141.636 54.0793 141.378 53.4999 141.378 52.8227C141.378 52.1525 141.636 51.5801 142.153 51.1054C142.669 50.6237 143.287 50.3828 144.006 50.3828C144.732 50.3828 145.35 50.6237 145.86 51.1054C146.376 51.5801 146.634 52.1525 146.634 52.8227C146.634 53.4999 146.376 54.0793 145.86 54.561C145.35 55.0357 144.732 55.273 144.006 55.273ZM157.318 79.5984C155.789 79.5984 154.48 79.3855 153.391 78.9596C152.302 78.5338 151.447 77.9509 150.826 77.2109C150.204 76.4709 149.831 75.6332 149.705 74.6977L154.554 74.4254C154.644 74.7536 154.812 75.0398 155.056 75.2841C155.307 75.5284 155.632 75.7169 156.03 75.8496C156.435 75.9822 156.91 76.0485 157.454 76.0485C158.313 76.0485 159.021 75.8391 159.58 75.4202C160.145 75.0084 160.428 74.2858 160.428 73.2526V70.4253H160.25C160.048 70.921 159.74 71.3643 159.329 71.7552C158.917 72.1461 158.404 72.4533 157.789 72.6767C157.182 72.9001 156.484 73.0118 155.695 73.0118C154.522 73.0118 153.447 72.7395 152.47 72.195C151.499 71.6435 150.721 70.7918 150.135 69.64C149.555 68.4811 149.265 66.9907 149.265 65.1686C149.265 63.2907 149.566 61.7444 150.166 60.5297C150.766 59.3081 151.552 58.404 152.522 57.8176C153.499 57.2312 154.55 56.938 155.674 56.938C156.519 56.938 157.241 57.0846 157.842 57.3778C158.449 57.664 158.948 58.034 159.339 58.4878C159.73 58.9416 160.027 59.4128 160.229 59.9014H160.376V57.1474H165.475V73.2945C165.475 74.6558 165.133 75.8042 164.449 76.7396C163.765 77.6751 162.809 78.3837 161.58 78.8654C160.351 79.354 158.931 79.5984 157.318 79.5984ZM157.475 69.2839C158.096 69.2839 158.627 69.1199 159.067 68.7918C159.507 68.4637 159.845 67.9924 160.082 67.3781C160.32 66.7638 160.439 66.0273 160.439 65.1686C160.439 64.296 160.32 63.5455 160.082 62.9172C159.852 62.282 159.514 61.7933 159.067 61.4512C158.627 61.1092 158.096 60.9381 157.475 60.9381C156.84 60.9381 156.302 61.1126 155.862 61.4617C155.423 61.8107 155.088 62.3029 154.857 62.9382C154.634 63.5665 154.522 64.31 154.522 65.1686C154.522 66.0273 154.637 66.7638 154.868 67.3781C155.098 67.9924 155.43 68.4637 155.862 68.7918C156.302 69.1199 156.84 69.2839 157.475 69.2839ZM173.86 64.0586V73.2317H168.74V57.1474H173.609V60.1004H173.787C174.143 59.1161 174.75 58.3447 175.609 57.7862C176.468 57.2207 177.491 56.938 178.677 56.938C179.808 56.938 180.789 57.1928 181.62 57.7024C182.458 58.2051 183.107 58.9101 183.568 59.8177C184.035 60.7182 184.266 61.7724 184.259 62.9801V73.2317H179.138V63.9853C179.145 63.0918 178.918 62.3937 178.457 61.891C178.004 61.3884 177.372 61.1371 176.562 61.1371C176.025 61.1371 175.55 61.2558 175.138 61.4931C174.733 61.7235 174.419 62.0551 174.195 62.4879C173.979 62.9207 173.867 63.4443 173.86 64.0586ZM205.356 58.2155C205.286 57.4476 204.976 56.8507 204.424 56.4249C203.88 55.9921 203.101 55.7757 202.089 55.7757C201.419 55.7757 200.86 55.8629 200.414 56.0375C199.967 56.212 199.632 56.4528 199.408 56.76C199.185 57.0602 199.07 57.4057 199.063 57.7967C199.049 58.1178 199.112 58.4005 199.251 58.6449C199.398 58.8892 199.607 59.1056 199.88 59.2941C200.159 59.4756 200.494 59.6362 200.885 59.7758C201.276 59.9154 201.716 60.0376 202.204 60.1423L204.047 60.5611C205.108 60.7915 206.044 61.0987 206.854 61.4826C207.67 61.8666 208.354 62.3239 208.906 62.8544C209.464 63.385 209.887 63.9958 210.173 64.6869C210.459 65.378 210.606 66.1529 210.613 67.0116C210.606 68.3659 210.264 69.5283 209.587 70.4986C208.909 71.469 207.936 72.2125 206.665 72.7291C205.401 73.2457 203.876 73.5039 202.089 73.5039C200.295 73.5039 198.731 73.2352 197.398 72.6976C196.064 72.1601 195.028 71.3433 194.288 70.2473C193.548 69.1513 193.167 67.7656 193.146 66.0901H198.11C198.152 66.7812 198.337 67.3572 198.665 67.8179C198.993 68.2787 199.443 68.6277 200.016 68.8651C200.595 69.1024 201.265 69.2211 202.026 69.2211C202.724 69.2211 203.318 69.1269 203.806 68.9384C204.302 68.7499 204.682 68.4881 204.948 68.153C205.213 67.8179 205.349 67.434 205.356 67.0011C205.349 66.5962 205.223 66.2507 204.979 65.9645C204.735 65.6713 204.358 65.4199 203.848 65.2105C203.346 64.9941 202.703 64.7951 201.921 64.6136L199.681 64.0901C197.824 63.6642 196.361 62.9766 195.293 62.0272C194.225 61.0708 193.694 59.7793 193.701 58.1527C193.694 56.8263 194.05 55.664 194.769 54.6657C195.488 53.6674 196.483 52.889 197.754 52.3305C199.024 51.7721 200.473 51.4928 202.099 51.4928C203.761 51.4928 205.203 51.7755 206.424 52.341C207.653 52.8995 208.606 53.6848 209.283 54.6971C209.96 55.7093 210.306 56.8822 210.32 58.2155H205.356ZM216.362 79.2633C215.747 79.2633 215.168 79.2144 214.623 79.1167C214.079 79.0259 213.611 78.9038 213.22 78.7502L214.351 75.0328C214.854 75.2003 215.308 75.2981 215.712 75.326C216.124 75.3539 216.477 75.2876 216.77 75.127C217.07 74.9735 217.301 74.6977 217.461 74.2998L217.66 73.8181L211.943 57.1474H217.304L220.268 68.6242H220.435L223.44 57.1474H228.833L222.77 74.771C222.477 75.6506 222.062 76.4255 221.524 77.0957C220.994 77.7728 220.306 78.3034 219.461 78.6874C218.624 79.0713 217.59 79.2633 216.362 79.2633ZM244.839 62.0586L240.137 62.1842C240.088 61.8491 239.956 61.5525 239.739 61.2942C239.523 61.0289 239.24 60.8229 238.891 60.6763C238.549 60.5228 238.151 60.446 237.697 60.446C237.104 60.446 236.598 60.5646 236.179 60.802C235.767 61.0393 235.565 61.3605 235.572 61.7654C235.565 62.0795 235.69 62.3518 235.949 62.5822C236.214 62.8125 236.685 62.9975 237.362 63.1371L240.462 63.7235C242.068 64.0307 243.261 64.5403 244.043 65.2524C244.832 65.9645 245.23 66.9069 245.237 68.0797C245.23 69.1827 244.902 70.1426 244.253 70.9594C243.61 71.7761 242.731 72.4114 241.614 72.8652C240.497 73.312 239.219 73.5354 237.781 73.5354C235.484 73.5354 233.673 73.0641 232.346 72.1217C231.027 71.1723 230.273 69.9017 230.085 68.3101L235.142 68.1844C235.254 68.7708 235.544 69.2176 236.012 69.5248C236.479 69.8319 237.076 69.9855 237.802 69.9855C238.458 69.9855 238.992 69.8633 239.404 69.619C239.816 69.3747 240.026 69.0501 240.033 68.6452C240.026 68.2822 239.865 67.9924 239.551 67.776C239.237 67.5526 238.745 67.3781 238.074 67.2525L235.268 66.7184C233.655 66.4252 232.455 65.8842 231.666 65.0953C230.877 64.2995 230.486 63.2872 230.493 62.0586C230.486 60.9835 230.772 60.0655 231.352 59.3046C231.931 58.5367 232.755 57.9502 233.823 57.5453C234.891 57.1405 236.151 56.938 237.603 56.938C239.781 56.938 241.499 57.3953 242.755 58.3098C244.012 59.2173 244.706 60.4669 244.839 62.0586ZM256.837 57.1474V60.9172H246.69V57.1474H256.837ZM248.816 53.2939H253.936V68.1739C253.936 68.4881 253.985 68.7429 254.083 68.9384C254.187 69.1269 254.338 69.263 254.533 69.3468C254.728 69.4235 254.962 69.4619 255.235 69.4619C255.43 69.4619 255.636 69.4445 255.852 69.4096C256.076 69.3677 256.243 69.3328 256.355 69.3049L257.13 73.0013C256.886 73.0711 256.54 73.1584 256.093 73.2631C255.653 73.3678 255.126 73.4341 254.512 73.4621C253.311 73.5179 252.282 73.3783 251.423 73.0432C250.571 72.7011 249.919 72.1706 249.465 71.4515C249.018 70.7325 248.802 69.8284 248.816 68.7394V53.2939ZM266.795 73.5354C265.113 73.5354 263.661 73.2038 262.439 72.5406C261.224 71.8704 260.289 70.9175 259.633 69.6818C258.983 68.4392 258.659 66.9627 258.659 65.2524C258.659 63.5909 258.987 62.1389 259.643 60.8962C260.299 59.6466 261.224 58.6763 262.418 57.9852C263.612 57.2871 265.018 56.938 266.638 56.938C267.783 56.938 268.83 57.116 269.78 57.472C270.729 57.8281 271.549 58.3551 272.24 59.0532C272.931 59.7514 273.469 60.6135 273.853 61.6397C274.237 62.6589 274.429 63.8283 274.429 65.1477V66.4252H260.449V63.4513H269.664C269.657 62.9068 269.528 62.4216 269.277 61.9957C269.026 61.5699 268.68 61.2383 268.24 61.001C267.807 60.7566 267.308 60.6344 266.743 60.6344C266.17 60.6344 265.657 60.7636 265.203 61.0219C264.75 61.2732 264.39 61.6188 264.125 62.0586C263.86 62.4914 263.72 62.9836 263.706 63.5351V66.5613C263.706 67.2175 263.835 67.7935 264.094 68.2891C264.352 68.7778 264.718 69.1583 265.193 69.4305C265.668 69.7028 266.233 69.8389 266.889 69.8389C267.343 69.8389 267.755 69.7761 268.125 69.6504C268.495 69.5248 268.813 69.3398 269.078 69.0954C269.343 68.8511 269.542 68.5509 269.675 68.1949L274.377 68.331C274.181 69.3852 273.752 70.3032 273.089 71.085C272.432 71.8599 271.57 72.4638 270.502 72.8966C269.434 73.3224 268.198 73.5354 266.795 73.5354ZM277.044 73.2317V57.1474H281.913V60.1004H282.091C282.427 59.1231 282.992 58.3517 283.788 57.7862C284.584 57.2207 285.533 56.938 286.636 56.938C287.753 56.938 288.709 57.2242 289.505 57.7967C290.301 58.3691 290.807 59.137 291.024 60.1004H291.191C291.491 59.144 292.078 58.3796 292.95 57.8071C293.823 57.2277 294.853 56.938 296.039 56.938C297.561 56.938 298.797 57.4267 299.746 58.404C300.696 59.3744 301.171 60.7077 301.171 62.4041V73.2317H296.05V63.5769C296.05 62.7741 295.844 62.1633 295.432 61.7444C295.02 61.3186 294.486 61.1057 293.83 61.1057C293.125 61.1057 292.57 61.336 292.165 61.7968C291.767 62.2506 291.568 62.8614 291.568 63.6293V73.2317H286.647V63.5246C286.647 62.7776 286.444 62.1877 286.039 61.7549C285.634 61.3221 285.1 61.1057 284.437 61.1057C283.99 61.1057 283.596 61.2139 283.254 61.4303C282.912 61.6397 282.643 61.9399 282.447 62.3308C282.259 62.7218 282.165 63.1825 282.165 63.7131V73.2317H277.044ZM322.271 58.2155C322.201 57.4476 321.89 56.8507 321.339 56.4249C320.794 55.9921 320.016 55.7757 319.004 55.7757C318.333 55.7757 317.775 55.8629 317.328 56.0375C316.881 56.212 316.546 56.4528 316.323 56.76C316.099 57.0602 315.984 57.4057 315.977 57.7967C315.963 58.1178 316.026 58.4005 316.166 58.6449C316.312 58.8892 316.522 59.1056 316.794 59.2941C317.073 59.4756 317.408 59.6362 317.799 59.7758C318.19 59.9154 318.63 60.0376 319.119 60.1423L320.962 60.5611C322.023 60.7915 322.958 61.0987 323.768 61.4826C324.585 61.8666 325.269 62.3239 325.821 62.8544C326.379 63.385 326.801 63.9958 327.088 64.6869C327.374 65.378 327.52 66.1529 327.527 67.0116C327.52 68.3659 327.178 69.5283 326.501 70.4986C325.824 71.469 324.85 72.2125 323.58 72.7291C322.316 73.2457 320.791 73.5039 319.004 73.5039C317.209 73.5039 315.646 73.2352 314.312 72.6976C312.979 72.1601 311.942 71.3433 311.202 70.2473C310.462 69.1513 310.082 67.7656 310.061 66.0901H315.024C315.066 66.7812 315.251 67.3572 315.579 67.8179C315.907 68.2787 316.358 68.6277 316.93 68.8651C317.51 69.1024 318.18 69.2211 318.941 69.2211C319.639 69.2211 320.232 69.1269 320.721 68.9384C321.217 68.7499 321.597 68.4881 321.862 68.153C322.128 67.8179 322.264 67.434 322.271 67.0011C322.264 66.5962 322.138 66.2507 321.894 65.9645C321.649 65.6713 321.272 65.4199 320.763 65.2105C320.26 64.9941 319.618 64.7951 318.836 64.6136L316.595 64.0901C314.738 63.6642 313.276 62.9766 312.208 62.0272C311.139 61.0708 310.609 59.7793 310.616 58.1527C310.609 56.8263 310.965 55.664 311.684 54.6657C312.403 53.6674 313.398 52.889 314.668 52.3305C315.939 51.7721 317.387 51.4928 319.014 51.4928C320.676 51.4928 322.117 51.7755 323.339 52.341C324.567 52.8995 325.52 53.6848 326.197 54.6971C326.875 55.7093 327.22 56.8822 327.234 58.2155H322.271ZM334.763 69.0117L334.784 62.9068H335.496L340.02 57.1474H345.821L339.098 65.399H337.748L334.763 69.0117ZM330.145 73.2317V51.786H335.266V73.2317H330.145ZM340.135 73.2317L335.926 66.5509L339.297 62.9172L346.051 73.2317H340.135ZM347.654 73.2317V57.1474H352.774V73.2317H347.654ZM350.219 55.273C349.5 55.273 348.882 55.0357 348.366 54.561C347.849 54.0793 347.591 53.4999 347.591 52.8227C347.591 52.1525 347.849 51.5801 348.366 51.1054C348.882 50.6237 349.5 50.3828 350.219 50.3828C350.945 50.3828 351.563 50.6237 352.073 51.1054C352.589 51.5801 352.848 52.1525 352.848 52.8227C352.848 53.4999 352.589 54.0793 352.073 54.561C351.563 55.0357 350.945 55.273 350.219 55.273ZM361.154 51.786V73.2317H356.033V51.786H361.154ZM369.534 51.786V73.2317H364.413V51.786H369.534ZM386.835 62.0586L382.134 62.1842C382.085 61.8491 381.952 61.5525 381.736 61.2942C381.519 61.0289 381.237 60.8229 380.888 60.6763C380.546 60.5228 380.148 60.446 379.694 60.446C379.1 60.446 378.594 60.5646 378.175 60.802C377.764 61.0393 377.561 61.3605 377.568 61.7654C377.561 62.0795 377.687 62.3518 377.945 62.5822C378.21 62.8125 378.682 62.9975 379.359 63.1371L382.458 63.7235C384.064 64.0307 385.258 64.5403 386.04 65.2524C386.828 65.9645 387.226 66.9069 387.233 68.0797C387.226 69.1827 386.898 70.1426 386.249 70.9594C385.607 71.7761 384.727 72.4114 383.61 72.8652C382.493 73.312 381.216 73.5354 379.778 73.5354C377.481 73.5354 375.669 73.0641 374.343 72.1217C373.024 71.1723 372.27 69.9017 372.081 68.3101L377.139 68.1844C377.251 68.7708 377.54 69.2176 378.008 69.5248C378.476 69.8319 379.073 69.9855 379.799 69.9855C380.455 69.9855 380.989 69.8633 381.401 69.619C381.813 69.3747 382.022 69.0501 382.029 68.6452C382.022 68.2822 381.861 67.9924 381.547 67.776C381.233 67.5526 380.741 67.3781 380.071 67.2525L377.264 66.7184C375.652 66.4252 374.451 65.8842 373.662 65.0953C372.873 64.2995 372.482 63.2872 372.489 62.0586C372.482 60.9835 372.769 60.0655 373.348 59.3046C373.928 58.5367 374.751 57.9502 375.819 57.5453C376.887 57.1405 378.148 56.938 379.6 56.938C381.778 56.938 383.495 57.3953 384.752 58.3098C386.008 59.2173 386.703 60.4669 386.835 62.0586Z" fill="white"/>
<path d="M85.1195 104.146V89.8492H87.2068V95.1617H87.3325C87.4535 94.9383 87.628 94.68 87.8561 94.3868C88.0841 94.0936 88.4006 93.8377 88.8055 93.6189C89.2104 93.3955 89.7456 93.2838 90.4111 93.2838C91.2768 93.2838 92.0493 93.5026 92.7288 93.9401C93.4083 94.3775 93.9412 95.0082 94.3275 95.8319C94.7184 96.6557 94.9139 97.647 94.9139 98.8058C94.9139 99.9647 94.7207 100.958 94.3344 101.787C93.9482 102.61 93.4176 103.246 92.7428 103.693C92.0679 104.135 91.2977 104.356 90.432 104.356C89.7805 104.356 89.2476 104.246 88.8334 104.028C88.4238 103.809 88.1027 103.553 87.87 103.26C87.6373 102.967 87.4581 102.706 87.3325 102.478H87.158V104.146H85.1195ZM87.1649 98.7849C87.1649 99.5388 87.2743 100.2 87.493 100.767C87.7118 101.335 88.0283 101.78 88.4425 102.101C88.8567 102.417 89.364 102.576 89.9643 102.576C90.588 102.576 91.1092 102.41 91.5281 102.08C91.9469 101.745 92.2634 101.291 92.4775 100.719C92.6962 100.146 92.8056 99.5016 92.8056 98.7849C92.8056 98.0775 92.6986 97.4422 92.4845 96.8791C92.275 96.3159 91.9586 95.8715 91.535 95.5457C91.1162 95.2199 90.5926 95.057 89.9643 95.057C89.3593 95.057 88.8474 95.2129 88.4285 95.5247C88.0143 95.8366 87.7001 96.2717 87.4861 96.8302C87.272 97.3887 87.1649 98.0402 87.1649 98.7849ZM98.2124 108.167C97.9006 108.167 97.6167 108.142 97.3607 108.091C97.1047 108.044 96.9139 107.993 96.7883 107.937L97.2909 106.227C97.6725 106.329 98.0123 106.373 98.3101 106.359C98.608 106.345 98.8709 106.234 99.099 106.024C99.3317 105.815 99.5365 105.473 99.7133 104.998L99.9716 104.286L96.0483 93.4235H98.2822L100.998 101.745H101.11L103.825 93.4235H106.066L101.647 105.577C101.442 106.136 101.182 106.608 100.865 106.995C100.549 107.385 100.172 107.679 99.7342 107.874C99.2968 108.07 98.7895 108.167 98.2124 108.167ZM123.074 94.3659C122.939 93.9424 122.757 93.5631 122.529 93.228C122.306 92.8883 122.038 92.5997 121.726 92.3623C121.414 92.1203 121.058 91.9365 120.658 91.8108C120.263 91.6852 119.827 91.6224 119.353 91.6224C118.548 91.6224 117.821 91.8295 117.175 92.2437C116.528 92.6579 116.016 93.2652 115.639 94.0657C115.266 94.8616 115.08 95.8366 115.08 96.9908C115.08 98.1496 115.269 99.1293 115.646 99.9298C116.023 100.73 116.539 101.338 117.196 101.752C117.852 102.166 118.599 102.373 119.436 102.373C120.214 102.373 120.891 102.215 121.468 101.898C122.05 101.582 122.499 101.135 122.815 100.558C123.136 99.9763 123.297 99.2922 123.297 98.5056L123.855 98.6104H119.765V96.8302H125.384V98.4568C125.384 99.6575 125.128 100.7 124.616 101.584C124.109 102.464 123.406 103.143 122.508 103.623C121.614 104.102 120.591 104.342 119.436 104.342C118.143 104.342 117.007 104.044 116.03 103.448C115.057 102.852 114.298 102.008 113.754 100.914C113.209 99.8157 112.937 98.5126 112.937 97.0047C112.937 95.8645 113.095 94.8406 113.412 93.9331C113.728 93.0255 114.173 92.2553 114.745 91.6224C115.322 90.9848 115.999 90.4984 116.777 90.1633C117.559 89.8236 118.413 89.6537 119.339 89.6537C120.111 89.6537 120.83 89.7677 121.496 89.9958C122.166 90.2238 122.762 90.5473 123.283 90.9661C123.809 91.385 124.244 91.883 124.588 92.4601C124.933 93.0325 125.166 93.6678 125.287 94.3659H123.074ZM134.748 99.6994V93.4235H136.842V104.146H134.789V102.289H134.678C134.431 102.862 134.035 103.339 133.491 103.72C132.951 104.097 132.279 104.286 131.473 104.286C130.785 104.286 130.175 104.135 129.644 103.832C129.119 103.525 128.704 103.071 128.402 102.471C128.104 101.87 127.955 101.128 127.955 100.244V93.4235H130.042V99.9926C130.042 100.723 130.245 101.305 130.65 101.738C131.055 102.171 131.58 102.387 132.227 102.387C132.618 102.387 133.007 102.289 133.393 102.094C133.784 101.898 134.108 101.603 134.364 101.207C134.624 100.812 134.752 100.309 134.748 99.6994ZM147.682 96.0413L145.79 96.3764C145.711 96.1344 145.585 95.904 145.413 95.6853C145.245 95.4666 145.017 95.2874 144.729 95.1478C144.44 95.0082 144.079 94.9383 143.647 94.9383C143.056 94.9383 142.562 95.071 142.167 95.3363C141.771 95.5969 141.573 95.9343 141.573 96.3485C141.573 96.7069 141.706 96.9954 141.971 97.2142C142.236 97.4329 142.665 97.6121 143.256 97.7517L144.959 98.1426C145.946 98.3707 146.681 98.7221 147.165 99.1968C147.649 99.6715 147.891 100.288 147.891 101.047C147.891 101.689 147.705 102.261 147.333 102.764C146.965 103.262 146.451 103.653 145.79 103.937C145.134 104.221 144.373 104.363 143.507 104.363C142.306 104.363 141.327 104.107 140.568 103.595C139.809 103.078 139.344 102.345 139.172 101.396L141.189 101.089C141.315 101.615 141.573 102.012 141.964 102.282C142.355 102.548 142.865 102.68 143.493 102.68C144.177 102.68 144.724 102.538 145.134 102.254C145.543 101.966 145.748 101.615 145.748 101.2C145.748 100.865 145.622 100.584 145.371 100.356C145.124 100.128 144.745 99.9554 144.233 99.839L142.418 99.4411C141.417 99.2131 140.677 98.85 140.198 98.3521C139.723 97.8541 139.486 97.2235 139.486 96.4602C139.486 95.8273 139.663 95.2734 140.016 94.7987C140.37 94.324 140.859 93.954 141.482 93.6887C142.106 93.4188 142.82 93.2838 143.626 93.2838C144.784 93.2838 145.697 93.5352 146.362 94.0378C147.028 94.5358 147.468 95.2036 147.682 96.0413ZM155.191 93.4235V95.0989H149.334V93.4235H155.191ZM150.905 90.8544H152.992V100.998C152.992 101.403 153.053 101.708 153.174 101.912C153.295 102.112 153.451 102.25 153.642 102.324C153.837 102.394 154.049 102.429 154.277 102.429C154.444 102.429 154.591 102.417 154.717 102.394C154.842 102.371 154.94 102.352 155.01 102.338L155.387 104.063C155.266 104.109 155.094 104.156 154.87 104.202C154.647 104.253 154.368 104.281 154.033 104.286C153.483 104.295 152.971 104.197 152.497 103.993C152.022 103.788 151.638 103.471 151.345 103.043C151.052 102.615 150.905 102.078 150.905 101.431V90.8544ZM160.621 104.384C159.941 104.384 159.327 104.258 158.778 104.007C158.229 103.751 157.794 103.381 157.472 102.897C157.156 102.413 156.998 101.819 156.998 101.117C156.998 100.512 157.114 100.014 157.347 99.6226C157.58 99.2317 157.894 98.9222 158.289 98.6941C158.685 98.4661 159.127 98.2939 159.616 98.1775C160.104 98.0612 160.602 97.9728 161.11 97.9123C161.752 97.8378 162.273 97.7773 162.673 97.7307C163.074 97.6796 163.364 97.5981 163.546 97.4864C163.727 97.3747 163.818 97.1932 163.818 96.9419V96.893C163.818 96.2834 163.646 95.811 163.302 95.4759C162.962 95.1408 162.455 94.9732 161.78 94.9732C161.077 94.9732 160.523 95.1292 160.118 95.441C159.718 95.7481 159.441 96.0902 159.288 96.4672L157.326 96.0204C157.559 95.3688 157.898 94.8429 158.345 94.4427C158.797 94.0378 159.315 93.7446 159.902 93.5631C160.488 93.3769 161.105 93.2838 161.752 93.2838C162.18 93.2838 162.634 93.335 163.113 93.4374C163.597 93.5352 164.049 93.7167 164.467 93.9819C164.891 94.2472 165.238 94.6265 165.508 95.1198C165.778 95.6085 165.913 96.2438 165.913 97.0257V104.146H163.874V102.68H163.79C163.655 102.95 163.453 103.215 163.183 103.476C162.913 103.737 162.566 103.953 162.143 104.125C161.719 104.298 161.212 104.384 160.621 104.384ZM161.075 102.708C161.652 102.708 162.145 102.594 162.555 102.366C162.969 102.138 163.283 101.84 163.497 101.473C163.716 101.1 163.825 100.702 163.825 100.279V98.8966C163.751 98.971 163.606 99.0409 163.392 99.106C163.183 99.1665 162.943 99.22 162.673 99.2666C162.403 99.3085 162.14 99.348 161.884 99.3852C161.629 99.4178 161.414 99.4458 161.242 99.469C160.837 99.5202 160.467 99.6063 160.132 99.7273C159.802 99.8483 159.537 100.023 159.336 100.251C159.141 100.474 159.043 100.772 159.043 101.144C159.043 101.661 159.234 102.052 159.616 102.317C159.997 102.578 160.484 102.708 161.075 102.708ZM177.482 93.4235L173.593 104.146H171.359L167.464 93.4235H169.705L172.421 101.675H172.532L175.241 93.4235H177.482ZM183.595 104.363C182.59 104.363 181.713 104.132 180.964 103.672C180.214 103.211 179.633 102.566 179.218 101.738C178.804 100.909 178.597 99.9414 178.597 98.8337C178.597 97.7214 178.804 96.7488 179.218 95.9157C179.633 95.0826 180.214 94.4357 180.964 93.975C181.713 93.5142 182.59 93.2838 183.595 93.2838C184.601 93.2838 185.478 93.5142 186.227 93.975C186.977 94.4357 187.558 95.0826 187.973 95.9157C188.387 96.7488 188.594 97.7214 188.594 98.8337C188.594 99.9414 188.387 100.909 187.973 101.738C187.558 102.566 186.977 103.211 186.227 103.672C185.478 104.132 184.601 104.363 183.595 104.363ZM183.602 102.61C184.254 102.61 184.794 102.438 185.222 102.094C185.65 101.749 185.967 101.291 186.171 100.719C186.381 100.146 186.486 99.5156 186.486 98.8268C186.486 98.1426 186.381 97.5143 186.171 96.9419C185.967 96.3648 185.65 95.9017 185.222 95.5527C184.794 95.2036 184.254 95.0291 183.602 95.0291C182.946 95.0291 182.402 95.2036 181.969 95.5527C181.541 95.9017 181.222 96.3648 181.012 96.9419C180.808 97.5143 180.705 98.1426 180.705 98.8268C180.705 99.5156 180.808 100.146 181.012 100.719C181.222 101.291 181.541 101.749 181.969 102.094C182.402 102.438 182.946 102.61 183.602 102.61ZM208.169 94.4985H205.991C205.907 94.0331 205.751 93.6236 205.523 93.2699C205.295 92.9162 205.016 92.616 204.685 92.3693C204.355 92.1227 203.985 91.9365 203.575 91.8108C203.17 91.6852 202.74 91.6224 202.284 91.6224C201.46 91.6224 200.722 91.8295 200.071 92.2437C199.424 92.6579 198.912 93.2652 198.535 94.0657C198.162 94.8662 197.976 95.8435 197.976 96.9977C197.976 98.1612 198.162 99.1432 198.535 99.9437C198.912 100.744 199.426 101.349 200.078 101.759C200.729 102.168 201.462 102.373 202.277 102.373C202.728 102.373 203.156 102.313 203.561 102.192C203.971 102.066 204.341 101.882 204.671 101.64C205.002 101.398 205.281 101.103 205.509 100.754C205.742 100.4 205.902 99.9949 205.991 99.5388L208.169 99.5458C208.052 100.249 207.827 100.895 207.491 101.487C207.161 102.073 206.735 102.58 206.214 103.008C205.697 103.432 205.106 103.76 204.441 103.993C203.775 104.225 203.049 104.342 202.263 104.342C201.025 104.342 199.922 104.049 198.954 103.462C197.986 102.871 197.222 102.026 196.664 100.928C196.11 99.8297 195.833 98.5196 195.833 96.9977C195.833 95.4712 196.112 94.1611 196.671 93.0674C197.229 91.9691 197.993 91.1267 198.961 90.5403C199.929 89.9492 201.029 89.6537 202.263 89.6537C203.021 89.6537 203.729 89.7631 204.385 89.9818C205.046 90.1959 205.639 90.5124 206.165 90.9312C206.691 91.3454 207.126 91.8527 207.47 92.4531C207.815 93.0488 208.048 93.7306 208.169 94.4985ZM213.703 104.384C213.023 104.384 212.409 104.258 211.86 104.007C211.311 103.751 210.875 103.381 210.554 102.897C210.238 102.413 210.08 101.819 210.08 101.117C210.08 100.512 210.196 100.014 210.429 99.6226C210.661 99.2317 210.976 98.9222 211.371 98.6941C211.767 98.4661 212.209 98.2939 212.698 98.1775C213.186 98.0612 213.684 97.9728 214.191 97.9123C214.834 97.8378 215.355 97.7773 215.755 97.7307C216.155 97.6796 216.446 97.5981 216.628 97.4864C216.809 97.3747 216.9 97.1932 216.9 96.9419V96.893C216.9 96.2834 216.728 95.811 216.384 95.4759C216.044 95.1408 215.536 94.9732 214.862 94.9732C214.159 94.9732 213.605 95.1292 213.2 95.441C212.8 95.7481 212.523 96.0902 212.369 96.4672L210.408 96.0204C210.64 95.3688 210.98 94.8429 211.427 94.4427C211.878 94.0378 212.397 93.7446 212.984 93.5631C213.57 93.3769 214.187 93.2838 214.834 93.2838C215.262 93.2838 215.716 93.335 216.195 93.4374C216.679 93.5352 217.13 93.7167 217.549 93.9819C217.973 94.2472 218.32 94.6265 218.59 95.1198C218.859 95.6085 218.994 96.2438 218.994 97.0257V104.146H216.956V102.68H216.872C216.737 102.95 216.535 103.215 216.265 103.476C215.995 103.737 215.648 103.953 215.225 104.125C214.801 104.298 214.294 104.384 213.703 104.384ZM214.157 102.708C214.734 102.708 215.227 102.594 215.637 102.366C216.051 102.138 216.365 101.84 216.579 101.473C216.798 101.1 216.907 100.702 216.907 100.279V98.8966C216.833 98.971 216.688 99.0409 216.474 99.106C216.265 99.1665 216.025 99.22 215.755 99.2666C215.485 99.3085 215.222 99.348 214.966 99.3852C214.71 99.4178 214.496 99.4458 214.324 99.469C213.919 99.5202 213.549 99.6063 213.214 99.7273C212.884 99.8483 212.618 100.023 212.418 100.251C212.223 100.474 212.125 100.772 212.125 101.144C212.125 101.661 212.316 102.052 212.698 102.317C213.079 102.578 213.566 102.708 214.157 102.708ZM221.942 104.146V89.8492H224.029V95.1617H224.155C224.276 94.9383 224.451 94.68 224.679 94.3868C224.907 94.0936 225.223 93.8377 225.628 93.6189C226.033 93.3955 226.568 93.2838 227.234 93.2838C228.099 93.2838 228.872 93.5026 229.551 93.9401C230.231 94.3775 230.764 95.0082 231.15 95.8319C231.541 96.6557 231.737 97.647 231.737 98.8058C231.737 99.9647 231.543 100.958 231.157 101.787C230.771 102.61 230.24 103.246 229.565 103.693C228.891 104.135 228.12 104.356 227.255 104.356C226.603 104.356 226.07 104.246 225.656 104.028C225.246 103.809 224.925 103.553 224.693 103.26C224.46 102.967 224.281 102.706 224.155 102.478H223.981V104.146H221.942ZM223.988 98.7849C223.988 99.5388 224.097 100.2 224.316 100.767C224.534 101.335 224.851 101.78 225.265 102.101C225.679 102.417 226.187 102.576 226.787 102.576C227.411 102.576 227.932 102.41 228.351 102.08C228.77 101.745 229.086 101.291 229.3 100.719C229.519 100.146 229.628 99.5016 229.628 98.7849C229.628 98.0775 229.521 97.4422 229.307 96.8791C229.098 96.3159 228.781 95.8715 228.358 95.5457C227.939 95.2199 227.415 95.057 226.787 95.057C226.182 95.057 225.67 95.2129 225.251 95.5247C224.837 95.8366 224.523 96.2717 224.309 96.8302C224.095 97.3887 223.988 98.0402 223.988 98.7849ZM234.08 104.146V93.4235H236.098V95.1268H236.21C236.405 94.5497 236.749 94.096 237.243 93.7655C237.741 93.4304 238.304 93.2629 238.932 93.2629C239.063 93.2629 239.216 93.2676 239.393 93.2769C239.574 93.2862 239.716 93.2978 239.819 93.3118V95.3083C239.735 95.2851 239.586 95.2595 239.372 95.2315C239.158 95.199 238.944 95.1827 238.73 95.1827C238.236 95.1827 237.797 95.2874 237.41 95.4968C237.029 95.7016 236.726 95.9878 236.503 96.3555C236.279 96.7185 236.168 97.1327 236.168 97.5981V104.146H234.08ZM244.65 104.384C243.97 104.384 243.356 104.258 242.807 104.007C242.257 103.751 241.822 103.381 241.501 102.897C241.185 102.413 241.026 101.819 241.026 101.117C241.026 100.512 241.143 100.014 241.376 99.6226C241.608 99.2317 241.922 98.9222 242.318 98.6941C242.714 98.4661 243.156 98.2939 243.644 98.1775C244.133 98.0612 244.631 97.9728 245.138 97.9123C245.781 97.8378 246.302 97.7773 246.702 97.7307C247.102 97.6796 247.393 97.5981 247.575 97.4864C247.756 97.3747 247.847 97.1932 247.847 96.9419V96.893C247.847 96.2834 247.675 95.811 247.33 95.4759C246.991 95.1408 246.483 94.9732 245.808 94.9732C245.106 94.9732 244.552 95.1292 244.147 95.441C243.747 95.7481 243.47 96.0902 243.316 96.4672L241.355 96.0204C241.587 95.3688 241.927 94.8429 242.374 94.4427C242.825 94.0378 243.344 93.7446 243.931 93.5631C244.517 93.3769 245.134 93.2838 245.781 93.2838C246.209 93.2838 246.663 93.335 247.142 93.4374C247.626 93.5352 248.077 93.7167 248.496 93.9819C248.92 94.2472 249.266 94.6265 249.536 95.1198C249.806 95.6085 249.941 96.2438 249.941 97.0257V104.146H247.903V102.68H247.819C247.684 102.95 247.482 103.215 247.212 103.476C246.942 103.737 246.595 103.953 246.172 104.125C245.748 104.298 245.241 104.384 244.65 104.384ZM245.103 102.708C245.681 102.708 246.174 102.594 246.583 102.366C246.998 102.138 247.312 101.84 247.526 101.473C247.745 101.1 247.854 100.702 247.854 100.279V98.8966C247.779 98.971 247.635 99.0409 247.421 99.106C247.212 99.1665 246.972 99.22 246.702 99.2666C246.432 99.3085 246.169 99.348 245.913 99.3852C245.657 99.4178 245.443 99.4458 245.271 99.469C244.866 99.5202 244.496 99.6063 244.161 99.7273C243.831 99.8483 243.565 100.023 243.365 100.251C243.17 100.474 243.072 100.772 243.072 101.144C243.072 101.661 243.263 102.052 243.644 102.317C244.026 102.578 244.512 102.708 245.103 102.708ZM254.809 89.8492V104.146H252.721V89.8492H254.809Z" fill="white" fill-opacity="0.7"/>
</g>
<rect x="0.5" y="0.5" width="1319" height="402" rx="19.1585" stroke="#D5D2D2"/>
<defs>
<clipPath id="clip0_2_26">
<rect width="1320" height="403" rx="19.6585" fill="white"/>
</clipPath>
<clipPath id="clip1_2_26">
<rect width="147.439" height="68.8049" fill="white" transform="translate(68.8048 319.451)"/>
</clipPath>
</defs>
</svg>
