<svg width="1320" height="403" viewBox="0 0 1320 403" fill="none" xmlns="http://www.w3.org/2000/svg">
<g clip-path="url(#clip0_2_26)">
<rect width="1320" height="403" rx="19.6585" fill="black"/>
<mask id="path-3-inside-1_2_26" fill="white">
<path d="M-3.05176e-05 300.137H1656.23V403.344H-3.05176e-05V300.137Z"/>
</mask>
<path d="M-3.05176e-05 300.137H1656.23V403.344H-3.05176e-05V300.137Z" fill="#FAFAFA"/>
<g clip-path="url(#clip1_2_26)">
<path d="M74.5472 337.413H96.8069V339.11H76.5882V351.876H95.601V353.572H76.5882V367.589H97.0387V369.285H74.5472V337.413V337.413ZM98.8007 337.413H101.166L111.647 351.429L122.359 337.413L136.93 319.609L112.992 352.903L125.327 369.285H122.869L111.647 354.376L100.378 369.285H97.9664L110.394 352.903L98.8015 337.413H98.8007ZM126.208 339.11V337.413H151.574V339.11H139.889V369.284H137.848V339.11H126.209H126.208ZM46.7 337.413H49.2508L84.4212 387.872L69.8867 369.285L48.8329 339.824L48.7402 369.285H46.7V337.413V337.413ZM151.37 367.076C150.952 367.076 150.639 366.767 150.639 366.367C150.639 365.966 150.952 365.657 151.369 365.657C151.791 365.657 152.099 365.966 152.099 366.367C152.099 366.767 151.791 367.076 151.369 367.076H151.37ZM153.374 365.209H154.466C154.482 365.776 154.914 366.157 155.548 366.157C156.258 366.157 156.66 365.748 156.66 364.98V360.121H157.772V364.985C157.772 366.367 156.938 367.163 155.558 367.163C154.263 367.163 153.375 366.391 153.375 365.209H153.374ZM159.225 365.148H160.327C160.421 365.8 161.086 366.214 162.044 366.214C162.937 366.214 163.592 365.771 163.592 365.161C163.592 364.638 163.176 364.323 162.227 364.109L161.304 363.895C160.01 363.604 159.419 363.003 159.419 361.993C159.419 360.769 160.461 359.954 162.024 359.954C163.478 359.954 164.541 360.769 164.605 361.926H163.523C163.419 361.293 162.844 360.897 162.009 360.897C161.13 360.897 160.545 361.302 160.545 361.921C160.545 362.412 160.922 362.694 161.856 362.903L162.645 363.089C164.113 363.418 164.719 363.989 164.719 365.023C164.719 366.338 163.656 367.163 161.96 367.163C160.372 367.163 159.304 366.376 159.225 365.147V365.148Z" fill="black"/>
</g>
<path d="M-3.05176e-05 301.365H1656.23V298.908H-3.05176e-05V301.365Z" fill="black" fill-opacity="0.25" mask="url(#path-3-inside-1_2_26)"/>
<path d="M65.1582 180H50.7321V139.305H65.2774C69.3707 139.305 72.8944 140.12 75.8485 141.749C78.8026 143.365 81.0745 145.69 82.6641 148.724C84.267 151.757 85.0684 155.387 85.0684 159.613C85.0684 163.852 84.267 167.495 82.6641 170.542C81.0745 173.588 78.7894 175.927 75.8088 177.556C72.8414 179.185 69.2912 180 65.1582 180ZM59.3361 172.628H64.8005C67.3439 172.628 69.4833 172.178 71.2187 171.277C72.9673 170.363 74.2787 168.952 75.153 167.044C76.0406 165.124 76.4844 162.646 76.4844 159.613C76.4844 156.606 76.0406 154.148 75.153 152.241C74.2787 150.333 72.9739 148.929 71.2385 148.028C69.5032 147.128 67.3638 146.677 64.8204 146.677H59.3361V172.628ZM105.192 180.596C102.053 180.596 99.3504 179.96 97.0852 178.689C94.8332 177.404 93.0978 175.589 91.8791 173.244C90.6603 170.886 90.051 168.098 90.051 164.879C90.051 161.739 90.6603 158.984 91.8791 156.612C93.0978 154.241 94.8133 152.393 97.0255 151.068C99.251 149.744 101.861 149.081 104.855 149.081C106.868 149.081 108.743 149.406 110.478 150.055C112.227 150.691 113.75 151.651 115.048 152.936C116.36 154.221 117.38 155.837 118.108 157.785C118.837 159.719 119.201 161.984 119.201 164.58V166.905H93.429V161.659H111.233C111.233 160.441 110.968 159.361 110.438 158.421C109.908 157.48 109.173 156.745 108.233 156.215C107.305 155.672 106.226 155.4 104.994 155.4C103.709 155.4 102.569 155.698 101.576 156.294C100.596 156.877 99.8273 157.666 99.2709 158.659C98.7145 159.639 98.4297 160.732 98.4165 161.938V166.925C98.4165 168.435 98.6947 169.74 99.251 170.84C99.8207 171.939 100.622 172.787 101.655 173.383C102.689 173.979 103.914 174.277 105.331 174.277C106.272 174.277 107.133 174.145 107.915 173.88C108.696 173.615 109.365 173.218 109.922 172.688C110.478 172.158 110.902 171.509 111.193 170.74L119.022 171.257C118.625 173.138 117.81 174.781 116.578 176.185C115.359 177.576 113.783 178.662 111.849 179.444C109.928 180.212 107.709 180.596 105.192 180.596ZM150.12 158.182L142.37 158.659C142.238 157.997 141.953 157.401 141.516 156.871C141.079 156.328 140.502 155.897 139.787 155.579C139.085 155.248 138.244 155.082 137.263 155.082C135.952 155.082 134.846 155.361 133.945 155.917C133.044 156.46 132.594 157.189 132.594 158.103C132.594 158.831 132.885 159.447 133.468 159.951C134.051 160.454 135.051 160.858 136.469 161.163L141.993 162.275C144.96 162.885 147.172 163.865 148.629 165.216C150.087 166.568 150.815 168.343 150.815 170.542C150.815 172.542 150.226 174.297 149.047 175.807C147.881 177.317 146.278 178.496 144.238 179.344C142.211 180.179 139.873 180.596 137.224 180.596C133.183 180.596 129.964 179.755 127.567 178.073C125.182 176.377 123.785 174.072 123.374 171.158L131.7 170.72C131.951 171.952 132.561 172.893 133.528 173.542C134.495 174.178 135.733 174.496 137.244 174.496C138.727 174.496 139.919 174.211 140.82 173.641C141.734 173.059 142.198 172.31 142.211 171.396C142.198 170.628 141.873 169.998 141.237 169.508C140.602 169.005 139.621 168.621 138.297 168.356L133.011 167.303C130.031 166.707 127.812 165.673 126.354 164.203C124.911 162.732 124.189 160.858 124.189 158.58C124.189 156.619 124.718 154.93 125.778 153.513C126.851 152.095 128.355 151.002 130.289 150.234C132.236 149.466 134.515 149.081 137.124 149.081C140.979 149.081 144.013 149.896 146.225 151.526C148.45 153.155 149.749 155.374 150.12 158.182ZM170.055 180.596C166.915 180.596 164.213 179.96 161.948 178.689C159.696 177.404 157.96 175.589 156.741 173.244C155.523 170.886 154.913 168.098 154.913 164.879C154.913 161.739 155.523 158.984 156.741 156.612C157.96 154.241 159.676 152.393 161.888 151.068C164.113 149.744 166.723 149.081 169.717 149.081C171.73 149.081 173.605 149.406 175.34 150.055C177.089 150.691 178.612 151.651 179.911 152.936C181.222 154.221 182.242 155.837 182.971 157.785C183.699 159.719 184.063 161.984 184.063 164.58V166.905H158.291V161.659H176.095C176.095 160.441 175.83 159.361 175.301 158.421C174.771 157.48 174.035 156.745 173.095 156.215C172.168 155.672 171.088 155.4 169.856 155.4C168.571 155.4 167.432 155.698 166.438 156.294C165.458 156.877 164.69 157.666 164.133 158.659C163.577 159.639 163.292 160.732 163.279 161.938V166.925C163.279 168.435 163.557 169.74 164.113 170.84C164.683 171.939 165.485 172.787 166.518 173.383C167.551 173.979 168.776 174.277 170.194 174.277C171.134 174.277 171.995 174.145 172.777 173.88C173.559 173.615 174.228 173.218 174.784 172.688C175.34 172.158 175.764 171.509 176.056 170.74L183.885 171.257C183.487 173.138 182.673 174.781 181.441 176.185C180.222 177.576 178.645 178.662 176.711 179.444C174.791 180.212 172.572 180.596 170.055 180.596ZM198.052 162.355V180H189.587V149.479H197.655V154.864H198.013C198.688 153.089 199.821 151.684 201.41 150.651C203 149.605 204.928 149.081 207.193 149.081C209.312 149.081 211.16 149.545 212.737 150.472C214.313 151.4 215.538 152.724 216.413 154.446C217.287 156.155 217.724 158.195 217.724 160.567V180H209.259V162.077C209.273 160.209 208.796 158.752 207.829 157.705C206.862 156.645 205.53 156.116 203.835 156.116C202.695 156.116 201.689 156.361 200.814 156.851C199.953 157.341 199.278 158.056 198.788 158.997C198.311 159.924 198.066 161.044 198.052 162.355ZM251.757 149.479L241.087 180H231.549L220.879 149.479H229.82L236.159 171.317H236.477L242.796 149.479H251.757ZM268.896 180.596C265.809 180.596 263.14 179.94 260.888 178.629C258.649 177.304 256.92 175.463 255.702 173.105C254.483 170.734 253.874 167.985 253.874 164.859C253.874 161.706 254.483 158.95 255.702 156.593C256.92 154.221 258.649 152.38 260.888 151.068C263.14 149.744 265.809 149.081 268.896 149.081C271.982 149.081 274.645 149.744 276.884 151.068C279.136 152.38 280.871 154.221 282.09 156.593C283.309 158.95 283.918 161.706 283.918 164.859C283.918 167.985 283.309 170.734 282.09 173.105C280.871 175.463 279.136 177.304 276.884 178.629C274.645 179.94 271.982 180.596 268.896 180.596ZM268.936 174.039C270.34 174.039 271.512 173.641 272.453 172.847C273.393 172.039 274.102 170.939 274.579 169.548C275.069 168.157 275.314 166.574 275.314 164.799C275.314 163.024 275.069 161.441 274.579 160.05C274.102 158.659 273.393 157.56 272.453 156.751C271.512 155.943 270.34 155.539 268.936 155.539C267.518 155.539 266.326 155.943 265.359 156.751C264.405 157.56 263.683 158.659 263.193 160.05C262.716 161.441 262.478 163.024 262.478 164.799C262.478 166.574 262.716 168.157 263.193 169.548C263.683 170.939 264.405 172.039 265.359 172.847C266.326 173.641 267.518 174.039 268.936 174.039ZM297.887 139.305V180H289.422V139.305H297.887ZM333.122 149.479L322.452 180H312.914L302.244 149.479H311.185L317.524 171.317H317.842L324.161 149.479H333.122ZM345.338 180.576C343.39 180.576 341.655 180.238 340.132 179.563C338.608 178.874 337.403 177.861 336.515 176.523C335.641 175.171 335.204 173.489 335.204 171.476C335.204 169.78 335.515 168.356 336.138 167.203C336.76 166.051 337.608 165.124 338.681 164.421C339.754 163.719 340.973 163.19 342.337 162.832C343.715 162.474 345.159 162.222 346.669 162.077C348.444 161.891 349.875 161.719 350.961 161.56C352.047 161.388 352.836 161.136 353.326 160.805C353.816 160.474 354.061 159.984 354.061 159.335V159.215C354.061 157.957 353.664 156.983 352.869 156.294C352.087 155.606 350.974 155.261 349.53 155.261C348.007 155.261 346.795 155.599 345.894 156.275C344.993 156.937 344.397 157.771 344.106 158.778L336.277 158.142C336.674 156.288 337.456 154.685 338.622 153.334C339.787 151.969 341.291 150.923 343.132 150.194C344.987 149.452 347.133 149.081 349.57 149.081C351.266 149.081 352.889 149.28 354.438 149.678C356.002 150.075 357.386 150.691 358.591 151.526C359.81 152.36 360.771 153.433 361.473 154.745C362.175 156.043 362.526 157.599 362.526 159.414V180H354.498V175.768H354.26C353.769 176.721 353.114 177.563 352.292 178.291C351.471 179.006 350.484 179.569 349.332 179.98C348.179 180.378 346.848 180.576 345.338 180.576ZM347.762 174.734C349.007 174.734 350.107 174.489 351.06 173.999C352.014 173.496 352.763 172.82 353.306 171.972C353.849 171.124 354.121 170.164 354.121 169.091V165.852C353.856 166.024 353.491 166.183 353.028 166.329C352.577 166.462 352.067 166.587 351.498 166.707C350.928 166.813 350.358 166.912 349.789 167.005C349.219 167.084 348.703 167.157 348.239 167.223C347.245 167.369 346.378 167.601 345.636 167.919C344.894 168.237 344.318 168.667 343.907 169.21C343.496 169.74 343.291 170.403 343.291 171.197C343.291 172.35 343.708 173.231 344.543 173.84C345.391 174.436 346.464 174.734 347.762 174.734ZM374.041 180.517C372.729 180.517 371.603 180.053 370.663 179.126C369.735 178.185 369.272 177.059 369.272 175.748C369.272 174.449 369.735 173.337 370.663 172.409C371.603 171.482 372.729 171.019 374.041 171.019C375.312 171.019 376.425 171.482 377.379 172.409C378.333 173.337 378.81 174.449 378.81 175.748C378.81 176.622 378.584 177.423 378.134 178.152C377.697 178.867 377.121 179.444 376.405 179.881C375.69 180.305 374.902 180.517 374.041 180.517ZM411.382 180H396.956V139.305H411.502C415.595 139.305 419.119 140.12 422.073 141.749C425.027 143.365 427.299 145.69 428.888 148.724C430.491 151.757 431.293 155.387 431.293 159.613C431.293 163.852 430.491 167.495 428.888 170.542C427.299 173.588 425.014 175.927 422.033 177.556C419.066 179.185 415.516 180 411.382 180ZM405.56 172.628H411.025C413.568 172.628 415.708 172.178 417.443 171.277C419.192 170.363 420.503 168.952 421.377 167.044C422.265 165.124 422.709 162.646 422.709 159.613C422.709 156.606 422.265 154.148 421.377 152.241C420.503 150.333 419.198 148.929 417.463 148.028C415.727 147.128 413.588 146.677 411.045 146.677H405.56V172.628ZM437.507 180V149.479H445.972V180H437.507ZM441.76 145.544C440.501 145.544 439.421 145.127 438.521 144.293C437.633 143.445 437.189 142.431 437.189 141.252C437.189 140.087 437.633 139.087 438.521 138.252C439.421 137.404 440.501 136.98 441.76 136.98C443.018 136.98 444.091 137.404 444.979 138.252C445.879 139.087 446.33 140.087 446.33 141.252C446.33 142.431 445.879 143.445 444.979 144.293C444.091 145.127 443.018 145.544 441.76 145.544ZM478.147 158.182L470.398 158.659C470.266 157.997 469.981 157.401 469.544 156.871C469.106 156.328 468.53 155.897 467.815 155.579C467.113 155.248 466.272 155.082 465.291 155.082C463.98 155.082 462.874 155.361 461.973 155.917C461.072 156.46 460.622 157.189 460.622 158.103C460.622 158.831 460.913 159.447 461.496 159.951C462.079 160.454 463.079 160.858 464.496 161.163L470.02 162.275C472.988 162.885 475.2 163.865 476.657 165.216C478.114 166.568 478.843 168.343 478.843 170.542C478.843 172.542 478.253 174.297 477.074 175.807C475.909 177.317 474.306 178.496 472.266 179.344C470.239 180.179 467.901 180.596 465.252 180.596C461.211 180.596 457.992 179.755 455.594 178.073C453.21 176.377 451.812 174.072 451.402 171.158L459.727 170.72C459.979 171.952 460.589 172.893 461.556 173.542C462.523 174.178 463.761 174.496 465.271 174.496C466.755 174.496 467.947 174.211 468.848 173.641C469.762 173.059 470.226 172.31 470.239 171.396C470.226 170.628 469.901 169.998 469.265 169.508C468.629 169.005 467.649 168.621 466.325 168.356L461.039 167.303C458.058 166.707 455.839 165.673 454.382 164.203C452.938 162.732 452.216 160.858 452.216 158.58C452.216 156.619 452.746 154.93 453.806 153.513C454.879 152.095 456.383 151.002 458.317 150.234C460.264 149.466 462.542 149.081 465.152 149.081C469.007 149.081 472.041 149.896 474.253 151.526C476.478 153.155 477.777 155.374 478.147 158.182ZM500.407 149.479V155.837H482.027V149.479H500.407ZM486.2 142.166H494.665V170.621C494.665 171.403 494.784 172.012 495.023 172.449C495.261 172.873 495.592 173.171 496.016 173.343C496.453 173.516 496.957 173.602 497.526 173.602C497.924 173.602 498.321 173.569 498.718 173.502C499.116 173.423 499.421 173.363 499.633 173.323L500.964 179.622C500.54 179.755 499.944 179.907 499.175 180.079C498.407 180.265 497.473 180.378 496.374 180.417C494.334 180.497 492.545 180.225 491.009 179.603C489.485 178.98 488.3 178.013 487.452 176.701C486.604 175.39 486.187 173.734 486.2 171.734V142.166ZM505.922 180V149.479H514.128V154.804H514.446C515.002 152.91 515.936 151.479 517.248 150.512C518.559 149.532 520.069 149.042 521.778 149.042C522.202 149.042 522.659 149.068 523.149 149.121C523.639 149.174 524.07 149.247 524.441 149.34V156.851C524.043 156.732 523.494 156.626 522.792 156.533C522.09 156.44 521.447 156.394 520.864 156.394C519.619 156.394 518.506 156.665 517.526 157.208C516.559 157.738 515.791 158.48 515.221 159.434C514.665 160.388 514.386 161.487 514.386 162.732V180H505.922ZM528.817 180V149.479H537.282V180H528.817ZM533.07 145.544C531.811 145.544 530.732 145.127 529.831 144.293C528.943 143.445 528.499 142.431 528.499 141.252C528.499 140.087 528.943 139.087 529.831 138.252C530.732 137.404 531.811 136.98 533.07 136.98C534.328 136.98 535.401 137.404 536.289 138.252C537.19 139.087 537.64 140.087 537.64 141.252C537.64 142.431 537.19 143.445 536.289 144.293C535.401 145.127 534.328 145.544 533.07 145.544ZM544.222 180V139.305H552.687V154.605H552.945C553.316 153.784 553.853 152.95 554.555 152.102C555.27 151.241 556.197 150.525 557.337 149.956C558.489 149.373 559.92 149.081 561.629 149.081C563.854 149.081 565.907 149.664 567.788 150.83C569.67 151.983 571.173 153.725 572.299 156.056C573.425 158.374 573.988 161.282 573.988 164.779C573.988 168.184 573.438 171.058 572.339 173.403C571.253 175.734 569.769 177.503 567.888 178.708C566.02 179.901 563.927 180.497 561.609 180.497C559.966 180.497 558.569 180.225 557.416 179.682C556.277 179.139 555.343 178.457 554.614 177.635C553.886 176.801 553.329 175.96 552.945 175.112H552.568V180H544.222ZM552.508 164.739C552.508 166.554 552.76 168.137 553.263 169.488C553.766 170.84 554.495 171.893 555.449 172.648C556.403 173.39 557.562 173.761 558.926 173.761C560.304 173.761 561.47 173.383 562.423 172.628C563.377 171.86 564.099 170.8 564.589 169.449C565.093 168.084 565.344 166.515 565.344 164.739C565.344 162.978 565.099 161.428 564.609 160.09C564.119 158.752 563.397 157.705 562.443 156.95C561.49 156.195 560.317 155.818 558.926 155.818C557.549 155.818 556.383 156.182 555.429 156.91C554.488 157.639 553.766 158.672 553.263 160.01C552.76 161.348 552.508 162.925 552.508 164.739ZM599.209 167.005V149.479H607.674V180H599.547V174.456H599.229C598.54 176.244 597.394 177.682 595.791 178.768C594.201 179.854 592.261 180.397 589.969 180.397C587.929 180.397 586.134 179.934 584.584 179.006C583.034 178.079 581.822 176.761 580.948 175.052C580.087 173.343 579.65 171.297 579.636 168.912V149.479H588.101V167.402C588.114 169.204 588.598 170.628 589.552 171.674C590.505 172.721 591.784 173.244 593.387 173.244C594.407 173.244 595.361 173.012 596.248 172.549C597.136 172.072 597.851 171.37 598.394 170.442C598.95 169.515 599.222 168.369 599.209 167.005ZM623.148 180.576C621.201 180.576 619.465 180.238 617.942 179.563C616.418 178.874 615.213 177.861 614.325 176.523C613.451 175.171 613.014 173.489 613.014 171.476C613.014 169.78 613.325 168.356 613.948 167.203C614.57 166.051 615.418 165.124 616.491 164.421C617.564 163.719 618.783 163.19 620.147 162.832C621.525 162.474 622.969 162.222 624.479 162.077C626.254 161.891 627.685 161.719 628.771 161.56C629.857 161.388 630.646 161.136 631.136 160.805C631.626 160.474 631.871 159.984 631.871 159.335V159.215C631.871 157.957 631.474 156.983 630.679 156.294C629.897 155.606 628.784 155.261 627.341 155.261C625.817 155.261 624.605 155.599 623.704 156.275C622.803 156.937 622.207 157.771 621.916 158.778L614.087 158.142C614.484 156.288 615.266 154.685 616.432 153.334C617.597 151.969 619.101 150.923 620.942 150.194C622.797 149.452 624.943 149.081 627.38 149.081C629.076 149.081 630.699 149.28 632.249 149.678C633.812 150.075 635.196 150.691 636.401 151.526C637.62 152.36 638.581 153.433 639.283 154.745C639.985 156.043 640.336 157.599 640.336 159.414V180H632.308V175.768H632.07C631.58 176.721 630.924 177.563 630.103 178.291C629.281 179.006 628.294 179.569 627.142 179.98C625.989 180.378 624.658 180.576 623.148 180.576ZM625.572 174.734C626.817 174.734 627.917 174.489 628.871 173.999C629.824 173.496 630.573 172.82 631.116 171.972C631.659 171.124 631.931 170.164 631.931 169.091V165.852C631.666 166.024 631.301 166.183 630.838 166.329C630.387 166.462 629.877 166.587 629.308 166.707C628.738 166.813 628.168 166.912 627.599 167.005C627.029 167.084 626.513 167.157 626.049 167.223C625.055 167.369 624.188 167.601 623.446 167.919C622.704 168.237 622.128 168.667 621.717 169.21C621.306 169.74 621.101 170.403 621.101 171.197C621.101 172.35 621.518 173.231 622.353 173.84C623.201 174.436 624.274 174.734 625.572 174.734ZM651.851 180.517C650.539 180.517 649.413 180.053 648.473 179.126C647.545 178.185 647.082 177.059 647.082 175.748C647.082 174.449 647.545 173.337 648.473 172.409C649.413 171.482 650.539 171.019 651.851 171.019C653.122 171.019 654.235 171.482 655.189 172.409C656.143 173.337 656.62 174.449 656.62 175.748C656.62 176.622 656.395 177.423 655.944 178.152C655.507 178.867 654.931 179.444 654.215 179.881C653.5 180.305 652.712 180.517 651.851 180.517ZM674.767 180V139.305H702.188V146.399H683.37V156.096H700.777V163.19H683.37V172.906H702.267V180H674.767ZM734.264 158.182L726.514 158.659C726.382 157.997 726.097 157.401 725.66 156.871C725.223 156.328 724.647 155.897 723.931 155.579C723.229 155.248 722.388 155.082 721.408 155.082C720.096 155.082 718.99 155.361 718.089 155.917C717.188 156.46 716.738 157.189 716.738 158.103C716.738 158.831 717.029 159.447 717.612 159.951C718.195 160.454 719.195 160.858 720.613 161.163L726.137 162.275C729.104 162.885 731.316 163.865 732.774 165.216C734.231 166.568 734.959 168.343 734.959 170.542C734.959 172.542 734.37 174.297 733.191 175.807C732.025 177.317 730.422 178.496 728.382 179.344C726.355 180.179 724.017 180.596 721.368 180.596C717.328 180.596 714.109 179.755 711.711 178.073C709.326 176.377 707.929 174.072 707.518 171.158L715.844 170.72C716.096 171.952 716.705 172.893 717.672 173.542C718.639 174.178 719.878 174.496 721.388 174.496C722.871 174.496 724.064 174.211 724.964 173.641C725.879 173.059 726.342 172.31 726.355 171.396C726.342 170.628 726.018 169.998 725.382 169.508C724.746 169.005 723.766 168.621 722.441 168.356L717.155 167.303C714.175 166.707 711.956 165.673 710.499 164.203C709.055 162.732 708.333 160.858 708.333 158.58C708.333 156.619 708.863 154.93 709.922 153.513C710.995 152.095 712.499 151.002 714.433 150.234C716.38 149.466 718.659 149.081 721.269 149.081C725.123 149.081 728.157 149.896 730.369 151.526C732.595 153.155 733.893 155.374 734.264 158.182ZM754.08 180.596C750.953 180.596 748.264 179.934 746.012 178.609C743.774 177.271 742.051 175.417 740.846 173.045C739.654 170.674 739.058 167.945 739.058 164.859C739.058 161.732 739.66 158.99 740.866 156.632C742.085 154.261 743.813 152.413 746.052 151.088C748.291 149.75 750.953 149.081 754.04 149.081C756.703 149.081 759.034 149.565 761.034 150.532C763.035 151.499 764.618 152.857 765.784 154.605C766.949 156.354 767.592 158.407 767.711 160.765H759.723C759.498 159.242 758.902 158.017 757.935 157.089C756.981 156.149 755.729 155.678 754.179 155.678C752.868 155.678 751.722 156.036 750.742 156.751C749.774 157.454 749.019 158.48 748.476 159.831C747.933 161.183 747.662 162.819 747.662 164.739C747.662 166.687 747.927 168.343 748.456 169.707C749 171.072 749.761 172.111 750.742 172.827C751.722 173.542 752.868 173.9 754.179 173.9C755.146 173.9 756.014 173.701 756.782 173.304C757.564 172.906 758.206 172.33 758.71 171.575C759.226 170.807 759.564 169.886 759.723 168.813H767.711C767.578 171.144 766.943 173.198 765.803 174.973C764.677 176.735 763.121 178.112 761.134 179.106C759.147 180.099 756.795 180.596 754.08 180.596ZM781.834 180.576C779.887 180.576 778.151 180.238 776.628 179.563C775.104 178.874 773.899 177.861 773.011 176.523C772.137 175.171 771.7 173.489 771.7 171.476C771.7 169.78 772.011 168.356 772.634 167.203C773.256 166.051 774.104 165.124 775.177 164.421C776.25 163.719 777.469 163.19 778.833 162.832C780.211 162.474 781.655 162.222 783.165 162.077C784.94 161.891 786.371 161.719 787.457 161.56C788.544 161.388 789.332 161.136 789.822 160.805C790.312 160.474 790.557 159.984 790.557 159.335V159.215C790.557 157.957 790.16 156.983 789.365 156.294C788.583 155.606 787.471 155.261 786.027 155.261C784.503 155.261 783.291 155.599 782.39 156.275C781.489 156.937 780.893 157.771 780.602 158.778L772.773 158.142C773.17 156.288 773.952 154.685 775.118 153.334C776.283 151.969 777.787 150.923 779.628 150.194C781.483 149.452 783.629 149.081 786.066 149.081C787.762 149.081 789.385 149.28 790.935 149.678C792.498 150.075 793.882 150.691 795.088 151.526C796.306 152.36 797.267 153.433 797.969 154.745C798.671 156.043 799.022 157.599 799.022 159.414V180H790.994V175.768H790.756C790.266 176.721 789.61 177.563 788.789 178.291C787.967 179.006 786.98 179.569 785.828 179.98C784.675 180.378 783.344 180.576 781.834 180.576ZM784.258 174.734C785.503 174.734 786.603 174.489 787.557 173.999C788.51 173.496 789.259 172.82 789.802 171.972C790.345 171.124 790.617 170.164 790.617 169.091V165.852C790.352 166.024 789.987 166.183 789.524 166.329C789.073 166.462 788.563 166.587 787.994 166.707C787.424 166.813 786.855 166.912 786.285 167.005C785.715 167.084 785.199 167.157 784.735 167.223C783.741 167.369 782.874 167.601 782.132 167.919C781.39 168.237 780.814 168.667 780.403 169.21C779.993 169.74 779.787 170.403 779.787 171.197C779.787 172.35 780.205 173.231 781.039 173.84C781.887 174.436 782.96 174.734 784.258 174.734ZM814.054 139.305V180H805.589V139.305H814.054ZM834.744 180.596C831.605 180.596 828.902 179.96 826.637 178.689C824.385 177.404 822.65 175.589 821.431 173.244C820.212 170.886 819.603 168.098 819.603 164.879C819.603 161.739 820.212 158.984 821.431 156.612C822.65 154.241 824.365 152.393 826.577 151.068C828.803 149.744 831.413 149.081 834.406 149.081C836.42 149.081 838.294 149.406 840.03 150.055C841.778 150.691 843.302 151.651 844.6 152.936C845.911 154.221 846.931 155.837 847.66 157.785C848.389 159.719 848.753 161.984 848.753 164.58V166.905H822.981V161.659H840.785C840.785 160.441 840.52 159.361 839.99 158.421C839.46 157.48 838.725 156.745 837.784 156.215C836.857 155.672 835.777 155.4 834.546 155.4C833.261 155.4 832.121 155.698 831.128 156.294C830.148 156.877 829.379 157.666 828.823 158.659C828.266 159.639 827.982 160.732 827.968 161.938V166.925C827.968 168.435 828.247 169.74 828.803 170.84C829.373 171.939 830.174 172.787 831.207 173.383C832.241 173.979 833.466 174.277 834.883 174.277C835.824 174.277 836.685 174.145 837.466 173.88C838.248 173.615 838.917 173.218 839.473 172.688C840.03 172.158 840.454 171.509 840.745 170.74L848.574 171.257C848.177 173.138 847.362 174.781 846.13 176.185C844.911 177.576 843.335 178.662 841.401 179.444C839.48 180.212 837.261 180.596 834.744 180.596ZM859.225 180.517C857.913 180.517 856.787 180.053 855.847 179.126C854.919 178.185 854.456 177.059 854.456 175.748C854.456 174.449 854.919 173.337 855.847 172.409C856.787 171.482 857.913 171.019 859.225 171.019C860.496 171.019 861.609 171.482 862.563 172.409C863.517 173.337 863.994 174.449 863.994 175.748C863.994 176.622 863.768 177.423 863.318 178.152C862.881 178.867 862.305 179.444 861.589 179.881C860.874 180.305 860.086 180.517 859.225 180.517Z" fill="white"/>
<path d="M66.0325 207.011H63.5685C63.4228 206.302 63.1678 205.68 62.8035 205.143C62.4458 204.607 62.0087 204.156 61.492 203.792C60.982 203.421 60.4157 203.143 59.7931 202.958C59.1705 202.772 58.5214 202.679 57.8458 202.679C56.6138 202.679 55.4978 202.991 54.4976 203.613C53.5041 204.236 52.7126 205.153 52.1231 206.365C51.5402 207.577 51.2488 209.064 51.2488 210.826C51.2488 212.588 51.5402 214.075 52.1231 215.287C52.7126 216.499 53.5041 217.417 54.4976 218.039C55.4978 218.662 56.6138 218.973 57.8458 218.973C58.5214 218.973 59.1705 218.88 59.7931 218.695C60.4157 218.51 60.982 218.235 61.492 217.87C62.0087 217.499 62.4458 217.046 62.8035 216.509C63.1678 215.966 63.4228 215.344 63.5685 214.641H66.0325C65.847 215.681 65.5092 216.612 65.0191 217.433C64.5289 218.255 63.9196 218.953 63.191 219.53C62.4624 220.099 61.6444 220.533 60.737 220.831C59.8362 221.129 58.8724 221.278 57.8458 221.278C56.1104 221.278 54.5672 220.854 53.216 220.006C51.8648 219.159 50.8017 217.953 50.0267 216.39C49.2518 214.827 48.8643 212.972 48.8643 210.826C48.8643 208.68 49.2518 206.826 50.0267 205.263C50.8017 203.699 51.8648 202.494 53.216 201.646C54.5672 200.798 56.1104 200.374 57.8458 200.374C58.8724 200.374 59.8362 200.523 60.737 200.821C61.6444 201.12 62.4624 201.557 63.191 202.133C63.9196 202.703 64.5289 203.398 65.0191 204.219C65.5092 205.034 65.847 205.965 66.0325 207.011ZM69.6961 221V205.739H71.9613V208.044H72.1203C72.3985 207.289 72.9019 206.677 73.6305 206.206C74.359 205.736 75.1804 205.501 76.0944 205.501C76.2666 205.501 76.4819 205.504 76.7402 205.511C76.9985 205.518 77.1939 205.527 77.3264 205.541V207.925C77.2469 207.905 77.0648 207.876 76.7799 207.836C76.5018 207.789 76.207 207.766 75.8957 207.766C75.1539 207.766 74.4915 207.922 73.9086 208.233C73.3324 208.538 72.8754 208.962 72.5376 209.505C72.2064 210.041 72.0408 210.654 72.0408 211.343V221H69.6961ZM80.1058 221V205.739H82.4505V221H80.1058ZM81.298 203.196C80.841 203.196 80.4469 203.04 80.1157 202.729C79.7912 202.418 79.6289 202.044 79.6289 201.606C79.6289 201.169 79.7912 200.795 80.1157 200.484C80.4469 200.172 80.841 200.017 81.298 200.017C81.755 200.017 82.1458 200.172 82.4704 200.484C82.8015 200.795 82.9671 201.169 82.9671 201.606C82.9671 202.044 82.8015 202.418 82.4704 202.729C82.1458 203.04 81.755 203.196 81.298 203.196ZM93.1433 221.318C91.6729 221.318 90.4045 220.993 89.3381 220.344C88.2784 219.689 87.4604 218.774 86.8841 217.602C86.3145 216.423 86.0297 215.052 86.0297 213.489C86.0297 211.926 86.3145 210.548 86.8841 209.356C87.4604 208.157 88.2618 207.223 89.2884 206.554C90.3217 205.879 91.5272 205.541 92.9049 205.541C93.6997 205.541 94.4846 205.673 95.2595 205.938C96.0345 206.203 96.7399 206.634 97.3758 207.23C98.0116 207.819 98.5183 208.601 98.8959 209.574C99.2734 210.548 99.4622 211.747 99.4622 213.171V214.165H87.6988V212.138H97.0777C97.0777 211.277 96.9055 210.508 96.5611 209.833C96.2233 209.157 95.7397 208.624 95.1105 208.233C94.4879 207.842 93.7527 207.647 92.9049 207.647C91.971 207.647 91.1629 207.879 90.4807 208.342C89.8051 208.799 89.2851 209.396 88.9208 210.131C88.5565 210.866 88.3744 211.654 88.3744 212.495V213.847C88.3744 214.999 88.5731 215.976 88.9705 216.778C89.3746 217.572 89.9342 218.178 90.6496 218.596C91.3649 219.006 92.1962 219.212 93.1433 219.212C93.7593 219.212 94.3157 219.126 94.8125 218.953C95.3158 218.774 95.7497 218.51 96.114 218.159C96.4783 217.801 96.7598 217.357 96.9585 216.827L99.2237 217.463C98.9853 218.231 98.5845 218.907 98.0215 219.49C97.4586 220.066 96.7631 220.516 95.9351 220.841C95.1072 221.159 94.1766 221.318 93.1433 221.318ZM120.515 214.761V205.739H122.86V221H120.515V218.417H120.356C119.998 219.192 119.442 219.851 118.687 220.394C117.932 220.93 116.978 221.199 115.826 221.199C114.872 221.199 114.024 220.99 113.282 220.573C112.54 220.149 111.957 219.513 111.534 218.665C111.11 217.811 110.898 216.734 110.898 215.436V205.739H113.242V215.277C113.242 216.39 113.554 217.278 114.176 217.94C114.806 218.602 115.607 218.933 116.581 218.933C117.164 218.933 117.756 218.784 118.359 218.486C118.968 218.188 119.478 217.731 119.889 217.115C120.306 216.499 120.515 215.714 120.515 214.761ZM127.154 221V205.739H129.419V208.124H129.618C129.936 207.309 130.449 206.677 131.158 206.226C131.867 205.769 132.718 205.541 133.712 205.541C134.718 205.541 135.556 205.769 136.225 206.226C136.901 206.677 137.427 207.309 137.805 208.124H137.964C138.355 207.336 138.941 206.71 139.722 206.246C140.504 205.776 141.441 205.541 142.534 205.541C143.898 205.541 145.015 205.968 145.882 206.822C146.75 207.67 147.184 208.992 147.184 210.787V221H144.839V210.787C144.839 209.661 144.531 208.856 143.915 208.372C143.299 207.889 142.574 207.647 141.739 207.647C140.666 207.647 139.835 207.972 139.245 208.621C138.656 209.263 138.361 210.078 138.361 211.065V221H135.977V210.548C135.977 209.68 135.695 208.982 135.132 208.452C134.569 207.915 133.844 207.647 132.956 207.647C132.347 207.647 131.777 207.809 131.248 208.134C130.724 208.458 130.3 208.909 129.976 209.485C129.658 210.055 129.499 210.714 129.499 211.462V221H127.154ZM165.937 221H159.657V200.653H166.215C168.189 200.653 169.878 201.06 171.282 201.875C172.686 202.683 173.762 203.845 174.511 205.362C175.259 206.872 175.633 208.68 175.633 210.787C175.633 212.906 175.256 214.731 174.501 216.261C173.746 217.784 172.646 218.957 171.202 219.778C169.758 220.593 168.003 221 165.937 221ZM162.121 218.814H165.778C167.46 218.814 168.854 218.49 169.96 217.841C171.066 217.191 171.891 216.267 172.434 215.069C172.977 213.87 173.249 212.442 173.249 210.787C173.249 209.144 172.981 207.73 172.444 206.544C171.908 205.352 171.106 204.438 170.04 203.802C168.973 203.16 167.645 202.838 166.056 202.838H162.121V218.814ZM185.847 221.318C184.376 221.318 183.108 220.993 182.042 220.344C180.982 219.689 180.164 218.774 179.588 217.602C179.018 216.423 178.733 215.052 178.733 213.489C178.733 211.926 179.018 210.548 179.588 209.356C180.164 208.157 180.965 207.223 181.992 206.554C183.025 205.879 184.231 205.541 185.608 205.541C186.403 205.541 187.188 205.673 187.963 205.938C188.738 206.203 189.443 206.634 190.079 207.23C190.715 207.819 191.222 208.601 191.599 209.574C191.977 210.548 192.166 211.747 192.166 213.171V214.165H180.402V212.138H189.781C189.781 211.277 189.609 210.508 189.265 209.833C188.927 209.157 188.443 208.624 187.814 208.233C187.191 207.842 186.456 207.647 185.608 207.647C184.674 207.647 183.866 207.879 183.184 208.342C182.509 208.799 181.989 209.396 181.624 210.131C181.26 210.866 181.078 211.654 181.078 212.495V213.847C181.078 214.999 181.277 215.976 181.674 216.778C182.078 217.572 182.638 218.178 183.353 218.596C184.068 219.006 184.9 219.212 185.847 219.212C186.463 219.212 187.019 219.126 187.516 218.953C188.019 218.774 188.453 218.51 188.817 218.159C189.182 217.801 189.463 217.357 189.662 216.827L191.927 217.463C191.689 218.231 191.288 218.907 190.725 219.49C190.162 220.066 189.467 220.516 188.639 220.841C187.811 221.159 186.88 221.318 185.847 221.318ZM206.542 209.157L204.436 209.753C204.303 209.402 204.108 209.061 203.85 208.73C203.598 208.392 203.253 208.114 202.816 207.895C202.379 207.677 201.819 207.568 201.137 207.568C200.203 207.568 199.425 207.783 198.802 208.213C198.186 208.637 197.878 209.177 197.878 209.833C197.878 210.416 198.09 210.876 198.514 211.214C198.938 211.552 199.601 211.833 200.501 212.058L202.767 212.615C204.131 212.946 205.148 213.453 205.817 214.135C206.486 214.81 206.82 215.681 206.82 216.748C206.82 217.622 206.569 218.404 206.065 219.092C205.568 219.781 204.873 220.324 203.979 220.722C203.085 221.119 202.045 221.318 200.859 221.318C199.303 221.318 198.014 220.98 196.994 220.305C195.974 219.629 195.328 218.642 195.057 217.344L197.282 216.787C197.494 217.609 197.895 218.225 198.485 218.635C199.081 219.046 199.859 219.251 200.819 219.251C201.912 219.251 202.78 219.02 203.422 218.556C204.071 218.086 204.396 217.523 204.396 216.867C204.396 216.337 204.211 215.893 203.84 215.536C203.469 215.171 202.899 214.9 202.131 214.721L199.587 214.125C198.19 213.794 197.163 213.28 196.507 212.585C195.858 211.883 195.534 211.005 195.534 209.952C195.534 209.091 195.776 208.329 196.259 207.667C196.749 207.005 197.415 206.485 198.256 206.107C199.104 205.729 200.064 205.541 201.137 205.541C202.647 205.541 203.833 205.872 204.694 206.534C205.562 207.197 206.178 208.071 206.542 209.157ZM210.35 221V205.739H212.694V221H210.35ZM211.542 203.196C211.085 203.196 210.691 203.04 210.36 202.729C210.035 202.418 209.873 202.044 209.873 201.606C209.873 201.169 210.035 200.795 210.36 200.484C210.691 200.172 211.085 200.017 211.542 200.017C211.999 200.017 212.39 200.172 212.714 200.484C213.045 200.795 213.211 201.169 213.211 201.606C213.211 202.044 213.045 202.418 212.714 202.729C212.39 203.04 211.999 203.196 211.542 203.196ZM223.149 227.041C222.016 227.041 221.043 226.895 220.228 226.603C219.413 226.319 218.734 225.941 218.191 225.471C217.655 225.007 217.227 224.51 216.909 223.981L218.777 222.669C218.989 222.947 219.258 223.265 219.582 223.623C219.907 223.987 220.35 224.302 220.913 224.567C221.483 224.838 222.228 224.974 223.149 224.974C224.381 224.974 225.398 224.676 226.199 224.08C227 223.484 227.401 222.55 227.401 221.278V218.178H227.202C227.03 218.457 226.785 218.801 226.467 219.212C226.156 219.616 225.706 219.977 225.116 220.295C224.533 220.606 223.745 220.762 222.751 220.762C221.519 220.762 220.413 220.47 219.433 219.887C218.459 219.304 217.688 218.457 217.118 217.344C216.555 216.231 216.274 214.88 216.274 213.29C216.274 211.727 216.548 210.366 217.098 209.207C217.648 208.041 218.413 207.14 219.393 206.504C220.374 205.862 221.506 205.541 222.791 205.541C223.785 205.541 224.573 205.706 225.156 206.037C225.745 206.362 226.196 206.733 226.507 207.15C226.825 207.561 227.07 207.899 227.242 208.164H227.481V205.739H229.746V221.437C229.746 222.749 229.448 223.815 228.852 224.636C228.262 225.464 227.467 226.07 226.467 226.454C225.474 226.845 224.368 227.041 223.149 227.041ZM223.069 218.655C224.01 218.655 224.805 218.44 225.454 218.009C226.103 217.579 226.596 216.96 226.934 216.152C227.272 215.344 227.441 214.376 227.441 213.25C227.441 212.151 227.275 211.181 226.944 210.339C226.613 209.498 226.123 208.839 225.474 208.362C224.825 207.885 224.023 207.647 223.069 207.647C222.076 207.647 221.248 207.899 220.586 208.402C219.93 208.905 219.436 209.581 219.105 210.429C218.781 211.277 218.618 212.217 218.618 213.25C218.618 214.31 218.784 215.247 219.115 216.062C219.453 216.87 219.95 217.506 220.605 217.97C221.268 218.427 222.089 218.655 223.069 218.655ZM236.383 211.82V221H234.038V205.739H236.303V208.124H236.502C236.86 207.349 237.403 206.726 238.131 206.256C238.86 205.779 239.8 205.541 240.953 205.541C241.986 205.541 242.89 205.753 243.665 206.177C244.44 206.594 245.043 207.23 245.473 208.084C245.904 208.932 246.119 210.005 246.119 211.303V221H243.774V211.462C243.774 210.263 243.463 209.329 242.841 208.66C242.218 207.985 241.364 207.647 240.277 207.647C239.529 207.647 238.86 207.809 238.27 208.134C237.687 208.458 237.227 208.932 236.889 209.555C236.552 210.177 236.383 210.932 236.383 211.82ZM269.718 205.739C269.599 204.733 269.115 203.951 268.267 203.395C267.42 202.838 266.38 202.56 265.148 202.56C264.247 202.56 263.459 202.706 262.783 202.997C262.114 203.289 261.591 203.689 261.213 204.199C260.842 204.709 260.657 205.289 260.657 205.938C260.657 206.481 260.786 206.948 261.044 207.339C261.309 207.723 261.647 208.044 262.058 208.303C262.468 208.554 262.899 208.763 263.349 208.929C263.8 209.088 264.214 209.217 264.591 209.316L266.658 209.872C267.188 210.012 267.777 210.204 268.426 210.449C269.082 210.694 269.708 211.028 270.304 211.452C270.907 211.869 271.404 212.406 271.794 213.062C272.185 213.717 272.381 214.522 272.381 215.476C272.381 216.575 272.092 217.569 271.516 218.457C270.947 219.344 270.112 220.05 269.013 220.573C267.92 221.096 266.592 221.358 265.028 221.358C263.571 221.358 262.31 221.123 261.243 220.652C260.183 220.182 259.349 219.526 258.739 218.685C258.137 217.844 257.796 216.867 257.716 215.754H260.26C260.326 216.523 260.584 217.158 261.035 217.662C261.492 218.159 262.068 218.529 262.763 218.774C263.465 219.013 264.22 219.132 265.028 219.132C265.969 219.132 266.814 218.98 267.562 218.675C268.31 218.364 268.903 217.933 269.34 217.384C269.778 216.827 269.996 216.178 269.996 215.436C269.996 214.761 269.807 214.211 269.43 213.787C269.052 213.363 268.556 213.019 267.94 212.754C267.324 212.489 266.658 212.257 265.943 212.058L263.439 211.343C261.849 210.886 260.591 210.233 259.663 209.386C258.736 208.538 258.272 207.428 258.272 206.057C258.272 204.918 258.58 203.925 259.196 203.077C259.819 202.222 260.654 201.56 261.7 201.09C262.753 200.613 263.929 200.374 265.227 200.374C266.539 200.374 267.704 200.61 268.724 201.08C269.744 201.543 270.552 202.179 271.149 202.987C271.751 203.795 272.069 204.713 272.102 205.739H269.718ZM277.624 226.723C277.227 226.723 276.872 226.69 276.561 226.623C276.25 226.564 276.034 226.504 275.915 226.445L276.511 224.378C277.081 224.524 277.584 224.577 278.021 224.537C278.458 224.497 278.846 224.302 279.184 223.951C279.528 223.606 279.843 223.047 280.128 222.272L280.565 221.079L274.922 205.739H277.465L281.678 217.9H281.836L286.049 205.739H288.592L282.115 223.226C281.823 224.014 281.462 224.666 281.032 225.183C280.601 225.706 280.101 226.093 279.531 226.345C278.968 226.597 278.333 226.723 277.624 226.723ZM302.497 209.157L300.391 209.753C300.258 209.402 300.063 209.061 299.804 208.73C299.553 208.392 299.208 208.114 298.771 207.895C298.334 207.677 297.774 207.568 297.092 207.568C296.158 207.568 295.38 207.783 294.757 208.213C294.141 208.637 293.833 209.177 293.833 209.833C293.833 210.416 294.045 210.876 294.469 211.214C294.893 211.552 295.555 211.833 296.456 212.058L298.721 212.615C300.086 212.946 301.103 213.453 301.772 214.135C302.441 214.81 302.775 215.681 302.775 216.748C302.775 217.622 302.523 218.404 302.02 219.092C301.523 219.781 300.828 220.324 299.934 220.722C299.039 221.119 298 221.318 296.814 221.318C295.257 221.318 293.969 220.98 292.949 220.305C291.929 219.629 291.283 218.642 291.012 217.344L293.237 216.787C293.449 217.609 293.85 218.225 294.439 218.635C295.035 219.046 295.814 219.251 296.774 219.251C297.867 219.251 298.735 219.02 299.377 218.556C300.026 218.086 300.351 217.523 300.351 216.867C300.351 216.337 300.165 215.893 299.794 215.536C299.424 215.171 298.854 214.9 298.086 214.721L295.542 214.125C294.145 213.794 293.118 213.28 292.462 212.585C291.813 211.883 291.489 211.005 291.489 209.952C291.489 209.091 291.73 208.329 292.214 207.667C292.704 207.005 293.37 206.485 294.211 206.107C295.059 205.729 296.019 205.541 297.092 205.541C298.602 205.541 299.788 205.872 300.649 206.534C301.517 207.197 302.133 208.071 302.497 209.157ZM312.941 205.739V207.726H305.033V205.739H312.941ZM307.338 202.083H309.683V216.628C309.683 217.291 309.779 217.788 309.971 218.119C310.169 218.443 310.421 218.662 310.726 218.774C311.037 218.88 311.365 218.933 311.709 218.933C311.968 218.933 312.18 218.92 312.345 218.894C312.511 218.861 312.643 218.834 312.743 218.814L313.22 220.921C313.061 220.98 312.839 221.04 312.554 221.099C312.269 221.166 311.908 221.199 311.471 221.199C310.809 221.199 310.159 221.056 309.524 220.771C308.894 220.487 308.371 220.053 307.954 219.47C307.543 218.887 307.338 218.152 307.338 217.264V202.083ZM322.703 221.318C321.232 221.318 319.964 220.993 318.898 220.344C317.838 219.689 317.02 218.774 316.443 217.602C315.874 216.423 315.589 215.052 315.589 213.489C315.589 211.926 315.874 210.548 316.443 209.356C317.02 208.157 317.821 207.223 318.848 206.554C319.881 205.879 321.087 205.541 322.464 205.541C323.259 205.541 324.044 205.673 324.819 205.938C325.594 206.203 326.299 206.634 326.935 207.23C327.571 207.819 328.078 208.601 328.455 209.574C328.833 210.548 329.022 211.747 329.022 213.171V214.165H317.258V212.138H326.637C326.637 211.277 326.465 210.508 326.12 209.833C325.783 209.157 325.299 208.624 324.67 208.233C324.047 207.842 323.312 207.647 322.464 207.647C321.53 207.647 320.722 207.879 320.04 208.342C319.364 208.799 318.845 209.396 318.48 210.131C318.116 210.866 317.934 211.654 317.934 212.495V213.847C317.934 214.999 318.132 215.976 318.53 216.778C318.934 217.572 319.494 218.178 320.209 218.596C320.924 219.006 321.756 219.212 322.703 219.212C323.319 219.212 323.875 219.126 324.372 218.953C324.875 218.774 325.309 218.51 325.673 218.159C326.038 217.801 326.319 217.357 326.518 216.827L328.783 217.463C328.545 218.231 328.144 218.907 327.581 219.49C327.018 220.066 326.322 220.516 325.495 220.841C324.667 221.159 323.736 221.318 322.703 221.318ZM332.588 221V205.739H334.854V208.124H335.052C335.37 207.309 335.884 206.677 336.592 206.226C337.301 205.769 338.152 205.541 339.146 205.541C340.152 205.541 340.99 205.769 341.659 206.226C342.335 206.677 342.861 207.309 343.239 208.124H343.398C343.789 207.336 344.375 206.71 345.156 206.246C345.938 205.776 346.875 205.541 347.968 205.541C349.333 205.541 350.449 205.968 351.316 206.822C352.184 207.67 352.618 208.992 352.618 210.787V221H350.273V210.787C350.273 209.661 349.965 208.856 349.349 208.372C348.733 207.889 348.008 207.647 347.173 207.647C346.1 207.647 345.269 207.972 344.68 208.621C344.09 209.263 343.795 210.078 343.795 211.065V221H341.411V210.548C341.411 209.68 341.129 208.982 340.566 208.452C340.003 207.915 339.278 207.647 338.391 207.647C337.781 207.647 337.212 207.809 336.682 208.134C336.158 208.458 335.734 208.909 335.41 209.485C335.092 210.055 334.933 210.714 334.933 211.462V221H332.588ZM371.172 221.318C369.702 221.318 368.433 220.993 367.367 220.344C366.307 219.689 365.489 218.774 364.913 217.602C364.343 216.423 364.058 215.052 364.058 213.489C364.058 211.926 364.343 210.548 364.913 209.356C365.489 208.157 366.29 207.223 367.317 206.554C368.35 205.879 369.556 205.541 370.934 205.541C371.728 205.541 372.513 205.673 373.288 205.938C374.063 206.203 374.769 206.634 375.404 207.23C376.04 207.819 376.547 208.601 376.924 209.574C377.302 210.548 377.491 211.747 377.491 213.171V214.165H365.727V212.138H375.106C375.106 211.277 374.934 210.508 374.59 209.833C374.252 209.157 373.768 208.624 373.139 208.233C372.517 207.842 371.781 207.647 370.934 207.647C370 207.647 369.192 207.879 368.509 208.342C367.834 208.799 367.314 209.396 366.949 210.131C366.585 210.866 366.403 211.654 366.403 212.495V213.847C366.403 214.999 366.602 215.976 366.999 216.778C367.403 217.572 367.963 218.178 368.678 218.596C369.394 219.006 370.225 219.212 371.172 219.212C371.788 219.212 372.344 219.126 372.841 218.953C373.344 218.774 373.778 218.51 374.143 218.159C374.507 217.801 374.788 217.357 374.987 216.827L377.252 217.463C377.014 218.231 376.613 218.907 376.05 219.49C375.487 220.066 374.792 220.516 373.964 220.841C373.136 221.159 372.205 221.318 371.172 221.318ZM391.867 209.157L389.761 209.753C389.628 209.402 389.433 209.061 389.175 208.73C388.923 208.392 388.579 208.114 388.141 207.895C387.704 207.677 387.145 207.568 386.462 207.568C385.528 207.568 384.75 207.783 384.128 208.213C383.512 208.637 383.204 209.177 383.204 209.833C383.204 210.416 383.416 210.876 383.839 211.214C384.263 211.552 384.926 211.833 385.826 212.058L388.092 212.615C389.456 212.946 390.473 213.453 391.142 214.135C391.811 214.81 392.145 215.681 392.145 216.748C392.145 217.622 391.894 218.404 391.39 219.092C390.893 219.781 390.198 220.324 389.304 220.722C388.41 221.119 387.37 221.318 386.184 221.318C384.628 221.318 383.339 220.98 382.319 220.305C381.299 219.629 380.654 218.642 380.382 217.344L382.607 216.787C382.819 217.609 383.22 218.225 383.81 218.635C384.406 219.046 385.184 219.251 386.144 219.251C387.237 219.251 388.105 219.02 388.747 218.556C389.397 218.086 389.721 217.523 389.721 216.867C389.721 216.337 389.536 215.893 389.165 215.536C388.794 215.171 388.224 214.9 387.456 214.721L384.912 214.125C383.515 213.794 382.488 213.28 381.832 212.585C381.183 211.883 380.859 211.005 380.859 209.952C380.859 209.091 381.101 208.329 381.584 207.667C382.074 207.005 382.74 206.485 383.581 206.107C384.429 205.729 385.389 205.541 386.462 205.541C387.972 205.541 389.158 205.872 390.019 206.534C390.887 207.197 391.503 208.071 391.867 209.157ZM401.874 221.318C400.444 221.318 399.212 220.98 398.178 220.305C397.145 219.629 396.35 218.698 395.794 217.513C395.238 216.327 394.959 214.973 394.959 213.449C394.959 211.899 395.244 210.532 395.814 209.346C396.39 208.154 397.192 207.223 398.218 206.554C399.251 205.879 400.457 205.541 401.835 205.541C402.908 205.541 403.875 205.739 404.736 206.137C405.597 206.534 406.302 207.091 406.852 207.806C407.402 208.521 407.743 209.356 407.875 210.31H405.531C405.352 209.614 404.954 208.998 404.338 208.462C403.729 207.919 402.908 207.647 401.874 207.647C400.96 207.647 400.159 207.885 399.47 208.362C398.788 208.833 398.255 209.498 397.87 210.359C397.493 211.214 397.304 212.217 397.304 213.37C397.304 214.549 397.49 215.575 397.861 216.45C398.238 217.324 398.768 218.003 399.45 218.486C400.139 218.97 400.947 219.212 401.874 219.212C402.484 219.212 403.037 219.106 403.534 218.894C404.03 218.682 404.451 218.377 404.795 217.98C405.14 217.582 405.385 217.105 405.531 216.549H407.875C407.743 217.45 407.415 218.261 406.892 218.983C406.375 219.698 405.69 220.268 404.835 220.692C403.987 221.109 403 221.318 401.874 221.318ZM415.794 221.358C414.827 221.358 413.949 221.176 413.161 220.811C412.373 220.44 411.747 219.907 411.283 219.212C410.819 218.51 410.588 217.662 410.588 216.668C410.588 215.794 410.76 215.085 411.104 214.542C411.449 213.992 411.909 213.562 412.485 213.25C413.062 212.939 413.697 212.707 414.393 212.555C415.095 212.396 415.8 212.27 416.509 212.177C417.436 212.058 418.188 211.969 418.764 211.909C419.347 211.843 419.771 211.734 420.036 211.581C420.308 211.429 420.443 211.164 420.443 210.787V210.707C420.443 209.727 420.175 208.965 419.639 208.422C419.109 207.879 418.304 207.607 417.224 207.607C416.105 207.607 415.227 207.852 414.592 208.342C413.956 208.833 413.509 209.356 413.25 209.912L411.025 209.117C411.422 208.19 411.952 207.468 412.614 206.952C413.283 206.428 414.012 206.064 414.8 205.859C415.595 205.647 416.377 205.541 417.145 205.541C417.635 205.541 418.198 205.6 418.834 205.72C419.476 205.832 420.096 206.067 420.692 206.425C421.295 206.783 421.795 207.322 422.192 208.044C422.589 208.766 422.788 209.733 422.788 210.946V221H420.443V218.933H420.324C420.165 219.265 419.9 219.619 419.529 219.997C419.158 220.374 418.665 220.695 418.049 220.96C417.433 221.225 416.681 221.358 415.794 221.358ZM416.151 219.251C417.079 219.251 417.86 219.069 418.496 218.705C419.139 218.341 419.622 217.87 419.947 217.294C420.278 216.718 420.443 216.112 420.443 215.476V213.33C420.344 213.449 420.126 213.558 419.788 213.658C419.457 213.751 419.072 213.833 418.635 213.906C418.205 213.972 417.784 214.032 417.373 214.085C416.969 214.131 416.642 214.171 416.39 214.204C415.78 214.284 415.211 214.413 414.681 214.592C414.158 214.764 413.734 215.026 413.409 215.377C413.091 215.721 412.932 216.191 412.932 216.787C412.932 217.602 413.234 218.218 413.836 218.635C414.446 219.046 415.217 219.251 416.151 219.251ZM429.412 200.653V221H427.068V200.653H429.412ZM438.198 221.358C437.231 221.358 436.353 221.176 435.565 220.811C434.777 220.44 434.151 219.907 433.687 219.212C433.224 218.51 432.992 217.662 432.992 216.668C432.992 215.794 433.164 215.085 433.508 214.542C433.853 213.992 434.313 213.562 434.889 213.25C435.466 212.939 436.101 212.707 436.797 212.555C437.499 212.396 438.204 212.27 438.913 212.177C439.84 212.058 440.592 211.969 441.168 211.909C441.751 211.843 442.175 211.734 442.44 211.581C442.712 211.429 442.847 211.164 442.847 210.787V210.707C442.847 209.727 442.579 208.965 442.043 208.422C441.513 207.879 440.708 207.607 439.628 207.607C438.509 207.607 437.631 207.852 436.996 208.342C436.36 208.833 435.913 209.356 435.654 209.912L433.429 209.117C433.826 208.19 434.356 207.468 435.018 206.952C435.687 206.428 436.416 206.064 437.204 205.859C437.999 205.647 438.781 205.541 439.549 205.541C440.039 205.541 440.602 205.6 441.238 205.72C441.88 205.832 442.5 206.067 443.096 206.425C443.699 206.783 444.199 207.322 444.596 208.044C444.993 208.766 445.192 209.733 445.192 210.946V221H442.847V218.933H442.728C442.569 219.265 442.304 219.619 441.933 219.997C441.563 220.374 441.069 220.695 440.453 220.96C439.837 221.225 439.085 221.358 438.198 221.358ZM438.555 219.251C439.483 219.251 440.264 219.069 440.9 218.705C441.543 218.341 442.026 217.87 442.351 217.294C442.682 216.718 442.847 216.112 442.847 215.476V213.33C442.748 213.449 442.53 213.558 442.192 213.658C441.861 213.751 441.476 213.833 441.039 213.906C440.609 213.972 440.188 214.032 439.777 214.085C439.373 214.131 439.046 214.171 438.794 214.204C438.185 214.284 437.615 214.413 437.085 214.592C436.562 214.764 436.138 215.026 435.813 215.377C435.495 215.721 435.336 216.191 435.336 216.787C435.336 217.602 435.638 218.218 436.241 218.635C436.85 219.046 437.622 219.251 438.555 219.251ZM438.635 203.673L441.059 199.063H443.801L440.701 203.673H438.635ZM461.404 205.739L455.761 221H453.376L447.733 205.739H450.277L454.489 217.9H454.648L458.861 205.739H461.404ZM470.351 221.318C468.88 221.318 467.612 220.993 466.546 220.344C465.486 219.689 464.668 218.774 464.092 217.602C463.522 216.423 463.237 215.052 463.237 213.489C463.237 211.926 463.522 210.548 464.092 209.356C464.668 208.157 465.469 207.223 466.496 206.554C467.529 205.879 468.735 205.541 470.112 205.541C470.907 205.541 471.692 205.673 472.467 205.938C473.242 206.203 473.947 206.634 474.583 207.23C475.219 207.819 475.726 208.601 476.103 209.574C476.481 210.548 476.67 211.747 476.67 213.171V214.165H464.906V212.138H474.285C474.285 211.277 474.113 210.508 473.769 209.833C473.431 209.157 472.947 208.624 472.318 208.233C471.695 207.842 470.96 207.647 470.112 207.647C469.178 207.647 468.37 207.879 467.688 208.342C467.013 208.799 466.493 209.396 466.128 210.131C465.764 210.866 465.582 211.654 465.582 212.495V213.847C465.582 214.999 465.781 215.976 466.178 216.778C466.582 217.572 467.142 218.178 467.857 218.596C468.572 219.006 469.404 219.212 470.351 219.212C470.967 219.212 471.523 219.126 472.02 218.953C472.523 218.774 472.957 218.51 473.321 218.159C473.686 217.801 473.967 217.357 474.166 216.827L476.431 217.463C476.193 218.231 475.792 218.907 475.229 219.49C474.666 220.066 473.971 220.516 473.143 220.841C472.315 221.159 471.384 221.318 470.351 221.318ZM482.581 200.653V221H480.236V200.653H482.581ZM500.944 221.318C499.513 221.318 498.281 220.98 497.248 220.305C496.215 219.629 495.42 218.698 494.864 217.513C494.307 216.327 494.029 214.973 494.029 213.449C494.029 211.899 494.314 210.532 494.883 209.346C495.46 208.154 496.261 207.223 497.288 206.554C498.321 205.879 499.527 205.541 500.904 205.541C501.977 205.541 502.944 205.739 503.805 206.137C504.666 206.534 505.372 207.091 505.922 207.806C506.471 208.521 506.812 209.356 506.945 210.31H504.6C504.421 209.614 504.024 208.998 503.408 208.462C502.799 207.919 501.977 207.647 500.944 207.647C500.03 207.647 499.228 207.885 498.54 208.362C497.857 208.833 497.324 209.498 496.94 210.359C496.563 211.214 496.374 212.217 496.374 213.37C496.374 214.549 496.559 215.575 496.93 216.45C497.308 217.324 497.838 218.003 498.52 218.486C499.209 218.97 500.017 219.212 500.944 219.212C501.553 219.212 502.106 219.106 502.603 218.894C503.1 218.682 503.521 218.377 503.865 217.98C504.209 217.582 504.454 217.105 504.6 216.549H506.945C506.812 217.45 506.485 218.261 505.961 218.983C505.445 219.698 504.759 220.268 503.905 220.692C503.057 221.109 502.07 221.318 500.944 221.318ZM516.572 221.318C515.194 221.318 513.986 220.99 512.946 220.334C511.913 219.679 511.104 218.761 510.522 217.582C509.945 216.403 509.657 215.026 509.657 213.449C509.657 211.86 509.945 210.472 510.522 209.286C511.104 208.101 511.913 207.18 512.946 206.524C513.986 205.869 515.194 205.541 516.572 205.541C517.95 205.541 519.155 205.869 520.189 206.524C521.228 207.18 522.037 208.101 522.613 209.286C523.196 210.472 523.487 211.86 523.487 213.449C523.487 215.026 523.196 216.403 522.613 217.582C522.037 218.761 521.228 219.679 520.189 220.334C519.155 220.99 517.95 221.318 516.572 221.318ZM516.572 219.212C517.619 219.212 518.48 218.943 519.155 218.407C519.831 217.87 520.331 217.165 520.656 216.291C520.98 215.416 521.142 214.469 521.142 213.449C521.142 212.429 520.98 211.479 520.656 210.598C520.331 209.717 519.831 209.005 519.155 208.462C518.48 207.919 517.619 207.647 516.572 207.647C515.526 207.647 514.665 207.919 513.989 208.462C513.313 209.005 512.813 209.717 512.489 210.598C512.164 211.479 512.002 212.429 512.002 213.449C512.002 214.469 512.164 215.416 512.489 216.291C512.813 217.165 513.313 217.87 513.989 218.407C514.665 218.943 515.526 219.212 516.572 219.212ZM527.066 221V205.739H529.332V208.124H529.53C529.848 207.309 530.361 206.677 531.07 206.226C531.779 205.769 532.63 205.541 533.624 205.541C534.63 205.541 535.468 205.769 536.137 206.226C536.813 206.677 537.339 207.309 537.717 208.124H537.876C538.267 207.336 538.853 206.71 539.634 206.246C540.416 205.776 541.353 205.541 542.446 205.541C543.811 205.541 544.927 205.968 545.794 206.822C546.662 207.67 547.096 208.992 547.096 210.787V221H544.751V210.787C544.751 209.661 544.443 208.856 543.827 208.372C543.211 207.889 542.486 207.647 541.651 207.647C540.578 207.647 539.747 207.972 539.158 208.621C538.568 209.263 538.273 210.078 538.273 211.065V221H535.889V210.548C535.889 209.68 535.607 208.982 535.044 208.452C534.481 207.915 533.756 207.647 532.868 207.647C532.259 207.647 531.689 207.809 531.16 208.134C530.636 208.458 530.212 208.909 529.888 209.485C529.57 210.055 529.411 210.714 529.411 211.462V221H527.066ZM570.697 205.739C570.578 204.733 570.094 203.951 569.246 203.395C568.399 202.838 567.359 202.56 566.127 202.56C565.226 202.56 564.438 202.706 563.762 202.997C563.093 203.289 562.57 203.689 562.192 204.199C561.822 204.709 561.636 205.289 561.636 205.938C561.636 206.481 561.765 206.948 562.024 207.339C562.288 207.723 562.626 208.044 563.037 208.303C563.448 208.554 563.878 208.763 564.329 208.929C564.779 209.088 565.193 209.217 565.57 209.316L567.637 209.872C568.167 210.012 568.756 210.204 569.405 210.449C570.061 210.694 570.687 211.028 571.283 211.452C571.886 211.869 572.383 212.406 572.773 213.062C573.164 213.717 573.36 214.522 573.36 215.476C573.36 216.575 573.072 217.569 572.495 218.457C571.926 219.344 571.091 220.05 569.992 220.573C568.899 221.096 567.571 221.358 566.008 221.358C564.55 221.358 563.289 221.123 562.222 220.652C561.162 220.182 560.328 219.526 559.719 218.685C559.116 217.844 558.775 216.867 558.695 215.754H561.239C561.305 216.523 561.563 217.158 562.014 217.662C562.471 218.159 563.047 218.529 563.742 218.774C564.444 219.013 565.199 219.132 566.008 219.132C566.948 219.132 567.793 218.98 568.541 218.675C569.29 218.364 569.882 217.933 570.319 217.384C570.757 216.827 570.975 216.178 570.975 215.436C570.975 214.761 570.786 214.211 570.409 213.787C570.031 213.363 569.535 213.019 568.919 212.754C568.303 212.489 567.637 212.257 566.922 212.058L564.418 211.343C562.828 210.886 561.57 210.233 560.643 209.386C559.715 208.538 559.252 207.428 559.252 206.057C559.252 204.918 559.56 203.925 560.176 203.077C560.798 202.222 561.633 201.56 562.679 201.09C563.732 200.613 564.908 200.374 566.206 200.374C567.518 200.374 568.683 200.61 569.703 201.08C570.724 201.543 571.532 202.179 572.128 202.987C572.73 203.795 573.048 204.713 573.081 205.739H570.697ZM583.73 205.739V207.726H575.821V205.739H583.73ZM578.126 202.083H580.471V216.628C580.471 217.291 580.567 217.788 580.759 218.119C580.958 218.443 581.209 218.662 581.514 218.774C581.825 218.88 582.153 218.933 582.498 218.933C582.756 218.933 582.968 218.92 583.134 218.894C583.299 218.861 583.432 218.834 583.531 218.814L584.008 220.921C583.849 220.98 583.627 221.04 583.342 221.099C583.057 221.166 582.696 221.199 582.259 221.199C581.597 221.199 580.948 221.056 580.312 220.771C579.683 220.487 579.159 220.053 578.742 219.47C578.331 218.887 578.126 218.152 578.126 217.264V202.083ZM593.292 221.318C591.915 221.318 590.706 220.99 589.666 220.334C588.633 219.679 587.825 218.761 587.242 217.582C586.665 216.403 586.377 215.026 586.377 213.449C586.377 211.86 586.665 210.472 587.242 209.286C587.825 208.101 588.633 207.18 589.666 206.524C590.706 205.869 591.915 205.541 593.292 205.541C594.67 205.541 595.875 205.869 596.909 206.524C597.949 207.18 598.757 208.101 599.333 209.286C599.916 210.472 600.207 211.86 600.207 213.449C600.207 215.026 599.916 216.403 599.333 217.582C598.757 218.761 597.949 219.679 596.909 220.334C595.875 220.99 594.67 221.318 593.292 221.318ZM593.292 219.212C594.339 219.212 595.2 218.943 595.875 218.407C596.551 217.87 597.051 217.165 597.376 216.291C597.7 215.416 597.863 214.469 597.863 213.449C597.863 212.429 597.7 211.479 597.376 210.598C597.051 209.717 596.551 209.005 595.875 208.462C595.2 207.919 594.339 207.647 593.292 207.647C592.246 207.647 591.385 207.919 590.709 208.462C590.034 209.005 589.533 209.717 589.209 210.598C588.884 211.479 588.722 212.429 588.722 213.449C588.722 214.469 588.884 215.416 589.209 216.291C589.533 217.165 590.034 217.87 590.709 218.407C591.385 218.943 592.246 219.212 593.292 219.212ZM603.786 221V205.739H606.052V208.044H606.211C606.489 207.289 606.992 206.677 607.721 206.206C608.449 205.736 609.271 205.501 610.185 205.501C610.357 205.501 610.572 205.504 610.831 205.511C611.089 205.518 611.284 205.527 611.417 205.541V207.925C611.337 207.905 611.155 207.876 610.87 207.836C610.592 207.789 610.297 207.766 609.986 207.766C609.244 207.766 608.582 207.922 607.999 208.233C607.423 208.538 606.966 208.962 606.628 209.505C606.297 210.041 606.131 210.654 606.131 211.343V221H603.786ZM616.171 226.723C615.773 226.723 615.419 226.69 615.108 226.623C614.796 226.564 614.581 226.504 614.462 226.445L615.058 224.378C615.628 224.524 616.131 224.577 616.568 224.537C617.005 224.497 617.393 224.302 617.731 223.951C618.075 223.606 618.39 223.047 618.674 222.272L619.112 221.079L613.468 205.739H616.012L620.224 217.9H620.383L624.596 205.739H627.139L620.662 223.226C620.37 224.014 620.009 224.666 619.579 225.183C619.148 225.706 618.648 226.093 618.078 226.345C617.515 226.597 616.879 226.723 616.171 226.723ZM630.552 221V200.653H632.897V208.164H633.096C633.268 207.899 633.506 207.561 633.811 207.15C634.122 206.733 634.566 206.362 635.142 206.037C635.725 205.706 636.513 205.541 637.507 205.541C638.792 205.541 639.924 205.862 640.905 206.504C641.885 207.147 642.65 208.058 643.2 209.237C643.749 210.416 644.024 211.807 644.024 213.409C644.024 215.026 643.749 216.426 643.2 217.612C642.65 218.791 641.888 219.705 640.915 220.354C639.941 220.997 638.818 221.318 637.547 221.318C636.566 221.318 635.781 221.156 635.192 220.831C634.602 220.5 634.149 220.126 633.831 219.708C633.513 219.285 633.268 218.933 633.096 218.655H632.817V221H630.552ZM632.857 213.37C632.857 214.522 633.026 215.539 633.364 216.42C633.702 217.294 634.195 217.98 634.844 218.476C635.493 218.967 636.288 219.212 637.229 219.212C638.209 219.212 639.027 218.953 639.683 218.437C640.345 217.913 640.842 217.211 641.173 216.33C641.511 215.443 641.68 214.456 641.68 213.37C641.68 212.297 641.514 211.33 641.183 210.469C640.858 209.601 640.365 208.915 639.702 208.412C639.047 207.902 638.222 207.647 637.229 207.647C636.275 207.647 635.473 207.889 634.824 208.372C634.175 208.849 633.685 209.518 633.354 210.379C633.023 211.234 632.857 212.23 632.857 213.37ZM653.811 221.318C652.433 221.318 651.224 220.99 650.184 220.334C649.151 219.679 648.343 218.761 647.76 217.582C647.184 216.403 646.896 215.026 646.896 213.449C646.896 211.86 647.184 210.472 647.76 209.286C648.343 208.101 649.151 207.18 650.184 206.524C651.224 205.869 652.433 205.541 653.811 205.541C655.188 205.541 656.394 205.869 657.427 206.524C658.467 207.18 659.275 208.101 659.851 209.286C660.434 210.472 660.725 211.86 660.725 213.449C660.725 215.026 660.434 216.403 659.851 217.582C659.275 218.761 658.467 219.679 657.427 220.334C656.394 220.99 655.188 221.318 653.811 221.318ZM653.811 219.212C654.857 219.212 655.718 218.943 656.394 218.407C657.069 217.87 657.569 217.165 657.894 216.291C658.218 215.416 658.381 214.469 658.381 213.449C658.381 212.429 658.218 211.479 657.894 210.598C657.569 209.717 657.069 209.005 656.394 208.462C655.718 207.919 654.857 207.647 653.811 207.647C652.764 207.647 651.903 207.919 651.227 208.462C650.552 209.005 650.052 209.717 649.727 210.598C649.403 211.479 649.24 212.429 649.24 213.449C649.24 214.469 649.403 215.416 649.727 216.291C650.052 217.165 650.552 217.87 651.227 218.407C651.903 218.943 652.764 219.212 653.811 219.212ZM670.504 221.318C669.127 221.318 667.918 220.99 666.878 220.334C665.845 219.679 665.037 218.761 664.454 217.582C663.877 216.403 663.589 215.026 663.589 213.449C663.589 211.86 663.877 210.472 664.454 209.286C665.037 208.101 665.845 207.18 666.878 206.524C667.918 205.869 669.127 205.541 670.504 205.541C671.882 205.541 673.087 205.869 674.121 206.524C675.161 207.18 675.969 208.101 676.545 209.286C677.128 210.472 677.419 211.86 677.419 213.449C677.419 215.026 677.128 216.403 676.545 217.582C675.969 218.761 675.161 219.679 674.121 220.334C673.087 220.99 671.882 221.318 670.504 221.318ZM670.504 219.212C671.551 219.212 672.412 218.943 673.087 218.407C673.763 217.87 674.263 217.165 674.588 216.291C674.912 215.416 675.074 214.469 675.074 213.449C675.074 212.429 674.912 211.479 674.588 210.598C674.263 209.717 673.763 209.005 673.087 208.462C672.412 207.919 671.551 207.647 670.504 207.647C669.458 207.647 668.597 207.919 667.921 208.462C667.245 209.005 666.745 209.717 666.421 210.598C666.096 211.479 665.934 212.429 665.934 213.449C665.934 214.469 666.096 215.416 666.421 216.291C666.745 217.165 667.245 217.87 667.921 218.407C668.597 218.943 669.458 219.212 670.504 219.212ZM683.184 215.436L683.144 212.535H683.621L690.298 205.739H693.199L686.085 212.933H685.887L683.184 215.436ZM680.998 221V200.653H683.343V221H680.998ZM690.695 221L684.734 213.449L686.403 211.82L693.676 221H690.695Z" fill="#989898"/>
<path d="M56.294 73.2317H48.367V51.786H56.2835C58.4686 51.786 60.35 52.2153 61.9277 53.074C63.5124 53.9257 64.734 55.1544 65.5927 56.76C66.4514 58.3586 66.8807 60.2714 66.8807 62.4984C66.8807 64.7323 66.4514 66.6521 65.5927 68.2577C64.741 69.8633 63.5228 71.0955 61.9381 71.9542C60.3534 72.8058 58.4721 73.2317 56.294 73.2317ZM53.5504 68.8127H56.095C57.2958 68.8127 58.3115 68.6103 59.1422 68.2054C59.98 67.7935 60.6117 67.1268 61.0376 66.2053C61.4704 65.2768 61.6868 64.0412 61.6868 62.4984C61.6868 60.9556 61.4704 59.7269 61.0376 58.8124C60.6048 57.8909 59.966 57.2277 59.1213 56.8228C58.2836 56.4109 57.2504 56.205 56.0217 56.205H53.5504V68.8127ZM77.4255 73.5354C75.7431 73.5354 74.291 73.2038 73.0694 72.5406C71.8547 71.8704 70.9192 70.9175 70.263 69.6818C69.6138 68.4392 69.2891 66.9627 69.2891 65.2524C69.2891 63.5909 69.6173 62.1389 70.2735 60.8962C70.9297 59.6466 71.8547 58.6763 73.0484 57.9852C74.2422 57.2871 75.6488 56.938 77.2684 56.938C78.4133 56.938 79.4605 57.116 80.4099 57.472C81.3593 57.8281 82.1796 58.3551 82.8707 59.0532C83.5618 59.7514 84.0994 60.6135 84.4833 61.6397C84.8673 62.6589 85.0593 63.8283 85.0593 65.1477V66.4252H71.0798V63.4513H80.2947C80.2877 62.9068 80.1586 62.4216 79.9073 61.9957C79.6559 61.5699 79.3104 61.2383 78.8706 61.001C78.4378 60.7566 77.9386 60.6344 77.3732 60.6344C76.8007 60.6344 76.2876 60.7636 75.8338 61.0219C75.3801 61.2732 75.0206 61.6188 74.7553 62.0586C74.49 62.4914 74.3504 62.9836 74.3364 63.5351V66.5613C74.3364 67.2175 74.4656 67.7935 74.7239 68.2891C74.9822 68.7778 75.3487 69.1583 75.8234 69.4305C76.2981 69.7028 76.8635 69.8389 77.5198 69.8389C77.9735 69.8389 78.3854 69.7761 78.7554 69.6504C79.1254 69.5248 79.443 69.3398 79.7083 69.0954C79.9736 68.8511 80.1725 68.5509 80.3052 68.1949L85.0069 68.331C84.8114 69.3852 84.3821 70.3032 83.7189 71.085C83.0627 71.8599 82.2005 72.4638 81.1324 72.8966C80.0643 73.3224 78.8287 73.5354 77.4255 73.5354ZM101.717 62.0586L97.0151 62.1842C96.9662 61.8491 96.8336 61.5525 96.6172 61.2942C96.4008 61.0289 96.1181 60.8229 95.769 60.6763C95.4269 60.5228 95.029 60.446 94.5752 60.446C93.9819 60.446 93.4757 60.5646 93.0569 60.802C92.645 61.0393 92.4425 61.3605 92.4495 61.7654C92.4425 62.0795 92.5682 62.3518 92.8265 62.5822C93.0918 62.8125 93.563 62.9975 94.2402 63.1371L97.3397 63.7235C98.9454 64.0307 100.139 64.5403 100.921 65.2524C101.71 65.9645 102.108 66.9069 102.115 68.0797C102.108 69.1827 101.78 70.1426 101.13 70.9594C100.488 71.7761 99.6086 72.4114 98.4916 72.8652C97.3746 73.312 96.0971 73.5354 94.659 73.5354C92.3623 73.5354 90.5507 73.0641 89.2243 72.1217C87.9049 71.1723 87.1509 69.9017 86.9625 68.3101L92.0202 68.1844C92.1319 68.7708 92.4216 69.2176 92.8893 69.5248C93.3571 69.8319 93.9539 69.9855 94.68 69.9855C95.3362 69.9855 95.8702 69.8633 96.2821 69.619C96.694 69.3747 96.9034 69.0501 96.9104 68.6452C96.9034 68.2822 96.7429 67.9924 96.4287 67.776C96.1146 67.5526 95.6224 67.3781 94.9522 67.2525L92.1459 66.7184C90.5332 66.4252 89.3325 65.8842 88.5437 65.0953C87.7548 64.2995 87.3639 63.2872 87.3708 62.0586C87.3639 60.9835 87.6501 60.0655 88.2295 59.3046C88.8089 58.5367 89.6327 57.9502 90.7008 57.5453C91.7689 57.1405 93.029 56.938 94.481 56.938C96.6591 56.938 98.3764 57.3953 99.633 58.3098C100.89 59.2173 101.584 60.4669 101.717 62.0586ZM104.636 73.2317V57.1474H109.756V73.2317H104.636ZM107.201 55.273C106.482 55.273 105.864 55.0357 105.348 54.561C104.831 54.0793 104.573 53.4999 104.573 52.8227C104.573 52.1525 104.831 51.5801 105.348 51.1054C105.864 50.6237 106.482 50.3828 107.201 50.3828C107.927 50.3828 108.545 50.6237 109.055 51.1054C109.571 51.5801 109.83 52.1525 109.83 52.8227C109.83 53.4999 109.571 54.0793 109.055 54.561C108.545 55.0357 107.927 55.273 107.201 55.273ZM120.513 79.5984C118.984 79.5984 117.675 79.3855 116.586 78.9596C115.497 78.5338 114.642 77.9509 114.021 77.2109C113.4 76.4709 113.026 75.6332 112.9 74.6977L117.749 74.4254C117.839 74.7536 118.007 75.0398 118.251 75.2841C118.503 75.5284 118.827 75.7169 119.225 75.8496C119.63 75.9822 120.105 76.0485 120.649 76.0485C121.508 76.0485 122.217 75.8391 122.775 75.4202C123.341 75.0084 123.623 74.2858 123.623 73.2526V70.4253H123.445C123.243 70.921 122.936 71.3643 122.524 71.7552C122.112 72.1461 121.599 72.4533 120.984 72.6767C120.377 72.9001 119.679 73.0118 118.89 73.0118C117.717 73.0118 116.642 72.7395 115.665 72.195C114.695 71.6435 113.916 70.7918 113.33 69.64C112.75 68.4811 112.461 66.9907 112.461 65.1686C112.461 63.2907 112.761 61.7444 113.361 60.5297C113.962 59.3081 114.747 58.404 115.717 57.8176C116.695 57.2312 117.745 56.938 118.869 56.938C119.714 56.938 120.436 57.0846 121.037 57.3778C121.644 57.664 122.143 58.034 122.534 58.4878C122.925 58.9416 123.222 59.4128 123.424 59.9014H123.571V57.1474H128.671V73.2945C128.671 74.6558 128.328 75.8042 127.644 76.7396C126.96 77.6751 126.004 78.3837 124.775 78.8654C123.546 79.354 122.126 79.5984 120.513 79.5984ZM120.67 69.2839C121.292 69.2839 121.822 69.1199 122.262 68.7918C122.702 68.4637 123.04 67.9924 123.278 67.3781C123.515 66.7638 123.634 66.0273 123.634 65.1686C123.634 64.296 123.515 63.5455 123.278 62.9172C123.047 62.282 122.709 61.7933 122.262 61.4512C121.822 61.1092 121.292 60.9381 120.67 60.9381C120.035 60.9381 119.497 61.1126 119.058 61.4617C118.618 61.8107 118.283 62.3029 118.052 62.9382C117.829 63.5665 117.717 64.31 117.717 65.1686C117.717 66.0273 117.832 66.7638 118.063 67.3781C118.293 67.9924 118.625 68.4637 119.058 68.7918C119.497 69.1199 120.035 69.2839 120.67 69.2839ZM137.056 64.0586V73.2317H131.935V57.1474H136.804V60.1004H136.982C137.338 59.1161 137.946 58.3447 138.804 57.7862C139.663 57.2207 140.686 56.938 141.872 56.938C143.003 56.938 143.984 57.1928 144.815 57.7024C145.653 58.2051 146.302 58.9101 146.763 59.8177C147.23 60.7182 147.461 61.7724 147.454 62.9801V73.2317H142.333V63.9853C142.34 63.0918 142.113 62.3937 141.653 61.891C141.199 61.3884 140.567 61.1371 139.757 61.1371C139.22 61.1371 138.745 61.2558 138.333 61.4931C137.928 61.7235 137.614 62.0551 137.391 62.4879C137.174 62.9207 137.063 63.4443 137.056 64.0586ZM168.551 58.2155C168.482 57.4476 168.171 56.8507 167.619 56.4249C167.075 55.9921 166.296 55.7757 165.284 55.7757C164.614 55.7757 164.056 55.8629 163.609 56.0375C163.162 56.212 162.827 56.4528 162.603 56.76C162.38 57.0602 162.265 57.4057 162.258 57.7967C162.244 58.1178 162.307 58.4005 162.446 58.6449C162.593 58.8892 162.802 59.1056 163.075 59.2941C163.354 59.4756 163.689 59.6362 164.08 59.7758C164.471 59.9154 164.911 60.0376 165.399 60.1423L167.242 60.5611C168.303 60.7915 169.239 61.0987 170.049 61.4826C170.866 61.8666 171.55 62.3239 172.101 62.8544C172.66 63.385 173.082 63.9958 173.368 64.6869C173.654 65.378 173.801 66.1529 173.808 67.0116C173.801 68.3659 173.459 69.5283 172.782 70.4986C172.105 71.469 171.131 72.2125 169.86 72.7291C168.597 73.2457 167.071 73.5039 165.284 73.5039C163.49 73.5039 161.926 73.2352 160.593 72.6976C159.26 72.1601 158.223 71.3433 157.483 70.2473C156.743 69.1513 156.362 67.7656 156.342 66.0901H161.305C161.347 66.7812 161.532 67.3572 161.86 67.8179C162.188 68.2787 162.638 68.6277 163.211 68.8651C163.79 69.1024 164.46 69.2211 165.221 69.2211C165.919 69.2211 166.513 69.1269 167.002 68.9384C167.497 68.7499 167.878 68.4881 168.143 68.153C168.408 67.8179 168.544 67.434 168.551 67.0011C168.544 66.5962 168.419 66.2507 168.174 65.9645C167.93 65.6713 167.553 65.4199 167.043 65.2105C166.541 64.9941 165.899 64.7951 165.117 64.6136L162.876 64.0901C161.019 63.6642 159.556 62.9766 158.488 62.0272C157.42 61.0708 156.89 59.7793 156.897 58.1527C156.89 56.8263 157.246 55.664 157.965 54.6657C158.684 53.6674 159.678 52.889 160.949 52.3305C162.22 51.7721 163.668 51.4928 165.295 51.4928C166.956 51.4928 168.398 51.7755 169.619 52.341C170.848 52.8995 171.801 53.6848 172.478 54.6971C173.155 55.7093 173.501 56.8822 173.515 58.2155H168.551ZM179.557 79.2633C178.943 79.2633 178.363 79.2144 177.819 79.1167C177.274 79.0259 176.806 78.9038 176.415 78.7502L177.546 75.0328C178.049 75.2003 178.503 75.2981 178.908 75.326C179.32 75.3539 179.672 75.2876 179.965 75.127C180.265 74.9735 180.496 74.6977 180.656 74.2998L180.855 73.8181L175.138 57.1474H180.499L183.463 68.6242H183.63L186.636 57.1474H192.028L185.965 74.771C185.672 75.6506 185.257 76.4255 184.719 77.0957C184.189 77.7728 183.501 78.3034 182.656 78.6874C181.819 79.0713 180.786 79.2633 179.557 79.2633ZM208.034 62.0586L203.332 62.1842C203.284 61.8491 203.151 61.5525 202.935 61.2942C202.718 61.0289 202.435 60.8229 202.086 60.6763C201.744 60.5228 201.346 60.446 200.893 60.446C200.299 60.446 199.793 60.5646 199.374 60.802C198.962 61.0393 198.76 61.3605 198.767 61.7654C198.76 62.0795 198.886 62.3518 199.144 62.5822C199.409 62.8125 199.88 62.9975 200.558 63.1371L203.657 63.7235C205.263 64.0307 206.456 64.5403 207.238 65.2524C208.027 65.9645 208.425 66.9069 208.432 68.0797C208.425 69.1827 208.097 70.1426 207.448 70.9594C206.806 71.7761 205.926 72.4114 204.809 72.8652C203.692 73.312 202.414 73.5354 200.976 73.5354C198.68 73.5354 196.868 73.0641 195.542 72.1217C194.222 71.1723 193.468 69.9017 193.28 68.3101L198.338 68.1844C198.449 68.7708 198.739 69.2176 199.207 69.5248C199.674 69.8319 200.271 69.9855 200.997 69.9855C201.654 69.9855 202.188 69.8633 202.599 69.619C203.011 69.3747 203.221 69.0501 203.228 68.6452C203.221 68.2822 203.06 67.9924 202.746 67.776C202.432 67.5526 201.94 67.3781 201.27 67.2525L198.463 66.7184C196.851 66.4252 195.65 65.8842 194.861 65.0953C194.072 64.2995 193.681 63.2872 193.688 62.0586C193.681 60.9835 193.967 60.0655 194.547 59.3046C195.126 58.5367 195.95 57.9502 197.018 57.5453C198.086 57.1405 199.346 56.938 200.798 56.938C202.976 56.938 204.694 57.3953 205.95 58.3098C207.207 59.2173 207.902 60.4669 208.034 62.0586ZM220.032 57.1474V60.9172H209.885V57.1474H220.032ZM212.011 53.2939H217.131V68.1739C217.131 68.4881 217.18 68.7429 217.278 68.9384C217.383 69.1269 217.533 69.263 217.728 69.3468C217.924 69.4235 218.158 69.4619 218.43 69.4619C218.625 69.4619 218.831 69.4445 219.048 69.4096C219.271 69.3677 219.439 69.3328 219.55 69.3049L220.325 73.0013C220.081 73.0711 219.735 73.1584 219.288 73.2631C218.849 73.3678 218.322 73.4341 217.707 73.4621C216.507 73.5179 215.477 73.3783 214.618 73.0432C213.766 72.7011 213.114 72.1706 212.66 71.4515C212.213 70.7325 211.997 69.8284 212.011 68.7394V53.2939ZM229.99 73.5354C228.308 73.5354 226.856 73.2038 225.634 72.5406C224.419 71.8704 223.484 70.9175 222.828 69.6818C222.179 68.4392 221.854 66.9627 221.854 65.2524C221.854 63.5909 222.182 62.1389 222.838 60.8962C223.495 59.6466 224.419 58.6763 225.613 57.9852C226.807 57.2871 228.214 56.938 229.833 56.938C230.978 56.938 232.025 57.116 232.975 57.472C233.924 57.8281 234.744 58.3551 235.436 59.0532C236.127 59.7514 236.664 60.6135 237.048 61.6397C237.432 62.6589 237.624 63.8283 237.624 65.1477V66.4252H223.645V63.4513H232.86C232.853 62.9068 232.723 62.4216 232.472 61.9957C232.221 61.5699 231.875 61.2383 231.435 61.001C231.003 60.7566 230.503 60.6344 229.938 60.6344C229.366 60.6344 228.852 60.7636 228.399 61.0219C227.945 61.2732 227.585 61.6188 227.32 62.0586C227.055 62.4914 226.915 62.9836 226.901 63.5351V66.5613C226.901 67.2175 227.03 67.7935 227.289 68.2891C227.547 68.7778 227.913 69.1583 228.388 69.4305C228.863 69.7028 229.428 69.8389 230.085 69.8389C230.538 69.8389 230.95 69.7761 231.32 69.6504C231.69 69.5248 232.008 69.3398 232.273 69.0954C232.538 68.8511 232.737 68.5509 232.87 68.1949L237.572 68.331C237.376 69.3852 236.947 70.3032 236.284 71.085C235.628 71.8599 234.765 72.4638 233.697 72.8966C232.629 73.3224 231.394 73.5354 229.99 73.5354ZM240.239 73.2317V57.1474H245.109V60.1004H245.287C245.622 59.1231 246.187 58.3517 246.983 57.7862C247.779 57.2207 248.728 56.938 249.831 56.938C250.948 56.938 251.905 57.2242 252.7 57.7967C253.496 58.3691 254.002 59.137 254.219 60.1004H254.386C254.687 59.144 255.273 58.3796 256.146 57.8071C257.018 57.2277 258.048 56.938 259.235 56.938C260.757 56.938 261.992 57.4267 262.942 58.404C263.891 59.3744 264.366 60.7077 264.366 62.4041V73.2317H259.245V63.5769C259.245 62.7741 259.039 62.1633 258.627 61.7444C258.215 61.3186 257.681 61.1057 257.025 61.1057C256.32 61.1057 255.765 61.336 255.36 61.7968C254.962 62.2506 254.763 62.8614 254.763 63.6293V73.2317H249.842V63.5246C249.842 62.7776 249.639 62.1877 249.234 61.7549C248.829 61.3221 248.295 61.1057 247.632 61.1057C247.185 61.1057 246.791 61.2139 246.449 61.4303C246.107 61.6397 245.838 61.9399 245.643 62.3308C245.454 62.7218 245.36 63.1825 245.36 63.7131V73.2317H240.239ZM285.466 58.2155C285.396 57.4476 285.085 56.8507 284.534 56.4249C283.989 55.9921 283.211 55.7757 282.199 55.7757C281.529 55.7757 280.97 55.8629 280.523 56.0375C280.077 56.212 279.741 56.4528 279.518 56.76C279.295 57.0602 279.179 57.4057 279.172 57.7967C279.159 58.1178 279.221 58.4005 279.361 58.6449C279.508 58.8892 279.717 59.1056 279.989 59.2941C280.268 59.4756 280.604 59.6362 280.995 59.7758C281.385 59.9154 281.825 60.0376 282.314 60.1423L284.157 60.5611C285.218 60.7915 286.153 61.0987 286.963 61.4826C287.78 61.8666 288.464 62.3239 289.016 62.8544C289.574 63.385 289.997 63.9958 290.283 64.6869C290.569 65.378 290.716 66.1529 290.723 67.0116C290.716 68.3659 290.374 69.5283 289.696 70.4986C289.019 71.469 288.045 72.2125 286.775 72.7291C285.511 73.2457 283.986 73.5039 282.199 73.5039C280.405 73.5039 278.841 73.2352 277.507 72.6976C276.174 72.1601 275.137 71.3433 274.397 70.2473C273.657 69.1513 273.277 67.7656 273.256 66.0901H278.22C278.261 66.7812 278.446 67.3572 278.775 67.8179C279.103 68.2787 279.553 68.6277 280.125 68.8651C280.705 69.1024 281.375 69.2211 282.136 69.2211C282.834 69.2211 283.427 69.1269 283.916 68.9384C284.412 68.7499 284.792 68.4881 285.057 68.153C285.323 67.8179 285.459 67.434 285.466 67.0011C285.459 66.5962 285.333 66.2507 285.089 65.9645C284.845 65.6713 284.468 65.4199 283.958 65.2105C283.455 64.9941 282.813 64.7951 282.031 64.6136L279.79 64.0901C277.933 63.6642 276.471 62.9766 275.403 62.0272C274.335 61.0708 273.804 59.7793 273.811 58.1527C273.804 56.8263 274.16 55.664 274.879 54.6657C275.598 53.6674 276.593 52.889 277.864 52.3305C279.134 51.7721 280.583 51.4928 282.209 51.4928C283.871 51.4928 285.312 51.7755 286.534 52.341C287.763 52.8995 288.716 53.6848 289.393 54.6971C290.07 55.7093 290.415 56.8822 290.429 58.2155H285.466ZM297.958 69.0117L297.979 62.9068H298.691L303.215 57.1474H309.016L302.294 65.399H300.943L297.958 69.0117ZM293.34 73.2317V51.786H298.461V73.2317H293.34ZM303.33 73.2317L299.121 66.5509L302.493 62.9172L309.247 73.2317H303.33ZM310.849 73.2317V57.1474H315.969V73.2317H310.849ZM313.414 55.273C312.695 55.273 312.077 55.0357 311.561 54.561C311.044 54.0793 310.786 53.4999 310.786 52.8227C310.786 52.1525 311.044 51.5801 311.561 51.1054C312.077 50.6237 312.695 50.3828 313.414 50.3828C314.14 50.3828 314.758 50.6237 315.268 51.1054C315.784 51.5801 316.043 52.1525 316.043 52.8227C316.043 53.4999 315.784 54.0793 315.268 54.561C314.758 55.0357 314.14 55.273 313.414 55.273ZM324.349 51.786V73.2317H319.229V51.786H324.349ZM332.729 51.786V73.2317H327.608V51.786H332.729ZM350.031 62.0586L345.329 62.1842C345.28 61.8491 345.147 61.5525 344.931 61.2942C344.715 61.0289 344.432 60.8229 344.083 60.6763C343.741 60.5228 343.343 60.446 342.889 60.446C342.296 60.446 341.79 60.5646 341.371 60.802C340.959 61.0393 340.756 61.3605 340.763 61.7654C340.756 62.0795 340.882 62.3518 341.14 62.5822C341.406 62.8125 341.877 62.9975 342.554 63.1371L345.654 63.7235C347.259 64.0307 348.453 64.5403 349.235 65.2524C350.024 65.9645 350.422 66.9069 350.429 68.0797C350.422 69.1827 350.093 70.1426 349.444 70.9594C348.802 71.7761 347.922 72.4114 346.805 72.8652C345.688 73.312 344.411 73.5354 342.973 73.5354C340.676 73.5354 338.864 73.0641 337.538 72.1217C336.219 71.1723 335.465 69.9017 335.276 68.3101L340.334 68.1844C340.446 68.7708 340.735 69.2176 341.203 69.5248C341.671 69.8319 342.268 69.9855 342.994 69.9855C343.65 69.9855 344.184 69.8633 344.596 69.619C345.008 69.3747 345.217 69.0501 345.224 68.6452C345.217 68.2822 345.057 67.9924 344.743 67.776C344.428 67.5526 343.936 67.3781 343.266 67.2525L340.46 66.7184C338.847 66.4252 337.646 65.8842 336.857 65.0953C336.069 64.2995 335.678 63.2872 335.685 62.0586C335.678 60.9835 335.964 60.0655 336.543 59.3046C337.123 58.5367 337.946 57.9502 339.015 57.5453C340.083 57.1405 341.343 56.938 342.795 56.938C344.973 56.938 346.69 57.3953 347.947 58.3098C349.203 59.2173 349.898 60.4669 350.031 62.0586Z" fill="white"/>
<path d="M48.3147 104.146V89.8492H50.402V95.1617H50.5277C50.6487 94.9383 50.8232 94.68 51.0512 94.3868C51.2793 94.0936 51.5958 93.8377 52.0007 93.6189C52.4056 93.3955 52.9408 93.2838 53.6063 93.2838C54.4719 93.2838 55.2445 93.5026 55.924 93.9401C56.6035 94.3775 57.1364 95.0082 57.5226 95.8319C57.9136 96.6557 58.109 97.647 58.109 98.8058C58.109 99.9647 57.9159 100.958 57.5296 101.787C57.1433 102.61 56.6128 103.246 55.938 103.693C55.2631 104.135 54.4929 104.356 53.6272 104.356C52.9757 104.356 52.4428 104.246 52.0286 104.028C51.619 103.809 51.2979 103.553 51.0652 103.26C50.8325 102.967 50.6533 102.706 50.5277 102.478H50.3531V104.146H48.3147ZM50.3601 98.7849C50.3601 99.5388 50.4695 100.2 50.6882 100.767C50.907 101.335 51.2234 101.78 51.6376 102.101C52.0519 102.417 52.5591 102.576 53.1595 102.576C53.7831 102.576 54.3044 102.41 54.7233 102.08C55.1421 101.745 55.4586 101.291 55.6727 100.719C55.8914 100.146 56.0008 99.5016 56.0008 98.7849C56.0008 98.0775 55.8937 97.4422 55.6797 96.8791C55.4702 96.3159 55.1538 95.8715 54.7302 95.5457C54.3114 95.2199 53.7878 95.057 53.1595 95.057C52.5545 95.057 52.0425 95.2129 51.6237 95.5247C51.2095 95.8366 50.8953 96.2717 50.6812 96.8302C50.4672 97.3887 50.3601 98.0402 50.3601 98.7849ZM61.4076 108.167C61.0958 108.167 60.8119 108.142 60.5559 108.091C60.2999 108.044 60.1091 107.993 59.9835 107.937L60.4861 106.227C60.8677 106.329 61.2075 106.373 61.5053 106.359C61.8032 106.345 62.0661 106.234 62.2942 106.024C62.5269 105.815 62.7316 105.473 62.9085 104.998L63.1668 104.286L59.2435 93.4235H61.4774L64.193 101.745H64.3047L67.0203 93.4235H69.2612L64.8422 105.577C64.6375 106.136 64.3768 106.608 64.0604 106.995C63.7439 107.385 63.3669 107.679 62.9294 107.874C62.492 108.07 61.9847 108.167 61.4076 108.167ZM86.2687 94.3659C86.1338 93.9424 85.9522 93.5631 85.7242 93.228C85.5008 92.8883 85.2332 92.5997 84.9214 92.3623C84.6096 92.1203 84.2535 91.9365 83.8533 91.8108C83.4577 91.6852 83.0225 91.6224 82.5478 91.6224C81.7427 91.6224 81.0167 91.8295 80.3698 92.2437C79.7229 92.6579 79.2109 93.2652 78.8339 94.0657C78.4616 94.8616 78.2755 95.8366 78.2755 96.9908C78.2755 98.1496 78.4639 99.1293 78.8409 99.9298C79.2179 100.73 79.7345 101.338 80.3907 101.752C81.0469 102.166 81.7939 102.373 82.6316 102.373C83.4088 102.373 84.086 102.215 84.6631 101.898C85.2448 101.582 85.6939 101.135 86.0104 100.558C86.3315 99.9763 86.4921 99.2922 86.4921 98.5056L87.0506 98.6104H82.9597V96.8302H88.5794V98.4568C88.5794 99.6575 88.3235 100.7 87.8115 101.584C87.3042 102.464 86.6015 103.143 85.7033 103.623C84.8097 104.102 83.7858 104.342 82.6316 104.342C81.3378 104.342 80.2022 104.044 79.2249 103.448C78.2522 102.852 77.4936 102.008 76.9491 100.914C76.4045 99.8157 76.1323 98.5126 76.1323 97.0047C76.1323 95.8645 76.2905 94.8406 76.607 93.9331C76.9235 93.0255 77.3679 92.2553 77.9404 91.6224C78.5175 90.9848 79.1946 90.4984 79.9718 90.1633C80.7537 89.8236 81.6077 89.6537 82.5339 89.6537C83.3064 89.6537 84.0255 89.7677 84.691 89.9958C85.3612 90.2238 85.9569 90.5473 86.4781 90.9661C87.0041 91.385 87.4392 91.883 87.7836 92.4601C88.128 93.0325 88.3607 93.6678 88.4817 94.3659H86.2687ZM97.9427 99.6994V93.4235H100.037V104.146H97.9846V102.289H97.8729C97.6262 102.862 97.2307 103.339 96.6861 103.72C96.1463 104.097 95.4738 104.286 94.6686 104.286C93.9798 104.286 93.3702 104.135 92.8396 103.832C92.3137 103.525 91.8995 103.071 91.597 102.471C91.2991 101.87 91.1502 101.128 91.1502 100.244V93.4235H93.2375V99.9926C93.2375 100.723 93.44 101.305 93.8449 101.738C94.2498 102.171 94.7757 102.387 95.4226 102.387C95.8135 102.387 96.2021 102.289 96.5884 102.094C96.9793 101.898 97.3028 101.603 97.5588 101.207C97.8194 100.812 97.9474 100.309 97.9427 99.6994ZM110.877 96.0413L108.985 96.3764C108.906 96.1344 108.78 95.904 108.608 95.6853C108.44 95.4666 108.212 95.2874 107.924 95.1478C107.635 95.0082 107.275 94.9383 106.842 94.9383C106.251 94.9383 105.757 95.071 105.362 95.3363C104.966 95.5969 104.768 95.9343 104.768 96.3485C104.768 96.7069 104.901 96.9954 105.166 97.2142C105.432 97.4329 105.86 97.6121 106.451 97.7517L108.154 98.1426C109.141 98.3707 109.876 98.7221 110.36 99.1968C110.844 99.6715 111.086 100.288 111.086 101.047C111.086 101.689 110.9 102.261 110.528 102.764C110.16 103.262 109.646 103.653 108.985 103.937C108.329 104.221 107.568 104.363 106.702 104.363C105.501 104.363 104.522 104.107 103.763 103.595C103.005 103.078 102.539 102.345 102.367 101.396L104.384 101.089C104.51 101.615 104.768 102.012 105.159 102.282C105.55 102.548 106.06 102.68 106.688 102.68C107.372 102.68 107.919 102.538 108.329 102.254C108.738 101.966 108.943 101.615 108.943 101.2C108.943 100.865 108.817 100.584 108.566 100.356C108.319 100.128 107.94 99.9554 107.428 99.839L105.613 99.4411C104.612 99.2131 103.873 98.85 103.393 98.3521C102.918 97.8541 102.681 97.2235 102.681 96.4602C102.681 95.8273 102.858 95.2734 103.212 94.7987C103.565 94.324 104.054 93.954 104.678 93.6887C105.301 93.4188 106.016 93.2838 106.821 93.2838C107.98 93.2838 108.892 93.5352 109.557 94.0378C110.223 94.5358 110.663 95.2036 110.877 96.0413ZM118.387 93.4235V95.0989H112.53V93.4235H118.387ZM114.1 90.8544H116.188V100.998C116.188 101.403 116.248 101.708 116.369 101.912C116.49 102.112 116.646 102.25 116.837 102.324C117.032 102.394 117.244 102.429 117.472 102.429C117.64 102.429 117.786 102.417 117.912 102.394C118.038 102.371 118.135 102.352 118.205 102.338L118.582 104.063C118.461 104.109 118.289 104.156 118.065 104.202C117.842 104.253 117.563 104.281 117.228 104.286C116.679 104.295 116.167 104.197 115.692 103.993C115.217 103.788 114.833 103.471 114.54 103.043C114.247 102.615 114.1 102.078 114.1 101.431V90.8544ZM123.816 104.384C123.137 104.384 122.522 104.258 121.973 104.007C121.424 103.751 120.989 103.381 120.668 102.897C120.351 102.413 120.193 101.819 120.193 101.117C120.193 100.512 120.309 100.014 120.542 99.6226C120.775 99.2317 121.089 98.9222 121.484 98.6941C121.88 98.4661 122.322 98.2939 122.811 98.1775C123.3 98.0612 123.797 97.9728 124.305 97.9123C124.947 97.8378 125.468 97.7773 125.869 97.7307C126.269 97.6796 126.56 97.5981 126.741 97.4864C126.923 97.3747 127.013 97.1932 127.013 96.9419V96.893C127.013 96.2834 126.841 95.811 126.497 95.4759C126.157 95.1408 125.65 94.9732 124.975 94.9732C124.272 94.9732 123.718 95.1292 123.313 95.441C122.913 95.7481 122.636 96.0902 122.483 96.4672L120.521 96.0204C120.754 95.3688 121.094 94.8429 121.54 94.4427C121.992 94.0378 122.511 93.7446 123.097 93.5631C123.683 93.3769 124.3 93.2838 124.947 93.2838C125.375 93.2838 125.829 93.335 126.308 93.4374C126.792 93.5352 127.244 93.7167 127.663 93.9819C128.086 94.2472 128.433 94.6265 128.703 95.1198C128.973 95.6085 129.108 96.2438 129.108 97.0257V104.146H127.069V102.68H126.985C126.851 102.95 126.648 103.215 126.378 103.476C126.108 103.737 125.761 103.953 125.338 104.125C124.914 104.298 124.407 104.384 123.816 104.384ZM124.27 102.708C124.847 102.708 125.34 102.594 125.75 102.366C126.164 102.138 126.478 101.84 126.692 101.473C126.911 101.1 127.02 100.702 127.02 100.279V98.8966C126.946 98.971 126.802 99.0409 126.588 99.106C126.378 99.1665 126.138 99.22 125.869 99.2666C125.599 99.3085 125.336 99.348 125.08 99.3852C124.824 99.4178 124.61 99.4458 124.437 99.469C124.033 99.5202 123.663 99.6063 123.327 99.7273C122.997 99.8483 122.732 100.023 122.532 100.251C122.336 100.474 122.238 100.772 122.238 101.144C122.238 101.661 122.429 102.052 122.811 102.317C123.192 102.578 123.679 102.708 124.27 102.708ZM140.677 93.4235L136.789 104.146H134.555L130.659 93.4235H132.9L135.616 101.675H135.727L138.436 93.4235H140.677ZM146.791 104.363C145.785 104.363 144.908 104.132 144.159 103.672C143.409 103.211 142.828 102.566 142.414 101.738C141.999 100.909 141.792 99.9414 141.792 98.8337C141.792 97.7214 141.999 96.7488 142.414 95.9157C142.828 95.0826 143.409 94.4357 144.159 93.975C144.908 93.5142 145.785 93.2838 146.791 93.2838C147.796 93.2838 148.673 93.5142 149.422 93.975C150.172 94.4357 150.754 95.0826 151.168 95.9157C151.582 96.7488 151.789 97.7214 151.789 98.8337C151.789 99.9414 151.582 100.909 151.168 101.738C150.754 102.566 150.172 103.211 149.422 103.672C148.673 104.132 147.796 104.363 146.791 104.363ZM146.798 102.61C147.449 102.61 147.989 102.438 148.417 102.094C148.845 101.749 149.162 101.291 149.367 100.719C149.576 100.146 149.681 99.5156 149.681 98.8268C149.681 98.1426 149.576 97.5143 149.367 96.9419C149.162 96.3648 148.845 95.9017 148.417 95.5527C147.989 95.2036 147.449 95.0291 146.798 95.0291C146.141 95.0291 145.597 95.2036 145.164 95.5527C144.736 95.9017 144.417 96.3648 144.208 96.9419C144.003 97.5143 143.9 98.1426 143.9 98.8268C143.9 99.5156 144.003 100.146 144.208 100.719C144.417 101.291 144.736 101.749 145.164 102.094C145.597 102.438 146.141 102.61 146.798 102.61ZM171.364 94.4985H169.186C169.102 94.0331 168.946 93.6236 168.718 93.2699C168.49 92.9162 168.211 92.616 167.88 92.3693C167.55 92.1227 167.18 91.9365 166.77 91.8108C166.365 91.6852 165.935 91.6224 165.479 91.6224C164.655 91.6224 163.917 91.8295 163.266 92.2437C162.619 92.6579 162.107 93.2652 161.73 94.0657C161.358 94.8662 161.172 95.8435 161.172 96.9977C161.172 98.1612 161.358 99.1432 161.73 99.9437C162.107 100.744 162.621 101.349 163.273 101.759C163.924 102.168 164.657 102.373 165.472 102.373C165.923 102.373 166.351 102.313 166.756 102.192C167.166 102.066 167.536 101.882 167.866 101.64C168.197 101.398 168.476 101.103 168.704 100.754C168.937 100.4 169.097 99.9949 169.186 99.5388L171.364 99.5458C171.247 100.249 171.022 100.895 170.687 101.487C170.356 102.073 169.93 102.58 169.409 103.008C168.893 103.432 168.301 103.76 167.636 103.993C166.97 104.225 166.244 104.342 165.458 104.342C164.22 104.342 163.117 104.049 162.149 103.462C161.181 102.871 160.418 102.026 159.859 100.928C159.305 99.8297 159.028 98.5196 159.028 96.9977C159.028 95.4712 159.308 94.1611 159.866 93.0674C160.425 91.9691 161.188 91.1267 162.156 90.5403C163.124 89.9492 164.225 89.6537 165.458 89.6537C166.216 89.6537 166.924 89.7631 167.58 89.9818C168.241 90.1959 168.834 90.5124 169.36 90.9312C169.886 91.3454 170.321 91.8527 170.666 92.4531C171.01 93.0488 171.243 93.7306 171.364 94.4985ZM176.898 104.384C176.219 104.384 175.604 104.258 175.055 104.007C174.506 103.751 174.071 103.381 173.75 102.897C173.433 102.413 173.275 101.819 173.275 101.117C173.275 100.512 173.391 100.014 173.624 99.6226C173.857 99.2317 174.171 98.9222 174.566 98.6941C174.962 98.4661 175.404 98.2939 175.893 98.1775C176.381 98.0612 176.879 97.9728 177.387 97.9123C178.029 97.8378 178.55 97.7773 178.95 97.7307C179.351 97.6796 179.642 97.5981 179.823 97.4864C180.005 97.3747 180.095 97.1932 180.095 96.9419V96.893C180.095 96.2834 179.923 95.811 179.579 95.4759C179.239 95.1408 178.732 94.9732 178.057 94.9732C177.354 94.9732 176.8 95.1292 176.395 95.441C175.995 95.7481 175.718 96.0902 175.565 96.4672L173.603 96.0204C173.836 95.3688 174.175 94.8429 174.622 94.4427C175.074 94.0378 175.593 93.7446 176.179 93.5631C176.765 93.3769 177.382 93.2838 178.029 93.2838C178.457 93.2838 178.911 93.335 179.39 93.4374C179.874 93.5352 180.326 93.7167 180.745 93.9819C181.168 94.2472 181.515 94.6265 181.785 95.1198C182.055 95.6085 182.19 96.2438 182.19 97.0257V104.146H180.151V102.68H180.067C179.932 102.95 179.73 103.215 179.46 103.476C179.19 103.737 178.843 103.953 178.42 104.125C177.996 104.298 177.489 104.384 176.898 104.384ZM177.352 102.708C177.929 102.708 178.422 102.594 178.832 102.366C179.246 102.138 179.56 101.84 179.774 101.473C179.993 101.1 180.102 100.702 180.102 100.279V98.8966C180.028 98.971 179.884 99.0409 179.669 99.106C179.46 99.1665 179.22 99.22 178.95 99.2666C178.68 99.3085 178.418 99.348 178.162 99.3852C177.906 99.4178 177.692 99.4458 177.519 99.469C177.114 99.5202 176.744 99.6063 176.409 99.7273C176.079 99.8483 175.814 100.023 175.613 100.251C175.418 100.474 175.32 100.772 175.32 101.144C175.32 101.661 175.511 102.052 175.893 102.317C176.274 102.578 176.761 102.708 177.352 102.708ZM185.137 104.146V89.8492H187.225V95.1617H187.35C187.471 94.9383 187.646 94.68 187.874 94.3868C188.102 94.0936 188.418 93.8377 188.823 93.6189C189.228 93.3955 189.763 93.2838 190.429 93.2838C191.295 93.2838 192.067 93.5026 192.747 93.9401C193.426 94.3775 193.959 95.0082 194.345 95.8319C194.736 96.6557 194.932 97.647 194.932 98.8058C194.932 99.9647 194.739 100.958 194.352 101.787C193.966 102.61 193.435 103.246 192.761 103.693C192.086 104.135 191.316 104.356 190.45 104.356C189.798 104.356 189.265 104.246 188.851 104.028C188.442 103.809 188.121 103.553 187.888 103.26C187.655 102.967 187.476 102.706 187.35 102.478H187.176V104.146H185.137ZM187.183 98.7849C187.183 99.5388 187.292 100.2 187.511 100.767C187.73 101.335 188.046 101.78 188.46 102.101C188.875 102.417 189.382 102.576 189.982 102.576C190.606 102.576 191.127 102.41 191.546 102.08C191.965 101.745 192.281 101.291 192.495 100.719C192.714 100.146 192.823 99.5016 192.823 98.7849C192.823 98.0775 192.716 97.4422 192.502 96.8791C192.293 96.3159 191.976 95.8715 191.553 95.5457C191.134 95.2199 190.61 95.057 189.982 95.057C189.377 95.057 188.865 95.2129 188.446 95.5247C188.032 95.8366 187.718 96.2717 187.504 96.8302C187.29 97.3887 187.183 98.0402 187.183 98.7849ZM197.276 104.146V93.4235H199.293V95.1268H199.405C199.6 94.5497 199.945 94.096 200.438 93.7655C200.936 93.4304 201.499 93.2629 202.127 93.2629C202.258 93.2629 202.411 93.2676 202.588 93.2769C202.77 93.2862 202.912 93.2978 203.014 93.3118V95.3083C202.93 95.2851 202.781 95.2595 202.567 95.2315C202.353 95.199 202.139 95.1827 201.925 95.1827C201.432 95.1827 200.992 95.2874 200.606 95.4968C200.224 95.7016 199.921 95.9878 199.698 96.3555C199.475 96.7185 199.363 97.1327 199.363 97.5981V104.146H197.276ZM207.845 104.384C207.165 104.384 206.551 104.258 206.002 104.007C205.453 103.751 205.018 103.381 204.696 102.897C204.38 102.413 204.222 101.819 204.222 101.117C204.222 100.512 204.338 100.014 204.571 99.6226C204.803 99.2317 205.118 98.9222 205.513 98.6941C205.909 98.4661 206.351 98.2939 206.84 98.1775C207.328 98.0612 207.826 97.9728 208.334 97.9123C208.976 97.8378 209.497 97.7773 209.897 97.7307C210.297 97.6796 210.588 97.5981 210.77 97.4864C210.951 97.3747 211.042 97.1932 211.042 96.9419V96.893C211.042 96.2834 210.87 95.811 210.526 95.4759C210.186 95.1408 209.679 94.9732 209.004 94.9732C208.301 94.9732 207.747 95.1292 207.342 95.441C206.942 95.7481 206.665 96.0902 206.511 96.4672L204.55 96.0204C204.782 95.3688 205.122 94.8429 205.569 94.4427C206.02 94.0378 206.539 93.7446 207.126 93.5631C207.712 93.3769 208.329 93.2838 208.976 93.2838C209.404 93.2838 209.858 93.335 210.337 93.4374C210.821 93.5352 211.273 93.7167 211.691 93.9819C212.115 94.2472 212.462 94.6265 212.732 95.1198C213.001 95.6085 213.136 96.2438 213.136 97.0257V104.146H211.098V102.68H211.014C210.879 102.95 210.677 103.215 210.407 103.476C210.137 103.737 209.79 103.953 209.367 104.125C208.943 104.298 208.436 104.384 207.845 104.384ZM208.299 102.708C208.876 102.708 209.369 102.594 209.779 102.366C210.193 102.138 210.507 101.84 210.721 101.473C210.94 101.1 211.049 100.702 211.049 100.279V98.8966C210.975 98.971 210.83 99.0409 210.616 99.106C210.407 99.1665 210.167 99.22 209.897 99.2666C209.627 99.3085 209.364 99.348 209.108 99.3852C208.852 99.4178 208.638 99.4458 208.466 99.469C208.061 99.5202 207.691 99.6063 207.356 99.7273C207.026 99.8483 206.76 100.023 206.56 100.251C206.365 100.474 206.267 100.772 206.267 101.144C206.267 101.661 206.458 102.052 206.84 102.317C207.221 102.578 207.708 102.708 208.299 102.708ZM218.004 89.8492V104.146H215.917V89.8492H218.004Z" fill="white" fill-opacity="0.7"/>
</g>
<rect x="0.5" y="0.5" width="1319" height="402" rx="19.1585" stroke="#D5D2D2"/>
<defs>
<clipPath id="clip0_2_26">
<rect width="1320" height="403" rx="19.6585" fill="white"/>
</clipPath>
<clipPath id="clip1_2_26">
<rect width="147.439" height="68.8049" fill="white" transform="translate(32 319.451)"/>
</clipPath>
</defs>
</svg>
