<svg width="1657" height="403" viewBox="0 0 1657 403" fill="none" xmlns="http://www.w3.org/2000/svg">
<g clip-path="url(#clip0_2_7)">
<rect x="0.768311" width="1656.23" height="403" rx="19.6585" fill="black"/>
<mask id="path-2-inside-1_2_7" fill="white">
<path d="M0.768311 300.137H1657V403.344H0.768311V300.137Z"/>
</mask>
<path d="M0.768311 300.137H1657V403.344H0.768311V300.137Z" fill="#FAFAFA"/>
<g clip-path="url(#clip1_2_7)">
<path d="M112.12 337.413H134.38V339.11H114.161V351.876H133.174V353.572H114.161V367.589H134.612V369.285H112.12V337.413V337.413ZM136.374 337.413H138.739L149.22 351.429L159.932 337.413L174.503 319.609L150.565 352.903L162.9 369.285H160.442L149.22 354.376L137.951 369.285H135.539L147.968 352.903L136.375 337.413H136.374ZM163.781 339.11V337.413H189.147V339.11H177.462V369.284H175.421V339.11H163.782H163.781ZM84.2731 337.413H86.8239L121.994 387.872L107.46 369.285L86.4059 339.824L86.3132 369.285H84.2731V337.413V337.413ZM188.943 367.076C188.525 367.076 188.212 366.767 188.212 366.367C188.212 365.966 188.525 365.657 188.942 365.657C189.364 365.657 189.672 365.966 189.672 366.367C189.672 366.767 189.364 367.076 188.942 367.076H188.943ZM190.947 365.209H192.039C192.055 365.776 192.487 366.157 193.121 366.157C193.831 366.157 194.233 365.748 194.233 364.98V360.121H195.345V364.985C195.345 366.367 194.511 367.163 193.131 367.163C191.836 367.163 190.948 366.391 190.948 365.209H190.947ZM196.798 365.148H197.9C197.995 365.8 198.659 366.214 199.618 366.214C200.51 366.214 201.165 365.771 201.165 365.161C201.165 364.638 200.749 364.323 199.801 364.109L198.878 363.895C197.583 363.604 196.992 363.003 196.992 361.993C196.992 360.769 198.034 359.954 199.597 359.954C201.051 359.954 202.114 360.769 202.178 361.926H201.096C200.992 361.293 200.417 360.897 199.582 360.897C198.703 360.897 198.118 361.302 198.118 361.921C198.118 362.412 198.496 362.694 199.429 362.903L200.218 363.089C201.686 363.418 202.292 363.989 202.292 365.023C202.292 366.338 201.229 367.163 199.533 367.163C197.945 367.163 196.877 366.376 196.798 365.147V365.148Z" fill="black"/>
</g>
<path d="M0.768311 301.365H1657V298.908H0.768311V301.365Z" fill="black" fill-opacity="0.25" mask="url(#path-2-inside-1_2_7)"/>
<path d="M105.401 190.781H88.4685V143.015H105.541C110.345 143.015 114.481 143.971 117.949 145.884C121.416 147.781 124.083 150.51 125.948 154.07C127.83 157.631 128.771 161.891 128.771 166.851C128.771 171.827 127.83 176.103 125.948 179.679C124.083 183.255 121.4 185.999 117.902 187.912C114.419 189.824 110.252 190.781 105.401 190.781ZM98.5673 182.128H104.981C107.966 182.128 110.478 181.599 112.514 180.542C114.567 179.469 116.106 177.813 117.132 175.574C118.174 173.319 118.695 170.412 118.695 166.851C118.695 163.322 118.174 160.437 117.132 158.198C116.106 155.959 114.575 154.311 112.538 153.254C110.501 152.197 107.99 151.668 105.004 151.668H98.5673V182.128ZM152.391 191.48C148.706 191.48 145.534 190.734 142.875 189.241C140.232 187.733 138.195 185.603 136.764 182.851C135.334 180.083 134.619 176.81 134.619 173.032C134.619 169.347 135.334 166.113 136.764 163.329C138.195 160.546 140.208 158.377 142.805 156.822C145.417 155.267 148.48 154.49 151.994 154.49C154.358 154.49 156.558 154.871 158.595 155.633C160.647 156.379 162.435 157.506 163.959 159.015C165.498 160.523 166.696 162.42 167.551 164.705C168.406 166.976 168.834 169.634 168.834 172.682V175.411H138.584V169.253H159.481C159.481 167.823 159.17 166.556 158.548 165.452C157.926 164.348 157.063 163.485 155.959 162.863C154.871 162.225 153.604 161.907 152.158 161.907C150.649 161.907 149.312 162.257 148.146 162.956C146.995 163.64 146.094 164.566 145.441 165.732C144.788 166.882 144.453 168.165 144.438 169.58V175.434C144.438 177.207 144.764 178.738 145.417 180.029C146.086 181.319 147.027 182.314 148.239 183.014C149.452 183.714 150.89 184.064 152.554 184.064C153.658 184.064 154.669 183.908 155.586 183.597C156.503 183.286 157.289 182.82 157.942 182.198C158.595 181.576 159.092 180.814 159.434 179.912L168.624 180.518C168.157 182.726 167.201 184.654 165.755 186.303C164.324 187.935 162.474 189.21 160.204 190.127C157.949 191.029 155.345 191.48 152.391 191.48ZM205.124 165.172L196.028 165.732C195.873 164.954 195.538 164.255 195.025 163.633C194.512 162.995 193.836 162.49 192.996 162.117C192.172 161.728 191.185 161.534 190.034 161.534C188.495 161.534 187.196 161.86 186.139 162.513C185.082 163.151 184.553 164.006 184.553 165.079C184.553 165.934 184.895 166.657 185.579 167.248C186.264 167.839 187.437 168.313 189.101 168.67L195.585 169.976C199.068 170.692 201.664 171.842 203.375 173.428C205.085 175.014 205.94 177.098 205.94 179.679C205.94 182.027 205.248 184.087 203.865 185.859C202.496 187.632 200.615 189.016 198.22 190.011C195.841 190.99 193.097 191.48 189.987 191.48C185.245 191.48 181.467 190.493 178.652 188.518C175.854 186.528 174.213 183.823 173.731 180.402L183.504 179.889C183.799 181.335 184.514 182.439 185.649 183.201C186.784 183.947 188.238 184.32 190.011 184.32C191.752 184.32 193.152 183.986 194.209 183.317C195.282 182.633 195.826 181.755 195.841 180.682C195.826 179.78 195.445 179.041 194.699 178.466C193.952 177.875 192.802 177.424 191.247 177.113L185.043 175.877C181.545 175.177 178.94 173.965 177.23 172.239C175.535 170.513 174.688 168.313 174.688 165.638C174.688 163.337 175.31 161.355 176.553 159.691C177.813 158.027 179.578 156.745 181.848 155.843C184.133 154.941 186.808 154.49 189.871 154.49C194.395 154.49 197.956 155.446 200.553 157.359C203.165 159.271 204.689 161.876 205.124 165.172ZM228.523 191.48C224.838 191.48 221.666 190.734 219.007 189.241C216.364 187.733 214.327 185.603 212.896 182.851C211.466 180.083 210.751 176.81 210.751 173.032C210.751 169.347 211.466 166.113 212.896 163.329C214.327 160.546 216.34 158.377 218.937 156.822C221.549 155.267 224.612 154.49 228.126 154.49C230.49 154.49 232.69 154.871 234.727 155.633C236.779 156.379 238.567 157.506 240.091 159.015C241.63 160.523 242.827 162.42 243.683 164.705C244.538 166.976 244.965 169.634 244.965 172.682V175.411H214.716V169.253H235.613C235.613 167.823 235.302 166.556 234.68 165.452C234.058 164.348 233.195 163.485 232.091 162.863C231.003 162.225 229.736 161.907 228.289 161.907C226.781 161.907 225.444 162.257 224.278 162.956C223.127 163.64 222.226 164.566 221.572 165.732C220.919 166.882 220.585 168.165 220.57 169.58V175.434C220.57 177.207 220.896 178.738 221.549 180.029C222.218 181.319 223.158 182.314 224.371 183.014C225.584 183.714 227.022 184.064 228.686 184.064C229.79 184.064 230.801 183.908 231.718 183.597C232.635 183.286 233.421 182.82 234.074 182.198C234.727 181.576 235.224 180.814 235.566 179.912L244.755 180.518C244.289 182.726 243.333 184.654 241.887 186.303C240.456 187.935 238.606 189.21 236.336 190.127C234.081 191.029 231.477 191.48 228.523 191.48ZM261.385 170.07V190.781H251.449V154.956H260.918V161.277H261.338C262.131 159.193 263.46 157.545 265.326 156.333C267.192 155.104 269.454 154.49 272.113 154.49C274.601 154.49 276.77 155.034 278.62 156.123C280.471 157.211 281.909 158.766 282.935 160.787C283.961 162.793 284.474 165.187 284.474 167.971V190.781H274.539V169.743C274.554 167.551 273.995 165.841 272.86 164.612C271.725 163.368 270.162 162.746 268.172 162.746C266.835 162.746 265.653 163.034 264.627 163.609C263.616 164.185 262.823 165.024 262.248 166.128C261.688 167.217 261.4 168.53 261.385 170.07ZM324.421 154.956L311.896 190.781H300.701L288.177 154.956H298.672L306.112 180.588H306.485L313.902 154.956H324.421ZM344.537 191.48C340.914 191.48 337.781 190.711 335.138 189.171C332.51 187.616 330.481 185.455 329.05 182.687C327.62 179.904 326.905 176.678 326.905 173.008C326.905 169.308 327.62 166.074 329.05 163.306C330.481 160.523 332.51 158.362 335.138 156.822C337.781 155.267 340.914 154.49 344.537 154.49C348.16 154.49 351.285 155.267 353.913 156.822C356.556 158.362 358.593 160.523 360.023 163.306C361.454 166.074 362.169 169.308 362.169 173.008C362.169 176.678 361.454 179.904 360.023 182.687C358.593 185.455 356.556 187.616 353.913 189.171C351.285 190.711 348.16 191.48 344.537 191.48ZM344.583 183.784C346.232 183.784 347.608 183.317 348.712 182.384C349.816 181.436 350.647 180.145 351.207 178.513C351.782 176.88 352.07 175.022 352.07 172.938C352.07 170.855 351.782 168.997 351.207 167.364C350.647 165.732 349.816 164.441 348.712 163.493C347.608 162.544 346.232 162.07 344.583 162.07C342.92 162.07 341.52 162.544 340.385 163.493C339.266 164.441 338.418 165.732 337.843 167.364C337.283 168.997 337.004 170.855 337.004 172.938C337.004 175.022 337.283 176.88 337.843 178.513C338.418 180.145 339.266 181.436 340.385 182.384C341.52 183.317 342.92 183.784 344.583 183.784ZM378.565 143.015V190.781H368.629V143.015H378.565ZM419.922 154.956L407.398 190.781H396.203L383.679 154.956H394.174L401.614 180.588H401.987L409.404 154.956H419.922ZM434.26 191.457C431.975 191.457 429.938 191.06 428.15 190.267C426.361 189.459 424.947 188.269 423.905 186.699C422.879 185.113 422.365 183.138 422.365 180.775C422.365 178.785 422.731 177.113 423.462 175.761C424.192 174.408 425.188 173.319 426.447 172.495C427.706 171.671 429.137 171.049 430.738 170.63C432.355 170.21 434.05 169.914 435.823 169.743C437.906 169.526 439.586 169.323 440.861 169.137C442.136 168.935 443.061 168.639 443.636 168.251C444.211 167.862 444.499 167.287 444.499 166.525V166.385C444.499 164.908 444.032 163.765 443.1 162.956C442.182 162.148 440.876 161.743 439.181 161.743C437.393 161.743 435.97 162.14 434.913 162.933C433.856 163.71 433.156 164.69 432.814 165.872L423.625 165.125C424.091 162.948 425.009 161.067 426.377 159.481C427.745 157.88 429.51 156.651 431.671 155.796C433.848 154.925 436.367 154.49 439.228 154.49C441.218 154.49 443.123 154.723 444.942 155.19C446.777 155.656 448.402 156.379 449.817 157.359C451.247 158.338 452.374 159.598 453.198 161.137C454.022 162.661 454.434 164.488 454.434 166.618V190.781H445.012V185.813H444.732C444.157 186.932 443.387 187.92 442.423 188.775C441.459 189.614 440.301 190.275 438.948 190.757C437.595 191.224 436.033 191.457 434.26 191.457ZM437.106 184.6C438.567 184.6 439.858 184.312 440.977 183.737C442.097 183.146 442.975 182.353 443.613 181.358C444.25 180.363 444.569 179.236 444.569 177.976V174.175C444.258 174.377 443.83 174.563 443.286 174.734C442.757 174.89 442.159 175.038 441.49 175.177C440.822 175.302 440.153 175.418 439.484 175.527C438.816 175.621 438.209 175.706 437.665 175.784C436.499 175.955 435.481 176.227 434.61 176.6C433.739 176.973 433.063 177.479 432.581 178.116C432.099 178.738 431.858 179.516 431.858 180.448C431.858 181.801 432.348 182.835 433.327 183.55C434.322 184.25 435.582 184.6 437.106 184.6ZM467.95 191.387C466.411 191.387 465.089 190.843 463.985 189.754C462.897 188.65 462.353 187.329 462.353 185.789C462.353 184.266 462.897 182.96 463.985 181.871C465.089 180.783 466.411 180.239 467.95 180.239C469.443 180.239 470.749 180.783 471.868 181.871C472.988 182.96 473.548 184.266 473.548 185.789C473.548 186.816 473.283 187.756 472.755 188.611C472.242 189.451 471.565 190.127 470.726 190.641C469.886 191.138 468.961 191.387 467.95 191.387ZM511.78 190.781H494.847V143.015H511.92C516.724 143.015 520.86 143.971 524.328 145.884C527.795 147.781 530.461 150.51 532.327 154.07C534.209 157.631 535.149 161.891 535.149 166.851C535.149 171.827 534.209 176.103 532.327 179.679C530.461 183.255 527.779 185.999 524.281 187.912C520.798 189.824 516.631 190.781 511.78 190.781ZM504.946 182.128H511.36C514.345 182.128 516.856 181.599 518.893 180.542C520.946 179.469 522.485 177.813 523.511 175.574C524.553 173.319 525.074 170.412 525.074 166.851C525.074 163.322 524.553 160.437 523.511 158.198C522.485 155.959 520.953 154.311 518.917 153.254C516.88 152.197 514.369 151.668 511.383 151.668H504.946V182.128ZM542.444 190.781V154.956H552.379V190.781H542.444ZM547.435 150.339C545.958 150.339 544.69 149.849 543.633 148.869C542.591 147.874 542.07 146.685 542.07 145.301C542.07 143.933 542.591 142.759 543.633 141.779C544.69 140.784 545.958 140.286 547.435 140.286C548.912 140.286 550.171 140.784 551.213 141.779C552.27 142.759 552.799 143.933 552.799 145.301C552.799 146.685 552.27 147.874 551.213 148.869C550.171 149.849 548.912 150.339 547.435 150.339ZM590.145 165.172L581.049 165.732C580.893 164.954 580.559 164.255 580.046 163.633C579.533 162.995 578.857 162.49 578.017 162.117C577.193 161.728 576.205 161.534 575.055 161.534C573.516 161.534 572.217 161.86 571.16 162.513C570.103 163.151 569.574 164.006 569.574 165.079C569.574 165.934 569.916 166.657 570.6 167.248C571.284 167.839 572.458 168.313 574.122 168.67L580.606 169.976C584.089 170.692 586.685 171.842 588.396 173.428C590.106 175.014 590.961 177.098 590.961 179.679C590.961 182.027 590.269 184.087 588.885 185.859C587.517 187.632 585.636 189.016 583.241 190.011C580.862 190.99 578.118 191.48 575.008 191.48C570.266 191.48 566.488 190.493 563.673 188.518C560.875 186.528 559.234 183.823 558.752 180.402L568.524 179.889C568.82 181.335 569.535 182.439 570.67 183.201C571.805 183.947 573.259 184.32 575.032 184.32C576.773 184.32 578.172 183.986 579.23 183.317C580.303 182.633 580.847 181.755 580.862 180.682C580.847 179.78 580.466 179.041 579.719 178.466C578.973 177.875 577.823 177.424 576.268 177.113L570.064 175.877C566.565 175.177 563.961 173.965 562.251 172.239C560.556 170.513 559.708 168.313 559.708 165.638C559.708 163.337 560.33 161.355 561.574 159.691C562.834 158.027 564.598 156.745 566.869 155.843C569.154 154.941 571.829 154.49 574.892 154.49C579.416 154.49 582.977 155.446 585.574 157.359C588.186 159.271 589.709 161.876 590.145 165.172ZM616.272 154.956V162.42H594.699V154.956H616.272ZM599.596 146.374H609.532V179.772C609.532 180.689 609.672 181.405 609.952 181.918C610.232 182.415 610.62 182.765 611.118 182.967C611.631 183.169 612.222 183.271 612.891 183.271C613.357 183.271 613.823 183.232 614.29 183.154C614.756 183.061 615.114 182.991 615.363 182.944L616.925 190.337C616.428 190.493 615.728 190.672 614.826 190.874C613.924 191.091 612.828 191.224 611.538 191.27C609.143 191.364 607.044 191.045 605.241 190.314C603.452 189.583 602.061 188.448 601.066 186.909C600.071 185.37 599.581 183.426 599.596 181.078V146.374ZM622.744 190.781V154.956H632.377V161.207H632.75C633.403 158.984 634.499 157.304 636.039 156.169C637.578 155.019 639.35 154.443 641.356 154.443C641.854 154.443 642.39 154.474 642.965 154.537C643.541 154.599 644.046 154.684 644.481 154.793V163.609C644.015 163.469 643.37 163.345 642.546 163.236C641.722 163.127 640.967 163.073 640.283 163.073C638.822 163.073 637.516 163.392 636.365 164.029C635.23 164.651 634.328 165.522 633.66 166.641C633.007 167.761 632.68 169.051 632.68 170.513V190.781H622.744ZM649.618 190.781V154.956H659.554V190.781H649.618ZM654.609 150.339C653.132 150.339 651.865 149.849 650.808 148.869C649.766 147.874 649.245 146.685 649.245 145.301C649.245 143.933 649.766 142.759 650.808 141.779C651.865 140.784 653.132 140.286 654.609 140.286C656.087 140.286 657.346 140.784 658.388 141.779C659.445 142.759 659.974 143.933 659.974 145.301C659.974 146.685 659.445 147.874 658.388 148.869C657.346 149.849 656.087 150.339 654.609 150.339ZM667.699 190.781V143.015H677.635V160.974H677.938C678.374 160.01 679.003 159.03 679.827 158.035C680.667 157.024 681.755 156.185 683.093 155.516C684.445 154.832 686.125 154.49 688.13 154.49C690.742 154.49 693.152 155.174 695.36 156.542C697.568 157.895 699.333 159.94 700.655 162.676C701.976 165.397 702.637 168.81 702.637 172.915C702.637 176.911 701.992 180.285 700.701 183.037C699.426 185.774 697.685 187.85 695.477 189.265C693.285 190.664 690.828 191.364 688.107 191.364C686.179 191.364 684.539 191.045 683.186 190.407C681.849 189.77 680.752 188.969 679.897 188.005C679.042 187.026 678.389 186.038 677.938 185.043H677.495V190.781H667.699ZM677.425 172.869C677.425 174.999 677.72 176.857 678.311 178.443C678.902 180.029 679.757 181.265 680.877 182.151C681.996 183.022 683.357 183.457 684.958 183.457C686.575 183.457 687.944 183.014 689.063 182.128C690.183 181.226 691.03 179.982 691.605 178.396C692.196 176.795 692.492 174.952 692.492 172.869C692.492 170.801 692.204 168.981 691.629 167.411C691.053 165.841 690.206 164.612 689.087 163.726C687.967 162.84 686.591 162.397 684.958 162.397C683.341 162.397 681.973 162.824 680.854 163.679C679.75 164.534 678.902 165.747 678.311 167.318C677.72 168.888 677.425 170.738 677.425 172.869ZM732.24 175.527V154.956H742.175V190.781H732.636V184.273H732.263C731.455 186.372 730.11 188.06 728.228 189.334C726.362 190.609 724.085 191.247 721.395 191.247C719 191.247 716.893 190.703 715.074 189.614C713.255 188.526 711.832 186.979 710.806 184.973C709.795 182.967 709.282 180.565 709.267 177.766V154.956H719.202V175.994C719.218 178.108 719.785 179.78 720.905 181.008C722.024 182.237 723.525 182.851 725.406 182.851C726.603 182.851 727.723 182.579 728.765 182.034C729.806 181.475 730.646 180.651 731.284 179.562C731.937 178.474 732.255 177.129 732.24 175.527ZM760.338 191.457C758.052 191.457 756.016 191.06 754.228 190.267C752.439 189.459 751.024 188.269 749.983 186.699C748.957 185.113 748.443 183.138 748.443 180.775C748.443 178.785 748.809 177.113 749.54 175.761C750.27 174.408 751.265 173.319 752.525 172.495C753.784 171.671 755.215 171.049 756.816 170.63C758.433 170.21 760.128 169.914 761.901 169.743C763.984 169.526 765.664 169.323 766.939 169.137C768.213 168.935 769.139 168.639 769.714 168.251C770.289 167.862 770.577 167.287 770.577 166.525V166.385C770.577 164.908 770.11 163.765 769.178 162.956C768.26 162.148 766.954 161.743 765.259 161.743C763.471 161.743 762.048 162.14 760.991 162.933C759.934 163.71 759.234 164.69 758.892 165.872L749.703 165.125C750.169 162.948 751.087 161.067 752.455 159.481C753.823 157.88 755.588 156.651 757.749 155.796C759.926 154.925 762.445 154.49 765.306 154.49C767.296 154.49 769.201 154.723 771.02 155.19C772.855 155.656 774.48 156.379 775.895 157.359C777.325 158.338 778.452 159.598 779.276 161.137C780.1 162.661 780.512 164.488 780.512 166.618V190.781H771.09V185.813H770.81C770.235 186.932 769.465 187.92 768.501 188.775C767.537 189.614 766.379 190.275 765.026 190.757C763.673 191.224 762.111 191.457 760.338 191.457ZM763.184 184.6C764.645 184.6 765.936 184.312 767.055 183.737C768.175 183.146 769.053 182.353 769.691 181.358C770.328 180.363 770.647 179.236 770.647 177.976V174.175C770.336 174.377 769.908 174.563 769.364 174.734C768.835 174.89 768.237 175.038 767.568 175.177C766.9 175.302 766.231 175.418 765.562 175.527C764.894 175.621 764.287 175.706 763.743 175.784C762.577 175.955 761.559 176.227 760.688 176.6C759.817 176.973 759.141 177.479 758.659 178.116C758.177 178.738 757.936 179.516 757.936 180.448C757.936 181.801 758.426 182.835 759.405 183.55C760.4 184.25 761.66 184.6 763.184 184.6ZM794.028 191.387C792.489 191.387 791.167 190.843 790.063 189.754C788.975 188.65 788.431 187.329 788.431 185.789C788.431 184.266 788.975 182.96 790.063 181.871C791.167 180.783 792.489 180.239 794.028 180.239C795.521 180.239 796.827 180.783 797.946 181.871C799.066 182.96 799.626 184.266 799.626 185.789C799.626 186.816 799.361 187.756 798.833 188.611C798.32 189.451 797.643 190.127 796.804 190.641C795.964 191.138 795.039 191.387 794.028 191.387ZM820.925 190.781V143.015H853.111V151.341H831.024V162.723H851.455V171.049H831.024V182.454H853.204V190.781H820.925ZM890.76 165.172L881.664 165.732C881.509 164.954 881.174 164.255 880.661 163.633C880.148 162.995 879.472 162.49 878.632 162.117C877.808 161.728 876.821 161.534 875.67 161.534C874.131 161.534 872.832 161.86 871.775 162.513C870.718 163.151 870.189 164.006 870.189 165.079C870.189 165.934 870.531 166.657 871.215 167.248C871.899 167.839 873.073 168.313 874.737 168.67L881.221 169.976C884.704 170.692 887.3 171.842 889.011 173.428C890.721 175.014 891.576 177.098 891.576 179.679C891.576 182.027 890.884 184.087 889.501 185.859C888.132 187.632 886.251 189.016 883.856 190.011C881.477 190.99 878.733 191.48 875.623 191.48C870.881 191.48 867.103 190.493 864.288 188.518C861.49 186.528 859.849 183.823 859.367 180.402L869.14 179.889C869.435 181.335 870.15 182.439 871.285 183.201C872.42 183.947 873.874 184.32 875.647 184.32C877.388 184.32 878.788 183.986 879.845 183.317C880.918 182.633 881.462 181.755 881.477 180.682C881.462 179.78 881.081 179.041 880.335 178.466C879.588 177.875 878.438 177.424 876.883 177.113L870.679 175.877C867.18 175.177 864.576 173.965 862.866 172.239C861.171 170.513 860.324 168.313 860.324 165.638C860.324 163.337 860.945 161.355 862.189 159.691C863.449 158.027 865.214 156.745 867.484 155.843C869.769 154.941 872.444 154.49 875.507 154.49C880.031 154.49 883.592 155.446 886.189 157.359C888.801 159.271 890.325 161.876 890.76 165.172ZM914.019 191.48C910.349 191.48 907.193 190.703 904.55 189.148C901.922 187.578 899.901 185.401 898.486 182.617C897.086 179.834 896.387 176.631 896.387 173.008C896.387 169.339 897.094 166.12 898.509 163.353C899.939 160.57 901.969 158.401 904.596 156.846C907.224 155.275 910.349 154.49 913.972 154.49C917.097 154.49 919.834 155.058 922.182 156.193C924.53 157.328 926.388 158.921 927.756 160.974C929.124 163.026 929.878 165.436 930.018 168.204H920.642C920.378 166.416 919.678 164.978 918.543 163.889C917.424 162.785 915.955 162.233 914.135 162.233C912.596 162.233 911.251 162.653 910.1 163.493C908.965 164.317 908.079 165.522 907.442 167.108C906.804 168.694 906.485 170.614 906.485 172.869C906.485 175.154 906.796 177.098 907.418 178.699C908.056 180.301 908.95 181.521 910.1 182.361C911.251 183.201 912.596 183.62 914.135 183.62C915.27 183.62 916.289 183.387 917.191 182.921C918.108 182.454 918.862 181.778 919.453 180.892C920.059 179.99 920.456 178.909 920.642 177.65H930.018C929.863 180.386 929.116 182.796 927.779 184.88C926.458 186.948 924.631 188.565 922.298 189.731C919.966 190.897 917.206 191.48 914.019 191.48ZM946.595 191.457C944.309 191.457 942.273 191.06 940.484 190.267C938.696 189.459 937.281 188.269 936.24 186.699C935.213 185.113 934.7 183.138 934.7 180.775C934.7 178.785 935.066 177.113 935.797 175.761C936.527 174.408 937.522 173.319 938.782 172.495C940.041 171.671 941.472 171.049 943.073 170.63C944.69 170.21 946.385 169.914 948.158 169.743C950.241 169.526 951.92 169.323 953.195 169.137C954.47 168.935 955.396 168.639 955.971 168.251C956.546 167.862 956.834 167.287 956.834 166.525V166.385C956.834 164.908 956.367 163.765 955.434 162.956C954.517 162.148 953.211 161.743 951.516 161.743C949.728 161.743 948.305 162.14 947.248 162.933C946.191 163.71 945.491 164.69 945.149 165.872L935.96 165.125C936.426 162.948 937.344 161.067 938.712 159.481C940.08 157.88 941.845 156.651 944.006 155.796C946.183 154.925 948.702 154.49 951.563 154.49C953.553 154.49 955.458 154.723 957.277 155.19C959.112 155.656 960.737 156.379 962.151 157.359C963.582 158.338 964.709 159.598 965.533 161.137C966.357 162.661 966.769 164.488 966.769 166.618V190.781H957.347V185.813H957.067C956.492 186.932 955.722 187.92 954.758 188.775C953.794 189.614 952.636 190.275 951.283 190.757C949.93 191.224 948.368 191.457 946.595 191.457ZM949.44 184.6C950.902 184.6 952.193 184.312 953.312 183.737C954.432 183.146 955.31 182.353 955.948 181.358C956.585 180.363 956.904 179.236 956.904 177.976V174.175C956.593 174.377 956.165 174.563 955.621 174.734C955.092 174.89 954.494 175.038 953.825 175.177C953.157 175.302 952.488 175.418 951.819 175.527C951.151 175.621 950.544 175.706 950 175.784C948.834 175.955 947.816 176.227 946.945 176.6C946.074 176.973 945.398 177.479 944.916 178.116C944.434 178.738 944.193 179.516 944.193 180.448C944.193 181.801 944.683 182.835 945.662 183.55C946.657 184.25 947.917 184.6 949.44 184.6ZM984.413 143.015V190.781H974.478V143.015H984.413ZM1008.7 191.48C1005.01 191.48 1001.84 190.734 999.182 189.241C996.539 187.733 994.502 185.603 993.072 182.851C991.641 180.083 990.926 176.81 990.926 173.032C990.926 169.347 991.641 166.113 993.072 163.329C994.502 160.546 996.516 158.377 999.113 156.822C1001.72 155.267 1004.79 154.49 1008.3 154.49C1010.67 154.49 1012.87 154.871 1014.9 155.633C1016.95 156.379 1018.74 157.506 1020.27 159.015C1021.81 160.523 1023 162.42 1023.86 164.705C1024.71 166.976 1025.14 169.634 1025.14 172.682V175.411H994.891V169.253H1015.79C1015.79 167.823 1015.48 166.556 1014.86 165.452C1014.23 164.348 1013.37 163.485 1012.27 162.863C1011.18 162.225 1009.91 161.907 1008.47 161.907C1006.96 161.907 1005.62 162.257 1004.45 162.956C1003.3 163.64 1002.4 164.566 1001.75 165.732C1001.09 166.882 1000.76 168.165 1000.75 169.58V175.434C1000.75 177.207 1001.07 178.738 1001.72 180.029C1002.39 181.319 1003.33 182.314 1004.55 183.014C1005.76 183.714 1007.2 184.064 1008.86 184.064C1009.97 184.064 1010.98 183.908 1011.89 183.597C1012.81 183.286 1013.6 182.82 1014.25 182.198C1014.9 181.576 1015.4 180.814 1015.74 179.912L1024.93 180.518C1024.46 182.726 1023.51 184.654 1022.06 186.303C1020.63 187.935 1018.78 189.21 1016.51 190.127C1014.26 191.029 1011.65 191.48 1008.7 191.48ZM1037.43 191.387C1035.89 191.387 1034.57 190.843 1033.47 189.754C1032.38 188.65 1031.83 187.329 1031.83 185.789C1031.83 184.266 1032.38 182.96 1033.47 181.871C1034.57 180.783 1035.89 180.239 1037.43 180.239C1038.92 180.239 1040.23 180.783 1041.35 181.871C1042.47 182.96 1043.03 184.266 1043.03 185.789C1043.03 186.816 1042.77 187.756 1042.24 188.611C1041.72 189.451 1041.05 190.127 1040.21 190.641C1039.37 191.138 1038.44 191.387 1037.43 191.387Z" fill="white"/>
<path d="M106.427 222.361H103.535C103.364 221.529 103.065 220.799 102.637 220.169C102.217 219.539 101.704 219.01 101.098 218.583C100.499 218.147 99.8345 217.821 99.1038 217.603C98.373 217.386 97.6111 217.277 96.8181 217.277C95.3721 217.277 94.0621 217.642 92.8882 218.373C91.722 219.104 90.793 220.18 90.1011 221.603C89.417 223.026 89.0749 224.771 89.0749 226.839C89.0749 228.907 89.417 230.652 90.1011 232.075C90.793 233.498 91.722 234.575 92.8882 235.305C94.0621 236.036 95.3721 236.402 96.8181 236.402C97.6111 236.402 98.373 236.293 99.1038 236.075C99.8345 235.857 100.499 235.535 101.098 235.107C101.704 234.672 102.217 234.139 102.637 233.51C103.065 232.872 103.364 232.141 103.535 231.317H106.427C106.209 232.538 105.813 233.63 105.238 234.594C104.662 235.558 103.947 236.378 103.092 237.055C102.237 237.723 101.277 238.232 100.212 238.582C99.1543 238.932 98.0231 239.107 96.8181 239.107C94.7812 239.107 92.9698 238.609 91.3839 237.614C89.7979 236.619 88.5501 235.204 87.6405 233.37C86.7309 231.535 86.2761 229.358 86.2761 226.839C86.2761 224.32 86.7309 222.143 87.6405 220.309C88.5501 218.474 89.7979 217.059 91.3839 216.064C92.9698 215.069 94.7812 214.571 96.8181 214.571C98.0231 214.571 99.1543 214.746 100.212 215.096C101.277 215.446 102.237 215.959 103.092 216.635C103.947 217.304 104.662 218.12 105.238 219.084C105.813 220.041 106.209 221.133 106.427 222.361ZM110.727 238.781V220.869H113.386V223.574H113.573C113.899 222.688 114.49 221.969 115.345 221.417C116.2 220.865 117.164 220.589 118.237 220.589C118.439 220.589 118.692 220.593 118.995 220.6C119.299 220.608 119.528 220.62 119.683 220.635V223.434C119.59 223.411 119.376 223.376 119.042 223.329C118.715 223.275 118.369 223.247 118.004 223.247C117.133 223.247 116.356 223.43 115.672 223.796C114.995 224.153 114.459 224.651 114.063 225.288C113.674 225.918 113.479 226.637 113.479 227.446V238.781H110.727ZM122.946 238.781V220.869H125.698V238.781H122.946ZM124.345 217.883C123.809 217.883 123.346 217.7 122.957 217.335C122.576 216.97 122.386 216.53 122.386 216.017C122.386 215.504 122.576 215.065 122.957 214.7C123.346 214.334 123.809 214.151 124.345 214.151C124.881 214.151 125.34 214.334 125.721 214.7C126.11 215.065 126.304 215.504 126.304 216.017C126.304 216.53 126.11 216.97 125.721 217.335C125.34 217.7 124.881 217.883 124.345 217.883ZM138.248 239.154C136.522 239.154 135.034 238.773 133.782 238.011C132.538 237.241 131.578 236.168 130.902 234.792C130.233 233.408 129.899 231.799 129.899 229.964C129.899 228.13 130.233 226.513 130.902 225.113C131.578 223.706 132.519 222.61 133.724 221.825C134.937 221.032 136.351 220.635 137.969 220.635C138.901 220.635 139.823 220.791 140.732 221.102C141.642 221.413 142.47 221.918 143.216 222.618C143.963 223.31 144.557 224.227 145 225.37C145.444 226.513 145.665 227.92 145.665 229.591V230.757H131.858V228.378H142.866C142.866 227.368 142.664 226.466 142.26 225.673C141.863 224.88 141.296 224.254 140.557 223.796C139.827 223.337 138.964 223.108 137.969 223.108C136.872 223.108 135.924 223.38 135.123 223.924C134.33 224.46 133.72 225.16 133.292 226.023C132.865 226.886 132.651 227.811 132.651 228.798V230.384C132.651 231.737 132.884 232.884 133.351 233.824C133.825 234.757 134.482 235.469 135.321 235.958C136.161 236.44 137.137 236.681 138.248 236.681C138.971 236.681 139.624 236.58 140.208 236.378C140.798 236.168 141.308 235.857 141.735 235.445C142.163 235.026 142.493 234.505 142.726 233.883L145.385 234.629C145.105 235.531 144.635 236.324 143.974 237.008C143.313 237.684 142.497 238.213 141.525 238.594C140.553 238.967 139.461 239.154 138.248 239.154ZM170.376 231.457V220.869H173.128V238.781H170.376V235.749H170.189C169.769 236.658 169.116 237.432 168.23 238.069C167.344 238.699 166.224 239.014 164.872 239.014C163.752 239.014 162.757 238.769 161.886 238.279C161.015 237.782 160.331 237.035 159.834 236.04C159.336 235.037 159.087 233.774 159.087 232.25V220.869H161.84V232.064C161.84 233.37 162.205 234.411 162.936 235.189C163.674 235.966 164.615 236.355 165.758 236.355C166.442 236.355 167.138 236.18 167.845 235.83C168.56 235.48 169.159 234.944 169.641 234.221C170.131 233.498 170.376 232.577 170.376 231.457ZM178.169 238.781V220.869H180.827V223.667H181.061C181.434 222.711 182.036 221.969 182.868 221.44C183.7 220.903 184.699 220.635 185.865 220.635C187.047 220.635 188.03 220.903 188.815 221.44C189.608 221.969 190.226 222.711 190.67 223.667H190.856C191.315 222.742 192.003 222.007 192.92 221.463C193.838 220.911 194.938 220.635 196.22 220.635C197.822 220.635 199.132 221.137 200.15 222.14C201.169 223.135 201.678 224.686 201.678 226.793V238.781H198.926V226.793C198.926 225.471 198.564 224.526 197.841 223.959C197.118 223.391 196.267 223.108 195.288 223.108C194.028 223.108 193.052 223.488 192.361 224.25C191.669 225.004 191.323 225.961 191.323 227.119V238.781H188.524V226.513C188.524 225.494 188.193 224.674 187.533 224.052C186.872 223.422 186.021 223.108 184.979 223.108C184.264 223.108 183.595 223.298 182.973 223.679C182.359 224.06 181.861 224.589 181.48 225.265C181.107 225.933 180.921 226.707 180.921 227.586V238.781H178.169ZM223.689 238.781H216.319V214.898H224.016C226.332 214.898 228.315 215.376 229.963 216.332C231.611 217.281 232.874 218.645 233.753 220.425C234.631 222.198 235.071 224.32 235.071 226.793C235.071 229.28 234.628 231.422 233.741 233.218C232.855 235.006 231.564 236.382 229.87 237.346C228.175 238.302 226.115 238.781 223.689 238.781ZM219.211 236.215H223.502C225.477 236.215 227.114 235.834 228.412 235.072C229.71 234.31 230.678 233.226 231.316 231.819C231.953 230.411 232.272 228.736 232.272 226.793C232.272 224.864 231.957 223.205 231.327 221.813C230.698 220.414 229.757 219.341 228.505 218.595C227.254 217.84 225.695 217.463 223.829 217.463H219.211V236.215ZM247.059 239.154C245.333 239.154 243.844 238.773 242.592 238.011C241.348 237.241 240.388 236.168 239.712 234.792C239.043 233.408 238.709 231.799 238.709 229.964C238.709 228.13 239.043 226.513 239.712 225.113C240.388 223.706 241.329 222.61 242.534 221.825C243.747 221.032 245.162 220.635 246.779 220.635C247.712 220.635 248.633 220.791 249.543 221.102C250.452 221.413 251.28 221.918 252.026 222.618C252.773 223.31 253.367 224.227 253.811 225.37C254.254 226.513 254.475 227.92 254.475 229.591V230.757H240.668V228.378H251.677C251.677 227.368 251.474 226.466 251.07 225.673C250.674 224.88 250.106 224.254 249.368 223.796C248.637 223.337 247.774 223.108 246.779 223.108C245.683 223.108 244.734 223.38 243.933 223.924C243.14 224.46 242.53 225.16 242.102 226.023C241.675 226.886 241.461 227.811 241.461 228.798V230.384C241.461 231.737 241.694 232.884 242.161 233.824C242.635 234.757 243.292 235.469 244.132 235.958C244.971 236.44 245.947 236.681 247.059 236.681C247.782 236.681 248.435 236.58 249.018 236.378C249.609 236.168 250.118 235.857 250.545 235.445C250.973 235.026 251.303 234.505 251.537 233.883L254.195 234.629C253.916 235.531 253.445 236.324 252.784 237.008C252.124 237.684 251.307 238.213 250.335 238.594C249.364 238.967 248.271 239.154 247.059 239.154ZM271.349 224.88L268.877 225.58C268.722 225.168 268.492 224.767 268.189 224.379C267.894 223.982 267.49 223.656 266.976 223.399C266.463 223.142 265.806 223.014 265.006 223.014C263.909 223.014 262.996 223.267 262.265 223.772C261.542 224.27 261.181 224.903 261.181 225.673C261.181 226.357 261.429 226.897 261.927 227.294C262.425 227.69 263.202 228.021 264.259 228.285L266.918 228.938C268.52 229.327 269.713 229.922 270.498 230.722C271.283 231.515 271.676 232.538 271.676 233.789C271.676 234.816 271.381 235.733 270.79 236.542C270.207 237.35 269.39 237.988 268.341 238.454C267.291 238.92 266.071 239.154 264.679 239.154C262.852 239.154 261.34 238.757 260.143 237.964C258.946 237.171 258.188 236.013 257.869 234.489L260.481 233.836C260.73 234.8 261.2 235.523 261.892 236.005C262.592 236.487 263.505 236.728 264.632 236.728C265.915 236.728 266.934 236.456 267.688 235.912C268.45 235.36 268.831 234.699 268.831 233.929C268.831 233.307 268.613 232.787 268.178 232.367C267.742 231.939 267.074 231.62 266.172 231.41L263.186 230.711C261.546 230.322 260.341 229.72 259.571 228.903C258.809 228.079 258.429 227.049 258.429 225.813C258.429 224.802 258.712 223.908 259.28 223.131C259.855 222.353 260.636 221.743 261.624 221.3C262.619 220.857 263.746 220.635 265.006 220.635C266.778 220.635 268.17 221.024 269.18 221.801C270.199 222.579 270.922 223.605 271.349 224.88ZM275.819 238.781V220.869H278.571V238.781H275.819ZM277.218 217.883C276.682 217.883 276.219 217.7 275.83 217.335C275.449 216.97 275.259 216.53 275.259 216.017C275.259 215.504 275.449 215.065 275.83 214.7C276.219 214.334 276.682 214.151 277.218 214.151C277.755 214.151 278.213 214.334 278.594 214.7C278.983 215.065 279.177 215.504 279.177 216.017C279.177 216.53 278.983 216.97 278.594 217.335C278.213 217.7 277.755 217.883 277.218 217.883ZM290.842 245.871C289.512 245.871 288.369 245.7 287.413 245.358C286.457 245.023 285.66 244.58 285.023 244.028C284.393 243.484 283.891 242.901 283.518 242.279L285.711 240.74C285.959 241.066 286.274 241.439 286.655 241.859C287.036 242.287 287.557 242.656 288.218 242.967C288.886 243.286 289.761 243.445 290.842 243.445C292.288 243.445 293.481 243.095 294.422 242.396C295.362 241.696 295.833 240.6 295.833 239.107V235.469H295.599C295.397 235.795 295.11 236.199 294.737 236.681C294.371 237.156 293.842 237.579 293.151 237.953C292.466 238.318 291.541 238.501 290.375 238.501C288.929 238.501 287.631 238.159 286.48 237.474C285.337 236.79 284.432 235.795 283.763 234.489C283.102 233.183 282.772 231.597 282.772 229.731C282.772 227.896 283.095 226.299 283.74 224.938C284.385 223.57 285.283 222.513 286.434 221.766C287.584 221.012 288.914 220.635 290.422 220.635C291.588 220.635 292.513 220.83 293.197 221.218C293.889 221.599 294.418 222.035 294.783 222.524C295.156 223.006 295.444 223.403 295.646 223.714H295.926V220.869H298.585V239.294C298.585 240.833 298.235 242.085 297.535 243.049C296.843 244.02 295.91 244.732 294.737 245.183C293.57 245.641 292.272 245.871 290.842 245.871ZM290.748 236.028C291.852 236.028 292.785 235.776 293.547 235.27C294.309 234.765 294.888 234.038 295.285 233.09C295.681 232.141 295.879 231.006 295.879 229.685C295.879 228.394 295.685 227.255 295.296 226.268C294.908 225.28 294.332 224.507 293.57 223.947C292.809 223.387 291.868 223.108 290.748 223.108C289.582 223.108 288.61 223.403 287.833 223.994C287.063 224.585 286.484 225.378 286.095 226.373C285.714 227.368 285.524 228.472 285.524 229.685C285.524 230.928 285.718 232.029 286.107 232.985C286.504 233.933 287.087 234.68 287.856 235.224C288.634 235.76 289.598 236.028 290.748 236.028ZM306.375 228.005V238.781H303.623V220.869H306.281V223.667H306.515C306.934 222.758 307.572 222.027 308.427 221.475C309.282 220.915 310.386 220.635 311.739 220.635C312.952 220.635 314.013 220.884 314.923 221.382C315.832 221.871 316.54 222.618 317.045 223.621C317.55 224.616 317.803 225.875 317.803 227.399V238.781H315.051V227.586C315.051 226.178 314.685 225.082 313.955 224.297C313.224 223.504 312.221 223.108 310.946 223.108C310.067 223.108 309.282 223.298 308.59 223.679C307.906 224.06 307.366 224.616 306.969 225.347C306.573 226.077 306.375 226.964 306.375 228.005ZM345.502 220.869C345.362 219.687 344.794 218.769 343.799 218.116C342.804 217.463 341.584 217.137 340.138 217.137C339.08 217.137 338.155 217.308 337.362 217.65C336.577 217.992 335.963 218.462 335.52 219.061C335.084 219.66 334.867 220.34 334.867 221.102C334.867 221.739 335.018 222.287 335.321 222.746C335.632 223.197 336.029 223.574 336.511 223.877C336.993 224.173 337.498 224.417 338.027 224.612C338.555 224.798 339.041 224.95 339.484 225.067L341.91 225.72C342.532 225.883 343.224 226.108 343.986 226.396C344.755 226.684 345.49 227.076 346.19 227.574C346.897 228.064 347.48 228.693 347.939 229.463C348.398 230.233 348.627 231.177 348.627 232.297C348.627 233.587 348.289 234.753 347.613 235.795C346.944 236.837 345.964 237.665 344.674 238.279C343.391 238.893 341.832 239.2 339.998 239.2C338.287 239.2 336.806 238.924 335.555 238.372C334.311 237.82 333.331 237.051 332.616 236.063C331.908 235.076 331.508 233.929 331.415 232.623H334.4C334.478 233.525 334.781 234.271 335.31 234.862C335.846 235.445 336.522 235.881 337.339 236.168C338.163 236.448 339.049 236.588 339.998 236.588C341.102 236.588 342.093 236.409 342.971 236.052C343.85 235.686 344.546 235.181 345.059 234.536C345.572 233.883 345.828 233.121 345.828 232.25C345.828 231.457 345.607 230.812 345.164 230.314C344.72 229.817 344.137 229.412 343.414 229.101C342.691 228.791 341.91 228.518 341.07 228.285L338.132 227.446C336.266 226.909 334.789 226.143 333.7 225.148C332.612 224.153 332.068 222.851 332.068 221.242C332.068 219.904 332.429 218.738 333.152 217.743C333.883 216.74 334.863 215.963 336.091 215.411C337.327 214.851 338.707 214.571 340.231 214.571C341.77 214.571 343.138 214.847 344.336 215.399C345.533 215.943 346.481 216.69 347.181 217.638C347.889 218.587 348.262 219.663 348.301 220.869H345.502ZM354.781 245.498C354.315 245.498 353.899 245.459 353.534 245.381C353.168 245.311 352.916 245.241 352.776 245.171L353.475 242.745C354.144 242.916 354.735 242.979 355.248 242.932C355.761 242.885 356.216 242.656 356.612 242.244C357.017 241.84 357.386 241.183 357.72 240.273L358.233 238.874L351.609 220.869H354.595L359.539 235.142H359.726L364.67 220.869H367.656L360.052 241.393C359.71 242.318 359.287 243.084 358.781 243.69C358.276 244.304 357.689 244.759 357.02 245.054C356.36 245.35 355.613 245.498 354.781 245.498ZM383.976 224.88L381.504 225.58C381.348 225.168 381.119 224.767 380.816 224.379C380.52 223.982 380.116 223.656 379.603 223.399C379.09 223.142 378.433 223.014 377.632 223.014C376.536 223.014 375.622 223.267 374.892 223.772C374.169 224.27 373.807 224.903 373.807 225.673C373.807 226.357 374.056 226.897 374.553 227.294C375.051 227.69 375.828 228.021 376.886 228.285L379.545 228.938C381.146 229.327 382.339 229.922 383.125 230.722C383.91 231.515 384.302 232.538 384.302 233.789C384.302 234.816 384.007 235.733 383.416 236.542C382.833 237.35 382.017 237.988 380.967 238.454C379.918 238.92 378.697 239.154 377.306 239.154C375.479 239.154 373.966 238.757 372.769 237.964C371.572 237.171 370.814 236.013 370.495 234.489L373.107 233.836C373.356 234.8 373.827 235.523 374.518 236.005C375.218 236.487 376.132 236.728 377.259 236.728C378.542 236.728 379.56 236.456 380.314 235.912C381.076 235.36 381.457 234.699 381.457 233.929C381.457 233.307 381.239 232.787 380.804 232.367C380.369 231.939 379.7 231.62 378.798 231.41L375.813 230.711C374.172 230.322 372.967 229.72 372.198 228.903C371.436 228.079 371.055 227.049 371.055 225.813C371.055 224.802 371.339 223.908 371.906 223.131C372.482 222.353 373.263 221.743 374.25 221.3C375.245 220.857 376.373 220.635 377.632 220.635C379.405 220.635 380.796 221.024 381.807 221.801C382.825 222.579 383.548 223.605 383.976 224.88ZM396.235 220.869V223.201H386.953V220.869H396.235ZM389.658 216.577H392.41V233.649C392.41 234.427 392.523 235.01 392.748 235.399C392.981 235.78 393.277 236.036 393.635 236.168C394 236.293 394.385 236.355 394.789 236.355C395.092 236.355 395.341 236.339 395.535 236.308C395.73 236.269 395.885 236.238 396.002 236.215L396.562 238.687C396.375 238.757 396.115 238.827 395.78 238.897C395.446 238.975 395.022 239.014 394.509 239.014C393.732 239.014 392.97 238.847 392.223 238.512C391.485 238.178 390.871 237.669 390.381 236.985C389.899 236.301 389.658 235.438 389.658 234.396V216.577ZM407.692 239.154C405.967 239.154 404.478 238.773 403.226 238.011C401.982 237.241 401.022 236.168 400.346 234.792C399.677 233.408 399.343 231.799 399.343 229.964C399.343 228.13 399.677 226.513 400.346 225.113C401.022 223.706 401.963 222.61 403.168 221.825C404.381 221.032 405.795 220.635 407.413 220.635C408.345 220.635 409.267 220.791 410.176 221.102C411.086 221.413 411.914 221.918 412.66 222.618C413.407 223.31 414.001 224.227 414.444 225.37C414.888 226.513 415.109 227.92 415.109 229.591V230.757H401.302V228.378H412.31C412.31 227.368 412.108 226.466 411.704 225.673C411.307 224.88 410.74 224.254 410.001 223.796C409.271 223.337 408.408 223.108 407.413 223.108C406.316 223.108 405.368 223.38 404.567 223.924C403.774 224.46 403.164 225.16 402.736 226.023C402.309 226.886 402.095 227.811 402.095 228.798V230.384C402.095 231.737 402.328 232.884 402.795 233.824C403.269 234.757 403.926 235.469 404.765 235.958C405.605 236.44 406.581 236.681 407.692 236.681C408.415 236.681 409.068 236.58 409.652 236.378C410.242 236.168 410.752 235.857 411.179 235.445C411.607 235.026 411.937 234.505 412.17 233.883L414.829 234.629C414.549 235.531 414.079 236.324 413.418 237.008C412.757 237.684 411.941 238.213 410.969 238.594C409.997 238.967 408.905 239.154 407.692 239.154ZM419.296 238.781V220.869H421.954V223.667H422.188C422.561 222.711 423.163 221.969 423.995 221.44C424.827 220.903 425.826 220.635 426.992 220.635C428.174 220.635 429.157 220.903 429.942 221.44C430.735 221.969 431.354 222.711 431.797 223.667H431.983C432.442 222.742 433.13 222.007 434.047 221.463C434.965 220.911 436.065 220.635 437.348 220.635C438.949 220.635 440.259 221.137 441.277 222.14C442.296 223.135 442.805 224.686 442.805 226.793V238.781H440.053V226.793C440.053 225.471 439.691 224.526 438.968 223.959C438.245 223.391 437.394 223.108 436.415 223.108C435.155 223.108 434.18 223.488 433.488 224.25C432.796 225.004 432.45 225.961 432.45 227.119V238.781H429.651V226.513C429.651 225.494 429.321 224.674 428.66 224.052C427.999 223.422 427.148 223.108 426.106 223.108C425.391 223.108 424.722 223.298 424.1 223.679C423.486 224.06 422.988 224.589 422.607 225.265C422.234 225.933 422.048 226.707 422.048 227.586V238.781H419.296ZM464.583 239.154C462.857 239.154 461.368 238.773 460.117 238.011C458.873 237.241 457.913 236.168 457.236 234.792C456.568 233.408 456.233 231.799 456.233 229.964C456.233 228.13 456.568 226.513 457.236 225.113C457.913 223.706 458.853 222.61 460.058 221.825C461.271 221.032 462.686 220.635 464.303 220.635C465.236 220.635 466.157 220.791 467.067 221.102C467.976 221.413 468.804 221.918 469.551 222.618C470.297 223.31 470.892 224.227 471.335 225.37C471.778 226.513 472 227.92 472 229.591V230.757H458.192V228.378H469.201C469.201 227.368 468.999 226.466 468.594 225.673C468.198 224.88 467.63 224.254 466.892 223.796C466.161 223.337 465.298 223.108 464.303 223.108C463.207 223.108 462.258 223.38 461.458 223.924C460.665 224.46 460.054 225.16 459.627 226.023C459.199 226.886 458.985 227.811 458.985 228.798V230.384C458.985 231.737 459.219 232.884 459.685 233.824C460.159 234.757 460.816 235.469 461.656 235.958C462.495 236.44 463.471 236.681 464.583 236.681C465.306 236.681 465.959 236.58 466.542 236.378C467.133 236.168 467.642 235.857 468.07 235.445C468.497 235.026 468.828 234.505 469.061 233.883L471.72 234.629C471.44 235.531 470.969 236.324 470.309 237.008C469.648 237.684 468.832 238.213 467.86 238.594C466.888 238.967 465.796 239.154 464.583 239.154ZM488.874 224.88L486.401 225.58C486.246 225.168 486.017 224.767 485.713 224.379C485.418 223.982 485.014 223.656 484.501 223.399C483.988 223.142 483.331 223.014 482.53 223.014C481.434 223.014 480.52 223.267 479.789 223.772C479.066 224.27 478.705 224.903 478.705 225.673C478.705 226.357 478.954 226.897 479.451 227.294C479.949 227.69 480.726 228.021 481.784 228.285L484.442 228.938C486.044 229.327 487.237 229.922 488.022 230.722C488.808 231.515 489.2 232.538 489.2 233.789C489.2 234.816 488.905 235.733 488.314 236.542C487.731 237.35 486.915 237.988 485.865 238.454C484.816 238.92 483.595 239.154 482.203 239.154C480.376 239.154 478.864 238.757 477.667 237.964C476.47 237.171 475.712 236.013 475.393 234.489L478.005 233.836C478.254 234.8 478.724 235.523 479.416 236.005C480.116 236.487 481.029 236.728 482.157 236.728C483.439 236.728 484.458 236.456 485.212 235.912C485.974 235.36 486.355 234.699 486.355 233.929C486.355 233.307 486.137 232.787 485.702 232.367C485.266 231.939 484.598 231.62 483.696 231.41L480.711 230.711C479.07 230.322 477.865 229.72 477.096 228.903C476.334 228.079 475.953 227.049 475.953 225.813C475.953 224.802 476.237 223.908 476.804 223.131C477.379 222.353 478.161 221.743 479.148 221.3C480.143 220.857 481.27 220.635 482.53 220.635C484.302 220.635 485.694 221.024 486.705 221.801C487.723 222.579 488.446 223.605 488.874 224.88ZM500.62 239.154C498.94 239.154 497.494 238.757 496.282 237.964C495.069 237.171 494.136 236.079 493.483 234.687C492.83 233.296 492.503 231.706 492.503 229.918C492.503 228.099 492.838 226.493 493.506 225.102C494.183 223.702 495.123 222.61 496.328 221.825C497.541 221.032 498.956 220.635 500.573 220.635C501.833 220.635 502.968 220.869 503.978 221.335C504.989 221.801 505.817 222.454 506.462 223.294C507.107 224.134 507.508 225.113 507.663 226.233H504.911C504.701 225.416 504.235 224.693 503.512 224.064C502.797 223.426 501.833 223.108 500.62 223.108C499.547 223.108 498.606 223.387 497.798 223.947C496.997 224.499 496.371 225.28 495.92 226.291C495.477 227.294 495.255 228.472 495.255 229.825C495.255 231.208 495.473 232.413 495.908 233.44C496.352 234.466 496.974 235.263 497.774 235.83C498.583 236.398 499.531 236.681 500.62 236.681C501.335 236.681 501.984 236.557 502.567 236.308C503.15 236.06 503.644 235.702 504.048 235.235C504.452 234.769 504.74 234.209 504.911 233.556H507.663C507.508 234.613 507.123 235.566 506.509 236.413C505.902 237.253 505.098 237.921 504.095 238.419C503.1 238.909 501.941 239.154 500.62 239.154ZM516.957 239.2C515.822 239.2 514.792 238.987 513.867 238.559C512.942 238.124 512.207 237.498 511.663 236.681C511.119 235.857 510.847 234.862 510.847 233.696C510.847 232.67 511.049 231.838 511.453 231.201C511.858 230.555 512.398 230.05 513.074 229.685C513.751 229.319 514.497 229.047 515.313 228.868C516.137 228.682 516.965 228.534 517.797 228.425C518.885 228.285 519.768 228.18 520.444 228.11C521.128 228.033 521.626 227.904 521.937 227.725C522.256 227.547 522.415 227.236 522.415 226.793V226.699C522.415 225.549 522.1 224.655 521.47 224.017C520.849 223.38 519.904 223.061 518.637 223.061C517.323 223.061 516.293 223.349 515.546 223.924C514.8 224.499 514.275 225.113 513.972 225.766L511.36 224.833C511.826 223.745 512.448 222.898 513.226 222.291C514.011 221.677 514.866 221.249 515.791 221.008C516.724 220.76 517.642 220.635 518.543 220.635C519.119 220.635 519.78 220.705 520.526 220.845C521.28 220.977 522.007 221.253 522.707 221.673C523.414 222.093 524.001 222.727 524.467 223.574C524.934 224.421 525.167 225.556 525.167 226.979V238.781H522.415V236.355H522.275C522.089 236.744 521.778 237.16 521.342 237.603C520.907 238.046 520.328 238.423 519.605 238.734C518.882 239.045 517.999 239.2 516.957 239.2ZM517.377 236.728C518.466 236.728 519.383 236.514 520.129 236.087C520.883 235.659 521.451 235.107 521.832 234.431C522.221 233.754 522.415 233.043 522.415 232.297V229.778C522.298 229.918 522.042 230.046 521.645 230.163C521.257 230.272 520.806 230.369 520.293 230.454C519.787 230.532 519.294 230.602 518.812 230.664C518.337 230.719 517.953 230.765 517.657 230.804C516.942 230.897 516.273 231.049 515.651 231.259C515.037 231.461 514.54 231.768 514.159 232.18C513.786 232.584 513.599 233.136 513.599 233.836C513.599 234.792 513.953 235.515 514.66 236.005C515.375 236.487 516.281 236.728 517.377 236.728ZM532.942 214.898V238.781H530.19V214.898H532.942ZM543.254 239.2C542.119 239.2 541.089 238.987 540.164 238.559C539.239 238.124 538.504 237.498 537.96 236.681C537.416 235.857 537.143 234.862 537.143 233.696C537.143 232.67 537.346 231.838 537.75 231.201C538.154 230.555 538.694 230.05 539.371 229.685C540.047 229.319 540.793 229.047 541.61 228.868C542.434 228.682 543.262 228.534 544.094 228.425C545.182 228.285 546.064 228.18 546.741 228.11C547.425 228.033 547.923 227.904 548.234 227.725C548.552 227.547 548.712 227.236 548.712 226.793V226.699C548.712 225.549 548.397 224.655 547.767 224.017C547.145 223.38 546.201 223.061 544.933 223.061C543.619 223.061 542.589 223.349 541.843 223.924C541.097 224.499 540.572 225.113 540.269 225.766L537.657 224.833C538.123 223.745 538.745 222.898 539.522 222.291C540.308 221.677 541.163 221.249 542.088 221.008C543.021 220.76 543.938 220.635 544.84 220.635C545.415 220.635 546.076 220.705 546.822 220.845C547.577 220.977 548.303 221.253 549.003 221.673C549.711 222.093 550.298 222.727 550.764 223.574C551.231 224.421 551.464 225.556 551.464 226.979V238.781H548.712V236.355H548.572C548.385 236.744 548.074 237.16 547.639 237.603C547.203 238.046 546.624 238.423 545.901 238.734C545.178 239.045 544.296 239.2 543.254 239.2ZM543.674 236.728C544.762 236.728 545.68 236.514 546.426 236.087C547.18 235.659 547.748 235.107 548.129 234.431C548.517 233.754 548.712 233.043 548.712 232.297V229.778C548.595 229.918 548.338 230.046 547.942 230.163C547.553 230.272 547.102 230.369 546.589 230.454C546.084 230.532 545.59 230.602 545.108 230.664C544.634 230.719 544.249 230.765 543.954 230.804C543.239 230.897 542.57 231.049 541.948 231.259C541.334 231.461 540.836 231.768 540.455 232.18C540.082 232.584 539.896 233.136 539.896 233.836C539.896 234.792 540.249 235.515 540.957 236.005C541.672 236.487 542.578 236.728 543.674 236.728ZM543.767 218.443L546.613 213.032H549.831L546.193 218.443H543.767ZM570.492 220.869L563.869 238.781H561.07L554.446 220.869H557.431L562.376 235.142H562.563L567.507 220.869H570.492ZM580.993 239.154C579.268 239.154 577.779 238.773 576.527 238.011C575.283 237.241 574.323 236.168 573.647 234.792C572.978 233.408 572.644 231.799 572.644 229.964C572.644 228.13 572.978 226.513 573.647 225.113C574.323 223.706 575.264 222.61 576.469 221.825C577.682 221.032 579.097 220.635 580.714 220.635C581.647 220.635 582.568 220.791 583.477 221.102C584.387 221.413 585.215 221.918 585.961 222.618C586.708 223.31 587.302 224.227 587.745 225.37C588.189 226.513 588.41 227.92 588.41 229.591V230.757H574.603V228.378H585.611C585.611 227.368 585.409 226.466 585.005 225.673C584.609 224.88 584.041 224.254 583.302 223.796C582.572 223.337 581.709 223.108 580.714 223.108C579.617 223.108 578.669 223.38 577.868 223.924C577.075 224.46 576.465 225.16 576.037 226.023C575.61 226.886 575.396 227.811 575.396 228.798V230.384C575.396 231.737 575.629 232.884 576.096 233.824C576.57 234.757 577.227 235.469 578.066 235.958C578.906 236.44 579.882 236.681 580.993 236.681C581.717 236.681 582.37 236.58 582.953 236.378C583.543 236.168 584.053 235.857 584.48 235.445C584.908 235.026 585.238 234.505 585.471 233.883L588.13 234.629C587.85 235.531 587.38 236.324 586.719 237.008C586.058 237.684 585.242 238.213 584.27 238.594C583.299 238.967 582.206 239.154 580.993 239.154ZM595.349 214.898V238.781H592.597V214.898H595.349ZM616.902 239.154C615.223 239.154 613.777 238.757 612.564 237.964C611.351 237.171 610.418 236.079 609.765 234.687C609.112 233.296 608.786 231.706 608.786 229.918C608.786 228.099 609.12 226.493 609.789 225.102C610.465 223.702 611.406 222.61 612.611 221.825C613.823 221.032 615.238 220.635 616.855 220.635C618.115 220.635 619.25 220.869 620.261 221.335C621.271 221.801 622.099 222.454 622.744 223.294C623.39 224.134 623.79 225.113 623.946 226.233H621.193C620.984 225.416 620.517 224.693 619.794 224.064C619.079 223.426 618.115 223.108 616.902 223.108C615.829 223.108 614.889 223.387 614.08 223.947C613.279 224.499 612.653 225.28 612.203 226.291C611.759 227.294 611.538 228.472 611.538 229.825C611.538 231.208 611.755 232.413 612.191 233.44C612.634 234.466 613.256 235.263 614.057 235.83C614.865 236.398 615.814 236.681 616.902 236.681C617.617 236.681 618.266 236.557 618.85 236.308C619.433 236.06 619.926 235.702 620.331 235.235C620.735 234.769 621.022 234.209 621.193 233.556H623.946C623.79 234.613 623.405 235.566 622.791 236.413C622.185 237.253 621.38 237.921 620.377 238.419C619.382 238.909 618.224 239.154 616.902 239.154ZM635.246 239.154C633.628 239.154 632.21 238.769 630.989 237.999C629.776 237.23 628.828 236.153 628.144 234.769C627.467 233.385 627.129 231.768 627.129 229.918C627.129 228.052 627.467 226.423 628.144 225.032C628.828 223.64 629.776 222.559 630.989 221.79C632.21 221.02 633.628 220.635 635.246 220.635C636.863 220.635 638.278 221.02 639.49 221.79C640.711 222.559 641.659 223.64 642.336 225.032C643.02 226.423 643.362 228.052 643.362 229.918C643.362 231.768 643.02 233.385 642.336 234.769C641.659 236.153 640.711 237.23 639.49 237.999C638.278 238.769 636.863 239.154 635.246 239.154ZM635.246 236.681C636.474 236.681 637.485 236.367 638.278 235.737C639.07 235.107 639.657 234.279 640.038 233.253C640.419 232.227 640.61 231.115 640.61 229.918C640.61 228.721 640.419 227.605 640.038 226.571C639.657 225.537 639.07 224.701 638.278 224.064C637.485 223.426 636.474 223.108 635.246 223.108C634.017 223.108 633.007 223.426 632.214 224.064C631.421 224.701 630.834 225.537 630.453 226.571C630.072 227.605 629.881 228.721 629.881 229.918C629.881 231.115 630.072 232.227 630.453 233.253C630.834 234.279 631.421 235.107 632.214 235.737C633.007 236.367 634.017 236.681 635.246 236.681ZM647.563 238.781V220.869H650.222V223.667H650.455C650.828 222.711 651.431 221.969 652.263 221.44C653.094 220.903 654.093 220.635 655.26 220.635C656.441 220.635 657.425 220.903 658.21 221.44C659.003 221.969 659.621 222.711 660.064 223.667H660.251C660.709 222.742 661.397 222.007 662.315 221.463C663.232 220.911 664.332 220.635 665.615 220.635C667.216 220.635 668.526 221.137 669.545 222.14C670.563 223.135 671.072 224.686 671.072 226.793V238.781H668.32V226.793C668.32 225.471 667.959 224.526 667.236 223.959C666.513 223.391 665.662 223.108 664.682 223.108C663.423 223.108 662.447 223.488 661.755 224.25C661.063 225.004 660.717 225.961 660.717 227.119V238.781H657.918V226.513C657.918 225.494 657.588 224.674 656.927 224.052C656.266 223.422 655.415 223.108 654.373 223.108C653.658 223.108 652.989 223.298 652.367 223.679C651.753 224.06 651.256 224.589 650.875 225.265C650.502 225.933 650.315 226.707 650.315 227.586V238.781H647.563ZM698.774 220.869C698.634 219.687 698.067 218.769 697.072 218.116C696.077 217.463 694.856 217.137 693.41 217.137C692.353 217.137 691.428 217.308 690.635 217.65C689.849 217.992 689.235 218.462 688.792 219.061C688.357 219.66 688.139 220.34 688.139 221.102C688.139 221.739 688.291 222.287 688.594 222.746C688.905 223.197 689.301 223.574 689.783 223.877C690.265 224.173 690.771 224.417 691.299 224.612C691.828 224.798 692.314 224.95 692.757 225.067L695.183 225.72C695.805 225.883 696.496 226.108 697.258 226.396C698.028 226.684 698.763 227.076 699.462 227.574C700.17 228.064 700.753 228.693 701.212 229.463C701.67 230.233 701.9 231.177 701.9 232.297C701.9 233.587 701.561 234.753 700.885 235.795C700.216 236.837 699.237 237.665 697.946 238.279C696.664 238.893 695.105 239.2 693.27 239.2C691.56 239.2 690.079 238.924 688.827 238.372C687.583 237.82 686.604 237.051 685.888 236.063C685.181 235.076 684.781 233.929 684.687 232.623H687.673C687.75 233.525 688.054 234.271 688.582 234.862C689.119 235.445 689.795 235.881 690.611 236.168C691.435 236.448 692.322 236.588 693.27 236.588C694.374 236.588 695.365 236.409 696.244 236.052C697.122 235.686 697.818 235.181 698.331 234.536C698.844 233.883 699.101 233.121 699.101 232.25C699.101 231.457 698.879 230.812 698.436 230.314C697.993 229.817 697.41 229.412 696.687 229.101C695.964 228.791 695.183 228.518 694.343 228.285L691.404 227.446C689.538 226.909 688.061 226.143 686.973 225.148C685.884 224.153 685.34 222.851 685.34 221.242C685.34 219.904 685.702 218.738 686.425 217.743C687.156 216.74 688.135 215.963 689.363 215.411C690.6 214.851 691.98 214.571 693.503 214.571C695.043 214.571 696.411 214.847 697.608 215.399C698.805 215.943 699.754 216.69 700.454 217.638C701.161 218.587 701.534 219.663 701.573 220.869H698.774ZM714.071 220.869V223.201H704.789V220.869H714.071ZM707.494 216.577H710.246V233.649C710.246 234.427 710.359 235.01 710.584 235.399C710.818 235.78 711.113 236.036 711.471 236.168C711.836 236.293 712.221 236.355 712.625 236.355C712.928 236.355 713.177 236.339 713.372 236.308C713.566 236.269 713.721 236.238 713.838 236.215L714.398 238.687C714.211 238.757 713.951 238.827 713.616 238.897C713.282 238.975 712.858 239.014 712.345 239.014C711.568 239.014 710.806 238.847 710.06 238.512C709.321 238.178 708.707 237.669 708.217 236.985C707.735 236.301 707.494 235.438 707.494 234.396V216.577ZM725.295 239.154C723.678 239.154 722.26 238.769 721.039 237.999C719.826 237.23 718.878 236.153 718.194 234.769C717.517 233.385 717.179 231.768 717.179 229.918C717.179 228.052 717.517 226.423 718.194 225.032C718.878 223.64 719.826 222.559 721.039 221.79C722.26 221.02 723.678 220.635 725.295 220.635C726.912 220.635 728.327 221.02 729.54 221.79C730.761 222.559 731.709 223.64 732.386 225.032C733.07 226.423 733.412 228.052 733.412 229.918C733.412 231.768 733.07 233.385 732.386 234.769C731.709 236.153 730.761 237.23 729.54 237.999C728.327 238.769 726.912 239.154 725.295 239.154ZM725.295 236.681C726.524 236.681 727.534 236.367 728.327 235.737C729.12 235.107 729.707 234.279 730.088 233.253C730.469 232.227 730.66 231.115 730.66 229.918C730.66 228.721 730.469 227.605 730.088 226.571C729.707 225.537 729.12 224.701 728.327 224.064C727.534 223.426 726.524 223.108 725.295 223.108C724.067 223.108 723.056 223.426 722.263 224.064C721.47 224.701 720.883 225.537 720.503 226.571C720.122 227.605 719.931 228.721 719.931 229.918C719.931 231.115 720.122 232.227 720.503 233.253C720.883 234.279 721.47 235.107 722.263 235.737C723.056 236.367 724.067 236.681 725.295 236.681ZM737.613 238.781V220.869H740.272V223.574H740.458C740.785 222.688 741.376 221.969 742.231 221.417C743.086 220.865 744.05 220.589 745.123 220.589C745.325 220.589 745.578 220.593 745.881 220.6C746.184 220.608 746.413 220.62 746.569 220.635V223.434C746.476 223.411 746.262 223.376 745.927 223.329C745.601 223.275 745.255 223.247 744.89 223.247C744.019 223.247 743.241 223.43 742.557 223.796C741.881 224.153 741.344 224.651 740.948 225.288C740.559 225.918 740.365 226.637 740.365 227.446V238.781H737.613ZM752.149 245.498C751.682 245.498 751.266 245.459 750.901 245.381C750.536 245.311 750.283 245.241 750.143 245.171L750.843 242.745C751.511 242.916 752.102 242.979 752.615 242.932C753.128 242.885 753.583 242.656 753.98 242.244C754.384 241.84 754.753 241.183 755.088 240.273L755.601 238.874L748.977 220.869H751.962L756.907 235.142H757.093L762.038 220.869H765.023L757.42 241.393C757.078 242.318 756.654 243.084 756.149 243.69C755.643 244.304 755.056 244.759 754.388 245.054C753.727 245.35 752.981 245.498 752.149 245.498ZM769.029 238.781V214.898H771.781V223.714H772.014C772.216 223.403 772.496 223.006 772.854 222.524C773.219 222.035 773.74 221.599 774.416 221.218C775.101 220.83 776.026 220.635 777.192 220.635C778.7 220.635 780.029 221.012 781.18 221.766C782.331 222.521 783.229 223.59 783.874 224.973C784.519 226.357 784.842 227.99 784.842 229.871C784.842 231.768 784.519 233.412 783.874 234.804C783.229 236.188 782.335 237.261 781.192 238.023C780.049 238.777 778.731 239.154 777.238 239.154C776.088 239.154 775.167 238.963 774.475 238.582C773.783 238.194 773.25 237.754 772.877 237.265C772.504 236.767 772.216 236.355 772.014 236.028H771.688V238.781H769.029ZM771.734 229.825C771.734 231.177 771.933 232.371 772.329 233.405C772.726 234.431 773.305 235.235 774.067 235.819C774.828 236.394 775.761 236.681 776.865 236.681C778.016 236.681 778.976 236.378 779.746 235.772C780.523 235.158 781.106 234.334 781.495 233.3C781.891 232.258 782.09 231.099 782.09 229.825C782.09 228.565 781.895 227.43 781.507 226.419C781.126 225.401 780.546 224.596 779.769 224.005C778.999 223.407 778.031 223.108 776.865 223.108C775.746 223.108 774.805 223.391 774.043 223.959C773.281 224.519 772.706 225.304 772.317 226.314C771.929 227.317 771.734 228.487 771.734 229.825ZM796.328 239.154C794.711 239.154 793.292 238.769 792.072 237.999C790.859 237.23 789.911 236.153 789.226 234.769C788.55 233.385 788.212 231.768 788.212 229.918C788.212 228.052 788.55 226.423 789.226 225.032C789.911 223.64 790.859 222.559 792.072 221.79C793.292 221.02 794.711 220.635 796.328 220.635C797.945 220.635 799.36 221.02 800.573 221.79C801.794 222.559 802.742 223.64 803.418 225.032C804.103 226.423 804.445 228.052 804.445 229.918C804.445 231.768 804.103 233.385 803.418 234.769C802.742 236.153 801.794 237.23 800.573 237.999C799.36 238.769 797.945 239.154 796.328 239.154ZM796.328 236.681C797.557 236.681 798.567 236.367 799.36 235.737C800.153 235.107 800.74 234.279 801.121 233.253C801.502 232.227 801.693 231.115 801.693 229.918C801.693 228.721 801.502 227.605 801.121 226.571C800.74 225.537 800.153 224.701 799.36 224.064C798.567 223.426 797.557 223.108 796.328 223.108C795.1 223.108 794.089 223.426 793.296 224.064C792.503 224.701 791.916 225.537 791.535 226.571C791.154 227.605 790.964 228.721 790.964 229.918C790.964 231.115 791.154 232.227 791.535 233.253C791.916 234.279 792.503 235.107 793.296 235.737C794.089 236.367 795.1 236.681 796.328 236.681ZM815.922 239.154C814.305 239.154 812.887 238.769 811.666 237.999C810.453 237.23 809.505 236.153 808.821 234.769C808.144 233.385 807.806 231.768 807.806 229.918C807.806 228.052 808.144 226.423 808.821 225.032C809.505 223.64 810.453 222.559 811.666 221.79C812.887 221.02 814.305 220.635 815.922 220.635C817.54 220.635 818.954 221.02 820.167 221.79C821.388 222.559 822.336 223.64 823.013 225.032C823.697 226.423 824.039 228.052 824.039 229.918C824.039 231.768 823.697 233.385 823.013 234.769C822.336 236.153 821.388 237.23 820.167 237.999C818.954 238.769 817.54 239.154 815.922 239.154ZM815.922 236.681C817.151 236.681 818.161 236.367 818.954 235.737C819.747 235.107 820.334 234.279 820.715 233.253C821.096 232.227 821.287 231.115 821.287 229.918C821.287 228.721 821.096 227.605 820.715 226.571C820.334 225.537 819.747 224.701 818.954 224.064C818.161 223.426 817.151 223.108 815.922 223.108C814.694 223.108 813.683 223.426 812.89 224.064C812.098 224.701 811.511 225.537 811.13 226.571C810.749 227.605 810.558 228.721 810.558 229.918C810.558 231.115 810.749 232.227 811.13 233.253C811.511 234.279 812.098 235.107 812.89 235.737C813.683 236.367 814.694 236.681 815.922 236.681ZM830.805 232.25L830.759 228.845H831.319L839.155 220.869H842.56L834.211 229.311H833.977L830.805 232.25ZM828.24 238.781V214.898H830.992V238.781H828.24ZM839.621 238.781L832.625 229.918L834.584 228.005L843.12 238.781H839.621Z" fill="#989898"/>
<path d="M93.867 73.2317H85.9401V51.786H93.8566C96.0416 51.786 97.923 52.2153 99.5007 53.074C101.085 53.9257 102.307 55.1544 103.166 56.76C104.024 58.3586 104.454 60.2714 104.454 62.4984C104.454 64.7323 104.024 66.6521 103.166 68.2577C102.314 69.8633 101.096 71.0955 99.5112 71.9542C97.9265 72.8058 96.0451 73.2317 93.867 73.2317ZM91.1235 68.8127H93.6681C94.8688 68.8127 95.8846 68.6103 96.7153 68.2054C97.553 67.7935 98.1848 67.1268 98.6106 66.2053C99.0435 65.2768 99.2599 64.0412 99.2599 62.4984C99.2599 60.9556 99.0435 59.7269 98.6106 58.8124C98.1778 57.8909 97.5391 57.2277 96.6944 56.8228C95.8566 56.4109 94.8234 56.205 93.5948 56.205H91.1235V68.8127ZM114.999 73.5354C113.316 73.5354 111.864 73.2038 110.642 72.5406C109.428 71.8704 108.492 70.9175 107.836 69.6818C107.187 68.4392 106.862 66.9627 106.862 65.2524C106.862 63.5909 107.19 62.1389 107.847 60.8962C108.503 59.6466 109.428 58.6763 110.621 57.9852C111.815 57.2871 113.222 56.938 114.842 56.938C115.986 56.938 117.034 57.116 117.983 57.472C118.932 57.8281 119.753 58.3551 120.444 59.0532C121.135 59.7514 121.672 60.6135 122.056 61.6397C122.44 62.6589 122.632 63.8283 122.632 65.1477V66.4252H108.653V63.4513H117.868C117.861 62.9068 117.732 62.4216 117.48 61.9957C117.229 61.5699 116.883 61.2383 116.444 61.001C116.011 60.7566 115.512 60.6344 114.946 60.6344C114.374 60.6344 113.861 60.7636 113.407 61.0219C112.953 61.2732 112.594 61.6188 112.328 62.0586C112.063 62.4914 111.923 62.9836 111.909 63.5351V66.5613C111.909 67.2175 112.039 67.7935 112.297 68.2891C112.555 68.7778 112.922 69.1583 113.396 69.4305C113.871 69.7028 114.437 69.8389 115.093 69.8389C115.547 69.8389 115.958 69.7761 116.328 69.6504C116.698 69.5248 117.016 69.3398 117.281 69.0954C117.547 68.8511 117.746 68.5509 117.878 68.1949L122.58 68.331C122.384 69.3852 121.955 70.3032 121.292 71.085C120.636 71.8599 119.774 72.4638 118.705 72.8966C117.637 73.3224 116.402 73.5354 114.999 73.5354ZM139.29 62.0586L134.588 62.1842C134.539 61.8491 134.407 61.5525 134.19 61.2942C133.974 61.0289 133.691 60.8229 133.342 60.6763C133 60.5228 132.602 60.446 132.148 60.446C131.555 60.446 131.049 60.5646 130.63 60.802C130.218 61.0393 130.016 61.3605 130.023 61.7654C130.016 62.0795 130.141 62.3518 130.4 62.5822C130.665 62.8125 131.136 62.9975 131.813 63.1371L134.913 63.7235C136.518 64.0307 137.712 64.5403 138.494 65.2524C139.283 65.9645 139.681 66.9069 139.688 68.0797C139.681 69.1827 139.353 70.1426 138.703 70.9594C138.061 71.7761 137.182 72.4114 136.065 72.8652C134.948 73.312 133.67 73.5354 132.232 73.5354C129.935 73.5354 128.124 73.0641 126.797 72.1217C125.478 71.1723 124.724 69.9017 124.536 68.3101L129.593 68.1844C129.705 68.7708 129.995 69.2176 130.462 69.5248C130.93 69.8319 131.527 69.9855 132.253 69.9855C132.909 69.9855 133.443 69.8633 133.855 69.619C134.267 69.3747 134.476 69.0501 134.483 68.6452C134.476 68.2822 134.316 67.9924 134.002 67.776C133.688 67.5526 133.195 67.3781 132.525 67.2525L129.719 66.7184C128.106 66.4252 126.906 65.8842 126.117 65.0953C125.328 64.2995 124.937 63.2872 124.944 62.0586C124.937 60.9835 125.223 60.0655 125.803 59.3046C126.382 58.5367 127.206 57.9502 128.274 57.5453C129.342 57.1405 130.602 56.938 132.054 56.938C134.232 56.938 135.949 57.3953 137.206 58.3098C138.463 59.2173 139.157 60.4669 139.29 62.0586ZM142.209 73.2317V57.1474H147.329V73.2317H142.209ZM144.774 55.273C144.055 55.273 143.437 55.0357 142.921 54.561C142.404 54.0793 142.146 53.4999 142.146 52.8227C142.146 52.1525 142.404 51.5801 142.921 51.1054C143.437 50.6237 144.055 50.3828 144.774 50.3828C145.5 50.3828 146.118 50.6237 146.628 51.1054C147.144 51.5801 147.403 52.1525 147.403 52.8227C147.403 53.4999 147.144 54.0793 146.628 54.561C146.118 55.0357 145.5 55.273 144.774 55.273ZM158.086 79.5984C156.557 79.5984 155.248 79.3855 154.159 78.9596C153.07 78.5338 152.215 77.9509 151.594 77.2109C150.973 76.4709 150.599 75.6332 150.473 74.6977L155.322 74.4254C155.413 74.7536 155.58 75.0398 155.824 75.2841C156.076 75.5284 156.4 75.7169 156.798 75.8496C157.203 75.9822 157.678 76.0485 158.222 76.0485C159.081 76.0485 159.79 75.8391 160.348 75.4202C160.914 75.0084 161.196 74.2858 161.196 73.2526V70.4253H161.018C160.816 70.921 160.509 71.3643 160.097 71.7552C159.685 72.1461 159.172 72.4533 158.557 72.6767C157.95 72.9001 157.252 73.0118 156.463 73.0118C155.29 73.0118 154.215 72.7395 153.238 72.195C152.268 71.6435 151.489 70.7918 150.903 69.64C150.323 68.4811 150.034 66.9907 150.034 65.1686C150.034 63.2907 150.334 61.7444 150.934 60.5297C151.535 59.3081 152.32 58.404 153.29 57.8176C154.268 57.2312 155.318 56.938 156.442 56.938C157.287 56.938 158.009 57.0846 158.61 57.3778C159.217 57.664 159.716 58.034 160.107 58.4878C160.498 58.9416 160.795 59.4128 160.997 59.9014H161.144V57.1474H166.244V73.2945C166.244 74.6558 165.902 75.8042 165.217 76.7396C164.533 77.6751 163.577 78.3837 162.348 78.8654C161.12 79.354 159.699 79.5984 158.086 79.5984ZM158.243 69.2839C158.865 69.2839 159.395 69.1199 159.835 68.7918C160.275 68.4637 160.613 67.9924 160.851 67.3781C161.088 66.7638 161.207 66.0273 161.207 65.1686C161.207 64.296 161.088 63.5455 160.851 62.9172C160.62 62.282 160.282 61.7933 159.835 61.4512C159.395 61.1092 158.865 60.9381 158.243 60.9381C157.608 60.9381 157.071 61.1126 156.631 61.4617C156.191 61.8107 155.856 62.3029 155.625 62.9382C155.402 63.5665 155.29 64.31 155.29 65.1686C155.29 66.0273 155.406 66.7638 155.636 67.3781C155.866 67.9924 156.198 68.4637 156.631 68.7918C157.071 69.1199 157.608 69.2839 158.243 69.2839ZM174.629 64.0586V73.2317H169.508V57.1474H174.377V60.1004H174.555C174.911 59.1161 175.519 58.3447 176.377 57.7862C177.236 57.2207 178.259 56.938 179.446 56.938C180.576 56.938 181.557 57.1928 182.388 57.7024C183.226 58.2051 183.875 58.9101 184.336 59.8177C184.803 60.7182 185.034 61.7724 185.027 62.9801V73.2317H179.906V63.9853C179.913 63.0918 179.686 62.3937 179.226 61.891C178.772 61.3884 178.14 61.1371 177.33 61.1371C176.793 61.1371 176.318 61.2558 175.906 61.4931C175.501 61.7235 175.187 62.0551 174.964 62.4879C174.747 62.9207 174.636 63.4443 174.629 64.0586ZM206.124 58.2155C206.055 57.4476 205.744 56.8507 205.192 56.4249C204.648 55.9921 203.87 55.7757 202.857 55.7757C202.187 55.7757 201.629 55.8629 201.182 56.0375C200.735 56.212 200.4 56.4528 200.177 56.76C199.953 57.0602 199.838 57.4057 199.831 57.7967C199.817 58.1178 199.88 58.4005 200.019 58.6449C200.166 58.8892 200.376 59.1056 200.648 59.2941C200.927 59.4756 201.262 59.6362 201.653 59.7758C202.044 59.9154 202.484 60.0376 202.972 60.1423L204.815 60.5611C205.877 60.7915 206.812 61.0987 207.622 61.4826C208.439 61.8666 209.123 62.3239 209.674 62.8544C210.233 63.385 210.655 63.9958 210.941 64.6869C211.227 65.378 211.374 66.1529 211.381 67.0116C211.374 68.3659 211.032 69.5283 210.355 70.4986C209.678 71.469 208.704 72.2125 207.433 72.7291C206.17 73.2457 204.644 73.5039 202.857 73.5039C201.063 73.5039 199.499 73.2352 198.166 72.6976C196.833 72.1601 195.796 71.3433 195.056 70.2473C194.316 69.1513 193.936 67.7656 193.915 66.0901H198.878C198.92 66.7812 199.105 67.3572 199.433 67.8179C199.761 68.2787 200.211 68.6277 200.784 68.8651C201.363 69.1024 202.033 69.2211 202.794 69.2211C203.493 69.2211 204.086 69.1269 204.575 68.9384C205.07 68.7499 205.451 68.4881 205.716 68.153C205.981 67.8179 206.117 67.434 206.124 67.0011C206.117 66.5962 205.992 66.2507 205.747 65.9645C205.503 65.6713 205.126 65.4199 204.616 65.2105C204.114 64.9941 203.472 64.7951 202.69 64.6136L200.449 64.0901C198.592 63.6642 197.129 62.9766 196.061 62.0272C194.993 61.0708 194.463 59.7793 194.47 58.1527C194.463 56.8263 194.819 55.664 195.538 54.6657C196.257 53.6674 197.252 52.889 198.522 52.3305C199.793 51.7721 201.241 51.4928 202.868 51.4928C204.529 51.4928 205.971 51.7755 207.192 52.341C208.421 52.8995 209.374 53.6848 210.051 54.6971C210.728 55.7093 211.074 56.8822 211.088 58.2155H206.124ZM217.13 79.2633C216.516 79.2633 215.936 79.2144 215.392 79.1167C214.847 79.0259 214.379 78.9038 213.988 78.7502L215.119 75.0328C215.622 75.2003 216.076 75.2981 216.481 75.326C216.893 75.3539 217.245 75.2876 217.538 75.127C217.839 74.9735 218.069 74.6977 218.229 74.2998L218.428 73.8181L212.711 57.1474H218.072L221.036 68.6242H221.203L224.209 57.1474H229.602L223.539 74.771C223.245 75.6506 222.83 76.4255 222.292 77.0957C221.762 77.7728 221.074 78.3034 220.23 78.6874C219.392 79.0713 218.359 79.2633 217.13 79.2633ZM245.607 62.0586L240.906 62.1842C240.857 61.8491 240.724 61.5525 240.508 61.2942C240.291 61.0289 240.008 60.8229 239.659 60.6763C239.317 60.5228 238.919 60.446 238.466 60.446C237.872 60.446 237.366 60.5646 236.947 60.802C236.535 61.0393 236.333 61.3605 236.34 61.7654C236.333 62.0795 236.459 62.3518 236.717 62.5822C236.982 62.8125 237.453 62.9975 238.131 63.1371L241.23 63.7235C242.836 64.0307 244.03 64.5403 244.811 65.2524C245.6 65.9645 245.998 66.9069 246.005 68.0797C245.998 69.1827 245.67 70.1426 245.021 70.9594C244.379 71.7761 243.499 72.4114 242.382 72.8652C241.265 73.312 239.988 73.5354 238.549 73.5354C236.253 73.5354 234.441 73.0641 233.115 72.1217C231.795 71.1723 231.041 69.9017 230.853 68.3101L235.911 68.1844C236.022 68.7708 236.312 69.2176 236.78 69.5248C237.247 69.8319 237.844 69.9855 238.57 69.9855C239.227 69.9855 239.761 69.8633 240.173 69.619C240.584 69.3747 240.794 69.0501 240.801 68.6452C240.794 68.2822 240.633 67.9924 240.319 67.776C240.005 67.5526 239.513 67.3781 238.843 67.2525L236.036 66.7184C234.424 66.4252 233.223 65.8842 232.434 65.0953C231.645 64.2995 231.254 63.2872 231.261 62.0586C231.254 60.9835 231.541 60.0655 232.12 59.3046C232.699 58.5367 233.523 57.9502 234.591 57.5453C235.659 57.1405 236.919 56.938 238.371 56.938C240.55 56.938 242.267 57.3953 243.523 58.3098C244.78 59.2173 245.475 60.4669 245.607 62.0586ZM257.605 57.1474V60.9172H247.458V57.1474H257.605ZM249.584 53.2939H254.704V68.1739C254.704 68.4881 254.753 68.7429 254.851 68.9384C254.956 69.1269 255.106 69.263 255.301 69.3468C255.497 69.4235 255.731 69.4619 256.003 69.4619C256.198 69.4619 256.404 69.4445 256.621 69.4096C256.844 69.3677 257.012 69.3328 257.123 69.3049L257.898 73.0013C257.654 73.0711 257.308 73.1584 256.862 73.2631C256.422 73.3678 255.895 73.4341 255.28 73.4621C254.08 73.5179 253.05 73.3783 252.191 73.0432C251.34 72.7011 250.687 72.1706 250.233 71.4515C249.786 70.7325 249.57 69.8284 249.584 68.7394V53.2939ZM267.563 73.5354C265.881 73.5354 264.429 73.2038 263.207 72.5406C261.993 71.8704 261.057 70.9175 260.401 69.6818C259.752 68.4392 259.427 66.9627 259.427 65.2524C259.427 63.5909 259.755 62.1389 260.411 60.8962C261.068 59.6466 261.993 58.6763 263.186 57.9852C264.38 57.2871 265.787 56.938 267.406 56.938C268.551 56.938 269.598 57.116 270.548 57.472C271.497 57.8281 272.317 58.3551 273.009 59.0532C273.7 59.7514 274.237 60.6135 274.621 61.6397C275.005 62.6589 275.197 63.8283 275.197 65.1477V66.4252H261.218V63.4513H270.433C270.426 62.9068 270.296 62.4216 270.045 61.9957C269.794 61.5699 269.448 61.2383 269.008 61.001C268.576 60.7566 268.077 60.6344 267.511 60.6344C266.939 60.6344 266.426 60.7636 265.972 61.0219C265.518 61.2732 265.158 61.6188 264.893 62.0586C264.628 62.4914 264.488 62.9836 264.474 63.5351V66.5613C264.474 67.2175 264.603 67.7935 264.862 68.2891C265.12 68.7778 265.487 69.1583 265.961 69.4305C266.436 69.7028 267.001 69.8389 267.658 69.8389C268.111 69.8389 268.523 69.7761 268.893 69.6504C269.263 69.5248 269.581 69.3398 269.846 69.0954C270.111 68.8511 270.31 68.5509 270.443 68.1949L275.145 68.331C274.949 69.3852 274.52 70.3032 273.857 71.085C273.201 71.8599 272.338 72.4638 271.27 72.8966C270.202 73.3224 268.967 73.5354 267.563 73.5354ZM277.812 73.2317V57.1474H282.682V60.1004H282.86C283.195 59.1231 283.76 58.3517 284.556 57.7862C285.352 57.2207 286.301 56.938 287.404 56.938C288.521 56.938 289.478 57.2242 290.274 57.7967C291.069 58.3691 291.575 59.137 291.792 60.1004H291.959C292.26 59.144 292.846 58.3796 293.719 57.8071C294.591 57.2277 295.621 56.938 296.808 56.938C298.33 56.938 299.565 57.4267 300.515 58.404C301.464 59.3744 301.939 60.7077 301.939 62.4041V73.2317H296.818V63.5769C296.818 62.7741 296.612 62.1633 296.2 61.7444C295.789 61.3186 295.254 61.1057 294.598 61.1057C293.893 61.1057 293.338 61.336 292.933 61.7968C292.535 62.2506 292.336 62.8614 292.336 63.6293V73.2317H287.415V63.5246C287.415 62.7776 287.212 62.1877 286.807 61.7549C286.403 61.3221 285.868 61.1057 285.205 61.1057C284.759 61.1057 284.364 61.2139 284.022 61.4303C283.68 61.6397 283.411 61.9399 283.216 62.3308C283.027 62.7218 282.933 63.1825 282.933 63.7131V73.2317H277.812ZM323.039 58.2155C322.969 57.4476 322.658 56.8507 322.107 56.4249C321.562 55.9921 320.784 55.7757 319.772 55.7757C319.102 55.7757 318.543 55.8629 318.096 56.0375C317.65 56.212 317.314 56.4528 317.091 56.76C316.868 57.0602 316.753 57.4057 316.746 57.7967C316.732 58.1178 316.794 58.4005 316.934 58.6449C317.081 58.8892 317.29 59.1056 317.562 59.2941C317.842 59.4756 318.177 59.6362 318.568 59.7758C318.959 59.9154 319.398 60.0376 319.887 60.1423L321.73 60.5611C322.791 60.7915 323.727 61.0987 324.536 61.4826C325.353 61.8666 326.037 62.3239 326.589 62.8544C327.147 63.385 327.57 63.9958 327.856 64.6869C328.142 65.378 328.289 66.1529 328.296 67.0116C328.289 68.3659 327.947 69.5283 327.269 70.4986C326.592 71.469 325.618 72.2125 324.348 72.7291C323.084 73.2457 321.559 73.5039 319.772 73.5039C317.978 73.5039 316.414 73.2352 315.081 72.6976C313.747 72.1601 312.711 71.3433 311.971 70.2473C311.231 69.1513 310.85 67.7656 310.829 66.0901H315.793C315.835 66.7812 316.02 67.3572 316.348 67.8179C316.676 68.2787 317.126 68.6277 317.698 68.8651C318.278 69.1024 318.948 69.2211 319.709 69.2211C320.407 69.2211 321 69.1269 321.489 68.9384C321.985 68.7499 322.365 68.4881 322.631 68.153C322.896 67.8179 323.032 67.434 323.039 67.0011C323.032 66.5962 322.906 66.2507 322.662 65.9645C322.418 65.6713 322.041 65.4199 321.531 65.2105C321.028 64.9941 320.386 64.7951 319.604 64.6136L317.363 64.0901C315.506 63.6642 314.044 62.9766 312.976 62.0272C311.908 61.0708 311.377 59.7793 311.384 58.1527C311.377 56.8263 311.733 55.664 312.452 54.6657C313.171 53.6674 314.166 52.889 315.437 52.3305C316.707 51.7721 318.156 51.4928 319.782 51.4928C321.444 51.4928 322.885 51.7755 324.107 52.341C325.336 52.8995 326.289 53.6848 326.966 54.6971C327.643 55.7093 327.988 56.8822 328.002 58.2155H323.039ZM335.531 69.0117L335.552 62.9068H336.264L340.788 57.1474H346.589L339.867 65.399H338.516L335.531 69.0117ZM330.913 73.2317V51.786H336.034V73.2317H330.913ZM340.903 73.2317L336.694 66.5509L340.066 62.9172L346.82 73.2317H340.903ZM348.422 73.2317V57.1474H353.542V73.2317H348.422ZM350.987 55.273C350.268 55.273 349.651 55.0357 349.134 54.561C348.617 54.0793 348.359 53.4999 348.359 52.8227C348.359 52.1525 348.617 51.5801 349.134 51.1054C349.651 50.6237 350.268 50.3828 350.987 50.3828C351.713 50.3828 352.331 50.6237 352.841 51.1054C353.357 51.5801 353.616 52.1525 353.616 52.8227C353.616 53.4999 353.357 54.0793 352.841 54.561C352.331 55.0357 351.713 55.273 350.987 55.273ZM361.922 51.786V73.2317H356.802V51.786H361.922ZM370.302 51.786V73.2317H365.182V51.786H370.302ZM387.604 62.0586L382.902 62.1842C382.853 61.8491 382.72 61.5525 382.504 61.2942C382.288 61.0289 382.005 60.8229 381.656 60.6763C381.314 60.5228 380.916 60.446 380.462 60.446C379.869 60.446 379.363 60.5646 378.944 60.802C378.532 61.0393 378.329 61.3605 378.336 61.7654C378.329 62.0795 378.455 62.3518 378.713 62.5822C378.979 62.8125 379.45 62.9975 380.127 63.1371L383.227 63.7235C384.832 64.0307 386.026 64.5403 386.808 65.2524C387.597 65.9645 387.995 66.9069 388.002 68.0797C387.995 69.1827 387.667 70.1426 387.017 70.9594C386.375 71.7761 385.495 72.4114 384.378 72.8652C383.261 73.312 381.984 73.5354 380.546 73.5354C378.249 73.5354 376.438 73.0641 375.111 72.1217C373.792 71.1723 373.038 69.9017 372.849 68.3101L377.907 68.1844C378.019 68.7708 378.308 69.2176 378.776 69.5248C379.244 69.8319 379.841 69.9855 380.567 69.9855C381.223 69.9855 381.757 69.8633 382.169 69.619C382.581 69.3747 382.79 69.0501 382.797 68.6452C382.79 68.2822 382.63 67.9924 382.316 67.776C382.001 67.5526 381.509 67.3781 380.839 67.2525L378.033 66.7184C376.42 66.4252 375.219 65.8842 374.431 65.0953C373.642 64.2995 373.251 63.2872 373.258 62.0586C373.251 60.9835 373.537 60.0655 374.116 59.3046C374.696 58.5367 375.52 57.9502 376.588 57.5453C377.656 57.1405 378.916 56.938 380.368 56.938C382.546 56.938 384.263 57.3953 385.52 58.3098C386.776 59.2173 387.471 60.4669 387.604 62.0586Z" fill="white"/>
<path d="M85.8877 104.146V89.8492H87.9751V95.1617H88.1007C88.2217 94.9383 88.3963 94.68 88.6243 94.3868C88.8523 94.0936 89.1688 93.8377 89.5737 93.6189C89.9786 93.3955 90.5138 93.2838 91.1794 93.2838C92.045 93.2838 92.8176 93.5026 93.4971 93.9401C94.1765 94.3775 94.7094 95.0082 95.0957 95.8319C95.4866 96.6557 95.6821 97.647 95.6821 98.8058C95.6821 99.9647 95.489 100.958 95.1027 101.787C94.7164 102.61 94.1858 103.246 93.511 103.693C92.8362 104.135 92.0659 104.356 91.2003 104.356C90.5487 104.356 90.0159 104.246 89.6016 104.028C89.1921 103.809 88.871 103.553 88.6383 103.26C88.4056 102.967 88.2264 102.706 88.1007 102.478H87.9262V104.146H85.8877ZM87.9332 98.7849C87.9332 99.5388 88.0426 100.2 88.2613 100.767C88.48 101.335 88.7965 101.78 89.2107 102.101C89.6249 102.417 90.1322 102.576 90.7326 102.576C91.3562 102.576 91.8775 102.41 92.2963 102.08C92.7152 101.745 93.0316 101.291 93.2457 100.719C93.4645 100.146 93.5738 99.5016 93.5738 98.7849C93.5738 98.0775 93.4668 97.4422 93.2527 96.8791C93.0433 96.3159 92.7268 95.8715 92.3033 95.5457C91.8844 95.2199 91.3609 95.057 90.7326 95.057C90.1275 95.057 89.6156 95.2129 89.1967 95.5247C88.7825 95.8366 88.4684 96.2717 88.2543 96.8302C88.0402 97.3887 87.9332 98.0402 87.9332 98.7849ZM98.9806 108.167C98.6688 108.167 98.3849 108.142 98.129 108.091C97.873 108.044 97.6822 107.993 97.5565 107.937L98.0591 106.227C98.4408 106.329 98.7805 106.373 99.0784 106.359C99.3762 106.345 99.6392 106.234 99.8672 106.024C100.1 105.815 100.305 105.473 100.482 104.998L100.74 104.286L96.8165 93.4235H99.0504L101.766 101.745H101.878L104.593 93.4235H106.834L102.415 105.577C102.211 106.136 101.95 106.608 101.633 106.995C101.317 107.385 100.94 107.679 100.502 107.874C100.065 108.07 99.5577 108.167 98.9806 108.167ZM123.842 94.3659C123.707 93.9424 123.525 93.5631 123.297 93.228C123.074 92.8883 122.806 92.5997 122.494 92.3623C122.183 92.1203 121.827 91.9365 121.426 91.8108C121.031 91.6852 120.596 91.6224 120.121 91.6224C119.316 91.6224 118.59 91.8295 117.943 92.2437C117.296 92.6579 116.784 93.2652 116.407 94.0657C116.035 94.8616 115.849 95.8366 115.849 96.9908C115.849 98.1496 116.037 99.1293 116.414 99.9298C116.791 100.73 117.308 101.338 117.964 101.752C118.62 102.166 119.367 102.373 120.205 102.373C120.982 102.373 121.659 102.215 122.236 101.898C122.818 101.582 123.267 101.135 123.583 100.558C123.905 99.9763 124.065 99.2922 124.065 98.5056L124.624 98.6104H120.533V96.8302H126.152V98.4568C126.152 99.6575 125.897 100.7 125.385 101.584C124.877 102.464 124.175 103.143 123.276 103.623C122.383 104.102 121.359 104.342 120.205 104.342C118.911 104.342 117.775 104.044 116.798 103.448C115.825 102.852 115.067 102.008 114.522 100.914C113.978 99.8157 113.705 98.5126 113.705 97.0047C113.705 95.8645 113.864 94.8406 114.18 93.9331C114.497 93.0255 114.941 92.2553 115.513 91.6224C116.091 90.9848 116.768 90.4984 117.545 90.1633C118.327 89.8236 119.181 89.6537 120.107 89.6537C120.879 89.6537 121.599 89.7677 122.264 89.9958C122.934 90.2238 123.53 90.5473 124.051 90.9661C124.577 91.385 125.012 91.883 125.357 92.4601C125.701 93.0325 125.934 93.6678 126.055 94.3659H123.842ZM135.516 99.6994V93.4235H137.61V104.146H135.558V102.289H135.446C135.199 102.862 134.804 103.339 134.259 103.72C133.719 104.097 133.047 104.286 132.242 104.286C131.553 104.286 130.943 104.135 130.413 103.832C129.887 103.525 129.473 103.071 129.17 102.471C128.872 101.87 128.723 101.128 128.723 100.244V93.4235H130.811V99.9926C130.811 100.723 131.013 101.305 131.418 101.738C131.823 102.171 132.349 102.387 132.996 102.387C133.387 102.387 133.775 102.289 134.161 102.094C134.552 101.898 134.876 101.603 135.132 101.207C135.392 100.812 135.52 100.309 135.516 99.6994ZM148.45 96.0413L146.558 96.3764C146.479 96.1344 146.353 95.904 146.181 95.6853C146.013 95.4666 145.785 95.2874 145.497 95.1478C145.208 95.0082 144.848 94.9383 144.415 94.9383C143.824 94.9383 143.33 95.071 142.935 95.3363C142.539 95.5969 142.341 95.9343 142.341 96.3485C142.341 96.7069 142.474 96.9954 142.739 97.2142C143.005 97.4329 143.433 97.6121 144.024 97.7517L145.727 98.1426C146.714 98.3707 147.449 98.7221 147.933 99.1968C148.417 99.6715 148.659 100.288 148.659 101.047C148.659 101.689 148.473 102.261 148.101 102.764C147.733 103.262 147.219 103.653 146.558 103.937C145.902 104.221 145.141 104.363 144.275 104.363C143.074 104.363 142.095 104.107 141.336 103.595C140.578 103.078 140.112 102.345 139.94 101.396L141.958 101.089C142.083 101.615 142.341 102.012 142.732 102.282C143.123 102.548 143.633 102.68 144.261 102.68C144.945 102.68 145.492 102.538 145.902 102.254C146.311 101.966 146.516 101.615 146.516 101.2C146.516 100.865 146.39 100.584 146.139 100.356C145.892 100.128 145.513 99.9554 145.001 99.839L143.186 99.4411C142.186 99.2131 141.446 98.85 140.966 98.3521C140.491 97.8541 140.254 97.2235 140.254 96.4602C140.254 95.8273 140.431 95.2734 140.785 94.7987C141.138 94.324 141.627 93.954 142.251 93.6887C142.874 93.4188 143.589 93.2838 144.394 93.2838C145.553 93.2838 146.465 93.5352 147.13 94.0378C147.796 94.5358 148.236 95.2036 148.45 96.0413ZM155.96 93.4235V95.0989H150.103V93.4235H155.96ZM151.673 90.8544H153.761V100.998C153.761 101.403 153.821 101.708 153.942 101.912C154.063 102.112 154.219 102.25 154.41 102.324C154.605 102.394 154.817 102.429 155.045 102.429C155.213 102.429 155.359 102.417 155.485 102.394C155.611 102.371 155.708 102.352 155.778 102.338L156.155 104.063C156.034 104.109 155.862 104.156 155.639 104.202C155.415 104.253 155.136 104.281 154.801 104.286C154.252 104.295 153.74 104.197 153.265 103.993C152.79 103.788 152.406 103.471 152.113 103.043C151.82 102.615 151.673 102.078 151.673 101.431V90.8544ZM161.389 104.384C160.71 104.384 160.095 104.258 159.546 104.007C158.997 103.751 158.562 103.381 158.241 102.897C157.924 102.413 157.766 101.819 157.766 101.117C157.766 100.512 157.882 100.014 158.115 99.6226C158.348 99.2317 158.662 98.9222 159.058 98.6941C159.453 98.4661 159.895 98.2939 160.384 98.1775C160.873 98.0612 161.371 97.9728 161.878 97.9123C162.52 97.8378 163.041 97.7773 163.442 97.7307C163.842 97.6796 164.133 97.5981 164.314 97.4864C164.496 97.3747 164.586 97.1932 164.586 96.9419V96.893C164.586 96.2834 164.414 95.811 164.07 95.4759C163.73 95.1408 163.223 94.9732 162.548 94.9732C161.845 94.9732 161.291 95.1292 160.887 95.441C160.486 95.7481 160.209 96.0902 160.056 96.4672L158.094 96.0204C158.327 95.3688 158.667 94.8429 159.113 94.4427C159.565 94.0378 160.084 93.7446 160.67 93.5631C161.257 93.3769 161.873 93.2838 162.52 93.2838C162.948 93.2838 163.402 93.335 163.881 93.4374C164.365 93.5352 164.817 93.7167 165.236 93.9819C165.659 94.2472 166.006 94.6265 166.276 95.1198C166.546 95.6085 166.681 96.2438 166.681 97.0257V104.146H164.642V102.68H164.559C164.424 102.95 164.221 103.215 163.951 103.476C163.681 103.737 163.335 103.953 162.911 104.125C162.488 104.298 161.98 104.384 161.389 104.384ZM161.843 102.708C162.42 102.708 162.913 102.594 163.323 102.366C163.737 102.138 164.051 101.84 164.265 101.473C164.484 101.1 164.593 100.702 164.593 100.279V98.8966C164.519 98.971 164.375 99.0409 164.161 99.106C163.951 99.1665 163.712 99.22 163.442 99.2666C163.172 99.3085 162.909 99.348 162.653 99.3852C162.397 99.4178 162.183 99.4458 162.01 99.469C161.606 99.5202 161.236 99.6063 160.9 99.7273C160.57 99.8483 160.305 100.023 160.105 100.251C159.909 100.474 159.811 100.772 159.811 101.144C159.811 101.661 160.002 102.052 160.384 102.317C160.766 102.578 161.252 102.708 161.843 102.708ZM178.25 93.4235L174.362 104.146H172.128L168.232 93.4235H170.473L173.189 101.675H173.301L176.009 93.4235H178.25ZM184.364 104.363C183.358 104.363 182.481 104.132 181.732 103.672C180.983 103.211 180.401 102.566 179.987 101.738C179.572 100.909 179.365 99.9414 179.365 98.8337C179.365 97.7214 179.572 96.7488 179.987 95.9157C180.401 95.0826 180.983 94.4357 181.732 93.975C182.481 93.5142 183.358 93.2838 184.364 93.2838C185.369 93.2838 186.246 93.5142 186.996 93.975C187.745 94.4357 188.327 95.0826 188.741 95.9157C189.155 96.7488 189.362 97.7214 189.362 98.8337C189.362 99.9414 189.155 100.909 188.741 101.738C188.327 102.566 187.745 103.211 186.996 103.672C186.246 104.132 185.369 104.363 184.364 104.363ZM184.371 102.61C185.022 102.61 185.562 102.438 185.99 102.094C186.418 101.749 186.735 101.291 186.94 100.719C187.149 100.146 187.254 99.5156 187.254 98.8268C187.254 98.1426 187.149 97.5143 186.94 96.9419C186.735 96.3648 186.418 95.9017 185.99 95.5527C185.562 95.2036 185.022 95.0291 184.371 95.0291C183.714 95.0291 183.17 95.2036 182.737 95.5527C182.309 95.9017 181.99 96.3648 181.781 96.9419C181.576 97.5143 181.474 98.1426 181.474 98.8268C181.474 99.5156 181.576 100.146 181.781 100.719C181.99 101.291 182.309 101.749 182.737 102.094C183.17 102.438 183.714 102.61 184.371 102.61ZM208.937 94.4985H206.759C206.675 94.0331 206.519 93.6236 206.291 93.2699C206.063 92.9162 205.784 92.616 205.453 92.3693C205.123 92.1227 204.753 91.9365 204.343 91.8108C203.938 91.6852 203.508 91.6224 203.052 91.6224C202.228 91.6224 201.49 91.8295 200.839 92.2437C200.192 92.6579 199.68 93.2652 199.303 94.0657C198.931 94.8662 198.745 95.8435 198.745 96.9977C198.745 98.1612 198.931 99.1432 199.303 99.9437C199.68 100.744 200.194 101.349 200.846 101.759C201.497 102.168 202.23 102.373 203.045 102.373C203.496 102.373 203.924 102.313 204.329 102.192C204.739 102.066 205.109 101.882 205.439 101.64C205.77 101.398 206.049 101.103 206.277 100.754C206.51 100.4 206.67 99.9949 206.759 99.5388L208.937 99.5458C208.821 100.249 208.595 100.895 208.26 101.487C207.929 102.073 207.503 102.58 206.982 103.008C206.466 103.432 205.875 103.76 205.209 103.993C204.543 104.225 203.817 104.342 203.031 104.342C201.793 104.342 200.69 104.049 199.722 103.462C198.754 102.871 197.991 102.026 197.432 100.928C196.878 99.8297 196.601 98.5196 196.601 96.9977C196.601 95.4712 196.881 94.1611 197.439 93.0674C197.998 91.9691 198.761 91.1267 199.729 90.5403C200.697 89.9492 201.798 89.6537 203.031 89.6537C203.79 89.6537 204.497 89.7631 205.153 89.9818C205.814 90.1959 206.407 90.5124 206.933 90.9312C207.459 91.3454 207.894 91.8527 208.239 92.4531C208.583 93.0488 208.816 93.7306 208.937 94.4985ZM214.471 104.384C213.792 104.384 213.177 104.258 212.628 104.007C212.079 103.751 211.644 103.381 211.323 102.897C211.006 102.413 210.848 101.819 210.848 101.117C210.848 100.512 210.964 100.014 211.197 99.6226C211.43 99.2317 211.744 98.9222 212.139 98.6941C212.535 98.4661 212.977 98.2939 213.466 98.1775C213.954 98.0612 214.452 97.9728 214.96 97.9123C215.602 97.8378 216.123 97.7773 216.523 97.7307C216.924 97.6796 217.215 97.5981 217.396 97.4864C217.578 97.3747 217.668 97.1932 217.668 96.9419V96.893C217.668 96.2834 217.496 95.811 217.152 95.4759C216.812 95.1408 216.305 94.9732 215.63 94.9732C214.927 94.9732 214.373 95.1292 213.968 95.441C213.568 95.7481 213.291 96.0902 213.138 96.4672L211.176 96.0204C211.409 95.3688 211.748 94.8429 212.195 94.4427C212.647 94.0378 213.166 93.7446 213.752 93.5631C214.338 93.3769 214.955 93.2838 215.602 93.2838C216.03 93.2838 216.484 93.335 216.963 93.4374C217.447 93.5352 217.899 93.7167 218.318 93.9819C218.741 94.2472 219.088 94.6265 219.358 95.1198C219.628 95.6085 219.763 96.2438 219.763 97.0257V104.146H217.724V102.68H217.64C217.505 102.95 217.303 103.215 217.033 103.476C216.763 103.737 216.416 103.953 215.993 104.125C215.569 104.298 215.062 104.384 214.471 104.384ZM214.925 102.708C215.502 102.708 215.995 102.594 216.405 102.366C216.819 102.138 217.133 101.84 217.347 101.473C217.566 101.1 217.675 100.702 217.675 100.279V98.8966C217.601 98.971 217.457 99.0409 217.243 99.106C217.033 99.1665 216.793 99.22 216.523 99.2666C216.254 99.3085 215.991 99.348 215.735 99.3852C215.479 99.4178 215.265 99.4458 215.092 99.469C214.687 99.5202 214.317 99.6063 213.982 99.7273C213.652 99.8483 213.387 100.023 213.187 100.251C212.991 100.474 212.893 100.772 212.893 101.144C212.893 101.661 213.084 102.052 213.466 102.317C213.847 102.578 214.334 102.708 214.925 102.708ZM222.71 104.146V89.8492H224.798V95.1617H224.923C225.044 94.9383 225.219 94.68 225.447 94.3868C225.675 94.0936 225.991 93.8377 226.396 93.6189C226.801 93.3955 227.336 93.2838 228.002 93.2838C228.868 93.2838 229.64 93.5026 230.32 93.9401C230.999 94.3775 231.532 95.0082 231.918 95.8319C232.309 96.6557 232.505 97.647 232.505 98.8058C232.505 99.9647 232.312 100.958 231.925 101.787C231.539 102.61 231.008 103.246 230.334 103.693C229.659 104.135 228.889 104.356 228.023 104.356C227.371 104.356 226.838 104.246 226.424 104.028C226.015 103.809 225.694 103.553 225.461 103.26C225.228 102.967 225.049 102.706 224.923 102.478H224.749V104.146H222.71ZM224.756 98.7849C224.756 99.5388 224.865 100.2 225.084 100.767C225.303 101.335 225.619 101.78 226.033 102.101C226.448 102.417 226.955 102.576 227.555 102.576C228.179 102.576 228.7 102.41 229.119 102.08C229.538 101.745 229.854 101.291 230.068 100.719C230.287 100.146 230.396 99.5016 230.396 98.7849C230.396 98.0775 230.289 97.4422 230.075 96.8791C229.866 96.3159 229.549 95.8715 229.126 95.5457C228.707 95.2199 228.184 95.057 227.555 95.057C226.95 95.057 226.438 95.2129 226.019 95.5247C225.605 95.8366 225.291 96.2717 225.077 96.8302C224.863 97.3887 224.756 98.0402 224.756 98.7849ZM234.849 104.146V93.4235H236.866V95.1268H236.978C237.173 94.5497 237.518 94.096 238.011 93.7655C238.509 93.4304 239.072 93.2629 239.7 93.2629C239.831 93.2629 239.984 93.2676 240.161 93.2769C240.343 93.2862 240.485 93.2978 240.587 93.3118V95.3083C240.503 95.2851 240.354 95.2595 240.14 95.2315C239.926 95.199 239.712 95.1827 239.498 95.1827C239.005 95.1827 238.565 95.2874 238.179 95.4968C237.797 95.7016 237.494 95.9878 237.271 96.3555C237.048 96.7185 236.936 97.1327 236.936 97.5981V104.146H234.849ZM245.418 104.384C244.738 104.384 244.124 104.258 243.575 104.007C243.026 103.751 242.591 103.381 242.269 102.897C241.953 102.413 241.795 101.819 241.795 101.117C241.795 100.512 241.911 100.014 242.144 99.6226C242.376 99.2317 242.691 98.9222 243.086 98.6941C243.482 98.4661 243.924 98.2939 244.413 98.1775C244.901 98.0612 245.399 97.9728 245.907 97.9123C246.549 97.8378 247.07 97.7773 247.47 97.7307C247.871 97.6796 248.161 97.5981 248.343 97.4864C248.524 97.3747 248.615 97.1932 248.615 96.9419V96.893C248.615 96.2834 248.443 95.811 248.099 95.4759C247.759 95.1408 247.252 94.9732 246.577 94.9732C245.874 94.9732 245.32 95.1292 244.915 95.441C244.515 95.7481 244.238 96.0902 244.085 96.4672L242.123 96.0204C242.356 95.3688 242.695 94.8429 243.142 94.4427C243.594 94.0378 244.112 93.7446 244.699 93.5631C245.285 93.3769 245.902 93.2838 246.549 93.2838C246.977 93.2838 247.431 93.335 247.91 93.4374C248.394 93.5352 248.846 93.7167 249.264 93.9819C249.688 94.2472 250.035 94.6265 250.305 95.1198C250.575 95.6085 250.71 96.2438 250.71 97.0257V104.146H248.671V102.68H248.587C248.452 102.95 248.25 103.215 247.98 103.476C247.71 103.737 247.363 103.953 246.94 104.125C246.516 104.298 246.009 104.384 245.418 104.384ZM245.872 102.708C246.449 102.708 246.942 102.594 247.352 102.366C247.766 102.138 248.08 101.84 248.294 101.473C248.513 101.1 248.622 100.702 248.622 100.279V98.8966C248.548 98.971 248.403 99.0409 248.189 99.106C247.98 99.1665 247.74 99.22 247.47 99.2666C247.2 99.3085 246.937 99.348 246.681 99.3852C246.425 99.4178 246.211 99.4458 246.039 99.469C245.634 99.5202 245.264 99.6063 244.929 99.7273C244.599 99.8483 244.334 100.023 244.133 100.251C243.938 100.474 243.84 100.772 243.84 101.144C243.84 101.661 244.031 102.052 244.413 102.317C244.794 102.578 245.281 102.708 245.872 102.708ZM255.577 89.8492V104.146H253.49V89.8492H255.577Z" fill="white" fill-opacity="0.7"/>
</g>
<defs>
<clipPath id="clip0_2_7">
<rect x="0.768311" width="1656.23" height="403" rx="19.6585" fill="white"/>
</clipPath>
<clipPath id="clip1_2_7">
<rect width="147.439" height="68.8049" fill="white" transform="translate(69.5731 319.451)"/>
</clipPath>
</defs>
</svg>
